<svg width="122" height="122" viewBox="0 0 122 122" fill="none" xmlns="http://www.w3.org/2000/svg">
<path d="M2.38281 122H91.0234C92.3392 122 93.4062 120.933 93.4062 119.617L93.4065 75.2969C93.4065 74.665 93.1553 74.0588 92.7086 73.612C92.2615 73.1652 91.6556 72.9141 91.0237 72.9141H78.3945V68.1484C78.3945 62.8929 74.1188 58.6172 68.8633 58.6172C63.6077 58.6172 59.332 62.8929 59.332 68.1484V72.9141H49.0859V60.2852C49.0859 58.9691 48.0189 57.9023 46.7031 57.9023H38.8398C36.2121 57.9023 34.0742 55.7645 34.0742 53.1367C34.0742 50.509 36.2121 48.3711 38.8398 48.3711H46.7031C48.0189 48.3711 49.0859 47.3043 49.0859 45.9883V30.9766C49.0859 29.6605 48.0189 28.5938 46.7031 28.5938H34.0742V23.8281C34.0742 18.5726 29.7985 14.2969 24.543 14.2969C19.2874 14.2969 15.0117 18.5726 15.0117 23.8281V28.5938H2.38281C1.06702 28.5938 0 29.6605 0 30.9766V119.617C0 120.933 1.06702 122 2.38281 122ZM49.0859 77.6797H61.7148C63.0306 77.6797 64.0976 76.6129 64.0976 75.2969V68.1484C64.0976 65.5207 66.2355 63.3828 68.8633 63.3828C71.491 63.3828 73.6289 65.5207 73.6289 68.1484V75.2969C73.6289 76.6129 74.6959 77.6797 76.0117 77.6797H88.6409L88.6406 117.234H49.0859V106.988H54.5664C59.8219 106.988 64.0976 102.713 64.0976 97.457C64.0976 92.2015 59.8219 87.9258 54.5664 87.9258H49.0859V77.6797ZM4.76562 33.3594H17.3945C18.7103 33.3594 19.7773 32.2926 19.7773 30.9766V23.8281C19.7773 21.2004 21.9152 19.0625 24.543 19.0625C27.1707 19.0625 29.3086 21.2004 29.3086 23.8281V30.9766C29.3086 32.2926 30.3756 33.3594 31.6914 33.3594H44.3203V43.6055H38.8398C33.5843 43.6055 29.3086 47.8812 29.3086 53.1367C29.3086 58.3923 33.5843 62.668 38.8398 62.668H44.3203V72.9141H4.76562V33.3594ZM4.76562 77.6797H44.3203V90.3086C44.3203 91.6246 45.3873 92.6914 46.7031 92.6914H54.5664C57.1942 92.6914 59.332 94.8293 59.332 97.457C59.332 100.085 57.1942 102.223 54.5664 102.223H46.7031C45.3873 102.223 44.3203 103.289 44.3203 104.605V117.234H4.76562V77.6797Z" fill="#4D7EDD"/>
<path d="M119.617 0H75.2969C73.9811 0 72.9141 1.06679 72.9141 2.38281V15.0117H68.1484C62.8929 15.0117 58.6172 19.2874 58.6172 24.543C58.6172 29.7985 62.8929 34.0742 68.1484 34.0742H72.9141V46.7031C72.9141 48.0192 73.9811 49.0859 75.2969 49.0859H90.3086C91.6244 49.0859 92.6914 48.0192 92.6914 46.7031V38.8398C92.6914 36.2121 94.8293 34.0742 97.457 34.0742C100.085 34.0742 102.223 36.2121 102.223 38.8398V46.7031C102.223 48.0192 103.29 49.0859 104.605 49.0859H119.617C120.933 49.0859 122 48.0192 122 46.7031V2.38281C122 1.06679 120.933 0 119.617 0Z" fill="#4D7EDD"/>
</svg>
