<svg width="97" height="97" viewBox="0 0 97 97" fill="none" xmlns="http://www.w3.org/2000/svg">
<path d="M42.4938 39.7473L40.6796 48.8577L39.3201 55.6901C39.2413 56.0857 39.3656 56.4949 39.652 56.7799C39.9385 57.0648 40.3477 57.1891 40.7433 57.1088L47.5727 55.7371L56.6786 53.9078L49.5309 46.7722L42.4938 39.7473Z" fill="#FFB51B"/>
<path d="M42.4938 39.7473L40.6796 48.8577L39.3201 55.6901C39.2413 56.0857 39.3656 56.4949 39.652 56.7799C39.9385 57.0648 40.3477 57.1891 40.7433 57.1088L47.5727 55.7371L56.6786 53.9078L49.5309 46.7722L42.4938 39.7473Z" fill="#FFB51B"/>
<path d="M79.7697 2.11582L70.6699 11.2323L85.1411 25.6777L94.2409 16.5612C94.4758 16.3248 94.5941 16.0156 94.5941 15.7064C94.5941 15.6291 94.5865 15.5518 94.5713 15.4761C94.5274 15.2472 94.4167 15.0305 94.2394 14.8531L81.4763 2.11278C81.249 1.88696 80.9428 1.75964 80.6215 1.75964C80.3032 1.76267 79.9956 1.88999 79.7697 2.11582Z" fill="#FFB51B"/>
<path d="M43.4316 38.5488L69.661 12.2824L73.7644 16.38L47.535 42.6464L43.4316 38.5488Z" fill="#FFB51B"/>
<path d="M53.8105 48.9031L80.0399 22.6367L84.1433 26.7342L57.9139 53.0007L53.8105 48.9031Z" fill="#FFB51B"/>
<path d="M66.9438 65.7812H16.231C15.2488 65.7812 14.4531 64.9855 14.4531 64.0034C14.4531 63.0212 15.2488 62.2255 16.231 62.2255H66.9453C67.9274 62.2255 68.7231 63.0212 68.7231 64.0034C68.7231 64.9855 67.9259 65.7812 66.9438 65.7812Z" fill="#FFB51B"/>
<path d="M39.6231 39.0031H16.231C15.2488 39.0031 14.4531 39.7988 14.4531 40.7809C14.4531 41.7631 15.2488 42.5588 16.231 42.5588H38.9153L39.6231 39.0031Z" fill="#FFB51B"/>
<path d="M37.3118 50.6143H16.231C15.2488 50.6143 14.4531 51.41 14.4531 52.3921C14.4531 53.3743 15.2488 54.17 16.231 54.17H36.604L37.3118 50.6143Z" fill="#FFB51B"/>
<path d="M75.4018 39.6381V71.592C75.4018 73.7624 73.6361 75.5281 71.4657 75.5281H42.2323H37.0822L32.158 80.4524L24.0767 88.5337C23.8342 88.7762 23.5583 88.8247 23.2506 88.6959C22.943 88.5655 22.7808 88.3397 22.7808 88.0002V80.4524V75.5281H16.303H11.7031C10.6982 75.5281 9.79189 75.1401 9.09622 74.5233C8.28688 73.8109 7.78369 72.7576 7.78369 71.592V31.7341C7.78369 30.7293 8.15653 29.8063 8.78855 29.1106C8.88403 28.9969 8.98103 28.8999 9.0947 28.8029C9.79038 28.1876 10.6982 27.8147 11.7016 27.8147H49.9408L54.8484 22.8905H10.3587C5.96949 22.8905 2.40625 26.4537 2.40625 30.843V72.4984C2.40625 76.8876 5.96949 80.4509 10.3587 80.4509H16.303V87.9987C16.303 90.9299 18.052 93.5701 20.7726 94.6871C21.6638 95.06 22.6186 95.2373 23.5416 95.2373C25.421 95.2373 27.267 94.5083 28.6599 93.1154L41.3245 80.4509H72.8267C77.1993 80.4509 80.7792 76.8876 80.7792 72.4984V34.244L75.4018 39.6381Z" fill="#FFB51B"/>
</svg>
