<svg width="130" height="115" viewBox="0 0 130 115" fill="none" xmlns="http://www.w3.org/2000/svg">
<path d="M0 54.6522C0.21 53.6722 0.389995 52.6822 0.619995 51.7022C1.73 46.9422 4.01996 42.8322 7.39996 39.3022C7.76996 38.9122 8.06001 38.2022 8.01001 37.6822C6.25001 20.7322 17.5 4.72218 34.05 0.97218C45.27 -1.57782 55.39 0.902178 64.28 8.25218C64.47 8.41218 64.67 8.56217 64.71 8.59217C67.21 6.98217 69.51 5.23218 72.03 3.92218C92.95 -6.94782 118.23 6.01218 121.65 29.3122C122.17 32.8922 122.15 36.4722 121.46 40.0322C121.28 40.9422 121.48 41.5522 122.11 42.2722C128.52 49.5722 131.31 58.0222 129.1 67.6022C126.53 78.7422 115.32 83.6922 104.84 78.5822C103.14 77.7522 101.56 76.6722 99.89 75.7822C99.55 75.6022 98.87 75.5722 98.6 75.7822C92.99 80.3922 87.42 85.0422 81.77 89.7622C83.29 91.8022 84.22 94.3322 83.67 97.1222C83.36 98.6922 82.79 100.322 81.9 101.642C79.73 104.862 77.35 107.942 74.99 111.022C72.28 114.572 67.3 116.082 63.41 114.082C59.22 111.932 55.12 109.502 51.32 106.732C49 105.032 47.33 102.432 45.35 100.262C44.88 99.7422 44.39 99.1822 43.8 98.8522C34.64 93.8022 25.46 88.7622 16.27 83.7622C7.47996 78.9722 2.12 71.7122 0.369995 61.8322C0.249995 61.1322 0.12 60.4322 0 59.7322C0 58.0422 0 56.3522 0 54.6622V54.6522ZM92.39 71.3322C91.94 71.0022 91.72 70.8222 91.47 70.6722C81.31 64.5422 71.16 58.4122 60.99 52.3022C60.55 52.0322 59.98 51.8922 59.46 51.8622C56.41 51.6622 53.35 51.2622 50.6 49.9222C46.74 48.0422 42.96 45.9622 39.25 43.7922C34.8 41.2022 33.21 36.1622 35.2 31.3822C36.66 27.8822 38.16 24.3922 39.72 20.9222C42.19 15.4322 48.52 13.4022 53.78 16.3422C54.5 16.7522 55.23 17.1622 55.83 17.5022C57.08 16.3222 58.23 15.2222 59.4 14.1122C59.25 13.9822 59.04 13.7722 58.81 13.5922C52.54 8.62218 45.44 6.79218 37.55 8.00218C25.45 9.85218 15.68 20.9422 15.47 33.1722C15.29 43.5522 19.83 51.5922 28.39 57.1222C37.75 63.1722 47.4 68.7622 56.94 74.5222C57.35 74.7622 58.05 74.7522 58.53 74.5922C60.25 74.0422 61.92 73.2822 63.65 72.7822C65.88 72.1422 68.14 71.6022 70.5 72.2522C75.07 73.5222 77.71 77.3022 77.74 83.0622C82.71 79.0822 87.5 75.2422 92.39 71.3222V71.3322ZM58.79 28.0122C57.28 27.1422 55.89 26.3422 54.5 25.5422C53.11 24.7422 51.73 23.9322 50.33 23.1522C48.48 22.1322 47.32 22.5022 46.48 24.4322C45.07 27.6422 43.69 30.8522 42.32 34.0722C41.64 35.6622 41.96 36.5822 43.46 37.4622C45.83 38.8522 48.2 40.2322 50.59 41.5722C53.9 43.4322 57.48 44.2422 61.27 44.2822C61.98 44.2822 62.78 44.4822 63.39 44.8522C77.72 53.4622 92.01 62.1122 106.34 70.7222C107.56 71.4522 108.87 72.1022 110.23 72.5022C115.25 73.9822 119.85 71.8122 121.38 67.0822C123.35 60.9922 121.83 55.3722 118.57 49.9222C117.16 52.5522 115.84 55.0322 114.49 57.5622C114.07 57.3822 113.76 57.2722 113.47 57.1222C98.43 49.2822 83.4 41.4322 68.35 33.6122C67.62 33.2322 67.42 32.7822 67.46 32.0222C67.65 28.8622 67.09 25.8022 66.16 22.7922C65.86 21.8022 65.4 20.9122 64.32 20.7522C63.19 20.5822 62.6 21.4422 62.1 22.3122C61.03 24.1722 59.95 26.0322 58.8 28.0022L58.79 28.0122ZM66.2 88.7722C67.33 86.8022 68.4 84.9422 69.48 83.0822C69.99 82.2022 70.33 81.2522 69.69 80.3522C69.02 79.4222 68 79.5722 67.02 79.8022C64.01 80.5122 61.09 81.4822 58.49 83.2222C57.77 83.7122 57.21 83.6622 56.46 83.2022C46.09 76.8622 35.69 70.5622 25.3 64.2522C18.95 60.3922 14.21 55.0922 11.01 48.3922C10.88 48.1222 10.71 47.8722 10.39 47.3322C9.63995 49.1022 8.86 50.5622 8.38 52.1222C5.71 60.8022 9.93997 71.3422 18.28 76.0822C28.55 81.9222 38.97 87.4822 49.31 93.2022C49.93 93.5422 50.51 94.1222 50.87 94.7322C52.42 97.3522 54.25 99.7422 56.78 101.422C59.66 103.332 62.69 105.022 65.67 106.762C67.22 107.672 68.14 107.442 69.25 105.962C71.28 103.262 73.29 100.542 75.3 97.8322C76.75 95.8722 76.53 94.7422 74.43 93.5222C71.73 91.9522 69.03 90.4022 66.18 88.7522L66.2 88.7722ZM69.62 14.8822C71.72 16.3822 72.91 18.4022 73.49 20.7522C74.02 22.8722 74.45 25.0322 74.8 27.1922C74.95 28.1022 75.25 28.6522 76.12 29.1022C83.55 32.9222 90.94 36.8122 98.35 40.6822C102.61 42.9022 106.87 45.1222 111.14 47.3422C117.09 35.7422 114.83 21.6922 104.12 13.2722C93.37 4.81217 78.47 6.33218 69.61 14.8922L69.62 14.8822Z" fill="#FFA81B"/>
</svg>
