<svg width="102" height="102" viewBox="0 0 102 102" fill="none" xmlns="http://www.w3.org/2000/svg">
<g clip-path="url(#clip0_1728_2991)">
<path d="M80.5651 25.2362C80.8476 25.6954 81.3378 25.9475 81.8398 25.9475C82.1067 25.9475 82.3767 25.8759 82.6211 25.7257L90.7206 20.7437C91.4233 20.3118 91.6427 19.3912 91.2101 18.6885C90.7782 17.9858 89.8575 17.7663 89.1541 18.199L81.0554 23.181C80.3526 23.6129 80.1332 24.5335 80.5651 25.2362Z" fill="#FFB51B"/>
<path d="M100.651 35.1637L88.7776 34.0104C87.9566 33.9295 87.2259 34.5318 87.1457 35.3528C87.0663 36.1746 87.6671 36.9053 88.4889 36.9847L100.362 38.138C100.412 38.1426 100.46 38.145 100.508 38.145C101.268 38.145 101.919 37.5675 101.994 36.7956C102.073 35.9746 101.472 35.2438 100.651 35.1637Z" fill="#FFB51B"/>
<path d="M74.5021 14.8014C74.6795 14.8706 74.8632 14.9041 75.0429 14.9041C75.6414 14.9041 76.2063 14.5422 76.4359 13.9508L80.7603 2.83271C81.06 2.06385 80.6786 1.19771 79.9098 0.898887C79.1409 0.600059 78.2748 0.980598 77.976 1.74946L73.6507 12.8676C73.3519 13.6364 73.7324 14.5026 74.5021 14.8014Z" fill="#FFB51B"/>
<path d="M63.9499 6.5665C62.946 4.94084 60.8076 4.43346 59.1811 5.43733L57.3936 6.54004C56.6053 7.02563 56.0543 7.78982 55.8411 8.6902C55.6279 9.59135 55.7781 10.5213 56.2637 11.3088L57.2917 12.9742L33.7971 42.0601L28.8353 45.1215C28.1334 45.555 27.9155 46.4756 28.3489 47.1775C28.6314 47.6351 29.1209 47.8872 29.6221 47.8872C29.889 47.8872 30.1606 47.8156 30.4049 47.6647L34.3123 45.2538L41.9269 57.5952C40.8266 57.5236 39.7293 57.7516 38.7324 58.2637C38.7145 58.2723 38.6974 58.2816 38.6795 58.2909C38.5457 58.3618 38.4126 58.4357 38.2826 58.5158L33.815 61.2862C33.3247 61.5905 32.8726 61.95 32.4617 62.3523C31.9645 62.8387 31.5294 63.3874 31.1777 63.9866L30.075 65.6488L29.2641 66.869C29.2571 66.8667 29.2493 66.8643 29.2431 66.862C29.2306 66.8566 29.219 66.8503 29.2065 66.8449C29.1435 66.8169 29.0812 66.7857 29.0213 66.7523C29.0081 66.7453 28.9956 66.7383 28.9832 66.7313C28.917 66.6916 28.8524 66.6488 28.791 66.6029C28.7777 66.5935 28.7653 66.5834 28.7528 66.5733C28.6968 66.5297 28.6416 66.483 28.5894 66.4332C28.5832 66.427 28.5762 66.4215 28.57 66.4153C28.5139 66.3608 28.461 66.3017 28.4104 66.241C28.3995 66.2278 28.3894 66.2138 28.3785 66.2005C28.3287 66.1367 28.2812 66.0714 28.2384 66.0021L21.7817 55.5377C21.4767 55.0435 21.3825 54.4607 21.5164 53.8965C21.6502 53.3315 21.9957 52.8529 22.4891 52.5486L24.4222 51.3564C25.1241 50.923 25.3428 50.0024 24.9093 49.3004C24.4759 48.5977 23.5553 48.3798 22.8533 48.8133L20.9203 50.0055C19.7475 50.7292 18.9265 51.8661 18.6083 53.2078C18.4036 54.0739 18.4254 54.9579 18.6604 55.7914L17.2231 56.6785C15.3001 57.8653 14.7009 60.3952 15.8877 62.3189L19.5343 68.2293C20.1086 69.1608 21.0121 69.8121 22.0775 70.0651C22.3934 70.1398 22.7125 70.1771 23.03 70.1771C23.7809 70.1771 24.5187 69.9693 25.1739 69.5647L26.6136 68.6768C26.914 68.9499 27.2431 69.1857 27.5964 69.3802L23.4479 75.6292L22.4697 76.2969C22.2658 76.1934 22.0417 76.128 21.8066 76.1078C21.3257 76.0673 20.8588 76.2152 20.4907 76.5249L17.9164 78.6914C17.3164 78.3085 16.5297 78.3023 15.9134 78.7225C15.8846 78.7427 15.8558 78.763 15.8285 78.7848L1.33539 90.225C0.486373 90.8951 0 91.8997 0 92.9806V97.635C0 99.5704 1.57507 101.145 3.51045 101.145H27.219C28.2883 101.145 29.2859 100.668 29.9559 99.8334L31.9217 97.3876C32.2656 96.9938 32.4119 96.4895 32.3598 96L35.0049 93.7736C35.2632 93.5565 35.4492 93.2779 35.5535 92.9659L41.6507 94.2156C41.7409 94.2343 41.832 94.2444 41.9238 94.246C42.102 94.2491 42.2795 94.2514 42.4569 94.2514C43.902 94.2514 45.3378 94.1051 46.8467 93.1931L52.989 89.5348C53.0917 89.541 53.1945 89.5449 53.2964 89.5449C54.1828 89.5449 55.0559 89.3013 55.8318 88.8266L60.7663 85.8103C63.0612 84.408 63.7881 81.3995 62.3857 79.1046C61.9072 78.3202 61.2301 77.7054 60.4301 77.3007C61.2044 75.8167 61.2068 73.9732 60.2722 72.4432C59.5936 71.3327 58.5267 70.5499 57.2652 70.2339C57.5259 69.0371 57.3461 67.7429 56.659 66.6176C56.01 65.5539 55.003 64.7959 53.8131 64.4543C54.1384 63.2045 53.9781 61.8294 53.2536 60.6427C53.0653 60.3345 52.845 60.0543 52.6015 59.7991L82.2072 53.3548L83.2352 55.0202C83.8897 56.0809 85.0266 56.6653 86.19 56.6653C86.8102 56.6653 87.4382 56.4995 88.004 56.1501L89.7915 55.0474C90.5791 54.561 91.1308 53.7976 91.344 52.8965C91.5573 51.9961 91.4071 51.0662 90.9207 50.2778L63.9499 6.5665ZM23.6058 67.0215C23.3529 67.1772 23.0549 67.2254 22.7669 67.1569C22.4782 67.0885 22.2339 66.9118 22.0775 66.6597L18.4308 60.7493C18.1094 60.2286 18.2721 59.5431 18.7927 59.2209L20.0604 58.4388L24.8735 66.2387L23.6058 67.0215ZM27.626 97.9619C27.5264 98.0864 27.3785 98.1572 27.219 98.1572H3.51045C3.22251 98.1572 2.98828 97.923 2.98828 97.635V92.9806C2.98828 92.8195 3.06065 92.6701 3.18672 92.5705L16.7803 81.84L29.0322 96.2125L27.626 97.9619ZM30.6641 93.5207L19.9172 80.9131L21.5086 79.5739L32.1753 92.2499L30.6641 93.5207ZM45.3098 90.6305C44.3977 91.1822 43.5417 91.2795 42.1145 91.2608L34.4594 89.6912C34.278 89.6538 34.0952 89.6507 33.9185 89.6795L24.5218 78.514L25.3731 77.9326L25.3762 77.9311C25.3902 77.921 25.4043 77.9093 25.4183 77.8992C25.4502 77.8751 25.4821 77.8509 25.5116 77.8252C25.5264 77.812 25.5404 77.798 25.5544 77.7848C25.5848 77.7568 25.6128 77.728 25.64 77.6976C25.6509 77.686 25.6626 77.6735 25.6727 77.661C25.7062 77.6206 25.7381 77.5793 25.7669 77.5365C25.77 77.5326 25.7731 77.5295 25.7755 77.5256L25.7825 77.5155C25.7848 77.5116 25.7871 77.5077 25.7895 77.5039L33.6913 65.6029C33.7084 65.5772 33.7247 65.5507 33.7403 65.5243C34.1387 64.8356 34.7092 64.2488 35.3901 63.8263L39.8577 61.0559C39.9402 61.0045 40.0242 60.9586 40.1091 60.9158C40.1472 60.8963 40.1861 60.88 40.2242 60.8621C40.2694 60.8419 40.3137 60.8216 40.3596 60.8037C40.4118 60.7827 40.4639 60.7633 40.5176 60.7454C40.5449 60.7353 40.5729 60.7267 40.6009 60.7181C40.6663 60.6979 40.7324 60.6784 40.7985 60.6621C41.039 60.6037 41.2841 60.5749 41.5277 60.5734C41.5332 60.5734 41.5386 60.5734 41.5433 60.5734C41.6149 60.5734 41.6857 60.5765 41.7565 60.5812C41.7791 60.5835 41.8016 60.5851 41.825 60.5874C41.888 60.5928 41.9503 60.5998 42.0125 60.6092C42.0491 60.6146 42.0865 60.6224 42.1238 60.6294C42.2188 60.6473 42.3129 60.6699 42.4055 60.6971C42.4413 60.7072 42.4779 60.7166 42.5129 60.7275C42.5604 60.7438 42.6063 60.7617 42.653 60.7804C42.6896 60.7944 42.7269 60.8084 42.7627 60.824C42.8086 60.8434 42.8545 60.8652 42.8997 60.8878C42.9339 60.9049 42.9674 60.922 43.0001 60.9399C43.0452 60.964 43.0903 60.9897 43.1347 61.017C43.165 61.0356 43.1946 61.0551 43.2242 61.0746C43.2685 61.1041 43.3129 61.1337 43.3557 61.1664C43.3822 61.1858 43.4071 61.2068 43.432 61.2271C43.4763 61.2621 43.5199 61.2971 43.5619 61.3352C43.7658 61.5189 43.9448 61.7306 44.0911 61.9695L44.2008 62.1492L45.7938 64.7484L47.793 68.0106L48.3012 68.841C48.3494 68.9196 48.3891 69.0013 48.4194 69.0861C48.5128 69.3413 48.5276 69.6199 48.4615 69.8954C48.3665 70.2915 48.1167 70.6308 47.7587 70.8495L46.8599 71.3989L46.8591 71.3997C46.7969 71.437 46.7339 71.4689 46.6685 71.4969C46.6545 71.5032 46.6405 71.5094 46.6265 71.5148C46.5619 71.5413 46.4965 71.5631 46.4304 71.5802C46.4226 71.5826 46.414 71.5841 46.4062 71.5857C46.344 71.6004 46.2817 71.6113 46.2195 71.6183C46.207 71.6199 46.1953 71.6215 46.1829 71.623C46.116 71.6285 46.049 71.63 45.9829 71.6277C45.9704 71.6269 45.958 71.6261 45.9455 71.6254C45.8778 71.6207 45.8109 71.6129 45.7448 71.5997L45.7424 71.5989C45.6716 71.5841 45.6031 71.5639 45.5354 71.539C45.5292 71.5366 45.5238 71.5351 45.5175 71.5327C45.379 71.4798 45.2483 71.4051 45.1308 71.3094L45.13 71.3086C45.0709 71.2604 45.0179 71.209 44.9689 71.1545C44.965 71.1499 44.9611 71.1452 44.9565 71.1398C44.9098 71.0853 44.8662 71.0285 44.8296 70.9678L43.3401 68.5328C42.7853 67.6254 41.9051 66.9888 40.8616 66.7414C39.7923 66.4869 38.6842 66.669 37.7426 67.2534C37.3636 67.4885 37.1099 67.8799 37.0492 68.3211C37.0321 68.4487 37.0111 68.574 36.9885 68.6978C36.9714 68.788 36.9519 68.8775 36.9317 68.9662C36.9255 68.9958 36.9192 69.0262 36.9122 69.0557C36.8858 69.1678 36.857 69.2783 36.8251 69.3873C36.8243 69.3911 36.8227 69.3958 36.8212 69.4005C36.6539 69.974 36.4189 70.5055 36.1169 70.9888L36.1161 70.9911C35.5597 71.8829 34.7737 72.637 33.7434 73.2635C33.0384 73.6922 32.8142 74.6113 33.243 75.3163C33.6718 76.0214 34.5909 76.2455 35.2959 75.8167C36.0235 75.3739 36.6687 74.8774 37.2328 74.3304L43.4724 84.1707C44.6218 85.9535 46.6086 86.9877 48.6638 86.9877C48.7727 86.9877 48.8817 86.9823 48.9906 86.9761C49.0334 87.0539 49.077 87.1309 49.1237 87.208C49.2996 87.4951 49.5019 87.7597 49.7268 88.0002L45.3098 90.6305ZM46.5774 79.6454L46.5782 79.6478C46.6031 79.7178 46.6304 79.7863 46.6592 79.8556C46.6623 79.8633 46.6654 79.8719 46.6693 79.8805C46.695 79.9427 46.723 80.0042 46.7518 80.0657C46.7588 80.0789 46.7642 80.0937 46.7712 80.1077C46.7985 80.1653 46.8288 80.2221 46.8584 80.2789C46.8677 80.296 46.8755 80.3131 46.8848 80.3295C46.9245 80.4026 46.9665 80.475 47.0101 80.5466C47.0848 80.6696 47.1665 80.7871 47.2506 80.9015C47.2809 80.9419 47.3121 80.9816 47.3432 81.0213C47.3984 81.0913 47.4552 81.159 47.5136 81.226C47.5549 81.2727 47.5953 81.3209 47.6381 81.366C47.67 81.4003 47.7051 81.4314 47.7385 81.4649C47.8591 81.5855 47.9852 81.6991 48.1175 81.8065C48.1315 81.8174 48.1447 81.8291 48.1587 81.8392C48.4155 82.0431 48.691 82.2197 48.9844 82.3684C48.7144 82.8765 48.5362 83.4275 48.4568 83.9948C47.4716 83.9333 46.5393 83.4143 45.9899 82.5614L39.1208 71.7281C39.439 71.0705 39.6842 70.3686 39.8507 69.6207C39.9573 69.6145 40.0647 69.6238 40.1705 69.6487C40.4336 69.711 40.6538 69.869 40.7908 70.0923L42.2802 72.5273C42.2826 72.5304 42.2849 72.5335 42.2872 72.5374C42.3604 72.6565 42.439 72.7716 42.5238 72.8829C42.5861 72.9646 42.653 73.0409 42.7199 73.1172C42.7433 73.1436 42.7643 73.1724 42.7884 73.1989C42.7915 73.2121 42.7954 73.2253 42.7985 73.2385C42.8219 73.342 42.8483 73.4448 42.8779 73.5467C42.8872 73.5763 42.8958 73.6059 42.9044 73.6354C42.9409 73.7506 42.9798 73.865 43.025 73.9771C43.0289 73.9887 43.0343 73.9996 43.039 74.0105C43.0802 74.1132 43.1261 74.2136 43.1752 74.3132C43.1892 74.342 43.2032 74.3708 43.218 74.3988C43.274 74.5078 43.3324 74.6152 43.3962 74.721C44.074 75.8307 45.1393 76.612 46.3985 76.9295C46.2039 77.8198 46.2584 78.7622 46.5774 79.6454ZM47.5307 61.8629L48.0327 61.5563C48.4755 61.2854 48.9969 61.2037 49.5019 61.3251C50.0062 61.4473 50.4326 61.7578 50.7027 62.2006C51.2606 63.1142 50.9719 64.3119 50.0583 64.8698L49.5595 65.1749L48.0825 62.7648L47.5307 61.8629ZM58.666 79.8104C59.157 79.9287 59.5718 80.2314 59.8356 80.6626C60.3788 81.552 60.0971 82.7178 59.2076 83.2617L54.273 86.278C53.8769 86.52 53.4162 86.6049 52.9626 86.5255C52.9369 86.52 52.9104 86.5138 52.884 86.5099C52.8707 86.5068 52.8567 86.5053 52.8435 86.5021C52.3517 86.3839 51.9369 86.0811 51.6731 85.65C51.5548 85.4563 51.4785 85.25 51.4357 85.0399C51.435 85.0337 51.435 85.0282 51.4334 85.0228C51.3151 84.4088 51.5128 83.7816 51.9346 83.3458C51.9462 83.3341 51.9571 83.3217 51.9688 83.3108C51.9906 83.2897 52.0132 83.2695 52.0357 83.2493C52.0583 83.229 52.0816 83.2088 52.1065 83.1901C52.1244 83.1754 52.1416 83.1613 52.1602 83.1473C52.2046 83.1147 52.2489 83.0835 52.2964 83.054L52.3003 83.0516L53.2808 82.4524C53.4536 82.3723 53.6232 82.2843 53.7882 82.1839L57.5633 79.8758C57.9134 79.7451 58.294 79.7209 58.666 79.8104ZM55.2287 73.2611C55.6302 73.0689 56.0816 73.0207 56.5205 73.1265C57.0247 73.2479 57.4512 73.5592 57.722 74.002C58.28 74.9156 57.9905 76.1124 57.0777 76.6704L56.189 77.2136C56.0146 77.2937 55.8434 77.384 55.6777 77.4852L51.9221 79.7801C51.2209 80.0556 50.4319 79.8937 49.8957 79.3988L49.8949 79.398C49.8529 79.3591 49.8132 79.3194 49.7751 79.2766C49.7649 79.2649 49.7556 79.2525 49.7455 79.2408C49.7175 79.2081 49.6895 79.1754 49.663 79.1404C49.6264 79.0914 49.5922 79.0408 49.5595 78.9887C49.5268 78.9342 49.4972 78.8797 49.47 78.8237C49.4614 78.8058 49.4544 78.7879 49.4459 78.7692C49.4288 78.7311 49.4116 78.6922 49.3969 78.6525C49.3891 78.6315 49.3828 78.6112 49.3758 78.5902C49.3634 78.5521 49.3517 78.5147 49.3416 78.4766C49.3362 78.4556 49.3307 78.4338 49.326 78.4128C49.3175 78.3747 49.3097 78.3357 49.3027 78.2961C49.2996 78.2758 49.2965 78.2556 49.2934 78.2354C49.2879 78.1949 49.284 78.1544 49.2817 78.114C49.2801 78.0945 49.2786 78.0751 49.2778 78.0556C49.2762 78.0136 49.2762 77.9715 49.2778 77.9303C49.2778 77.9116 49.2778 77.8937 49.2793 77.8758C49.2809 77.833 49.2864 77.791 49.291 77.749C49.2934 77.7311 49.2941 77.7132 49.2972 77.6953C49.3027 77.6579 49.3105 77.6206 49.3183 77.5832C49.4031 77.1832 49.6124 76.8089 49.9408 76.5218C49.954 76.5101 49.9657 76.4961 49.9789 76.4844C49.9976 76.4681 50.0155 76.4517 50.035 76.4362C50.0817 76.4097 50.1291 76.3856 50.175 76.3576L55.0232 73.3942C55.0933 73.3514 55.1617 73.307 55.2287 73.2611ZM52.9073 67.3001C53.4116 67.4215 53.838 67.7328 54.1088 68.1756C54.6287 69.0269 54.4123 70.125 53.6411 70.7226C53.5913 70.7499 53.5423 70.7779 53.4933 70.8075L49.7502 73.0954C49.7626 73.086 49.7743 73.0751 49.7867 73.065C49.8583 73.0082 49.9299 72.9506 49.9968 72.8899C50.0389 72.8526 50.0786 72.8129 50.119 72.774C50.1797 72.7148 50.2404 72.6549 50.298 72.5919C50.3377 72.5499 50.375 72.5055 50.4124 72.4619C50.4661 72.3981 50.519 72.3343 50.5688 72.2681C50.6038 72.2222 50.6389 72.1755 50.6723 72.1273C50.7198 72.0596 50.7649 71.9903 50.8093 71.9195C50.8396 71.8705 50.87 71.8222 50.898 71.7724C50.9408 71.6977 50.9797 71.6207 51.0178 71.5436C51.042 71.4946 51.0676 71.4471 51.0894 71.3973C51.1283 71.311 51.1626 71.2222 51.1968 71.1328C51.2124 71.09 51.2311 71.0479 51.2458 71.0043C51.2918 70.8697 51.333 70.7335 51.3665 70.5942C51.3984 70.4612 51.4233 70.3273 51.4427 70.1935C51.449 70.1507 51.4521 70.1079 51.4575 70.0651C51.4684 69.9732 51.477 69.8822 51.4824 69.7904C51.4848 69.7406 51.4855 69.6908 51.4863 69.6409C51.4886 69.5553 51.4879 69.4705 51.4848 69.3857C51.4832 69.3351 51.4801 69.2845 51.477 69.2339C51.4707 69.1483 51.4606 69.0627 51.4497 68.9779C51.4435 68.9305 51.4381 68.883 51.4303 68.8363C51.4139 68.7398 51.3937 68.6449 51.3704 68.5499C51.3626 68.5157 51.3564 68.4807 51.3478 68.4464C51.3136 68.318 51.2746 68.1912 51.2287 68.0659C51.2194 68.0418 51.2085 68.0176 51.1984 67.9927C51.1657 67.9087 51.1338 67.8239 51.0957 67.7414L51.4388 67.5313C51.8816 67.2604 52.403 67.1787 52.9073 67.3001ZM88.4359 52.2085C88.4188 52.2801 88.3682 52.414 88.2219 52.5043L86.4344 53.6077C86.211 53.7455 85.9161 53.6762 85.7776 53.4521L66.9584 22.9514C66.5258 22.2495 65.6051 22.0316 64.9024 22.4643C64.2005 22.8977 63.9826 23.8184 64.4161 24.5203L80.5442 50.6592L45.8226 58.2178L36.6266 43.313L58.9555 15.6706L60.7593 18.5951C61.1928 19.297 62.1134 19.5149 62.8153 19.0822C63.518 18.6488 63.7359 17.7282 63.3025 17.0255L58.8068 9.73998C58.7165 9.59368 58.7313 9.45127 58.7485 9.37968C58.7656 9.30731 58.8162 9.17346 58.9625 9.08319L60.75 7.98048C60.9741 7.84196 61.2683 7.912 61.4068 8.13612L88.3775 51.8482C88.4678 51.9945 88.453 52.137 88.4359 52.2085Z" fill="#FFB51B"/>
</g>
<defs>
<clipPath id="clip0_1728_2991">
<rect width="102" height="102" fill="white"/>
</clipPath>
</defs>
</svg>
