<svg width="86" height="87" viewBox="0 0 86 87" fill="none" xmlns="http://www.w3.org/2000/svg">
<path d="M80.9995 0C81.1294 0.06 81.2495 0.130156 81.3795 0.160156C83.6195 0.840156 84.9895 2.62021 85.0295 4.97021C85.0495 6.24021 85.0295 7.50002 85.0295 8.77002C85.0295 26.56 85.0295 44.3399 85.0295 62.1299C85.0295 64.7599 83.6895 66.6798 81.3995 67.2798C80.8095 67.4298 80.1795 67.46 79.5594 67.46C71.6795 67.47 63.7994 67.46 55.9194 67.46C55.5894 67.46 55.2694 67.46 54.9794 67.46C55.7894 68.33 56.5394 69.19 57.3494 70C57.4794 70.13 57.8194 70.0998 58.0494 70.0698C59.0094 69.9498 59.8195 70.2101 60.5095 70.8901C63.1695 73.4801 65.8494 76.0602 68.4995 78.6602C69.7394 79.8802 69.7595 81.44 68.5695 82.71C67.6495 83.7 66.6994 84.6699 65.7394 85.6099C64.5694 86.7699 63.0095 86.7902 61.8195 85.6602C59.1195 83.0702 56.4394 80.4601 53.7495 77.8501C53.0195 77.1401 52.6794 76.3 52.8694 75.25C52.9094 75.05 52.8094 74.7498 52.6694 74.5898C51.8794 73.6698 51.0694 72.7799 50.2894 71.9199C49.1394 72.5599 48.2595 73.1101 47.3395 73.5601C40.1695 76.9801 31.5995 74.7102 27.0295 68.1802C26.6595 67.6502 26.2894 67.4602 25.6594 67.4702C19.2394 67.4902 12.8294 67.49 6.40942 67.48C2.88942 67.48 0.939453 65.51 0.939453 61.98C0.939453 43.32 0.939453 24.66 0.939453 6C0.939453 2.52 1.76942 1.29002 4.96942 0.0200195C30.2994 0.0200195 55.6394 0.0200195 80.9694 0.0200195L80.9995 0ZM3.66943 15.3901C3.66943 15.7401 3.66943 15.99 3.66943 16.25C3.66943 31.5 3.66943 46.7598 3.66943 62.0098C3.66943 63.9798 4.44945 64.7498 6.43945 64.7598C12.3495 64.7598 18.2594 64.7598 24.1694 64.7598H25.0994C24.8094 63.5798 24.4794 62.53 24.3094 61.46C24.1294 60.36 24.1095 59.23 23.9995 58C23.2994 58 22.5694 58.03 21.8494 58C21.0094 57.96 20.4895 57.45 20.4595 56.71C20.4395 55.93 20.9695 55.3801 21.8395 55.3301C22.5095 55.2901 23.1894 55.3298 23.8694 55.2998C24.0894 55.2898 24.4394 55.19 24.4894 55.04C24.8294 54.11 25.0894 53.1601 25.4094 52.1201C24.2194 52.1201 23.1294 52.1401 22.0394 52.1201C21.0294 52.1001 20.4495 51.57 20.4595 50.75C20.4695 49.93 21.0495 49.4402 22.0795 49.4302C23.4895 49.4202 24.8894 49.4102 26.2994 49.4302C26.8294 49.4402 27.1695 49.2799 27.4995 48.8599C33.5494 41.1299 44.5994 40.3198 51.7194 47.0698C51.9094 47.2498 52.1195 47.43 52.4495 47.73C52.4495 47.3 52.4495 47.0298 52.4495 46.7598C52.4495 45.2098 52.4495 43.6601 52.4495 42.1201C52.4495 40.8401 52.8994 40.3801 54.1594 40.3701C55.2294 40.3701 56.2994 40.3701 57.3694 40.3701C58.6394 40.3701 59.0795 40.8101 59.0895 42.1001C59.0895 46.8601 59.0895 51.6101 59.0895 56.3701C59.0895 57.6801 58.6795 58.0901 57.3895 58.1201C57.1795 58.1201 56.9695 58.1599 56.9395 58.1699C56.5695 60.4199 56.2194 62.56 55.8594 64.77C56.0394 64.77 56.3095 64.77 56.5895 64.77C64.2495 64.77 71.8994 64.77 79.5594 64.77C81.5894 64.77 82.3395 64.0002 82.3395 61.9502C82.3395 46.7502 82.3395 31.5599 82.3395 16.3599V15.4102H3.67944L3.66943 15.3901ZM3.66943 12.5698H82.3295C82.3295 10.1898 82.3295 7.88008 82.3295 5.58008C82.3295 3.45008 81.5794 2.7002 79.4294 2.7002C65.2994 2.7002 51.1794 2.7002 37.0494 2.7002C26.7794 2.7002 16.5094 2.7002 6.22943 2.7002C4.52943 2.7002 3.67942 3.53998 3.65942 5.22998C3.65942 6.18998 3.65942 7.1401 3.65942 8.1001C3.65942 9.5801 3.65942 11.0698 3.65942 12.5698H3.66943ZM40.3594 45.1899C32.8294 45.2099 26.7595 51.3199 26.7795 58.8599C26.7995 66.3199 32.9195 72.4299 40.3895 72.4399C47.8995 72.4399 54.0094 66.32 53.9995 58.79C53.9995 51.26 47.8894 45.1699 40.3594 45.1899ZM66.7994 80.7598C63.9694 78.0098 61.2494 75.3699 58.7294 72.9199C57.6394 73.9199 56.6295 74.8401 55.5795 75.8101C58.3195 78.4701 61.0294 81.1001 63.6194 83.6201C64.6994 82.6401 65.7094 81.7398 66.7994 80.7598ZM56.3295 54.6802V43.1099H55.1594C55.1594 45.4299 55.2694 47.7102 55.1194 49.9702C55.0094 51.7202 55.8095 53.1402 56.3295 54.6802ZM52.8494 69.3701C52.5494 69.7001 52.3295 69.9398 52.2695 70.0098C53.1095 70.9498 53.8895 71.8202 54.7095 72.7402C54.9695 72.4602 55.1894 72.22 55.3594 72.04C54.5094 71.14 53.7294 70.3099 52.8494 69.3799V69.3701Z" fill="#333333"/>
<path d="M23.6797 44.8101C16.5497 44.7901 10.8598 39.0299 10.8898 31.8799C10.9198 24.8599 16.6898 19.1299 23.7098 19.1299C30.7998 19.1299 36.5898 24.95 36.5597 32.04C36.5397 39.1 30.7497 44.8301 23.6697 44.8101H23.6797ZM27.6597 41.3599C26.0197 38.5599 24.4198 35.8799 22.8798 33.1699C22.5898 32.6599 22.4198 32.0199 22.3998 31.4399C22.3398 29.4699 22.3798 27.4998 22.3798 25.5298C22.3798 24.3498 22.3798 23.1799 22.3798 21.9199C18.3398 22.6699 15.5697 24.8499 14.1697 28.6099C12.7597 32.3999 13.8497 36.7202 16.8597 39.4102C19.9997 42.2202 23.5997 42.7601 27.6597 41.3501V41.3599ZM25.1298 21.9902V30.5698H33.6597C33.5297 27.1798 30.2398 22.5802 25.1298 21.9902ZM29.9697 39.9399C32.1097 38.1999 33.3398 36.0699 33.7498 33.3999H26.1298C27.4398 35.6299 28.6897 37.7499 29.9697 39.9399Z" fill="#333333"/>
<path d="M76.1004 45.0001C76.1004 48.7401 76.1004 52.4901 76.1004 56.2301C76.1004 57.7201 75.7004 58.11 74.1904 58.11C73.1204 58.11 72.0504 58.12 70.9804 58.11C69.9604 58.1 69.4704 57.63 69.4704 56.61C69.4604 48.87 69.4604 41.1302 69.4704 33.3902C69.4704 32.3702 69.9604 31.91 70.9904 31.9C72.1204 31.88 73.2404 31.9 74.3704 31.9C75.6604 31.9 76.1004 32.34 76.1004 33.61C76.1004 37.41 76.1004 41.2099 76.1004 45.0099V45.0001ZM73.3504 55.38V34.6402H72.2304V55.38H73.3504Z" fill="#333333"/>
<path d="M60.9297 47.0801C60.9297 44.0401 60.9297 41.0002 60.9297 37.9702C60.9297 36.5702 61.3597 36.1401 62.7297 36.1401C63.7697 36.1401 64.8097 36.1401 65.8497 36.1401C67.1697 36.1401 67.6097 36.5802 67.6097 37.9302C67.6097 40.7402 67.6097 43.5601 67.6097 46.3701C67.6097 49.6601 67.6097 52.9502 67.6097 56.2402C67.6097 57.7002 67.1897 58.1201 65.7697 58.1201C64.7297 58.1201 63.6897 58.1201 62.6497 58.1201C61.3897 58.1201 60.9397 57.6601 60.9297 56.3701C60.9297 53.2801 60.9297 50.1798 60.9297 47.0898V47.0801ZM64.8597 55.3701V38.8901H63.6897V55.3701H64.8597Z" fill="#333333"/>
<path d="M58.8696 20.8701C63.0296 20.8701 67.1996 20.8701 71.3596 20.8701C71.6996 20.8701 72.0396 20.8602 72.3696 20.9302C73.0296 21.0702 73.3896 21.5102 73.4096 22.1802C73.4296 22.8502 73.0896 23.3102 72.4396 23.4902C72.1496 23.5702 71.8296 23.5698 71.5196 23.5698C63.1096 23.5698 54.6996 23.5698 46.2796 23.5698C45.9696 23.5698 45.6496 23.57 45.3596 23.5C44.7096 23.34 44.3496 22.8802 44.3596 22.2202C44.3596 21.5202 44.7496 21.0602 45.4496 20.9302C45.7496 20.8702 46.0696 20.8799 46.3696 20.8799C50.5296 20.8799 54.6996 20.8799 58.8596 20.8799L58.8696 20.8701Z" fill="#333333"/>
<path d="M52.2598 29.2596C50.1798 29.2596 48.0998 29.2596 46.0198 29.2596C44.9498 29.2596 44.3397 28.75 44.3497 27.91C44.3497 27.1 44.9598 26.5599 45.9598 26.5599C50.1698 26.5499 54.3897 26.5399 58.5997 26.5599C59.8397 26.5599 60.5497 27.4898 60.1097 28.4598C59.8297 29.0798 59.3097 29.2596 58.6597 29.2596C56.5197 29.2496 54.3898 29.2596 52.2498 29.2596H52.2598Z" fill="#333333"/>
<path d="M14.4206 55.3102C15.1506 55.3102 15.8806 55.2802 16.6106 55.3102C17.4206 55.3602 17.9706 55.9203 17.9806 56.6403C17.9806 57.3603 17.4406 57.9504 16.6306 57.9704C15.1706 58.0104 13.7106 58.0104 12.2406 57.9704C11.4106 57.9504 10.9006 57.4001 10.8906 56.6501C10.8906 55.9001 11.3906 55.3602 12.2206 55.3102C12.9506 55.2702 13.6806 55.31 14.4106 55.3L14.4206 55.3102Z" fill="#333333"/>
<path d="M14.3998 52.1C13.6998 52.1 12.9898 52.13 12.2898 52.1C11.3998 52.05 10.8798 51.5099 10.8898 50.7299C10.8998 49.9499 11.4398 49.4398 12.3398 49.4198C13.7498 49.3998 15.1498 49.3898 16.5598 49.4198C17.3898 49.4398 17.9397 49.9698 17.9697 50.6898C18.0097 51.4298 17.4398 52.0097 16.5898 52.0897C16.5298 52.0897 16.4798 52.0897 16.4198 52.0897C15.7498 52.0897 15.0698 52.0897 14.3998 52.0897V52.1Z" fill="#333333"/>
<path d="M9.89062 7.64972C9.89062 6.53972 10.8106 5.61992 11.9206 5.59992C13.0606 5.57992 14.0006 6.53 14.0006 7.68C14.0006 8.8 13.0906 9.7198 11.9806 9.7298C10.8506 9.7498 9.89063 8.78972 9.90063 7.64972H9.89062Z" fill="#333333"/>
<path d="M21.9298 7.70996C21.9098 8.82996 20.9898 9.73998 19.8798 9.72998C18.7398 9.72998 17.7998 8.77012 17.8298 7.62012C17.8498 6.51012 18.7798 5.59984 19.8798 5.58984C21.0198 5.58984 21.9498 6.5402 21.9298 7.7002V7.70996Z" fill="#333333"/>
<path d="M29.8696 7.68C29.8696 8.8 28.9596 9.7198 27.8496 9.7298C26.7096 9.7498 25.7596 8.78972 25.7696 7.64972C25.7696 6.53972 26.6896 5.61992 27.7996 5.59992C28.9396 5.57992 29.8796 6.53 29.8796 7.68H29.8696Z" fill="#333333"/>
<path d="M40.3599 46.71C47.0299 46.69 52.4499 52.06 52.4799 58.73C52.5099 65.44 47.1099 70.91 40.4299 70.92C33.7899 70.94 28.3199 65.5102 28.2999 58.8902C28.2799 52.1702 33.6599 46.7403 40.3599 46.7203V46.71ZM49.7799 58.8399C49.7999 53.6399 45.6299 49.44 40.4299 49.42C35.2499 49.4 31.0199 53.5998 30.9999 58.7798C30.9899 63.9498 35.1999 68.2003 40.3599 68.2203C45.5199 68.2403 49.7499 64.0302 49.7699 58.8502L49.7799 58.8399Z" fill="#333333"/>
</svg>
