<svg width="101" height="98" viewBox="0 0 101 98" fill="none" xmlns="http://www.w3.org/2000/svg">
<path d="M100.411 48.7399C100.411 52.3199 93.8707 55.1199 93.1107 58.4699C92.3507 61.8199 96.9807 67.2799 95.4707 70.3999C93.9607 73.5199 86.8408 73.2599 84.6608 75.9799C82.4808 78.6999 84.3507 85.57 81.6107 87.76C78.8707 89.95 72.6207 86.5901 69.4507 88.1201C66.2807 89.6501 65.0507 96.6199 61.5907 97.4099C58.1307 98.1999 54.0607 92.4399 50.4807 92.4399C46.9007 92.4399 42.7207 98.1699 39.3707 97.4099C36.0207 96.6499 34.6307 89.6301 31.5107 88.1201C28.3907 86.6101 22.0807 89.94 19.3507 87.76C16.6207 85.58 18.4908 78.7199 16.3008 75.9799C14.1108 73.2399 7.02072 73.5699 5.49072 70.3999C3.98072 67.2799 8.64071 61.9299 7.85071 58.4699C7.06071 55.0099 0.550781 52.3199 0.550781 48.7399C0.550781 45.16 7.09071 42.36 7.85071 39.01C8.61071 35.66 3.98072 30.2 5.49072 27.08C7.00072 23.96 14.1208 24.22 16.3008 21.5C18.4808 18.78 16.6107 11.9099 19.3507 9.71993C22.0907 7.52993 28.3407 10.8901 31.5107 9.36007C34.6807 7.83007 35.9107 0.860027 39.3707 0.0700269C42.8307 -0.719973 46.9007 5.04 50.4807 5.04C54.0607 5.04 58.2407 -0.689973 61.5907 0.0700269C64.9407 0.830027 66.3307 7.85007 69.4507 9.36007C72.5707 10.8701 78.8807 7.53993 81.6107 9.71993C84.3407 11.8999 82.4708 18.76 84.6608 21.5C86.8408 24.23 93.9407 23.91 95.4707 27.08C97.0007 30.25 92.3207 35.55 93.1107 39.01C93.9007 42.47 100.411 45.16 100.411 48.7399Z" fill="#FFB51B"/>
<path d="M75.3801 69.6799C75.1101 70.3399 74.9502 71.0699 74.5602 71.6499C73.7402 72.8699 72.4802 73.32 71.0402 73.32C61.4102 73.32 51.7802 73.32 42.1502 73.32C37.8802 73.32 33.6001 73.32 29.3301 73.32C27.6101 73.32 26.2702 72.61 25.5202 71.04C25.2402 70.45 25.1001 69.7501 25.1001 69.1001C25.0701 64.4501 25.0701 59.7999 25.0901 55.1499C25.0901 52.1399 27.7602 50.1999 30.5302 51.1999C32.0602 51.7599 32.9101 52.92 33.1201 54.54C33.1601 54.81 33.1502 55.1001 33.1502 55.3701C33.1502 58.4701 33.1502 61.5599 33.1502 64.6599V65.23H67.3201C67.3201 65.03 67.3201 64.8399 67.3201 64.6499C67.3201 61.4699 67.3201 58.3001 67.3201 55.1201C67.3201 53.1301 68.4101 51.6501 70.2301 51.1001C72.4601 50.4201 74.8702 51.8799 75.3002 54.1799C75.3202 54.3099 75.3602 54.43 75.3902 54.56V69.6899L75.3801 69.6799Z" fill="white"/>
<path d="M50.72 23C51.62 23.21 52.46 23.54 53.12 24.23C53.93 25.09 54.26 26.11 54.26 27.27C54.26 31.99 54.26 36.6999 54.26 41.4199C54.26 41.5899 54.26 41.77 54.26 42.03C54.45 41.86 54.57 41.7499 54.68 41.6399C55.99 40.3299 57.29 39.02 58.61 37.71C59.98 36.36 61.7999 36 63.33 36.76C65.9699 38.08 66.4401 41.2699 64.3101 43.4199C61.7001 46.0499 59.08 48.66 56.46 51.27C55.38 52.35 54.31 53.43 53.23 54.5C51.46 56.24 49.0601 56.2901 47.3101 54.5601C43.5401 50.8301 39.7801 47.09 36.0601 43.3C33.9901 41.2 34.55 38.04 37.14 36.75C38.67 35.99 40.49 36.35 41.86 37.7C43.17 39 44.48 40.3199 45.79 41.6299C45.9 41.7399 46.02 41.84 46.21 42.02V41.4099C46.21 36.8899 46.2699 32.3701 46.1899 27.8501C46.1499 25.4701 47.13 23.53 49.76 22.98H50.74L50.72 23Z" fill="white"/>
</svg>
