<svg width="119" height="118" viewBox="0 0 119 118" fill="none" xmlns="http://www.w3.org/2000/svg">
<path d="M38.25 93.02V96.76C37.94 96.78 37.72 96.81 37.49 96.81C28.29 96.81 19.09 96.84 9.89001 96.81C4.41001 96.79 0.209985 92.43 0.359985 87.02C0.489985 82.16 4.49999 78.09 9.35999 77.89C10.42 77.85 11.48 77.89 12.7 77.89C8.45995 57.91 4.24 38.05 0 18.11C9.68 16.05 19.19 14.03 28.76 11.99V0.25H89.39V11.96C98.99 14 108.5 16.03 118.19 18.09C117.89 19.56 117.63 20.97 117.33 22.37C113.36 40.99 109.39 59.61 105.44 78.24C105.34 78.71 105.4 79.26 105.52 79.74C109.73 96.81 99.4 113.37 82.23 117.06C66.3 120.48 50.36 110.19 46.63 94.02C46.45 93.24 46.18 93 45.4 93.02C43.08 93.07 40.75 93.04 38.26 93.04L38.25 93.02ZM85.62 4.01001H32.64V77.87H38.3099V81.64C40.8899 81.64 43.33 81.65 45.78 81.62C46.02 81.62 46.41 81.4 46.48 81.2C47.24 78.85 47.95 76.49 48.71 74.02H36.4399V45.71H81.87C81.87 46.22 81.87 46.65 81.87 47.08C81.87 50.24 81.86 53.4 81.89 56.56C81.89 56.93 82.0599 57.54 82.2999 57.62C83.3599 57.98 84.48 58.18 85.63 58.46V4.02002L85.62 4.01001ZM89.48 15.84C89.46 16.2 89.4399 16.39 89.4399 16.58C89.4399 30.79 89.4399 45 89.4199 59.21C89.4199 59.93 89.69 60.24 90.28 60.55C95.25 63.16 99.18 66.89 102.13 71.67C102.28 71.91 102.46 72.13 102.77 72.55C106.45 55.23 110.08 38.15 113.73 20.99C105.57 19.26 97.6 17.56 89.48 15.84ZM102.71 87.3C102.7 72.69 90.7899 60.79 76.1699 60.79C61.5599 60.79 49.65 72.68 49.63 87.29C49.62 101.95 61.56 113.89 76.22 113.86C90.82 113.83 102.71 101.91 102.7 87.29L102.71 87.3ZM40.21 70.27C43.52 70.27 46.75 70.24 49.98 70.29C50.83 70.3 51.3099 70.01 51.8099 69.35C56.7199 62.82 63.19 58.77 71.27 57.45C73.47 57.09 75.71 57.04 78 56.85V49.48H40.2V70.27H40.21ZM21.02 38.27C16.28 35.15 15.53 30.18 17 26.51C18.8 22.01 22.73 20.14 28.74 20.94V15.86C20.64 17.58 12.61 19.29 4.5 21.01C8.55 40.05 12.5599 58.92 16.5699 77.81H20.4399C19.2499 72.21 18.08 66.68 16.89 61.02C20.89 60.16 24.81 59.32 28.71 58.49V54.64C24.47 55.53 20.3199 56.41 16.1899 57.28C13.8599 49.9 14.78 43.45 21.03 38.28L21.02 38.27ZM34.47 81.76C34.24 81.7 34.17 81.66 34.1 81.66C25.94 81.66 17.77 81.6 9.60999 81.71C8.44999 81.73 7.14994 82.34 6.18994 83.05C4.26994 84.45 3.67997 87 4.46997 89.23C5.25997 91.47 7.36994 93 9.80994 93.01C17.8499 93.03 25.8999 93.01 33.9399 93.01C34.0899 93.01 34.2299 92.96 34.4299 92.93C34.4399 92.66 34.46 92.43 34.46 92.2C34.46 88.74 34.46 85.27 34.46 81.76H34.47ZM28.74 39.24C22.15 39.76 17.3699 46.86 19.1799 52.76C22.3499 52.08 25.53 51.41 28.74 50.73V39.25V39.24ZM21.37 63.93C22.38 68.67 23.3499 73.23 24.3199 77.76H28.72V62.36C26.26 62.88 23.88 63.39 21.38 63.92L21.37 63.93ZM28.7899 30.07C28.7899 29.16 28.7899 28.26 28.7899 27.35C28.7899 25.02 28.14 24.37 25.77 24.36C25.3 24.36 24.82 24.44 24.37 24.55C21.2 25.33 19.3699 28.74 20.4299 31.87C21.4699 34.92 24.9299 36.54 27.7999 35.34C28.4799 35.05 28.8699 34.7 28.8099 33.86C28.7299 32.6 28.7899 31.34 28.7899 30.07ZM45.8099 89.16V85.49H38.33V89.16H45.8099Z" fill="#FFB01B"/>
<path d="M36.4613 41.75C35.7013 34.07 38.0313 27.99 45.1913 24.24C42.9113 21.96 41.7514 19.29 42.1214 16.11C42.4014 13.62 43.5414 11.53 45.4814 9.91998C49.3214 6.72998 54.9014 7.05 58.3614 10.63C61.2814 13.65 62.6314 19.34 57.9014 24.24C65.0014 27.95 67.3713 34.05 66.6013 41.76H36.4613V41.75ZM40.2113 37.97H62.8513C63.0313 31.95 57.7814 26.71 51.6114 26.67C45.3814 26.64 40.1013 31.81 40.2113 37.97ZM57.2213 17.25C57.2413 14.15 54.7414 11.57 51.6514 11.51C48.5014 11.46 45.8813 14 45.8513 17.14C45.8214 20.29 48.3913 22.88 51.5413 22.88C54.6313 22.88 57.1913 20.34 57.2213 17.25Z" fill="#FFB01B"/>
<path d="M81.8098 7.79999V11.45H70.5898V7.79999H81.8098Z" fill="#FFB01B"/>
<path d="M81.8401 15.37V18.99H70.5801V15.37H81.8401Z" fill="#FFB01B"/>
<path d="M81.8098 22.96V26.61H70.5898V22.96H81.8098Z" fill="#FFB01B"/>
<path d="M70.541 34.17V30.53H81.811V34.17H70.541Z" fill="#FFB01B"/>
<path d="M81.8098 38.13V41.78H70.5898V38.13H81.8098Z" fill="#FFB01B"/>
<path d="M106.861 35.05C103.081 34.25 99.5115 33.49 95.7715 32.69C96.0215 31.46 96.2714 30.29 96.5414 28.98C100.261 29.77 103.891 30.54 107.651 31.34C107.381 32.61 107.141 33.77 106.871 35.04L106.861 35.05Z" fill="#FFB01B"/>
<path d="M109.222 23.92C108.952 25.2 108.712 26.37 108.452 27.63C104.712 26.83 101.082 26.06 97.3516 25.27C97.6116 24.01 97.8516 22.87 98.1216 21.58C101.842 22.37 105.472 23.14 109.222 23.93V23.92Z" fill="#FFB01B"/>
<path d="M91.8314 51.23C95.6114 52.04 99.2115 52.81 102.901 53.6C102.641 54.86 102.401 56 102.131 57.29C98.4315 56.51 94.8015 55.74 91.0215 54.94C91.3015 53.67 91.5614 52.48 91.8314 51.23Z" fill="#FFB01B"/>
<path d="M94.1699 40.1C94.4599 38.79 94.71 37.64 94.98 36.41C98.69 37.2 102.33 37.97 106.08 38.76C105.81 40.02 105.56 41.19 105.29 42.46C101.56 41.67 97.9199 40.89 94.1799 40.1H94.1699Z" fill="#FFB01B"/>
<path d="M104.491 46.18C104.221 47.48 103.971 48.63 103.711 49.89C99.9813 49.09 96.3413 48.32 92.6113 47.52C92.8813 46.25 93.1214 45.12 93.3914 43.83C97.1014 44.62 100.711 45.38 104.491 46.18Z" fill="#FFB01B"/>
<path d="M76.2017 110.07C63.6717 110.08 53.4416 99.88 53.4316 87.35C53.4216 74.81 63.6217 64.59 76.1517 64.58C88.6917 64.57 98.9116 74.77 98.9216 87.3C98.9316 99.83 88.7317 110.06 76.2017 110.08V110.07ZM76.2417 68.37C65.8017 68.35 57.2617 76.8 57.2217 87.19C57.1717 97.68 65.6517 106.25 76.1017 106.28C86.5817 106.31 95.1217 97.8 95.1317 87.33C95.1317 76.91 86.6517 68.39 76.2417 68.37Z" fill="#FFB01B"/>
<path d="M76.2207 75.89V72.3C80.9107 71.83 88.1007 75.18 90.5707 82.56C92.7307 89.02 89.9907 96.87 84.4907 99.89C83.8407 98.92 83.1907 97.94 82.5007 96.9C87.0107 93.27 88.7407 88.74 86.7307 83.19C85.1807 78.91 81.5907 76.5 76.2207 75.89Z" fill="#FFB01B"/>
<path d="M80.58 101.95C79.02 102.18 77.68 102.38 76.25 102.59V98.8C77.3 98.64 78.33 98.48 79.47 98.31C79.81 99.44 80.16 100.58 80.58 101.95Z" fill="#FFB01B"/>
</svg>
