<svg width="96" height="87" viewBox="0 0 96 87" fill="none" xmlns="http://www.w3.org/2000/svg">
<path d="M68.3198 87.0005C64.2598 85.9005 60.2098 84.7906 56.1498 83.7006C39.7398 79.3006 23.3197 74.92 6.90973 70.52C3.64973 69.65 1.59975 67.5609 0.869751 64.2309C0.839751 64.1209 0.769727 64.0106 0.719727 63.9106C0.719727 63.1106 0.719727 62.3102 0.719727 61.5102C1.51973 58.6202 2.32974 55.7305 3.10974 52.8305C4.91974 46.1005 6.71978 39.3606 8.51978 32.6206C8.56978 32.4406 8.61975 32.2603 8.67975 32.0903C9.04975 31.0303 10.0598 30.4502 11.0698 30.7202C12.1298 31.0102 12.7498 32.0504 12.4498 33.1704C11.5498 36.6204 10.6198 40.0604 9.68976 43.5005C8.08976 49.4604 6.48977 55.4301 4.88977 61.3901C4.17977 64.0301 5.32975 66.0004 7.98975 66.7104C27.9597 72.0604 47.9298 77.4102 67.8998 82.7602C70.8398 83.5502 72.6698 82.4803 73.4598 79.5503C74.4098 76.0203 75.3498 72.4904 76.3098 68.9604C76.5898 67.9304 77.2597 67.3205 78.1597 67.2905C78.9997 67.2605 79.7298 67.6106 79.9998 68.4106C80.1798 68.9506 80.1797 69.6309 80.0397 70.1909C79.3497 72.9309 78.5897 75.6503 77.8497 78.3803C77.6097 79.2703 77.3898 80.1703 77.1298 81.0503C76.2298 84.1103 74.2398 86.05 71.1298 86.81C70.9898 86.84 70.8597 86.9307 70.7197 86.9907H68.3198V87.0005Z" fill="#4D7EE0"/>
<path d="M55.91 0.320312C66.2799 0.320312 76.66 0.320312 87.03 0.320312C91.01 0.320312 94.06 2.55992 95 6.16992C95.19 6.89992 95.28 7.6902 95.28 8.4502C95.3 24.0302 95.3 39.5997 95.28 55.1797C95.28 59.9797 91.88 63.3604 87.06 63.3604C66.25 63.3604 45.44 63.3604 24.63 63.3604C19.92 63.3604 16.47 60.0096 16.46 55.3096C16.43 39.6696 16.43 24.0304 16.46 8.40039C16.46 3.64039 19.88 0.340078 24.69 0.330078C35.09 0.310078 45.5 0.330078 55.9 0.330078L55.91 0.320312ZM49.81 42.7197C50.18 42.2897 50.46 41.9596 50.73 41.6396C55.46 35.9697 60.1899 30.3004 64.91 24.6104C65.84 23.4804 66.95 22.6498 68.39 22.3398C70.95 21.7898 72.94 22.7299 74.59 24.6699C79.88 30.8799 85.2 37.06 90.5 43.25C90.72 43.51 90.96 43.7599 91.3 44.1299C91.33 43.7999 91.35 43.6903 91.35 43.5703C91.35 31.8403 91.36 20.1196 91.35 8.38965C91.35 5.83965 89.65 4.24023 87.06 4.24023C66.28 4.24023 45.51 4.24023 24.73 4.24023C22.02 4.24023 20.43 5.82004 20.43 8.54004C20.43 22.91 20.43 37.2902 20.43 51.6602C20.43 51.9102 20.47 52.1699 20.49 52.4199L20.7199 52.54C20.9499 52.25 21.15 51.9404 21.41 51.6904C26.15 46.9404 30.89 42.19 35.64 37.46C38.31 34.8 41.91 34.8197 44.58 37.4697C46.3 39.1897 48.01 40.9205 49.8 42.7305L49.81 42.7197ZM20.94 57.4404C22 58.9404 23.2 59.4297 24.64 59.4297C27.04 59.4297 29.44 59.4297 31.84 59.4297C50.19 59.4297 68.53 59.4297 86.88 59.4297C89.76 59.4297 91.35 57.8402 91.36 54.9902C91.36 53.7302 91.42 52.46 91.33 51.21C91.29 50.68 91.09 50.0602 90.75 49.6602C84.37 42.1602 77.95 34.68 71.54 27.21C70.27 25.73 69.07 25.7698 67.8 27.2998C62.48 33.6898 57.17 40.0702 51.85 46.4502C50.6 47.9502 49.53 48.0001 48.15 46.6201C46.08 44.5501 44.02 42.4799 41.95 40.4199C40.6 39.0699 39.62 39.0699 38.27 40.4199C32.78 45.8999 27.3 51.3901 21.81 56.8701C21.57 57.1101 21.25 57.2502 20.93 57.4502L20.94 57.4404Z" fill="#4D7EE0"/>
<path d="M36.1803 12.1504C40.5203 12.1504 44.0503 15.6602 44.0603 19.9902C44.0803 24.3302 40.4803 27.9099 36.1203 27.8799C31.8103 27.8599 28.2604 24.2697 28.2804 19.9697C28.3104 15.6397 31.8403 12.1396 36.1803 12.1396V12.1504ZM40.1003 20.0195C40.1003 17.8395 38.3603 16.0696 36.2003 16.0596C34.0303 16.0596 32.2703 17.8005 32.2603 19.9805C32.2603 22.1605 33.9903 23.9302 36.1603 23.9502C38.3203 23.9602 40.0903 22.1895 40.1003 20.0195Z" fill="#4D7EE0"/>
</svg>
