<svg width="90" height="89" viewBox="0 0 90 89" fill="none" xmlns="http://www.w3.org/2000/svg">
<path d="M50.4003 32.6299C49.1103 35.6399 47.8202 38.67 46.4902 41.69C46.3102 42.09 46.0202 42.5103 45.6602 42.7403C44.8702 43.2503 43.9802 42.8401 43.5402 41.8101C42.3402 39.0401 41.1402 36.27 39.9902 33.48C39.7002 32.77 39.3302 32.5501 38.5702 32.5601C34.2802 32.6001 30.0003 32.5901 25.7103 32.5601C25.1003 32.5601 24.6902 32.75 24.2602 33.17C21.2902 36.17 18.2902 39.1502 15.3102 42.1402C14.7602 42.6902 14.2002 43.1599 13.3602 42.8199C12.4902 42.4699 12.4003 41.7302 12.4003 40.9102C12.4203 38.1702 12.4003 35.4299 12.4003 32.5699C11.4903 32.5699 10.6402 32.5699 9.79021 32.5699C4.41021 32.5499 0.570234 28.7399 0.560234 23.3799C0.550234 18.6299 0.550234 13.8799 0.560234 9.12993C0.580234 3.86993 4.42022 4.99133e-05 9.67022 4.99133e-05C33.2002 -0.00995009 56.7302 4.99133e-05 80.2602 4.99133e-05C85.5302 4.99133e-05 89.3803 3.85015 89.4003 9.10015C89.4203 13.8801 89.4203 18.66 89.4003 23.44C89.3803 28.7 85.5402 32.5399 80.2902 32.5699C79.4302 32.5699 78.5702 32.5699 77.5602 32.5699C77.5602 32.9299 77.5602 33.2499 77.5602 33.5699C77.5602 36.0699 77.5502 38.5701 77.5602 41.0601C77.5602 41.8301 77.4002 42.4699 76.6302 42.7999C75.8402 43.1299 75.2802 42.7503 74.7402 42.2203C71.7102 39.1803 68.6903 36.1502 65.6403 33.1402C65.3603 32.8702 64.9302 32.5999 64.5702 32.5899C59.9402 32.5499 55.3202 32.5699 50.6902 32.5699C50.6002 32.5699 50.5102 32.6002 50.3802 32.6202L50.4003 32.6299ZM71.6902 29.7002C71.8202 29.6602 71.8802 29.6299 71.9402 29.6299C74.6502 29.6299 77.3703 29.6302 80.0803 29.6202C83.9703 29.6202 86.4502 27.1501 86.4502 23.2701C86.4502 18.7101 86.4502 14.1401 86.4502 9.58013C86.4502 5.36013 84.0802 2.97026 79.8802 2.97026C63.8102 2.97026 47.7402 2.97026 31.6702 2.97026C24.3002 2.97026 16.9302 2.96026 9.55022 2.97026C6.14022 2.97026 3.56021 5.54023 3.54021 8.93023C3.52021 13.8302 3.52021 18.7402 3.54021 23.6402C3.56021 27.0302 6.13021 29.5802 9.54021 29.6202C10.9002 29.6402 12.2502 29.6202 13.6102 29.6202C14.8302 29.6302 15.3702 30.1599 15.3802 31.3599C15.3902 33.2099 15.3802 35.0602 15.3802 36.9102C15.3802 37.1602 15.4202 37.42 15.4302 37.67C15.4002 37.6 15.3603 37.53 15.3303 37.46C16.9903 35.8 18.6402 34.1501 20.2602 32.5401H18.4003V29.69C18.4903 29.65 18.5102 29.6299 18.5402 29.6299C25.8502 29.6299 33.1602 29.6199 40.4702 29.6099C41.2502 29.6099 41.7202 30.0403 42.0102 30.7203C42.6802 32.3103 43.3702 33.89 44.0502 35.48C44.3302 36.14 44.6202 36.81 45.0002 37.69C45.7802 35.87 46.4602 34.2799 47.2002 32.5499H45.0702V29.6602C45.2302 29.6402 45.3202 29.6202 45.4102 29.6202C52.1002 29.6202 58.8002 29.6 65.4902 29.65C66.0302 29.65 66.6803 30.0002 67.0803 30.3902C69.1303 32.3502 71.1202 34.3802 73.1202 36.3902C73.5602 36.8402 73.9802 37.31 74.5502 37.92V32.5499H71.7002V29.7002H71.6902Z" fill="#333333"/>
<path d="M34.3903 72.9701C33.1303 71.7101 31.9303 70.5297 30.7503 69.3197C30.2803 68.8297 30.0003 68.2497 30.3103 67.5497C30.6103 66.8797 31.1603 66.6497 31.8703 66.6097C32.8903 66.5497 33.6803 66.03 34.2103 65.16C34.8603 64.11 34.7403 63.6098 33.7303 62.9598C30.8903 61.1298 31.0003 57.0597 33.9603 55.3797C34.4903 55.0797 34.7503 54.7698 34.8703 54.1498C35.8103 49.3498 40.1703 45.87 45.1003 45.91C49.9803 45.95 54.2303 49.4799 55.1803 54.2499C55.2603 54.6299 55.5703 55.0596 55.9003 55.2596C57.4003 56.1496 58.2703 57.4198 58.3003 59.1698C58.3203 60.9498 57.4903 62.3198 55.9103 63.1498C55.3803 63.4298 55.2903 63.7499 55.4003 64.2499C55.6703 65.5099 56.7203 66.5 58.0403 66.62C58.7703 66.68 59.3703 66.8597 59.6803 67.5897C59.9903 68.3397 59.6603 68.93 59.1703 69.43C58.0103 70.61 56.8203 71.7698 55.6003 72.9798C57.4503 74.8098 58.3803 77.14 58.3303 79.87C58.3003 81.44 58.3303 83.0197 58.3303 84.5897V88.7997H55.3703C55.3703 87.0297 55.3703 85.2796 55.3703 83.5296C55.3703 82.1396 55.3803 80.75 55.3703 79.37C55.3403 76.83 53.8603 74.7399 51.4703 73.8299C51.3503 73.7899 51.2403 73.75 51.1303 73.7C49.9403 73.18 49.0603 72.9796 47.9603 74.2796C46.2303 76.3296 42.9903 75.8697 41.3903 73.6097C41.0503 73.1397 40.7903 73.0201 40.2703 73.2401C39.7103 73.4801 39.1003 73.6197 38.5203 73.8397C36.1403 74.7397 34.6603 76.84 34.6503 79.39C34.6303 82.5 34.6503 85.6099 34.6503 88.7899H31.6903C31.6903 88.3999 31.6903 88.01 31.6903 87.62C31.6903 84.91 31.6903 82.1898 31.6903 79.4798C31.6903 76.9198 32.6403 74.7401 34.4103 72.9901L34.3903 72.9701ZM39.0803 57.7796C39.0803 58.6796 39.0903 59.4796 39.0803 60.2796C39.0403 62.9396 40.1603 64.9 42.5503 66.1C43.2303 66.44 43.5403 66.9698 43.5203 67.7298C43.5003 68.7798 43.5003 69.83 43.5203 70.87C43.5403 71.89 44.1103 72.5297 44.9803 72.5497C45.8503 72.5597 46.4603 71.92 46.4703 70.91C46.4903 69.83 46.4903 68.75 46.4703 67.68C46.4703 66.95 46.7703 66.44 47.4103 66.12C50.8903 64.4 51.2603 61.3699 50.7703 57.8099H48.6503C49.5503 58.7999 49.6503 59.6099 48.9903 60.2699C48.4603 60.7999 47.6003 60.9097 47.0803 60.3797C46.7703 60.0597 46.5103 59.5297 46.5303 59.1097C46.5503 58.6597 46.9303 58.2197 47.1403 57.7997H42.7503C43.6503 58.8497 43.7303 59.6697 43.0203 60.3197C42.4703 60.8297 41.6303 60.87 41.0903 60.35C40.8403 60.11 40.5603 59.7098 40.6003 59.4198C40.6703 58.8598 40.9603 58.3297 41.1503 57.7997H39.0603L39.0803 57.7796ZM52.1903 54.7596C51.4803 51.1796 48.2903 48.73 44.6403 48.87C41.3103 49 38.2303 51.6498 37.8403 54.7298H40.5803V51.89H43.5503V54.7201H46.5203V51.87H49.4603V54.7499H52.1903V54.7596ZM55.4003 69.1898C54.3403 67.8998 53.3903 66.7398 52.5203 65.6898C51.7603 66.3998 50.9903 67.2998 50.0503 67.9598C49.3503 68.4498 49.3603 69.03 49.4903 69.62C49.5503 69.91 50.0403 70.1497 50.3903 70.2997C50.9503 70.5497 51.5403 70.7297 52.1403 70.8797C52.4103 70.9497 52.7703 70.9599 52.9903 70.8299C53.8703 70.2799 54.7103 69.6698 55.4103 69.1898H55.4003ZM34.6603 69.12C35.9503 70.55 37.5303 71.5599 39.7003 70.3099C39.7803 70.2599 39.8703 70.2398 39.9603 70.2098C40.6103 69.9598 40.8503 68.7399 40.3203 68.2699C39.3303 67.3799 38.3303 66.4901 37.4703 65.7201C36.6003 66.7701 35.6603 67.91 34.6603 69.12ZM36.0803 60.7201V57.7401C35.2003 57.9001 34.6803 58.3498 34.6603 59.1898C34.6403 60.0398 35.1403 60.5198 36.0803 60.7098V60.7201ZM53.9203 60.64C54.8803 60.5 55.4203 59.98 55.3503 59.18C55.2803 58.35 54.8203 57.8596 53.9203 57.7796V60.64Z" fill="#333333"/>
<path d="M89.4203 88.82H86.4604C86.4604 88.48 86.4604 88.1503 86.4604 87.8303C86.4604 85.1203 86.4604 82.4001 86.4604 79.6901C86.4604 76.6801 84.9703 74.6301 82.1003 73.6501C81.9503 73.6001 81.8003 73.5604 81.6703 73.4904C80.7403 73.0604 80.1003 73.0602 79.3103 74.0402C77.5403 76.2302 74.1804 75.9701 72.5204 73.6501C72.1304 73.1001 71.8103 73.01 71.2503 73.26C70.7403 73.48 70.2003 73.61 69.6803 73.8C67.2403 74.71 65.7603 76.7903 65.7403 79.3903C65.7203 82.5003 65.7403 85.61 65.7403 88.78H62.7804C62.7804 86.86 62.7604 84.96 62.7804 83.05C62.8004 81.3 62.7003 79.51 62.9703 77.8C63.4903 74.53 65.4504 72.3103 68.5204 71.0803C69.3504 70.7503 70.2103 70.5102 71.0503 70.2102C71.7603 69.9602 71.9803 68.6504 71.3503 68.2204C69.7703 67.1604 68.6003 65.7702 67.8503 64.0202C67.7703 63.8402 67.4404 63.7004 67.2104 63.6804C64.9204 63.4804 63.3804 62.2401 62.8904 60.1701C62.4304 58.2101 63.3304 56.3804 65.2704 55.2204C65.5004 55.0804 65.7103 54.7302 65.7203 54.4602C65.7703 53.2002 65.7403 51.9301 65.7403 50.6701C65.7503 47.7301 67.5903 45.9101 70.5503 45.9001C72.2103 45.9001 73.8803 45.9303 75.5403 45.8903C76.8203 45.8603 77.9804 46.1402 79.0304 47.0002C80.1804 46.1702 81.4404 45.6702 82.9004 46.0002C84.9904 46.4702 86.4004 48.1402 86.4504 50.2702C86.4804 51.5902 86.4704 52.9202 86.4504 54.2502C86.4504 54.7502 86.5403 55.0603 87.0503 55.3303C88.8703 56.2903 89.7503 58.2501 89.3103 60.1501C88.8403 62.2001 87.2403 63.5501 85.1003 63.6501C84.6403 63.6701 84.4003 63.8004 84.2203 64.2404C83.5503 65.8504 82.4804 67.1603 81.0104 68.0803C80.3304 68.5103 80.5304 69.1003 80.5804 69.6203C80.6004 69.8503 81.0203 70.1204 81.3103 70.2404C82.0803 70.5504 82.8803 70.7703 83.6603 71.0603C87.1003 72.3603 89.3703 75.5604 89.4103 79.2404C89.4403 82.4104 89.4103 85.5703 89.4103 88.8103L89.4203 88.82ZM70.1703 57.7902C70.1703 58.6702 70.1803 59.4402 70.1703 60.2102C70.1103 62.9002 71.2303 64.9001 73.6603 66.1101C74.3003 66.4301 74.6203 66.9404 74.6103 67.6604C74.6003 68.7404 74.5903 69.8201 74.6103 70.9001C74.6303 71.9101 75.2204 72.56 76.0904 72.55C76.9604 72.55 77.5403 71.9003 77.5603 70.8903C77.5803 69.9303 77.6003 68.9802 77.5603 68.0202C77.5103 67.0402 77.8704 66.4104 78.7704 65.9704C80.5104 65.1104 81.6203 63.68 81.8803 61.76C82.0703 60.33 81.9803 58.8704 82.0003 57.4304C82.0003 57.2904 81.8503 57.11 81.7203 57.01C80.8203 56.34 79.9003 55.6804 78.9203 54.9704C77.6503 56.5404 75.9004 57.4702 73.7704 57.7502C74.7204 58.8002 74.8403 59.58 74.1703 60.26C73.6203 60.82 72.7003 60.91 72.1803 60.32C71.8903 59.99 71.6704 59.4402 71.7004 59.0202C71.7304 58.6002 72.1104 58.1902 72.3304 57.7902H70.1603H70.1703ZM68.6903 54.76C70.4203 54.76 72.0503 54.8702 73.6703 54.7302C75.8103 54.5502 77.5103 52.64 77.5603 50.57C77.5903 49.55 77.0403 48.8903 76.0403 48.8703C74.1003 48.8403 72.1504 48.8403 70.2104 48.8703C69.2804 48.8803 68.7204 49.4603 68.7004 50.3903C68.6704 51.8103 68.7004 53.2202 68.7004 54.7502L68.6903 54.76ZM83.4903 54.4602C83.4903 53.0502 83.5103 51.7301 83.4903 50.4201C83.4703 49.4801 82.8403 48.8603 82.0003 48.8703C81.1203 48.8703 80.5203 49.5702 80.5403 50.5402C80.5803 52.2402 81.6903 53.7802 83.4903 54.4602ZM67.2104 60.6804V57.7302C66.2304 57.9302 65.7303 58.41 65.7503 59.26C65.7703 60.1 66.2604 60.5804 67.2104 60.6804ZM85.0204 60.6501C85.9904 60.4801 86.5203 59.9601 86.4403 59.1701C86.3603 58.3401 85.8904 57.8602 85.0204 57.7702V60.6501Z" fill="#333333"/>
<path d="M3.53977 88.7999H0.629793C0.609793 88.5299 0.579805 88.26 0.579805 88C0.579805 85.16 0.569805 82.3303 0.579805 79.4903C0.599805 75.4503 2.96978 72.1899 6.79978 70.8999C7.34978 70.7099 7.92981 70.5701 8.45981 70.3301C8.82981 70.1601 9.32977 69.8999 9.41977 69.5899C9.57977 68.9999 9.5398 68.4002 8.8198 67.9502C7.2298 66.9602 6.20977 65.4503 5.53977 63.7403C5.01977 63.6703 4.51977 63.6599 4.03977 63.5499C2.16977 63.1199 0.829764 61.6301 0.599764 59.7701C0.379764 58.0001 1.2598 56.2199 2.8898 55.3799C3.4498 55.0899 3.64982 54.7402 3.77982 54.1402C4.74982 49.3402 9.09982 45.8802 14.0298 45.9302C18.9098 45.9802 23.1398 49.5201 24.0898 54.2901C24.1598 54.6601 24.4998 55.1001 24.8298 55.2901C26.5898 56.2901 27.5498 58.2302 27.1398 60.1202C26.6898 62.1702 25.0698 63.58 22.9698 63.67C22.4698 63.69 22.2198 63.8199 22.0198 64.2999C21.3598 65.8699 20.3098 67.1699 18.8598 68.0699C18.1398 68.5199 18.3398 69.13 18.3898 69.69C18.4098 69.92 18.8598 70.1701 19.1598 70.2901C19.9298 70.6001 20.7398 70.8099 21.5098 71.1099C24.8998 72.3999 27.1798 75.6003 27.2198 79.2203C27.2598 82.3903 27.2198 85.5699 27.2198 88.7999H24.2598C24.2598 87.6299 24.2598 86.4701 24.2598 85.3101C24.2598 83.3701 24.2698 81.42 24.2598 79.48C24.2398 76.8 22.7398 74.6901 20.2098 73.7701C20.0398 73.7101 19.8498 73.6699 19.6898 73.5899C18.6498 73.0999 17.9198 73.0599 17.0098 74.1499C15.2398 76.2799 11.9298 75.9299 10.2998 73.6299C9.92978 73.1099 9.63976 73.0298 9.09976 73.2598C8.58976 73.4798 8.04982 73.6098 7.52982 73.7999C5.04982 74.7199 3.55978 76.81 3.54978 79.46C3.53978 82.54 3.54978 85.6299 3.54978 88.8199L3.53977 88.7999ZM13.8998 54.3599C12.2798 56.1699 10.3398 57.2199 7.97977 57.6499C7.97977 58.5599 7.97977 59.4499 7.97977 60.3399C7.94977 62.9599 9.06977 64.8999 11.4198 66.0899C12.1398 66.4499 12.4498 66.9999 12.4298 67.7999C12.4098 68.8498 12.4098 69.9 12.4298 70.94C12.4498 71.94 13.0698 72.5801 13.9398 72.5601C14.7698 72.5401 15.3498 71.91 15.3798 70.96C15.3998 69.94 15.4198 68.9302 15.3798 67.9102C15.3398 67.0002 15.7098 66.4301 16.5398 66.0201C18.3798 65.1101 19.4998 63.5901 19.7498 61.5601C19.9098 60.2901 19.7798 58.9902 19.7798 57.6602C17.4898 57.2302 15.5498 56.1899 13.9098 54.3799L13.8998 54.3599ZM21.1098 54.7798C20.3798 51.1698 17.1898 48.7299 13.5498 48.8799C10.2198 49.0099 7.0998 51.7001 6.7598 54.7701C8.1998 54.7301 9.51982 54.3102 10.5898 53.3902C11.3498 52.7402 11.9698 51.9202 12.5998 51.1202C13.3998 50.1102 14.4398 50.0801 15.1998 51.1001C15.4598 51.4401 15.6798 51.8099 15.9498 52.1499C17.2498 53.7799 18.9398 54.6401 21.1098 54.7701V54.7798ZM4.99979 57.7798C3.95979 58.0198 3.49978 58.5299 3.54978 59.3199C3.59978 60.0999 4.10979 60.5599 4.99979 60.5899V57.7798ZM22.8298 60.6499C23.7998 60.4799 24.3298 59.96 24.2498 59.17C24.1698 58.34 23.6998 57.8601 22.8298 57.7701V60.6499Z" fill="#333333"/>
<path d="M80.5996 81.48H83.4496V88.77H80.5996V81.48Z" fill="#333333"/>
<path d="M9.42029 81.5V88.79H6.57031V81.5H9.42029Z" fill="#333333"/>
<path d="M21.2404 88.8101H18.4004V81.4902H21.2404V88.8101Z" fill="#333333"/>
<path d="M40.4906 88.7998H37.6406V81.5098H40.4906V88.7998Z" fill="#333333"/>
<path d="M52.3403 88.7998H49.4902V81.5098H52.3403V88.7998Z" fill="#333333"/>
<path d="M68.71 88.7598V81.5098H71.59V88.7598H68.71Z" fill="#333333"/>
<path d="M62.8105 14.75V11.8999H83.4205V14.75H62.8105Z" fill="#333333"/>
<path d="M36.1602 20.6802V17.8301H56.7902V20.6802H36.1602Z" fill="#333333"/>
<path d="M53.84 5.99023V8.83984H37.6699V5.99023H53.84Z" fill="#333333"/>
<path d="M30.2402 14.75V11.8999H46.4102V14.75H30.2402Z" fill="#333333"/>
<path d="M59.8496 20.6699V17.8198H74.5396V20.6699H59.8496Z" fill="#333333"/>
<path d="M6.56055 23.7402H19.7806V26.5898H6.56055V23.7402Z" fill="#333333"/>
<path d="M70.21 8.81982V5.97021H83.4199V8.81982H70.21Z" fill="#333333"/>
<path d="M22.8301 8.81982V5.97021H34.5601V8.81982H22.8301Z" fill="#333333"/>
<path d="M15.4297 14.75V11.8999H27.1597V14.75H15.4297Z" fill="#333333"/>
<path d="M68.65 23.7598V26.6099H56.9199V23.7598H68.65Z" fill="#333333"/>
<path d="M22.8301 26.5898V23.7402H34.5601V26.5898H22.8301Z" fill="#333333"/>
<path d="M21.3799 17.8101H33.1099V20.6602H21.3799V17.8101Z" fill="#333333"/>
<path d="M6.54004 20.6699V17.8198H18.2701V20.6699H6.54004Z" fill="#333333"/>
<path d="M56.9199 5.93994H67.1299V8.81982H56.9199V5.93994Z" fill="#333333"/>
<path d="M59.7598 11.9102V14.7598H49.5098V11.9102H59.7598Z" fill="#333333"/>
<path d="M53.8301 26.6099H43.5801V23.75H53.8301V26.6099Z" fill="#333333"/>
<path d="M13.9502 8.81982V5.97021H19.7602V8.81982H13.9502Z" fill="#333333"/>
<path d="M6.5498 11.8901H12.3498V14.75H6.5498V11.8901Z" fill="#333333"/>
<path d="M83.4506 17.8398V20.6899H77.6406V17.8398H83.4506Z" fill="#333333"/>
<path d="M37.6504 23.7402H40.4904V26.6001H37.6504V23.7402Z" fill="#333333"/>
<path d="M79.0905 57.75C79.8905 57.77 80.5505 58.4597 80.5305 59.2597C80.5105 60.0597 79.8205 60.7202 79.0205 60.7002C78.2205 60.6802 77.5605 59.9899 77.5805 59.1899C77.6005 58.3799 78.2805 57.73 79.0905 57.75Z" fill="#333333"/>
<path d="M12.4197 59.2202C12.4197 60.0202 11.7498 60.7002 10.9498 60.7002C10.1498 60.7002 9.47973 60.03 9.46973 59.23C9.46973 58.42 10.1298 57.76 10.9398 57.75C11.7398 57.75 12.4097 58.4202 12.4197 59.2202Z" fill="#333333"/>
<path d="M16.8797 57.7501C17.6797 57.7501 18.3498 58.4303 18.3398 59.2403C18.3398 60.0403 17.6497 60.7103 16.8497 60.7003C16.0497 60.7003 15.3798 60.0201 15.3898 59.2101C15.3898 58.4001 16.0697 57.7401 16.8797 57.7501Z" fill="#333333"/>
</svg>
