<svg width="105" height="75" viewBox="0 0 105 75" fill="none" xmlns="http://www.w3.org/2000/svg">
<path d="M0.339844 48.8301C0.609844 46.8801 0.80979 44.91 1.15979 42.98C3.31979 31.17 8.94982 21.2801 17.8798 13.2901C25.5398 6.45007 34.4898 2.17994 44.6498 0.649936C57.1998 -1.25006 69.0298 0.999956 79.8498 7.66996C92.5598 15.5 100.68 26.7599 103.85 41.3899C104.59 44.7899 104.73 48.3401 104.99 51.8301C105.14 53.8501 103.75 55.1499 101.7 55.1499C96.9598 55.1699 92.2298 55.1599 87.4898 55.1499C85.3998 55.1499 84.1898 53.9501 84.1298 51.8702C84.0498 48.9302 83.6798 46.0401 82.7598 43.0901C80.0598 44.1901 77.3998 45.2699 74.6598 46.3799C76.3198 53.9099 74.9098 60.74 69.9498 66.69C66.5098 70.82 62.0898 73.4001 56.7998 74.3401C45.7098 76.3101 35.0698 70.14 31.3398 59.68C27.6098 49.24 31.9598 37.75 41.6698 32.25C51.3398 26.77 65.4398 29.09 72.3598 40.69C74.9798 39.62 77.6198 38.54 80.3798 37.42C80.1998 37.08 80.0698 36.79 79.9098 36.51C73.4198 25.23 60.3998 19.1 47.4998 21.25C34.6998 23.39 24.3998 33.2499 21.8798 45.8799C21.4898 47.8399 21.3798 49.8601 21.2498 51.8601C21.1098 53.9301 19.9498 55.1299 17.8698 55.1299C13.4098 55.1399 8.9398 55.0699 4.4798 55.1599C2.5798 55.1999 1.17984 54.6499 0.339844 52.8999C0.339844 51.5399 0.339844 50.1701 0.339844 48.8101V48.8301ZM36.1298 52.0901C36.1298 61.1701 43.5798 68.6199 52.6598 68.6299C61.7398 68.6299 69.1998 61.1999 69.2198 52.1299C69.2398 42.9999 61.7798 35.5401 52.6398 35.5501C43.5498 35.5601 36.1298 43.0001 36.1298 52.0901ZM76.8098 23.23C78.5598 21.13 80.3598 18.9701 82.1498 16.8201C63.8398 1.4201 37.4698 3.67998 22.5498 17.44C24.5398 19.44 26.5298 21.4301 28.4198 23.3401C44.4798 11.8201 60.5298 11.73 76.7998 23.24L76.8098 23.23ZM6.56982 48.96H15.2298C15.9798 40.97 18.9398 33.9701 23.9498 28.0601C21.8698 25.9901 19.8598 23.99 17.8098 21.95C11.1598 29.64 7.33982 38.62 6.56982 48.96ZM98.7898 48.97C97.9598 38.22 93.8998 28.98 86.6698 20.98C84.7698 23.26 82.9398 25.4501 81.1898 27.5501C82.8998 30.0501 84.5598 32.4902 86.1898 34.8702C87.1298 34.7102 88.1198 34.3599 89.0998 34.3999C90.2098 34.4499 91.0298 35.2 91.4598 36.26C92.1598 38.02 91.4298 39.1501 88.6298 40.7701C89.1798 43.5101 89.7298 46.23 90.2898 48.97H98.7998H98.7898Z" fill="#4D7EE2"/>
<path d="M52.7006 63.3202C49.5206 63.2502 46.7007 62.24 44.2807 60.16C42.8907 58.96 42.6906 57.1202 43.7906 55.7902C44.8706 54.4902 46.7406 54.3401 48.1806 55.4501C51.2006 57.7801 54.1506 57.77 57.2206 55.42C58.6106 54.36 60.4706 54.5001 61.5406 55.7501C62.6606 57.0601 62.5006 58.9202 61.1206 60.1202C58.7206 62.2302 55.8806 63.2202 52.7106 63.3102L52.7006 63.3202Z" fill="#4D7EE2"/>
<path d="M44.71 47.16C44.72 45.49 46.12 44.1199 47.79 44.1299C49.46 44.1399 50.84 45.53 50.83 47.2C50.82 48.86 49.4 50.26 47.75 50.24C46.09 50.23 44.7 48.81 44.71 47.15V47.16Z" fill="#4D7EE2"/>
<path d="M60.6395 47.1799C60.6395 48.8299 59.2395 50.25 57.5795 50.25C55.9195 50.25 54.5195 48.8599 54.5195 47.1899C54.5195 45.5199 55.8895 44.1299 57.5695 44.1299C59.2395 44.1299 60.6395 45.5199 60.6395 47.1799Z" fill="#4D7EE2"/>
</svg>
