<svg width="103" height="103" viewBox="0 0 103 103" fill="none" xmlns="http://www.w3.org/2000/svg">
<path d="M0.0139448 49.6678C0.68264 48.4419 1.26775 47.1602 2.02003 46.0039C4.94557 41.5181 7.94074 37.0741 10.8663 32.5882C12.4684 30.1224 14.6417 28.7015 17.6229 28.4786C22.2341 28.1443 26.8314 27.7403 31.4426 27.4198C32.2088 27.3641 32.6407 27.0159 33.0865 26.4865C38.8818 19.7159 45.4434 13.8369 53.1752 9.36504C61.2831 4.67025 70.0737 2.02338 79.324 0.797439C84.7571 0.073019 90.1902 -0.233541 95.6652 0.198324C99.4266 0.490878 102.575 3.55581 102.784 7.33115C103.996 30.5822 97.2116 50.7823 79.8533 66.9007C78.9757 67.7226 78.1537 68.6421 77.1507 69.3108C75.8133 70.2024 75.5208 71.3865 75.4232 72.8632C75.1586 77.1819 74.7963 81.4866 74.4341 85.7913C74.2251 88.3268 73.041 90.3329 70.9513 91.726C65.7689 95.1948 60.5726 98.6219 55.3624 102.021C54.7355 102.439 53.9832 102.662 53.2866 102.982H51.2805C51.197 102.927 51.1273 102.843 51.0298 102.829C48.5779 102.147 47.1848 100.53 46.8086 98.0229C46.4185 95.4735 46.0285 92.938 45.6245 90.3886C45.3737 88.8144 45.123 87.2541 44.8583 85.6799C44.51 85.7078 44.315 85.7077 44.1199 85.7356C41.3615 86.1675 39.0211 85.3316 37.0708 83.3952C31.2336 77.5859 25.4104 71.7488 19.5872 65.9256C18.1662 64.5046 17.3304 62.7771 17.1632 60.771C17.0935 59.9212 17.1632 59.0435 17.1632 58.138C17.0935 58.1101 16.9402 58.0405 16.7731 58.0265C13.5968 57.5389 10.4205 57.0931 7.25816 56.5359C5.67001 56.2573 4.04006 55.909 2.54942 55.2821C1.10058 54.6692 0.501521 53.1646 0 51.7297C0 51.061 0 50.3923 0 49.7236L0.0139448 49.6678ZM89.4101 6.1052C89.4101 6.1052 89.4101 6.00763 89.4101 5.96584C87.2368 6.11908 85.0636 6.23057 82.9043 6.43954C74.6431 7.23361 66.6327 9.1422 59.2492 12.9872C45.6245 20.0642 35.5802 30.7355 28.4196 44.2347C28.0992 44.8477 28.3638 45.1263 28.726 45.5024C38.3246 55.0871 47.9232 64.6856 57.4939 74.2981C57.9954 74.7996 58.3576 74.8414 58.9427 74.4932C61.3528 73.0443 63.8604 71.7627 66.173 70.1745C75.7297 63.613 83.6565 55.505 89.229 45.2796C93.1854 38.0215 95.4423 30.1782 96.2781 21.9867C96.7379 17.5426 96.7379 13.0289 96.8215 8.55701C96.8633 6.81562 96.1807 6.23055 94.4254 6.1609C92.7536 6.09124 91.0818 6.14695 89.3961 6.14695L89.4101 6.1052ZM51.9632 77.6556C43.0054 68.6978 34.2288 59.9212 25.4104 51.0888C24.881 52.9974 24.2124 54.9756 23.7944 56.9956C22.8889 61.2725 22.652 60.3531 25.5636 63.2786C30.7181 68.461 35.8727 73.6294 41.0829 78.7561C41.5845 79.2576 42.4622 79.8148 43.0333 79.7034C46.0425 79.1322 49.0098 78.3521 51.9771 77.6556H51.9632ZM52.7016 96.5322C53.1891 96.2257 53.5234 96.0168 53.8578 95.7939C57.7724 93.2167 61.7011 90.6533 65.5879 88.0343C68.4995 86.07 68.4298 86.8222 68.6388 82.8658C68.6388 82.629 68.6945 82.4061 68.7084 82.1692C68.8756 79.982 69.0428 77.7949 69.2099 75.5938C69.0288 75.6077 68.9453 75.5937 68.9035 75.6216C68.5273 75.8445 68.1651 76.0813 67.8029 76.3181C63.4424 79.0904 58.8451 81.403 53.9692 83.1305C52.9662 83.4927 51.4895 83.5623 51.0855 84.2589C50.6397 85.0251 51.1691 86.3625 51.3224 87.4491C51.7682 90.4304 52.2418 93.3977 52.7294 96.5183L52.7016 96.5322ZM18.7931 52.1754C20.7574 45.5721 23.7386 39.5538 27.5697 33.7306C24.1009 34.0092 20.8688 34.2322 17.6368 34.5805C17.0795 34.6362 16.4248 35.1795 16.0905 35.681C12.9699 40.3201 9.89113 45.0009 6.81235 49.6539C6.7009 49.8211 6.61733 50.0023 6.47802 50.253C10.6016 50.8938 14.6695 51.5207 18.7931 52.1616V52.1754Z" fill="#FF9E18"/>
<path d="M0.0139448 99.1373C0.654778 98.3432 1.23991 97.4934 1.95039 96.769C7.77361 90.904 13.6107 85.0529 19.4897 79.2436C20.0469 78.6864 20.855 78.2406 21.6212 78.0734C22.8332 77.8087 23.8641 78.3659 24.5049 79.4386C25.1736 80.5392 25.1179 81.6676 24.3935 82.7403C24.1845 83.0468 23.9198 83.3115 23.669 83.5623C17.6786 89.5527 11.7022 95.5431 5.69788 101.52C5.14063 102.077 4.45795 102.481 3.81712 102.954H2.21509C1.21205 102.481 0.473659 101.742 0 100.739C0 100.21 0 99.6667 0 99.1373H0.0139448Z" fill="#FF9E18"/>
<path d="M0.0136719 81.4309C0.570918 80.6089 1.01673 79.6895 1.68543 78.9929C4.59704 75.9838 7.59221 73.0583 10.5456 70.091C11.4093 69.2272 12.3985 68.7536 13.6244 69.0461C15.8534 69.5755 16.7728 72.306 15.1568 73.9638C11.8551 77.3908 8.48382 80.7482 5.07068 84.0499C3.52433 85.5406 1.08636 84.8719 0.264422 82.8797C0.180835 82.6708 0.0972588 82.4479 0.0136719 82.2389C0.0136719 81.9742 0.0136719 81.7095 0.0136719 81.4309Z" fill="#FF9E18"/>
<path d="M20.7275 102.954C20.5464 102.885 20.3652 102.801 20.1841 102.732C18.0666 101.937 17.3979 99.4298 18.9721 97.8277C22.2459 94.4703 25.5755 91.1687 28.919 87.867C30.1031 86.6968 31.956 86.7525 33.0983 87.867C34.2825 89.0233 34.366 90.8761 33.154 92.116C29.8941 95.4316 26.5925 98.7333 23.2629 101.993C22.8032 102.439 22.1206 102.648 21.5355 102.954H20.7275Z" fill="#FF9E18"/>
<path d="M55.471 32.4211C55.471 24.0902 62.2136 17.3337 70.5305 17.3337C78.8335 17.3337 85.6319 24.1181 85.618 32.4211C85.618 40.7379 78.8614 47.4806 70.5166 47.4806C62.1579 47.4806 55.457 40.7797 55.457 32.4211H55.471ZM61.517 32.4489C61.531 37.4502 65.5293 41.4346 70.5305 41.4485C75.5597 41.4485 79.6415 37.3806 79.6137 32.3932C79.5858 27.4338 75.5318 23.3937 70.5723 23.3658C65.571 23.3519 61.5171 27.4337 61.531 32.4489H61.517Z" fill="#FF9E18"/>
</svg>
