<svg width="113" height="114" viewBox="0 0 113 114" fill="none" xmlns="http://www.w3.org/2000/svg">
<path d="M18.48 102.88C16.97 104.5 15.5701 105.99 14.1201 107.55C13.1901 106.51 12.39 105.61 11.38 104.47C12.05 103.88 12.94 103.16 13.76 102.36C16.07 100.09 18.36 97.81 20.63 95.49C24.15 91.9 24.29 86.93 21 83.11C19.92 81.85 19.94 81.03 21.13 79.83C23.78 77.17 26.44 74.53 29.08 71.87C30.12 70.82 30.2 69.63 29.35 68.72C28.46 67.77 27.1801 67.79 26.1201 68.85C23.6501 71.29 21.19 73.75 18.76 76.23C18.46 76.53 18.29 76.97 18.03 77.4C16.92 76.24 16.11 75.39 15.03 74.26C15.88 73.51 16.84 72.75 17.67 71.88C18.03 71.5 18.27 70.89 18.3 70.36C18.39 69.07 18.33 67.78 18.33 66.4C16.18 66.4 14.13 66.29 12.1 66.43C10.19 66.57 8.87005 68.28 8.86005 70.32C8.84005 75.65 8.82 80.98 8.88 86.31C8.89001 87.52 8.52002 88.41 7.65002 89.23C5.96002 90.83 4.35003 92.5 2.66003 94.19C1.76003 93.26 0.93 92.4 0 91.43C1.42 90.02 2.92 88.62 4.31 87.12C4.71 86.69 5.02003 85.98 5.03003 85.4C5.09003 80.47 5.06 75.53 5.06 70.59C5.06 65.78 8.27001 62.58 13.07 62.56C14.76 62.56 16.46 62.56 18.32 62.56V61.25C18.32 55.6 18.32 49.96 18.32 44.31C18.32 42.29 18.91 41.71 20.92 41.7C24.79 41.7 28.66 41.7 32.53 41.7H33.81C32.64 33.96 34.92 27.69 41.52 23.51C47.4 19.79 53.65 19.77 59.53 23.49C66.13 27.66 68.43 33.94 67.26 41.7C68.98 41.7 70.7001 41.7 72.4301 41.7C74.4801 41.7 76.54 41.69 78.59 41.7C80.15 41.71 80.85 42.39 80.86 43.93C80.87 49.73 80.87 55.54 80.86 61.34C80.86 63.25 79.7301 64 77.8701 63.37C73.0301 61.73 68.59 62.48 64.66 65.75C59.84 69.77 58.62 76.69 61.67 82.19C64.75 87.74 71.3 90.37 77.28 88.45C77.58 88.35 77.8701 88.24 78.1801 88.15C79.6801 87.71 80.8 88.48 80.85 90.04C80.89 91.26 80.85 92.49 80.85 93.71C80.85 99.55 80.85 105.4 80.85 111.24C80.85 113.1 80.22 113.73 78.36 113.73C63.08 113.73 47.8 113.73 32.52 113.73C25.77 113.73 20.71 109.93 18.75 103.42C18.72 103.32 18.65 103.22 18.46 102.85L18.48 102.88ZM77.05 92.58C69.4601 93.72 63.27 91.52 59.06 85.12C55.26 79.34 55.1 73.14 58.66 67.21C62.79 60.34 69.16 57.93 76.9901 59.09V45.51C73.1001 45.51 69.31 45.41 65.53 45.55C63.19 45.64 62.24 44.18 63.07 42.2C64.05 39.85 64.06 37.35 63.45 34.87C61.63 27.51 54.14 23.12 46.89 25.18C39.62 27.24 35.58 35.01 38.01 42.27C38.78 44.56 38.08 45.52 35.64 45.52C31.57 45.52 27.51 45.52 23.44 45.52H22.1801V67.17C22.2701 67.24 22.35 67.31 22.44 67.37C22.87 66.88 23.25 66.34 23.73 65.89C25.14 64.58 26.8301 64 28.7401 64.35C31.0701 64.77 32.68 66.14 33.41 68.39C34.14 70.66 33.5801 72.7 31.9301 74.39C29.5601 76.82 27.13 79.19 24.7 81.61C26.06 83.59 26.92 85.69 27.09 88.03C27.38 92.05 26.1 95.52 23.17 98.28C22.16 99.23 22 100.2 22.21 101.44C23.1 106.55 27.09 109.97 32.3 109.97C46.87 109.99 61.44 109.97 76.01 109.97C76.35 109.97 76.69 109.93 77.04 109.9V92.58H77.05Z" fill="#FFB01B"/>
<path d="M112.541 49.82C111.591 50.72 110.751 51.54 109.911 52.33C107.951 50.43 105.911 48.53 103.981 46.53C103.641 46.18 103.631 45.42 103.631 44.85C103.611 39.56 103.621 34.27 103.611 28.98C103.611 26.17 102.111 24.68 99.2907 24.67C97.6307 24.67 95.9807 24.67 94.1407 24.67C94.1407 26.27 94.1007 27.83 94.1707 29.38C94.1807 29.69 94.5908 30.02 94.8607 30.29C95.6707 31.09 96.5008 31.87 97.3708 32.7C96.3908 33.65 95.5307 34.49 94.5007 35.49C93.4907 34.42 92.4807 33.32 91.4407 32.25C89.8107 30.59 88.1507 28.95 86.5007 27.31C85.3307 26.15 84.1308 26.03 83.1808 26.95C82.2308 27.88 82.3207 29.11 83.4707 30.27C85.9507 32.76 88.4407 35.24 90.9207 37.73C92.6407 39.45 92.6707 39.94 91.1307 41.78C88.2307 45.26 88.4408 50.3 91.6808 53.63C94.4908 56.52 97.3607 59.34 100.221 62.18C100.501 62.46 100.861 62.65 101.241 62.93C100.141 63.92 99.2407 64.72 98.2907 65.58C97.1107 64.37 95.7707 63 94.2207 61.41C94.1707 62.09 94.1307 62.42 94.1307 62.75C94.1307 66.94 94.1307 71.12 94.1307 75.31C94.1307 77.1 93.4807 77.75 91.7207 77.76C84.7307 77.76 77.7407 77.76 70.7507 77.76C68.9207 77.76 68.0007 76.66 68.5807 75.04C69.5307 72.4 69.7407 69.74 69.0907 66.88C70.3007 66.56 71.4607 66.25 72.7007 65.93C73.4707 68.58 73.4007 71.19 72.9007 73.89H90.2707C90.2907 73.57 90.3307 73.23 90.3307 72.89C90.3307 68.11 90.3507 63.33 90.3107 58.56C90.3107 58.1 90.1307 57.4999 89.8107 57.2199C85.1907 53.1999 83.5307 46.18 87.7107 39.88C85.3207 37.5 82.8807 35.13 80.5207 32.7C77.7307 29.83 78.2407 25.44 81.5307 23.42C83.7807 22.04 86.5507 22.27 88.5607 24.06C89.0907 24.53 89.4907 25.13 90.0707 25.8C91.4707 18.11 88.0807 11.54 80.3807 11.46C63.7607 11.29 47.1307 11.41 30.5107 11.41C30.2807 11.41 30.0508 11.43 29.6808 11.45V12.76C29.6808 17.5 29.6808 22.24 29.6808 26.98C29.6808 29.43 28.7107 30.12 26.4107 29.35C17.5107 26.36 8.45075 33.09 8.86075 42.46C9.05075 46.73 10.9708 50.16 14.4308 52.7C14.7108 52.91 15.0007 53.11 15.2907 53.32C15.3207 53.34 15.3307 53.39 15.3807 53.5C14.8007 54.5 14.1907 55.54 13.5907 56.57C7.00073 53.29 3.59074 44.73 5.73074 37.09C7.66074 30.19 15.0007 23.28 25.8907 25.16C25.8907 24.7199 25.8907 24.32 25.8907 23.91C25.8907 19.29 25.8907 14.67 25.8907 10.05C25.8907 8.26997 26.5307 7.61997 28.3207 7.61997C45.6207 7.61997 62.9107 7.59997 80.2107 7.61997C87.3207 7.62997 92.8907 12.48 93.9807 19.5C94.0507 19.92 94.1008 20.35 94.1808 20.88C95.9208 20.88 97.6507 20.88 99.3807 20.88C104.191 20.89 107.381 24.09 107.391 28.91C107.391 33.85 107.371 38.7799 107.421 43.7199C107.421 44.2999 107.741 45 108.141 45.44C109.531 46.94 111.021 48.35 112.511 49.83L112.541 49.82Z" fill="#FFB01B"/>
<path d="M73.2391 0.109985V3.75H33.5391V0.109985H73.2391Z" fill="#FFB01B"/>
<path d="M80.8004 3.77002H77.1504V0.130005H80.8004V3.77002Z" fill="#FFB01B"/>
</svg>
