<svg width="277" height="110" viewBox="0 0 277 110" fill="none" xmlns="http://www.w3.org/2000/svg">
<g clip-path="url(#clip0_855_2)">
<path opacity="0.5" d="M165.938 75.3885C189.68 73.3052 206.322 92.5227 228.682 93.905C243.313 94.8099 254.49 84.3534 260.862 72.3356C271.955 51.4026 266.062 27.2974 246.855 13.8426C246.127 13.3305 245.378 12.8382 244.61 12.3559C238.742 8.69142 229.949 7.44339 223.283 5.71804C208.283 1.82978 192.938 -0.636432 177.395 0.15912C148.188 1.65078 117.07 20.5949 87.7592 12.1123C76.0477 8.72125 63.6276 1.88945 51.1426 2.18281C29.4261 2.68003 6.36229 19.5358 3.48805 41.5974C1.67169 55.5097 6.69662 69.76 15.2295 80.9226C24.6656 93.2636 39.1666 104.729 54.4958 108.25C73.0437 112.511 95.0147 108.727 111.507 99.7175C128.892 90.2206 145.504 77.1785 165.943 75.3885H165.938Z" fill="#F5A216"/>
<path d="M41.0827 13.2609C40.0946 9.54663 36.9958 6.81192 33.2284 6.1009C32.3352 5.93184 31.417 5.87715 30.5088 5.93681C28.6326 6.05615 26.7763 6.67767 25.2244 7.73675C24.421 8.28369 23.7174 8.94499 23.0887 9.68088C22.7394 10.0886 22.3502 10.5112 22.0308 10.9687C21.8612 10.6107 21.6466 10.2726 21.462 9.99413C21.0228 9.3378 20.469 8.75605 19.8652 8.24889C18.5428 7.14506 16.961 6.32465 15.2893 5.89206C14.4011 5.66334 13.483 5.55395 12.5698 5.64345C8.94205 6.00642 5.27939 9.29305 4.19157 12.5797C2.99397 16.1945 4.19157 20.1424 5.89316 23.4489C5.93807 23.5334 5.99795 23.6279 6.06781 23.7323C5.06482 23.7124 4.06183 23.6975 3.05884 23.6478C2.53988 23.6229 2.02591 23.5881 1.50695 23.5384C1.07781 23.4986 0.563841 23.3246 0.21953 23.6677C0.0149404 23.8715 -0.0499296 24.1947 0.0598504 24.4583C0.2345 24.8809 0.668631 24.9008 1.06284 24.9455C2.01593 25.05 2.97401 25.0997 3.93209 25.1345C5.06482 25.1693 6.20254 25.1792 7.33527 25.2091C9.36121 27.3073 12.8143 30.2111 14.0518 30.7978C15.7384 31.5983 17.47 32.3094 19.0867 33.2441C19.8851 33.7066 20.6885 34.2237 21.3023 34.9297C21.5518 35.2181 21.7115 35.5264 21.8512 35.8794C21.936 36.0882 22.0408 36.2722 22.2105 36.3766C22.2903 37.1523 23.2684 37.1573 23.6077 36.5457C24.0468 35.7501 24.5109 35.1286 25.2095 34.5319C26.7115 33.2491 28.5378 32.3491 30.2743 31.4243C31.9659 30.5293 33.6575 29.6343 35.0747 28.3316C36.4519 27.0637 37.6745 25.6068 38.6974 24.0456C38.7773 23.9262 38.8521 23.8069 38.927 23.6826C40.6485 23.7323 42.4599 23.787 43.383 23.8417C44.3461 23.8964 45.3142 23.9461 46.2772 23.966C46.6515 23.976 47.0208 24.0207 47.2802 23.7075C47.5048 23.439 47.4998 23.0561 47.2802 22.7926C47.0257 22.4843 46.6365 22.5241 46.2723 22.5141C45.7533 22.5042 45.2293 22.4843 44.7104 22.4594C43.7074 22.4147 42.7044 22.35 41.6964 22.2854C41.1974 22.2556 40.5288 22.2009 39.7902 22.1412C41.1775 19.3966 41.8811 16.284 41.0777 13.2609H41.0827ZM35.414 25.9101C34.1016 27.362 32.6695 28.4609 30.9579 29.4006C29.2514 30.3404 27.4899 31.1956 25.8532 32.2646C25.0348 32.8016 24.2214 33.3883 23.5378 34.0944C23.3632 34.2734 23.1486 34.5021 22.939 34.7557C22.5548 34.0596 21.9709 33.4928 21.3472 33.0055C19.8751 31.8668 18.1536 31.0912 16.472 30.3205C14.7654 29.5399 13.0139 28.8239 11.5967 27.5609C10.8083 26.8549 9.93506 26.1041 9.1666 25.2836C9.26141 25.2886 9.35123 25.2936 9.44604 25.2986C9.88516 25.3284 10.3293 25.3682 10.7684 25.4179C11.0977 25.4577 11.5319 25.5969 11.8612 25.4925C12.3502 25.3383 13.952 21.2959 14.3911 20.3463C14.8003 19.4662 15.1945 18.5811 15.5937 17.701C16.0229 18.4717 16.447 19.2474 16.8562 20.028C17.7245 21.6738 20.1745 26.4869 20.1895 26.5118C20.4989 27.0687 21.2524 26.9394 21.4969 26.4173C21.6366 26.119 22.1007 24.692 22.2703 24.329C22.6047 23.608 22.959 22.897 23.2733 22.1661C23.3033 22.1014 23.3332 22.0318 23.3682 21.9572C23.458 22.0766 23.5378 22.181 23.5977 22.2705C23.9869 22.8423 24.6406 24.0605 25.2644 24.1351C25.6985 24.1848 26.6316 21.5147 26.7963 20.749C26.9759 19.9037 27.1156 19.0485 27.2554 18.1983C27.3751 18.6308 27.4899 19.0585 27.6146 19.491C28.1935 21.47 28.8472 23.434 29.6755 25.3234C29.8751 25.7759 30.6186 27.367 31.0627 27.4018C31.3871 27.4267 33.7573 24.7118 34.6356 23.7373C34.6905 23.6776 34.7503 23.613 34.8102 23.5483C34.93 23.5682 35.918 23.603 37.2054 23.6378C36.6565 24.4334 36.0527 25.1941 35.404 25.9101H35.414ZM38.6825 21.107C38.5328 21.4153 38.3731 21.7186 38.2084 22.0219C36.2673 21.8827 34.3611 21.7981 34.1216 22.0467C33.1585 23.0462 32.1655 23.971 31.2823 25.0152C31.2524 25.05 31.2174 25.0897 31.1875 25.1295C30.409 23.4191 29.7853 21.6341 29.2414 19.8341C28.912 18.7502 28.6126 17.6513 28.3332 16.5525C28.1835 15.9707 28.0787 15.3691 27.9041 14.7973C27.8841 14.7277 27.8542 14.6581 27.8192 14.5934C27.6296 13.947 26.5817 13.7929 26.422 14.5686C26.0178 16.5077 25.7983 18.4767 25.3891 20.4159C25.2893 20.8783 25.1795 21.3357 25.0498 21.7932C25.0398 21.7832 25.0348 21.7733 25.0248 21.7633C24.7604 21.4053 23.2434 19.2921 22.7943 19.8391C22.0707 20.7241 21.2923 22.9169 20.6985 24.3041C19.9849 22.9219 19.2863 21.5396 18.5678 20.1573C18.0738 19.2026 17.5698 18.253 17.0508 17.3132C16.8762 16.995 16.6167 16.3387 16.2674 15.8961C16.1776 15.5083 15.7734 15.2398 15.3642 15.3542C14.8802 15.4884 14.7404 16.0851 14.5558 16.4878C14.3412 16.9552 14.1267 17.4226 13.9171 17.89C13.473 18.8745 13.0289 19.859 12.5598 20.8335C12.1157 21.7584 11.3373 23.782 11.2424 23.9113C10.6436 23.8517 9.60572 23.8566 9.05183 23.8268C8.68257 23.8069 8.3183 23.787 7.94904 23.7771C7.84425 23.618 7.74445 23.4588 7.65463 23.2948C5.84326 20.038 4.73548 16.1646 6.10274 12.5797C6.7215 10.9587 8.47798 9.11405 9.93506 8.13453C11.5269 7.0655 13.3183 6.84175 15.1546 7.36384C16.8612 7.85111 18.5079 8.79583 19.7055 10.1085C20.3392 10.8046 21.1875 12.351 21.452 12.8531C21.5418 13.2211 21.7913 13.4796 22.3103 13.3205C22.6845 13.2062 22.7394 12.9327 22.8242 12.6095C22.934 12.1918 23.1985 11.8388 23.463 11.5007C24.6007 10.0588 25.8831 8.8008 27.6047 8.07486C31.1276 6.58817 35.4639 7.4782 37.9839 10.372C40.6136 13.3901 40.3242 17.6961 38.6825 21.102V21.107Z" fill="#02546F"/>
<path d="M214.575 84.6766C215.259 85.1838 216.007 85.6462 216.796 86.0589C216.282 86.7898 216.277 88.2665 216.426 88.888C216.636 89.7482 217.17 90.4791 217.893 90.9565C217.799 91.5979 217.649 92.2294 217.549 92.8757C217.065 96.1226 216.771 99.633 217.749 102.815C219.625 108.926 228.238 111.541 233.487 108.225C239.999 104.113 239.839 94.9442 240.718 88.2218C241.576 82.6579 242.734 76.3332 247.384 72.5295C249.64 70.6848 252.504 69.8097 255.393 70.3915C258.188 70.9533 260.862 72.5544 262.509 74.8963C264.226 77.3376 264.675 80.49 263.038 83.0805C262.28 84.2788 261.227 85.2534 260.209 86.2279C260.129 86.3025 260.049 86.3821 259.969 86.4566C259.101 85.5964 257.918 85.144 256.676 85.1639C254.405 85.1887 252.085 86.6754 251.172 88.7538C250.149 91.0858 251.087 93.6812 252.993 95.2425C254.725 96.6596 257.459 97.2911 259.465 96.048C261.401 94.8497 262.629 91.9211 262.359 89.7035C262.28 89.0521 262.055 88.4207 261.646 87.8986C261.506 87.7196 261.341 87.5306 261.152 87.3914C261.825 86.755 262.504 86.1235 263.118 85.4324C265.094 83.2098 266.022 80.5198 265.353 77.5713C263.966 71.4456 256.436 67.2441 250.463 69.1534C245.663 70.6948 242.699 74.9808 241.102 79.5254C239.365 84.4628 239.146 89.6736 238.457 94.8149C238.527 94.258 238.417 95.0735 238.412 95.1182C238.387 95.2823 238.362 95.4464 238.337 95.6154C238.273 96.0281 238.203 96.4408 238.128 96.8485C237.973 97.6689 237.794 98.4844 237.574 99.2899C237.14 100.886 236.551 102.447 235.673 103.859C233.886 106.738 230.872 108.454 227.449 108.165C224.495 107.917 221.167 106.331 219.7 103.655C218.118 100.772 218.582 97.0673 218.916 93.9448C218.991 93.2685 219.026 92.4432 219.286 91.8067C219.326 91.7073 219.385 91.6178 219.445 91.5283C221.506 91.7819 223.133 90.1013 223.462 88.0726C224.221 88.1422 224.969 88.1621 225.703 88.1124C227.729 87.9831 229.64 87.282 231.117 85.8699C232.564 84.4827 233.357 82.5733 233.886 80.6789C234.46 78.6354 237.774 69.571 237.379 66.4286C237.055 63.8232 233.228 63.1569 231.381 64.5342C230.558 65.1408 229.914 66.0607 230.149 67.1197C230.378 68.149 231.342 68.855 232.225 69.3324C232.349 69.402 232.529 69.4965 232.734 69.6009C232.454 70.1279 232.359 70.9334 232.26 71.371C232.05 72.2759 231.89 73.1958 231.736 74.1107C231.441 75.846 231.172 77.626 230.493 79.2619C229.061 82.7325 225.738 84.3932 222.08 83.533C221.466 83.3888 220.862 83.0706 220.259 82.8866C219.825 82.6877 219.301 82.5535 218.986 82.3844C215.942 80.7784 214.73 77.626 214.675 74.3294C214.645 72.5444 214.924 70.7594 215.329 69.0291C215.538 68.149 215.783 67.2739 216.057 66.4087C216.092 66.2993 216.142 66.18 216.187 66.0557C216.202 66.0557 216.212 66.0557 216.227 66.0607C218.103 66.3391 220.753 65.106 220.229 62.8486C219.695 60.5664 216.332 59.4626 214.5 60.9095C214.366 61.0139 214.221 61.163 214.081 61.3371C214.011 61.3868 213.941 61.4514 213.881 61.5409C212.739 63.2215 212.165 65.2452 211.771 67.2142C210.558 73.2704 210.828 77.9293 211.377 80.0375C211.871 81.9419 213.003 83.5031 214.58 84.6766H214.575ZM260.857 90.857C260.713 91.9609 260.219 93.1045 259.525 93.9796C258.747 94.9541 257.614 95.327 256.376 95.163C254.096 94.8596 251.955 92.6818 252.275 90.3001C252.574 88.0527 255.049 86.4616 257.225 86.6804C257.808 86.7749 258.347 86.9936 258.792 87.3914C258.831 87.4262 258.866 87.461 258.901 87.4958C258.861 87.5356 258.821 87.5704 258.787 87.6102C258.397 88.0179 257.539 88.719 257.534 89.3206C257.534 89.9471 258.248 90.2653 258.732 89.9173C259.226 89.5593 259.63 88.9228 260.059 88.4505C260.099 88.4704 260.144 88.5002 260.204 88.5499C260.433 88.7289 260.613 88.9825 260.718 89.251C260.917 89.7433 260.917 90.3349 260.852 90.8521L260.857 90.857ZM220.129 90.0316C218.966 90.1808 217.888 89.3256 217.839 88.1521C217.814 87.6102 218.063 87.2025 218.203 86.7152C219.415 87.2223 220.693 87.6102 221.98 87.8538C221.791 88.8731 221.287 89.8825 220.134 90.0316H220.129ZM212.08 74.7869C212.14 72.6439 213.517 66.2098 213.837 65.1955C214.021 64.5988 214.74 62.6 215.329 62.1823C216.132 61.6105 217.429 61.7746 218.128 62.2818C219.061 62.958 218.906 63.9922 217.849 64.4049C217.384 64.5889 216.856 64.6486 216.367 64.5541C215.927 64.4745 215.498 64.1613 215.074 64.4894C214.83 64.6784 214.74 65.0115 214.825 65.2999C214.635 65.7027 214.555 66.2297 214.455 66.5579C214.216 67.3534 213.996 68.154 213.812 68.9644C213.462 70.5008 213.233 72.0671 213.188 73.6433C213.098 76.7608 213.857 79.948 216.167 82.1805C217.05 83.0358 218.198 83.7915 219.38 84.2291C219.954 84.5771 220.843 84.7412 221.426 84.8954C222.409 85.1589 223.417 85.313 224.435 85.2782C227.848 85.1539 230.224 82.7673 231.496 79.6795C232.275 77.7851 233.647 71.9428 233.911 70.9732C233.986 70.6997 234.146 70.3666 234.211 70.0533C234.57 70.0633 234.869 69.934 234.994 69.5512C235.169 69.0092 234.785 68.7307 234.336 68.5617C233.787 68.3528 233.248 68.1838 232.739 67.8855C232.379 67.6717 231.855 67.3385 231.691 66.9308C231.496 66.4634 231.726 65.7375 232.07 65.4541C232.774 64.8723 233.896 64.9718 234.74 65.4342C235.129 65.648 235.428 65.9861 235.523 66.4286C235.523 66.4386 235.523 66.4435 235.523 66.4535C235.857 66.9507 235.823 67.7313 235.758 68.144C235.433 70.1578 234.77 72.7035 234.256 74.6725C233.298 78.337 232.834 82.8468 229.48 85.318C226.122 87.7942 221.107 86.4517 217.689 84.7909C215.942 83.9407 214.221 82.8021 213.328 81.017C212.37 79.1127 212.03 76.8702 212.09 74.7918L212.08 74.7869Z" fill="#02546F"/>
<path d="M244.435 4.22138C239.979 3.68439 235.503 3.27667 231.027 2.95347C230.453 2.9137 228.946 2.51592 228.891 3.4855C228.876 3.72416 225.204 40.1704 225.254 40.4936C225.388 41.3786 225.872 41.9256 226.616 42.1792C227.704 42.5521 253.891 44.9537 255.079 44.9288C255.518 44.9188 256.651 45.0183 256.681 44.4912C256.686 44.3719 256.656 44.2426 256.596 44.1233C257.01 42.3979 260.967 8.86542 260.882 8.43284C260.807 8.04501 260.653 7.23951 260.269 6.92626C259.71 6.32463 258.148 6.09093 257.599 5.9716C255.413 5.4893 253.168 5.40477 250.957 5.10146C248.787 4.80313 246.616 4.47994 244.44 4.21641L244.435 4.22138ZM238.841 7.41354C238.876 6.80196 238.876 6.18043 238.981 5.57382C239.011 5.38488 239.081 5.18102 239.121 4.98213C242.769 5.35505 246.396 5.83735 250.034 6.32463C249.849 7.01079 249.959 8.58698 249.924 9.2632C249.919 9.37258 249.824 9.44717 249.715 9.43722C249.031 9.37258 242.354 8.84553 239.545 8.65659C239.4 8.64664 239.111 8.61184 238.782 8.59195C238.841 8.19417 238.831 7.75165 238.851 7.41354H238.841ZM244.49 10.5212C244.271 11.078 243.497 11.5007 243.018 10.9637C242.848 10.7747 242.853 10.551 242.873 10.3272C243.412 10.3919 243.951 10.4565 244.49 10.5212ZM257.155 7.23951C257.469 7.30912 257.783 7.3837 258.098 7.4732C258.347 7.54281 258.836 7.79142 259.3 7.93065C259.375 8.24389 255.743 40.419 255.643 43.5962C253.347 43.4023 227.689 41.2444 227.25 41.0803C227.145 41.0405 226.995 41.0356 226.84 40.9659C226.596 39.2953 227.699 30.0569 227.988 27.5161C228.278 24.9505 228.717 22.4097 228.936 19.8291C229.186 16.9254 229.331 14.0166 229.575 11.1129C229.7 9.63611 229.849 8.16434 230.049 6.69754C230.144 6.01138 230.249 5.32521 230.368 4.63905C230.388 4.53463 230.408 4.42027 230.428 4.29597C230.753 4.30591 231.711 4.34569 231.95 4.36061C231.801 5.00202 231.651 8.61184 231.561 9.80517C231.381 12.2415 231.207 14.6779 231.022 17.1093C230.658 21.9672 228.851 39.0914 229.231 39.3947C230.184 40.1654 248.068 41.4134 249.989 41.5328C250.513 41.5626 251.037 41.6024 251.561 41.6322C251.975 41.6571 252.619 41.7963 253.023 41.677C253.412 41.5626 253.582 41.1698 253.512 40.8416C253.557 40.6477 253.562 40.4339 253.582 40.245C253.642 39.6284 253.697 39.0119 253.752 38.4003C253.861 37.1672 253.956 35.9341 254.046 34.7059C254.405 29.8232 256.626 9.32783 256.945 8.02512C257 7.7964 257.115 7.51298 257.155 7.23454V7.23951ZM251.292 7.3837C251.306 7.20968 251.371 6.85665 251.391 6.50362C252.863 6.6876 254.36 6.78207 255.832 7.00084C254.62 11.62 253.008 30.763 252.639 35.586C252.544 36.7943 252.449 38.0025 252.334 39.2108C252.314 39.4246 252.23 39.887 252.215 40.3444C249.066 40.25 245.877 40.1256 242.764 39.7328C239.864 39.3649 233.652 38.8776 231.207 38.7036C230.673 38.6638 230.279 38.1964 230.333 37.6644C230.458 36.486 230.653 34.5717 230.748 33.7513C231.317 28.8686 231.835 23.9909 232.215 19.0883C232.424 16.3635 232.619 13.6387 232.824 10.914C232.923 9.57147 233.023 8.22401 233.128 6.88151C233.183 6.16054 233.243 5.43957 233.298 4.72358C233.303 4.63905 233.308 4.55452 233.313 4.46502C234.8 4.58435 236.282 4.70866 237.769 4.84788C237.504 5.92188 237.025 9.06928 237.853 9.60628C238.467 10.0041 239.805 10.0041 240.533 10.0687C240.857 10.0985 241.187 10.1284 241.511 10.1632C241.461 10.6455 241.581 11.1874 241.811 11.5653C242.504 12.689 244.136 12.8034 245.094 11.9581C245.408 11.6847 245.827 11.1278 245.822 10.6405C246.801 10.7051 247.769 10.7201 248.757 10.7598C249.32 10.7847 250.773 11.1377 251.047 10.1333C251.072 10.0389 251.232 7.92567 251.287 7.3837H251.292Z" fill="#02546F"/>
<path d="M237.12 16.8358C238.362 17.1342 239.77 17.1143 241.042 17.2137C242.349 17.3182 243.662 17.4027 244.974 17.4673C246.287 17.532 247.599 17.5817 248.911 17.6165C249.36 17.6264 250.049 17.7855 250.348 17.338C250.623 16.9253 250.333 16.3187 249.824 16.3038C247.105 16.2442 244.385 16.1298 241.671 15.9259C240.363 15.8265 239.051 15.7072 237.749 15.563C237.285 15.5132 236.706 15.379 236.516 15.9607C236.366 16.4182 236.706 16.7364 237.115 16.8309L237.12 16.8358Z" fill="#02546F"/>
<path d="M249.994 22.6384C247.045 22.7528 244.096 22.6384 241.157 22.3749C239.69 22.2406 238.223 22.0716 236.761 21.8677C236.257 21.7981 235.423 21.4749 235.074 22.0119C234.755 22.4942 235.129 22.9268 235.598 23.0461C236.995 23.3992 238.557 23.4539 239.984 23.598C241.451 23.7522 242.923 23.8665 244.395 23.9362C245.867 24.0058 247.344 24.0306 248.817 24.0008C249.306 23.9909 250.194 24.15 250.513 23.6677C250.778 23.2749 250.513 22.6136 249.989 22.6334L249.994 22.6384Z" fill="#02546F"/>
<path d="M249.799 30.8972C245.114 30.4945 240.413 29.863 235.703 30.1763C235.274 30.2061 234.58 30.1266 234.276 30.4796C234.021 30.7729 234.071 31.2453 234.4 31.4691C234.78 31.7177 235.463 31.5138 235.887 31.4889C236.516 31.4492 237.145 31.4293 237.774 31.4193C240.154 31.3895 242.534 31.5635 244.904 31.7773C246.202 31.8967 247.499 32.0259 248.796 32.1453C249.271 32.19 250.004 32.4138 250.328 31.9265C250.608 31.4989 250.303 30.937 249.804 30.8972H249.799Z" fill="#02546F"/>
<path d="M271.541 7.64227C270.887 7.45333 269.565 7.17986 269.106 7.88591C269.076 7.93563 269.051 7.98535 269.036 8.04005C269.006 8.0848 262.324 31.0464 262.205 31.8668C262.195 31.9265 262.364 34.6662 262.489 35.1684C262.684 35.949 263.118 39.0865 263.936 39.0368C264.136 39.0218 268.442 34.5021 269.056 33.1198C270.199 30.5591 271.306 25.3085 271.935 23.0859C272.349 23.3047 272.773 23.2749 273.118 23.1953C273.692 23.0611 274.081 22.4793 274.33 21.9423C274.844 20.8286 277.03 13.4349 277 13.0669C276.915 12.0874 276.291 11.2322 276.087 10.8742C275.139 9.1936 273.352 8.1743 271.536 7.64227H271.541ZM275.618 13.7481C275.229 15.6972 274.355 17.9646 274.081 18.9938C273.816 19.9733 273.462 20.9727 272.649 21.6589C272.609 21.6937 272.564 21.7285 272.519 21.7584C272.464 21.7335 272.404 21.7136 272.349 21.6937C272.734 20.2965 273.013 18.8695 273.412 17.4723C273.637 16.6817 274.011 15.9409 274.255 15.1851C274.435 14.6232 274.086 13.8028 273.367 14.1608C272.878 14.4045 268.507 31.126 267.993 33.0303C267.02 34.3181 265.723 35.3225 264.73 36.5954C264.65 36.6998 264.53 36.8341 264.4 36.9783C264.236 36.2971 264.001 35.6407 263.926 35.3623C263.742 34.6562 263.452 32.4536 263.402 31.7226C263.382 31.4691 266.596 20.6744 267.669 17.2585C268.307 15.2149 268.901 13.1714 269.46 11.1029C269.57 10.7051 269.685 10.3074 269.804 9.9096C269.869 9.69579 269.934 9.42729 270.034 9.17371C270.134 8.91018 270.398 8.75107 270.678 8.78091C271.551 8.87041 272.514 9.41735 273.203 9.8201C273.926 10.2427 274.904 11.4261 275.413 12.3808C275.638 12.7984 275.713 13.2807 275.618 13.7432V13.7481Z" fill="#02546F"/>
</g>
<path d="M100.305 43.4297C100.352 43.1953 100.383 43.0078 100.398 42.8672C100.414 42.7109 100.359 42.5469 100.234 42.375C100.297 42.125 100.344 41.9297 100.375 41.7891C100.422 41.6484 100.43 41.4531 100.398 41.2031C100.539 40.7969 100.75 40.4531 101.031 40.1719C101.328 39.8906 101.648 39.6562 101.992 39.4688C102.336 39.2656 102.695 39.1016 103.07 38.9766C103.445 38.8359 103.797 38.7188 104.125 38.625C104.125 38.5625 104.094 38.5312 104.031 38.5312C103.969 38.5312 103.953 38.4922 103.984 38.4141C104.828 38.2578 105.672 38.0312 106.516 37.7344C107.375 37.4375 108.25 37.1719 109.141 36.9375C110.031 36.7031 110.945 36.5625 111.883 36.5156C112.82 36.4531 113.805 36.5703 114.836 36.8672C114.898 37.0547 114.984 37.2344 115.094 37.4062C115.203 37.5781 115.312 37.75 115.422 37.9219C115.547 38.0781 115.656 38.2344 115.75 38.3906C115.844 38.5469 115.898 38.7109 115.914 38.8828C116.102 39.0547 116.25 39.2422 116.359 39.4453C116.484 39.6328 116.508 39.8906 116.43 40.2188C116.258 40.3438 116.078 40.4688 115.891 40.5938C115.703 40.7188 115.508 40.8359 115.305 40.9453C114.602 40.7734 113.898 40.7109 113.195 40.7578C112.492 40.8047 111.859 40.8594 111.297 40.9219C111.125 40.7344 110.922 40.6484 110.688 40.6641C110.453 40.6641 110.203 40.7031 109.938 40.7812C109.688 40.8438 109.438 40.9141 109.188 40.9922C108.938 41.0547 108.703 41.0703 108.484 41.0391C108.312 41.1953 108.086 41.3047 107.805 41.3672C107.523 41.4141 107.227 41.4531 106.914 41.4844C106.898 41.5625 106.914 41.6172 106.961 41.6484C107.008 41.6797 107.016 41.7422 106.984 41.8359C107.094 41.9766 107.242 42.0781 107.43 42.1406C107.617 42.1875 107.805 42.2344 107.992 42.2812C108.195 42.3281 108.375 42.3984 108.531 42.4922C108.688 42.5703 108.789 42.7031 108.836 42.8906C109.117 42.9062 109.359 42.9844 109.562 43.125C109.766 43.25 109.938 43.4062 110.078 43.5938C110.219 43.7812 110.32 43.9844 110.383 44.2031C110.445 44.4062 110.469 44.5938 110.453 44.7656C110.516 44.9219 110.578 44.9844 110.641 44.9531C110.719 44.9219 110.805 44.9609 110.898 45.0703C110.961 45.3047 111.102 45.5547 111.32 45.8203C111.555 46.0703 111.734 46.3438 111.859 46.6406C111.891 47.1094 111.914 47.5312 111.93 47.9062C111.961 48.2812 111.898 48.6484 111.742 49.0078C111.477 49.6953 111.094 50.3125 110.594 50.8594C110.094 51.4062 109.523 51.8906 108.883 52.3125C108.258 52.7188 107.594 53.0781 106.891 53.3906C106.188 53.6875 105.492 53.9375 104.805 54.1406C104.742 54.125 104.664 54.125 104.57 54.1406C104.492 54.1562 104.477 54.1094 104.523 54C104.383 54.125 104.219 54.2031 104.031 54.2344C103.859 54.2656 103.664 54.2734 103.445 54.2578C103.242 54.2578 103.031 54.25 102.812 54.2344C102.609 54.2188 102.406 54.2266 102.203 54.2578C102.078 54.1328 101.961 54.0078 101.852 53.8828C101.758 53.7578 101.68 53.6094 101.617 53.4375C101.539 53.4219 101.5 53.375 101.5 53.2969C101.516 53.2031 101.484 53.1562 101.406 53.1562C101.406 53.0938 101.414 53.0469 101.43 53.0156C101.445 52.9844 101.461 52.9531 101.477 52.9219C101.539 52.875 101.562 52.8438 101.547 52.8281C101.547 52.7969 101.523 52.7734 101.477 52.7578C101.445 52.7266 101.406 52.6953 101.359 52.6641C101.328 52.6328 101.32 52.5938 101.336 52.5469C101.414 52.4062 101.438 52.2422 101.406 52.0547C101.391 51.8516 101.375 51.6484 101.359 51.4453C101.344 51.2422 101.359 51.0547 101.406 50.8828C101.453 50.6953 101.586 50.5391 101.805 50.4141C102.445 50.4766 103.047 50.4453 103.609 50.3203C104.188 50.1953 104.727 50.0234 105.227 49.8047C105.742 49.5859 106.227 49.3516 106.68 49.1016C107.148 48.8359 107.602 48.5938 108.039 48.375C108.086 48.2188 108.156 48.0859 108.25 47.9766C108.359 47.8672 108.469 47.7656 108.578 47.6719C108.688 47.5625 108.789 47.4531 108.883 47.3438C108.977 47.2188 109.047 47.0703 109.094 46.8984C109.109 46.8359 109.109 46.7891 109.094 46.7578C109.078 46.7266 109.055 46.7031 109.023 46.6875C108.992 46.6562 108.961 46.625 108.93 46.5938C108.898 46.5625 108.883 46.5156 108.883 46.4531C108.836 46.4375 108.789 46.4219 108.742 46.4062C108.711 46.3906 108.68 46.3828 108.648 46.3828C108.242 46.1797 107.812 46.0078 107.359 45.8672C106.906 45.7266 106.523 45.5703 106.211 45.3984C106.023 45.5234 105.836 45.5547 105.648 45.4922C105.461 45.4297 105.234 45.3672 104.969 45.3047C104.312 45.2734 103.688 45.2109 103.094 45.1172C102.516 45.0234 101.953 44.8594 101.406 44.625C101.375 44.5312 101.336 44.4531 101.289 44.3906C101.242 44.3125 101.133 44.2891 100.961 44.3203C100.852 44.1641 100.734 44.0234 100.609 43.8984C100.5 43.7578 100.398 43.6016 100.305 43.4297ZM113.219 51.7734L113.523 51.5391L113.547 51.0469C113.938 50.0938 114.336 49.1797 114.742 48.3047C115.164 47.4297 115.602 46.5312 116.055 45.6094C116.195 45.3125 116.336 45.0156 116.477 44.7188C116.633 44.4219 116.781 44.1172 116.922 43.8047C116.906 43.7422 116.898 43.6797 116.898 43.6172C116.898 43.5391 116.914 43.4531 116.945 43.3594C117.164 43.0469 117.336 42.7656 117.461 42.5156C117.602 42.2656 117.734 42.0078 117.859 41.7422C118 41.4297 118.148 41.1172 118.305 40.8047C118.477 40.4922 118.688 40.1875 118.938 39.8906L119.102 39.6562L119.359 39.6797C119.422 39.6484 119.484 39.625 119.547 39.6094C119.625 39.5781 119.719 39.5625 119.828 39.5625L120.25 39.6328C120.766 39.3984 121.219 39.0625 121.609 38.625C122.016 38.1719 122.422 37.6328 122.828 37.0078L123.109 36.6094L123.484 36.8438C123.562 36.8906 123.688 36.9375 123.859 36.9844C124.031 37.0312 124.211 37.0859 124.398 37.1484C124.727 37.2266 125.047 37.3203 125.359 37.4297C125.672 37.5234 125.914 37.6562 126.086 37.8281L126.203 38.0391C126.234 38.2109 126.258 38.3672 126.273 38.5078C126.305 38.6484 126.336 38.7891 126.367 38.9297C126.43 39.2578 126.484 39.5859 126.531 39.9141C126.578 40.2266 126.609 40.5781 126.625 40.9688C126.703 41.2812 126.773 41.6016 126.836 41.9297C126.914 42.2422 126.984 42.5547 127.047 42.8672C127.125 43.3203 127.211 43.7578 127.305 44.1797C127.398 44.5859 127.523 44.9766 127.68 45.3516C127.836 45.3516 127.93 45.3594 127.961 45.375C128.148 45.2969 128.367 45.25 128.617 45.2344L128.922 45.2109L129.016 45.4922C129.047 45.5391 129.086 45.5859 129.133 45.6328C129.18 45.6797 129.234 45.7266 129.297 45.7734C129.547 45.7891 129.727 45.8438 129.836 45.9375C129.961 46.0156 130.062 46.0938 130.141 46.1719C130.172 46.2031 130.211 46.2422 130.258 46.2891C130.305 46.3203 130.344 46.3438 130.375 46.3594L130.797 46.5234L130.562 46.9688C130.391 47.2969 130.125 47.6172 129.766 47.9297C129.422 48.2422 129.031 48.5 128.594 48.7031C128.625 48.8125 128.641 48.9141 128.641 49.0078C128.656 49.1016 128.68 49.2109 128.711 49.3359C128.773 49.6484 128.82 49.9766 128.852 50.3203C128.898 50.6484 128.898 50.9922 128.852 51.3516C128.695 51.7578 128.508 52.125 128.289 52.4531C128.086 52.7656 127.836 53.0547 127.539 53.3203C127.258 53.5703 126.938 53.7812 126.578 53.9531C126.219 54.1094 125.844 54.1953 125.453 54.2109C125.234 54.1641 125.07 54.1094 124.961 54.0469C124.867 53.9844 124.781 53.9219 124.703 53.8594C124.578 53.7656 124.477 53.7031 124.398 53.6719L124.094 53.5312L124.188 53.1797C124.234 53.0547 124.227 52.9453 124.164 52.8516C124.117 52.7578 124.008 52.6328 123.836 52.4766C123.773 52.4297 123.719 52.3828 123.672 52.3359C123.625 52.2734 123.57 52.2109 123.508 52.1484L123.039 51.6094L123.812 51.3984C124.281 51.2734 124.594 51.1172 124.75 50.9297C124.906 50.7266 124.969 50.375 124.938 49.875C124.547 49.7969 124.227 49.7891 123.977 49.8516C123.727 49.8984 123.477 49.9531 123.227 50.0156C122.867 50.1094 122.516 50.1953 122.172 50.2734C121.828 50.3359 121.453 50.3672 121.047 50.3672C120.781 50.3672 120.5 50.3438 120.203 50.2969L119.945 50.2734L119.875 50.0156C119.875 49.9844 119.852 49.9531 119.805 49.9219C119.773 49.875 119.742 49.8359 119.711 49.8047C119.633 49.7109 119.539 49.5859 119.43 49.4297C119.32 49.2734 119.297 49.0781 119.359 48.8438C119.25 48.6719 119.188 48.4922 119.172 48.3047C119.109 48.4297 119.055 48.5547 119.008 48.6797C118.977 48.7891 118.945 48.8984 118.914 49.0078L118.82 49.3125L118.516 49.3594C118.484 49.3906 118.453 49.4375 118.422 49.5C118.406 49.5625 118.406 49.6094 118.422 49.6406L118.516 49.8984L118.281 50.1094C118.25 50.1562 118.211 50.1953 118.164 50.2266C118.117 50.2578 118.078 50.2891 118.047 50.3203C118.016 50.4922 117.969 50.6562 117.906 50.8125C117.859 50.9688 117.805 51.125 117.742 51.2812C117.664 51.5312 117.586 51.7734 117.508 52.0078C117.445 52.2422 117.414 52.4766 117.414 52.7109L117.32 53.0156C117.242 53.1406 117.141 53.2344 117.016 53.2969C116.906 53.3594 116.797 53.4141 116.688 53.4609C116.531 53.5234 116.422 53.5859 116.359 53.6484L116.289 53.9531L115.938 54C115.734 54.0469 115.586 54.0781 115.492 54.0938C115.414 54.1094 115.32 54.1172 115.211 54.1172L114.906 54.0938C114.719 53.9062 114.562 53.7656 114.438 53.6719C114.328 53.5625 114.195 53.4688 114.039 53.3906L113.898 53.2031C113.836 53.0781 113.797 52.9688 113.781 52.875C113.766 52.7656 113.742 52.6562 113.711 52.5469C113.68 52.3438 113.633 52.2031 113.57 52.125L113.219 51.7734ZM120.695 45.6797C120.477 45.9922 120.266 46.3203 120.062 46.6641C120.172 46.6484 120.273 46.6406 120.367 46.6406C120.477 46.6406 120.586 46.6328 120.695 46.6172C121.242 46.5859 121.75 46.5469 122.219 46.5C122.688 46.4531 123.195 46.375 123.742 46.2656C123.617 45.6875 123.477 45.1016 123.32 44.5078C123.18 43.8984 123.023 43.2891 122.852 42.6797L122.734 42.9141C122.344 43.3359 121.969 43.7891 121.609 44.2734C121.25 44.7578 120.953 45.2188 120.719 45.6562L120.695 45.6797ZM132.016 53.1328C131.953 53.0703 131.898 53 131.852 52.9219C131.805 52.8281 131.766 52.7109 131.734 52.5703C131.516 52.3047 131.344 52 131.219 51.6562C131.094 51.3125 131.008 50.9609 130.961 50.6016C130.914 50.2266 130.906 49.8516 130.938 49.4766C130.969 49.1016 131.023 48.75 131.102 48.4219C131.148 48.2656 131.188 48.1016 131.219 47.9297C131.297 47.6328 131.375 47.3438 131.453 47.0625C131.531 46.7656 131.648 46.5234 131.805 46.3359C131.742 46.1641 131.75 45.9766 131.828 45.7734C131.906 45.5703 131.984 45.3828 132.062 45.2109C132.094 45.1641 132.117 45.125 132.133 45.0938C132.148 45.0469 132.164 45.0078 132.18 44.9766C132.367 44.4297 132.547 43.9062 132.719 43.4062C132.906 42.8906 133.086 42.3984 133.258 41.9297C133.57 41.0703 133.867 40.2266 134.148 39.3984C134.445 38.5703 134.711 37.6875 134.945 36.75C135.07 36.6562 135.18 36.5938 135.273 36.5625C135.305 36.5469 135.344 36.5312 135.391 36.5156C135.438 36.5 135.492 36.4922 135.555 36.4922C135.883 36.6641 136.266 36.8281 136.703 36.9844C137.156 37.125 137.539 37.1953 137.852 37.1953L138.25 37.5469C138.453 37.7812 138.625 38.0312 138.766 38.2969C138.922 38.5469 138.969 38.875 138.906 39.2812C138.812 39.4219 138.734 39.5078 138.672 39.5391C138.578 39.8984 138.477 40.2188 138.367 40.5C138.258 40.7656 138.148 41.0234 138.039 41.2734C137.914 41.5547 137.797 41.8359 137.688 42.1172C137.578 42.3984 137.484 42.7422 137.406 43.1484C137.312 43.2578 137.25 43.3516 137.219 43.4297C137.203 43.5078 137.18 43.5859 137.148 43.6641C137.117 43.7578 137.078 43.8594 137.031 43.9688C136.984 44.0625 136.914 44.1484 136.82 44.2266C136.758 44.7109 136.664 45.1094 136.539 45.4219C136.414 45.7188 136.289 46.0156 136.164 46.3125C135.945 46.8594 135.742 47.4062 135.555 47.9531C135.367 48.4844 135.258 49.0938 135.227 49.7812C135.414 49.7344 135.586 49.7109 135.742 49.7109C135.945 49.7109 136.141 49.7422 136.328 49.8047C136.891 49.5234 137.5 49.3516 138.156 49.2891C138.828 49.2266 139.492 49.1875 140.148 49.1719C140.695 49.1719 141.203 49.1484 141.672 49.1016C141.828 49.2109 141.93 49.2734 141.977 49.2891C142.023 49.2891 142.102 49.2891 142.211 49.2891C142.258 49.2891 142.305 49.2891 142.352 49.2891C142.398 49.2891 142.461 49.2969 142.539 49.3125C142.758 49.5312 142.969 49.6875 143.172 49.7812C143.375 49.8594 143.594 49.9375 143.828 50.0156C144.031 50.0938 144.227 50.1797 144.414 50.2734C144.617 50.3516 144.812 50.4609 145 50.6016L145.211 51.7969C145.336 51.9688 145.391 52.0859 145.375 52.1484C145.375 52.2734 145.344 52.3828 145.281 52.4766L145.328 52.7812C145.031 52.8438 144.836 52.9141 144.742 52.9922C144.648 53.0547 144.547 53.1406 144.438 53.25C144.266 53.2656 144.102 53.2734 143.945 53.2734C143.633 53.2734 143.312 53.3203 142.984 53.4141C142.516 53.2422 142 53.1562 141.438 53.1562C141.219 53.1562 140.992 53.1641 140.758 53.1797C140.539 53.1953 140.32 53.2188 140.102 53.25C139.867 53.2812 139.633 53.3125 139.398 53.3438C139.164 53.3594 138.93 53.3672 138.695 53.3672C138.508 53.3984 138.375 53.4219 138.297 53.4375C138.219 53.4531 138.141 53.4766 138.062 53.5078C137.531 53.6797 136.953 53.8516 136.328 54.0234C135.719 54.1953 135.102 54.2812 134.477 54.2812C133.555 54.2812 132.812 54.0469 132.25 53.5781C132.188 53.4375 132.141 53.3438 132.109 53.2969C132.078 53.25 132.047 53.1953 132.016 53.1328ZM146.594 42.3984C146.562 42.1953 146.523 42.0703 146.477 42.0234C146.586 41.7422 146.664 41.4688 146.711 41.2031C146.773 40.9219 146.82 40.6562 146.852 40.4062C146.883 40.1875 146.914 39.9844 146.945 39.7969C146.992 39.6094 147.047 39.4297 147.109 39.2578C147.375 39.1953 147.57 39.0859 147.695 38.9297C147.836 38.7578 147.945 38.6094 148.023 38.4844C148.305 38.4688 148.484 38.5078 148.562 38.6016C148.656 38.6953 148.758 38.8516 148.867 39.0703C148.945 39.2422 149.055 39.4297 149.195 39.6328C149.336 39.8203 149.547 39.9688 149.828 40.0781C149.875 40.25 149.93 40.4141 149.992 40.5703C150.055 40.7266 150.125 40.8906 150.203 41.0625C150.344 41.3906 150.477 41.7344 150.602 42.0938C150.727 42.4375 150.797 42.7656 150.812 43.0781C150.625 43.4375 150.477 43.8516 150.367 44.3203C150.273 44.7891 150.211 45.2656 150.18 45.75C150.164 46.2188 150.18 46.6719 150.227 47.1094C150.273 47.5469 150.352 47.9141 150.461 48.2109L150.602 48.5859L151.117 48.5391C151.68 48.3984 152.188 48.2422 152.641 48.0703C153.094 47.8828 153.516 47.6641 153.906 47.4141C154.297 47.1641 154.672 46.8828 155.031 46.5703C155.391 46.2422 155.766 45.8594 156.156 45.4219C156.531 44.9844 156.867 44.4922 157.164 43.9453C157.461 43.3828 157.703 42.8047 157.891 42.2109C158.094 41.6172 158.25 41.0234 158.359 40.4297C158.469 39.8359 158.539 39.2812 158.57 38.7656C158.867 38.625 159.031 38.3984 159.062 38.0859L158.992 37.7812C158.945 37.7031 158.922 37.6328 158.922 37.5703C158.938 37.4922 158.961 37.4219 158.992 37.3594C159.117 37 159.383 36.7344 159.789 36.5625C160.07 36.75 160.328 36.9531 160.562 37.1719C160.812 37.3906 161.039 37.6094 161.242 37.8281C161.273 38.25 161.336 38.6172 161.43 38.9297C161.523 39.2266 161.625 39.5156 161.734 39.7969C161.844 40.0625 161.938 40.3203 162.016 40.5703C162.109 40.8203 162.172 41.125 162.203 41.4844C162.047 41.9531 161.93 42.3984 161.852 42.8203C161.789 43.2266 161.727 43.6562 161.664 44.1094L161.617 44.3672C161.336 44.8516 161.055 45.3516 160.773 45.8672C160.508 46.3672 160.289 46.8047 160.117 47.1797C160.023 47.2734 159.938 47.3828 159.859 47.5078C159.797 47.6328 159.734 47.7578 159.672 47.8828C159.641 47.9297 159.594 48.0078 159.531 48.1172C159.484 48.2266 159.438 48.3047 159.391 48.3516L158.828 48.1406L158.688 48.8672L158.312 48.9609L158.031 49.2891C157.672 49.9141 157.289 50.4375 156.883 50.8594C156.492 51.2812 156.047 51.6562 155.547 51.9844C155.062 52.3125 154.508 52.625 153.883 52.9219C153.273 53.2031 152.57 53.5078 151.773 53.8359C151.461 53.7891 151.188 53.7656 150.953 53.7656C150.734 53.75 150.516 53.7344 150.297 53.7188C150.078 53.7188 149.867 53.7109 149.664 53.6953C149.461 53.6797 149.227 53.6562 148.961 53.625C148.898 53.4844 148.812 53.3828 148.703 53.3203C148.594 53.2578 148.492 53.2266 148.398 53.2266C148.086 53.0703 147.852 52.8516 147.695 52.5703C147.539 52.2891 147.375 51.9766 147.203 51.6328C147.125 51.4453 147.039 51.2578 146.945 51.0703C146.867 50.8828 146.766 50.7031 146.641 50.5312L147.109 50.3906L146.5 49.6875C146.453 49.6406 146.398 49.5938 146.336 49.5469C146.289 49.5 146.242 49.4453 146.195 49.3828V48.9375C146.133 47.6562 146.102 46.4766 146.102 45.3984C146.117 44.3047 146.266 43.3438 146.547 42.5156L146.594 42.3984ZM163.891 54.2578C163.438 54.1484 163.086 53.9688 162.836 53.7188C162.602 53.4531 162.422 53.1484 162.297 52.8047C162.188 52.4453 162.109 52.0547 162.062 51.6328C162.031 51.2109 161.992 50.7734 161.945 50.3203C162.008 50.1172 162.086 49.9453 162.18 49.8047C162.289 49.6641 162.336 49.4688 162.32 49.2188C162.492 48.7188 162.648 48.2344 162.789 47.7656C162.93 47.2969 163.023 46.8125 163.07 46.3125C163.164 46.1719 163.258 46.0781 163.352 46.0312C163.477 45.1406 163.492 44.2266 163.398 43.2891C163.305 42.3516 163.148 41.4844 162.93 40.6875C162.945 40.5156 162.969 40.3906 163 40.3125C163.031 40.2188 163.031 40.1406 163 40.0781C162.969 39.9375 163.016 39.8672 163.141 39.8672C163.266 39.8672 163.391 39.8672 163.516 39.8672C163.516 39.5859 163.461 39.3125 163.352 39.0469C163.258 38.7656 163.164 38.4453 163.07 38.0859C163.195 37.8047 163.281 37.5312 163.328 37.2656C163.375 37 163.461 36.7578 163.586 36.5391C164.086 36.6953 164.578 36.875 165.062 37.0781C165.547 37.2812 166.023 37.4844 166.492 37.6875C166.961 37.875 167.422 38.0625 167.875 38.25C168.328 38.4219 168.773 38.5625 169.211 38.6719C169.883 39.1562 170.57 39.6406 171.273 40.125C171.992 40.5938 172.641 41.1172 173.219 41.6953C173.812 42.2578 174.305 42.9062 174.695 43.6406C175.086 44.375 175.312 45.2422 175.375 46.2422C175.344 46.3359 175.32 46.4141 175.305 46.4766C175.289 46.5391 175.273 46.6016 175.258 46.6641C175.242 46.7266 175.234 46.7969 175.234 46.875C175.234 46.9531 175.234 47.0625 175.234 47.2031C174.672 48.1875 173.961 49.0156 173.102 49.6875C172.242 50.3594 171.305 50.9531 170.289 51.4688C169.273 51.9844 168.211 52.4609 167.102 52.8984C166.008 53.3203 164.938 53.7734 163.891 54.2578ZM166.188 40.9688C166.047 40.9688 165.945 41 165.883 41.0625C166.07 41.7656 166.211 42.4297 166.305 43.0547C166.398 43.6797 166.445 44.3047 166.445 44.9297C166.461 45.5547 166.43 46.1953 166.352 46.8516C166.273 47.5078 166.164 48.2188 166.023 48.9844C166.227 48.9688 166.406 48.9297 166.562 48.8672C166.719 48.8047 166.875 48.7344 167.031 48.6562C167.203 48.5781 167.375 48.5078 167.547 48.4453C167.734 48.3828 167.945 48.3438 168.18 48.3281C168.242 48.2031 168.32 48.1094 168.414 48.0469C168.523 47.9688 168.617 47.8906 168.695 47.8125C169.086 47.6562 169.477 47.4922 169.867 47.3203C170.258 47.1484 170.617 46.9531 170.945 46.7344C171.273 46.5156 171.57 46.2656 171.836 45.9844C172.102 45.7031 172.32 45.3672 172.492 44.9766C172.367 44.7422 172.211 44.5469 172.023 44.3906C171.852 44.2188 171.664 44.0547 171.461 43.8984C171.273 43.7266 171.086 43.5547 170.898 43.3828C170.727 43.1953 170.586 42.9844 170.477 42.75C170.227 42.7188 170.008 42.6562 169.82 42.5625C169.633 42.4531 169.453 42.3516 169.281 42.2578C169.109 42.1484 168.922 42.0469 168.719 41.9531C168.531 41.8594 168.305 41.8047 168.039 41.7891C167.633 41.5703 167.266 41.4219 166.938 41.3438C166.609 41.25 166.359 41.125 166.188 40.9688Z" fill="#01536C"/>
<defs>
<clipPath id="clip0_855_2">
<rect width="277" height="110" fill="white"/>
</clipPath>
</defs>
</svg>
