<svg width="293" height="122" viewBox="0 0 293 122" fill="none" xmlns="http://www.w3.org/2000/svg">
<g clip-path="url(#clip0_861_5)">
<path opacity="0.5" d="M172.234 110.92C185.592 113.206 198.886 116.008 212.328 117.603C244.152 121.378 273.035 112.095 283.517 79.9226C288.859 63.5361 287.243 45.5387 280.206 29.8912C265.541 -2.70626 226.329 -2.67436 196.116 2.59462C173.414 6.55566 152.296 16.5992 129.775 21.3152C111.979 25.0423 93.8431 25.6059 75.7708 26.2864C46.5415 27.387 8.03687 34.469 2.14742 68.9114C-0.882347 86.6165 9.46139 102.184 25.6308 109.022C35.629 113.254 48.4285 116.449 59.2985 116.763C79.8424 117.358 98.5154 107.304 118.411 103.96C135.431 101.094 155.294 108.027 172.234 110.925V110.92Z" fill="#E52633"/>
<path d="M292.713 115.949C292.607 115.864 292.49 115.79 292.367 115.731C291.506 115.327 290.645 114.923 289.779 114.525C289.715 114.498 289.657 114.466 289.587 114.45C289.162 114.328 288.838 114.535 288.785 114.971C288.769 115.104 288.774 115.242 288.764 115.381C288.726 115.955 288.726 115.971 288.205 115.981C286.675 116.008 285.144 116.019 283.613 116.035C283.555 116.035 283.496 115.976 283.406 115.933C283.353 115.482 283.321 115.008 283.246 114.535C282.794 111.632 282.651 108.713 282.624 105.784C282.603 102.992 282.507 100.201 282.444 97.4097C282.428 96.6228 282.337 95.8465 282.098 95.0968C281.88 94.411 281.614 94.2196 280.913 94.2089C279.892 94.1983 278.872 94.2089 277.851 94.2089C277.511 94.2089 277.176 94.2408 276.847 94.3472C276.373 94.5013 276.102 94.815 276.044 95.2989C276.007 95.6019 276.007 95.9103 276.012 96.2187C276.081 99.6906 276.086 103.162 276.256 106.634C276.389 109.458 276.512 112.281 276.74 115.099C276.831 116.231 277.064 116.157 275.72 116.183C275.619 116.183 275.518 116.189 275.411 116.183C275.146 116.173 275.066 116.093 275.071 115.806C275.108 113.419 274.805 111.047 274.673 108.671C274.651 108.299 274.577 107.926 274.481 107.565C274.279 106.81 273.891 106.491 273.094 106.459C272.073 106.422 271.053 106.464 270.043 106.64C269.059 106.81 268.762 107.171 268.794 108.155C268.82 108.937 268.873 109.718 268.9 110.5C268.958 112.233 268.969 113.972 269.187 115.7C269.208 115.859 269.203 116.019 269.214 116.215C268.767 116.316 268.363 116.284 267.959 116.284C267.396 116.284 267.39 116.279 267.385 115.731C267.348 113.211 267.178 110.696 266.965 108.187C266.939 107.847 266.901 107.512 266.769 107.187C266.519 106.581 266.179 106.326 265.519 106.342C264.531 106.374 263.547 106.427 262.564 106.491C262.33 106.507 262.096 106.571 261.868 106.645C261.512 106.757 261.31 107.028 261.241 107.384C261.209 107.549 261.214 107.724 261.219 107.894C261.32 110.447 261.389 112.999 261.772 115.529C261.815 115.795 261.894 116.066 261.751 116.417C260.773 116.401 259.768 116.481 258.71 116.428C258.657 115.226 258.588 114.078 258.562 112.929C258.477 109.596 258.413 106.257 258.317 102.923C258.29 101.934 258.211 100.951 258.131 99.967C258.099 99.5949 258.025 99.2227 257.924 98.8665C257.727 98.1806 257.451 97.9679 256.738 98.0105C255.787 98.0689 254.841 98.17 253.889 98.2497C253.576 98.2763 253.283 98.372 253.023 98.5262C252.651 98.7495 252.417 99.0738 252.396 99.5204C252.385 99.6906 252.39 99.8607 252.396 100.031C252.555 105.103 252.64 110.175 252.996 115.237C253.103 116.779 253.443 116.556 251.641 116.614C251.248 116.63 251.21 116.582 251.194 116.237C251.078 113.339 250.615 110.478 250.323 107.602C250.28 107.166 250.185 106.725 250.052 106.31C249.844 105.672 249.467 105.438 248.808 105.512C247.894 105.608 246.985 105.73 246.07 105.842C245.374 105.927 244.853 106.358 244.97 107.251C245.039 107.788 245.06 108.336 245.098 108.878C245.273 111.356 245.337 113.844 245.635 116.311C245.677 116.646 245.608 116.742 245.257 116.758C243.928 116.811 242.605 116.848 241.276 116.885C241.074 116.891 240.867 116.922 240.681 116.752C240.617 107.549 240.643 98.3241 240.192 89.0888C240.511 89.0356 240.776 88.9984 241.037 88.9506C241.483 88.8655 241.627 88.6422 241.409 88.2275C240.968 87.3821 240.516 86.5474 240.011 85.7392C239.676 85.2075 239.113 85.2447 238.783 85.7924C238.294 86.6059 237.832 87.4459 237.374 88.2753C237.231 88.5359 237.39 88.8389 237.693 88.8868C238.028 88.9399 238.368 88.9612 238.703 89.0144C239.118 89.0782 239.123 89.0888 239.113 89.5461C239.075 91.2847 238.99 93.0179 238.996 94.7566C239.012 101.908 239.075 109.059 239.283 116.21C239.304 116.992 239.304 116.997 238.523 117.029C237.64 117.066 236.753 117.077 235.87 117.124C235.525 117.146 235.068 117.034 234.945 117.539C234.882 117.805 235.163 117.922 235.838 117.938C236.859 117.959 237.879 117.975 238.9 118.002C239.235 118.012 239.325 118.103 239.331 118.427C239.352 119.278 239.357 120.128 239.373 120.979C239.373 121.181 239.384 121.389 239.437 121.58C239.506 121.851 239.782 122.016 240.064 122C240.346 121.984 240.585 121.793 240.627 121.5C240.659 121.303 240.643 121.096 240.643 120.889C240.643 120.07 240.638 119.257 240.643 118.438C240.643 118.103 240.728 118.039 241.079 118.023C241.281 118.012 241.489 118.023 241.691 118.023C243.461 118.023 245.231 118.028 247.001 118.007C257.18 117.869 267.359 117.72 277.538 117.576C280.939 117.529 284.346 117.47 287.748 117.422C288.051 117.422 288.392 117.348 288.647 117.459C288.96 117.598 288.801 118.012 288.896 118.289C288.928 118.385 288.944 118.486 288.982 118.581C289.083 118.831 289.359 118.996 289.635 118.98C289.88 118.964 290.098 118.879 290.294 118.735C290.714 118.443 291.14 118.161 291.549 117.858C291.958 117.555 292.373 117.252 292.75 116.912C293.08 116.614 293.037 116.226 292.692 115.944L292.713 115.949ZM247.139 116.699C246.862 116.699 246.788 116.609 246.793 116.327C246.846 113.775 246.581 111.239 246.379 108.697C246.373 108.628 246.363 108.564 246.357 108.495C246.262 107.017 246.049 107.171 247.5 107.022C247.835 106.985 248.17 106.916 248.51 106.874C248.755 106.842 248.898 106.969 248.925 107.209C249.036 108.086 249.153 108.958 249.254 109.84C249.509 112.068 249.754 114.296 250.02 116.646C248.967 116.667 248.058 116.688 247.144 116.699H247.139ZM257.126 116.492C256.244 116.524 255.356 116.55 254.474 116.566C254.208 116.572 254.102 116.465 254.081 116.21C254.075 116.141 254.081 116.072 254.081 116.008C254.107 113.318 254.033 110.627 253.889 107.942C253.767 105.427 253.65 102.907 253.523 100.392C253.48 99.5098 253.544 99.4194 254.453 99.3237C255.096 99.2546 255.739 99.2014 256.382 99.1536C256.749 99.127 256.877 99.2174 256.914 99.5949C256.988 100.307 257.073 101.02 257.089 101.732C257.18 105.715 257.249 109.697 257.328 113.679C257.344 114.461 257.339 115.248 257.461 116.024C257.52 116.38 257.445 116.481 257.126 116.492ZM266.173 116.178C266.014 116.465 265.626 116.354 265.333 116.364C264.621 116.391 263.909 116.385 263.197 116.396C262.957 116.396 262.814 116.284 262.798 116.04C262.771 115.567 262.755 115.093 262.734 114.615C262.644 112.685 262.548 110.755 262.452 108.825C262.442 108.623 262.436 108.415 262.436 108.213C262.436 107.714 262.463 107.671 262.925 107.65C263.329 107.634 263.739 107.65 264.143 107.65C264.143 107.634 264.143 107.618 264.143 107.602C264.276 107.591 264.414 107.581 264.547 107.565C265.785 107.448 265.737 107.326 265.844 108.697C265.987 110.558 266.03 112.424 266.109 114.285C266.125 114.657 266.125 115.03 266.141 115.402C266.152 115.668 266.28 115.987 266.173 116.178ZM271.643 116.231C271.186 116.231 270.606 116.465 270.293 116.093C270.032 115.785 270.229 115.248 270.229 114.812C270.229 112.674 270.234 110.537 270.133 108.4C270.112 107.974 270.165 107.894 270.548 107.873C271.292 107.831 272.036 107.804 272.786 107.793C273.083 107.793 273.211 107.921 273.248 108.219C273.312 108.724 273.376 109.229 273.407 109.739C273.503 111.329 273.588 112.924 273.679 114.514C273.71 115.051 273.758 115.583 273.801 116.157C273.057 116.279 272.344 116.237 271.637 116.237L271.643 116.231ZM281.955 116.019C281.583 116.125 281.173 116.088 280.769 116.098C279.919 116.12 279.068 116.13 278.218 116.136C277.894 116.136 277.787 116.024 277.819 115.7C278.048 113.009 277.761 110.324 277.654 107.645C277.5 103.87 277.341 100.095 277.33 96.3197C277.33 96.1496 277.33 95.9794 277.346 95.8093C277.362 95.6657 277.463 95.57 277.607 95.5328C277.702 95.5062 277.809 95.4903 277.91 95.485C278.792 95.469 279.68 95.4477 280.562 95.4424C280.897 95.4424 280.992 95.5222 281.035 95.8465C281.131 96.5909 281.205 97.3299 281.21 98.0849C281.226 101.115 281.232 104.141 281.285 107.171C281.333 109.894 281.556 112.605 281.981 115.301C282.018 115.529 282.109 115.758 281.971 116.029L281.955 116.019Z" fill="#02546F"/>
<path d="M265.631 99.5098C262.149 97.3193 258.668 95.1234 255.186 92.9329C254.198 92.3108 254.15 92.3214 253.411 93.1668C250.95 95.9901 248.494 98.8133 246.039 101.642C245.884 101.823 245.72 101.998 245.581 102.189C245.395 102.45 245.427 102.753 245.635 102.929C245.837 103.104 246.161 103.115 246.379 102.918C246.581 102.737 246.751 102.524 246.931 102.317C249.212 99.7012 251.492 97.08 253.772 94.4641C253.969 94.2408 254.123 93.9643 254.453 93.8102C254.724 93.9803 255.011 94.1558 255.298 94.3312C258.838 96.559 262.373 98.7973 265.913 101.02C266.705 101.52 266.843 101.498 267.39 100.897C267.529 100.749 267.661 100.589 267.794 100.435C270.883 96.8939 273.971 93.3582 277.064 89.8225C277.235 89.6311 277.341 89.344 277.681 89.3228C277.734 89.5886 277.766 89.8491 277.846 90.099C277.92 90.3276 278.213 90.4818 278.415 90.4446C278.643 90.4021 278.85 90.2 278.861 89.9448C278.888 89.3334 278.84 88.7166 278.68 88.1265C278.526 87.5416 278.218 87.3396 277.617 87.43C277.011 87.515 276.416 87.6586 275.815 87.7809C275.752 87.7968 275.682 87.8181 275.624 87.85C275.433 87.9563 275.305 88.1158 275.342 88.3391C275.369 88.5146 275.496 88.6262 275.656 88.706C275.863 88.8123 276.14 88.6103 276.342 88.9293C273.115 92.6298 269.873 96.341 266.593 100.105C266.253 99.8926 265.939 99.7012 265.626 99.5045L265.631 99.5098Z" fill="#02546F"/>
<path d="M31.8712 14.3235C29.3198 14.4086 26.7684 14.5575 24.2223 14.7861C23.3719 14.8605 22.532 14.9828 21.7135 15.2274C20.2836 15.6527 19.4385 16.6045 19.2099 18.0932C19.1887 18.2314 19.178 18.375 19.1568 18.5132C18.9335 20.2039 18.8325 21.9053 18.7794 23.6067C18.689 26.414 18.8538 29.2107 19.0611 32.0126C19.1408 33.076 19.1727 34.1394 19.2205 35.2027C19.2205 35.2984 19.2365 35.4154 19.093 35.4579C18.9707 35.4952 18.8963 35.4154 18.8219 35.3516C18.1894 34.7827 17.5568 34.2138 16.9243 33.6449C16.6851 33.4322 16.4619 33.2036 16.212 33.0016C15.2446 32.2306 14.3251 32.1987 13.2673 32.8633C12.8102 33.1504 12.4328 33.5226 12.0873 33.9267C11.5558 34.5488 11.0402 35.1761 10.5246 35.8088C7.96255 38.9564 5.19855 41.9019 1.83923 44.2307C1.60535 44.3902 1.38742 44.5763 1.17481 44.7624C0.988768 44.9272 0.813361 45.1027 0.653899 45.2941C0.143622 45.9108 0.0957835 46.5754 0.489122 47.2719C0.792099 47.8036 1.22796 48.2183 1.67445 48.633C1.84986 48.7925 2.11563 48.8882 2.11563 49.2338C1.5522 49.7283 1.02598 50.3078 0.552907 50.9299C-0.308186 52.0571 -0.15404 52.9556 0.946245 53.7319C4.42782 56.1883 7.77652 58.8148 11.1093 61.4679C13.0228 62.9938 14.9417 64.5144 16.8658 66.035C17.6472 66.6518 18.4392 67.2473 19.3003 67.7524C19.7574 68.0235 20.2305 68.2628 20.7514 68.3957C21.4477 68.5765 22.0962 68.4754 22.6702 68.0501C23.037 67.7789 23.3772 67.4599 23.712 67.1409C24.7698 66.1414 25.8116 65.1258 26.8747 64.1316C29.8301 61.3615 32.6419 58.4585 35.289 55.3907C35.5441 55.093 35.7992 54.8006 36.0225 54.4762C36.958 53.0992 36.4158 52.4346 35.5494 51.8763C35.1348 51.6051 34.7202 51.334 34.3109 51.0522C34.0186 50.8502 34.0079 50.7651 34.2206 50.4461C34.5182 50.0048 34.8371 49.5794 35.1295 49.1328C35.4218 48.6862 35.6823 48.2236 35.879 47.7239C36.0384 47.3145 36.1075 46.9051 35.9693 46.4797C35.9162 46.3202 35.7886 46.1713 35.8949 45.9853C35.9587 45.9746 36.0278 45.948 36.1022 45.948C39.0469 45.948 41.9917 45.9215 44.9364 45.9587C47.812 45.9906 50.6876 45.9587 53.5473 45.6822C55.1419 45.528 56.6993 45.2037 58.1983 44.6135C59.7929 43.9808 60.8134 42.8377 61.2227 41.1576C61.3981 40.4292 61.531 39.6954 61.5788 38.9564C61.7224 36.8297 61.8659 34.7083 61.9669 32.5815C62.1104 29.4605 62.0519 26.3343 61.9881 23.2133C61.9616 21.8628 61.8765 20.5176 61.8127 19.1725C61.7808 18.46 61.6533 17.7635 61.4832 17.0723C61.1855 15.9026 60.4733 15.153 59.2879 14.8552C58.2514 14.5947 57.199 14.4511 56.1359 14.3873C54.3659 14.2863 52.5958 14.1906 50.8205 14.0843C50.5069 14.063 50.1933 14.0152 49.7893 13.9673C49.8318 13.4409 49.8903 13.0209 49.9009 12.6009C49.9328 11.0218 49.2365 9.88398 47.7854 9.22469C47.0678 8.90037 46.3184 8.70896 45.537 8.60794C42.773 8.25171 40.009 8.40058 37.2556 8.69301C36.6603 8.75681 36.0597 8.88973 35.4963 9.08114C34.3534 9.46395 33.5668 10.2402 33.1734 11.394C32.9555 12.0373 32.8226 12.6913 32.8279 13.3771C32.8386 14.281 32.8917 14.2916 31.8818 14.3235H31.8712ZM1.57878 51.871C1.55751 51.8231 1.57346 51.7221 1.61067 51.6902C1.73824 51.5786 1.87644 51.4563 2.03058 51.3872C2.74816 51.0841 3.51358 50.9618 4.26305 50.7864C4.49161 50.7332 4.67233 50.8395 4.84242 51.1585C3.81124 51.5573 2.78005 51.7487 1.74887 51.9454C1.69571 51.9561 1.60535 51.9135 1.57878 51.871ZM2.90762 49.9357C3.04051 49.7868 3.19997 49.7336 3.36475 49.8665C3.43916 49.925 3.49232 50.0154 3.55078 50.0845C3.44979 50.3397 3.24249 50.3982 3.02456 50.3982C2.92888 50.3982 2.77474 50.361 2.75348 50.2972C2.70032 50.159 2.81195 50.0367 2.90231 49.9303L2.90762 49.9357ZM35.1082 52.9875C35.3634 53.1896 35.3846 53.3438 35.1933 53.6309C35.0179 53.8967 34.8265 54.1519 34.6192 54.3965C32.0891 57.3261 29.3836 60.0908 26.5451 62.728C25.2482 63.9349 23.914 65.1099 22.6809 66.3913C22.532 66.5454 22.3673 66.6837 22.2184 66.8325C21.7613 67.2951 21.2244 67.3483 20.6557 67.0931C20.3315 66.9495 20.0232 66.7794 19.7149 66.5986C18.9441 66.152 18.2425 65.615 17.5462 65.062C14.7344 62.8343 11.9385 60.5959 9.11599 58.3894C6.93669 56.6827 4.72017 55.0239 2.53023 53.3331C2.31762 53.1683 2.03058 53.0673 1.94554 52.7376C2.33356 52.4452 2.82258 52.4877 3.25844 52.3814C3.94944 52.2113 4.65107 52.089 5.29955 51.8072C5.65568 51.653 5.90019 51.7381 6.17659 51.9348C6.78785 52.3601 7.41507 52.7695 8.02634 53.1896C12.1723 56.0553 16.3343 58.8945 20.2358 62.0953C20.5653 62.3664 20.9215 62.6004 21.2829 62.8183C22.1493 63.3341 23.0317 63.3128 23.9193 62.8556C24.3977 62.611 24.8336 62.3026 25.2057 61.9198C25.7532 61.3668 26.306 60.8086 26.795 60.2025C28.9158 57.5813 31.0739 54.992 32.9821 52.2006C33.099 52.0305 33.1894 51.8338 33.4339 51.7168C33.9814 52.1315 34.5448 52.5515 35.1029 52.9822L35.1082 52.9875ZM21.0916 60.8298C20.9534 60.8405 20.8045 60.8458 20.6716 60.8086C20.5069 60.766 20.3208 60.6757 20.3261 60.4843C20.3315 60.3247 20.5228 60.2928 20.661 60.2769C22.2344 60.0483 23.813 59.825 25.3917 59.6017C25.413 59.6017 25.4395 59.6336 25.4608 59.6495C25.4395 59.8994 25.2695 60.0376 25.0568 60.0908C23.7493 60.4098 22.4364 60.7076 21.0916 60.8298ZM24.0788 61.1435C23.2177 62.0953 22.6649 62.2016 21.6763 61.5795C21.9101 61.3775 22.1918 61.42 22.4363 61.3668C22.7128 61.3084 22.9945 61.2605 23.2709 61.2392C23.5366 61.218 23.7865 61.0585 24.0788 61.1435ZM34.6458 47.2347C34.4651 47.5803 34.2737 47.9259 34.0398 48.2343C31.6585 51.4137 29.442 54.7208 26.9863 57.8418C26.9225 57.9269 26.8534 58.0066 26.795 58.097C26.5717 58.4479 26.2687 58.6287 25.8435 58.6925C24.6529 58.8733 23.4675 59.0912 22.2769 59.2933C21.5062 59.4262 20.7354 59.5432 19.9753 59.6974C19.5288 59.7877 19.1674 59.7239 18.79 59.4315C16.2811 57.4537 13.6447 55.6566 11.003 53.8542C8.86617 52.392 6.70812 50.9565 4.57665 49.4837C3.78998 48.9414 3.03519 48.3459 2.28572 47.7504C1.95617 47.4899 1.65851 47.1762 1.44589 46.7934C1.28643 46.5063 1.31832 46.2511 1.52031 46.0118C1.61067 45.9055 1.71166 45.7992 1.81797 45.7088C1.97743 45.5705 2.14752 45.4323 2.32293 45.3153C5.87361 42.9387 8.74392 39.855 11.4335 36.5798C11.9757 35.9205 12.5232 35.2718 13.0813 34.6285C13.363 34.3042 13.6819 34.0224 14.0593 33.8203C14.5058 33.5811 14.9363 33.5705 15.3563 33.8841C15.5529 34.033 15.7496 34.1925 15.9303 34.3573C16.8499 35.1921 17.8067 35.9896 18.8325 36.6861C19.1408 36.8988 19.2578 37.1274 19.2418 37.4783C19.2099 38.329 19.178 39.1797 19.1621 40.0304C19.1461 40.9183 19.1621 41.8009 19.3587 42.6782C19.6883 44.1244 20.5334 45.0654 21.958 45.4961C22.7446 45.7354 23.5473 45.8523 24.3712 45.8523C25.8276 45.8523 27.2787 45.8523 28.7351 45.8523V45.9374C30.3297 45.9374 31.9296 45.9321 33.5242 45.9374C34.0877 45.9374 34.5501 46.2989 34.683 46.82C34.7149 46.9476 34.6936 47.1124 34.6352 47.2241L34.6458 47.2347ZM59.9045 39.7273C59.8407 40.1474 59.7663 40.5674 59.6653 40.9821C59.3889 42.088 58.7139 42.8643 57.6667 43.3215C56.6143 43.7735 55.5087 44.018 54.3871 44.1988C52.9148 44.4381 51.4212 44.5497 49.9328 44.5763C44.0434 44.6879 38.1486 44.6826 32.2592 44.5603C29.6706 44.5072 27.082 44.4274 24.4881 44.4115C23.6642 44.4062 22.8669 44.2839 22.0855 44.0127C21.3892 43.7735 20.9587 43.2949 20.7407 42.6091C20.5281 41.9604 20.4484 41.2958 20.4697 40.6153C20.4909 39.9772 20.3474 39.2967 20.5919 38.7171C20.8471 38.127 21.5274 37.8771 22.0058 37.4624C22.1387 37.3454 22.2928 37.2497 22.431 37.1434C22.6118 36.9998 22.7978 36.9732 23.021 37.0689C25.2269 37.9834 27.5604 38.1748 29.9045 38.2599C31.143 38.3024 32.3868 38.2546 33.6306 38.2493C33.7688 38.2493 33.907 38.2652 34.0186 38.2705C34.2099 38.4726 34.1674 38.6959 34.194 38.9032C34.2897 39.6476 34.7468 40.0304 35.4431 40.158C35.8258 40.2271 36.2138 40.2962 36.6019 40.3069C38.8715 40.376 41.1412 40.4345 43.4109 40.4877C43.6926 40.493 43.9743 40.4451 44.2613 40.4185C45.0639 40.3388 45.553 39.8709 45.7815 39.1265C45.9038 38.7225 45.9729 38.3024 46.0579 37.9249C46.2971 37.7867 46.515 37.8399 46.7277 37.8346C48.7156 37.7654 50.6983 37.6591 52.6756 37.4517C55.2961 37.1753 57.5976 36.1598 59.6228 34.5009C59.7344 34.4105 59.8354 34.3148 59.9577 34.2404C60.0587 34.1766 60.165 34.2085 60.2022 34.3308C60.2287 34.4318 60.2341 34.5381 60.2287 34.6445C60.1331 36.3458 60.165 38.0525 59.9045 39.7433V39.7273ZM21.4796 36.4947C21.554 36.4309 21.6656 36.415 21.7666 36.3884C21.7879 36.3831 21.8304 36.415 21.8517 36.4415C21.8676 36.4628 21.8729 36.5 21.8836 36.5319C21.8729 36.6968 21.7294 36.7606 21.6284 36.8456C20.9799 37.3933 20.6185 37.5687 20.6344 37.3507C20.6716 36.8297 21.1713 36.7499 21.4849 36.4894L21.4796 36.4947ZM20.7726 35.5324C20.8417 35.5164 21.0916 35.7185 21.065 35.7823C21.0278 35.8673 20.9534 35.9577 20.8736 36.0056C20.7567 36.08 20.6929 35.979 20.661 35.8833C20.6185 35.7504 20.6451 35.6228 20.7726 35.5324ZM41.5717 36.7393C42.4647 36.6968 43.3311 36.9147 44.2135 36.9785C44.6228 37.0051 44.7557 37.1859 44.7663 37.6112C44.7716 37.8611 44.7769 38.111 44.7344 38.3556C44.5962 39.1319 44.3145 39.302 43.6873 39.2967C41.7365 39.2807 39.7858 39.2967 37.835 39.2595C37.2025 39.2488 36.5646 39.1478 35.9374 39.0681C35.5707 39.0255 35.4112 38.8713 35.3953 38.5311C35.3793 38.1802 35.374 37.8186 35.4165 37.4677C35.4803 36.9254 35.6982 36.7287 36.2564 36.718C37.3194 36.7021 38.3825 36.718 39.4456 36.718V36.7446C40.1525 36.7446 40.8648 36.7712 41.5717 36.7393ZM33.9654 13.7015C34.0717 13.1804 34.2099 12.67 34.3056 12.1436C34.5182 10.9739 35.2996 10.3784 36.3786 10.1339C37.0324 9.985 37.6968 9.86271 38.3772 9.87866C38.9459 9.8893 39.5041 9.79891 40.0675 9.73511C40.6256 9.67131 41.1997 9.71916 41.7684 9.71916C43.2567 9.68194 44.7397 9.78296 46.2014 10.086C46.3396 10.1126 46.4778 10.1445 46.616 10.1817C48.3489 10.639 48.8857 11.8087 48.7741 13.5845C48.7635 13.7865 48.6412 13.9141 48.4445 13.9301C48.2691 13.946 48.0884 13.946 47.913 13.9301C47.7216 13.9141 47.5834 13.8131 47.5462 13.6111C47.4984 13.3346 47.4506 13.0528 47.4027 12.7763C47.2645 12.0054 46.7968 11.5162 46.0686 11.2664C45.7656 11.1653 45.4679 11.0218 45.1543 10.9899C44.4155 10.9101 43.6873 10.7613 42.9431 10.7347C41.2369 10.6709 39.5466 10.8251 37.851 10.958C36.4849 11.0643 35.7089 11.9044 35.5707 13.3027C35.5547 13.4463 35.56 13.5898 35.5335 13.728C35.4909 13.9567 35.3581 14.1162 35.1135 14.1374C34.869 14.1587 34.6192 14.1693 34.3694 14.1587C34.0133 14.1481 33.9016 14.0205 33.9707 13.6961L33.9654 13.7015ZM46.4459 13.8822C45.8294 13.9567 37.1281 14.1215 36.5009 14.0577C36.57 13.6961 36.6231 13.4197 36.6816 13.1432C36.8198 12.4573 37.2822 12.117 37.9413 12.0426C38.4676 11.9841 39.0044 11.9788 39.5359 11.9363C41.0987 11.814 42.6561 11.8406 44.2082 12.0213C44.5962 12.0639 44.9736 12.1649 45.3563 12.2287C45.9995 12.3404 46.3503 12.7338 46.4513 13.3612C46.4778 13.5366 46.5416 13.7068 46.4513 13.8876L46.4459 13.8822ZM41.9066 15.6155C44.7875 15.5677 47.9768 15.5305 51.1713 15.674C53.3666 15.7697 55.5618 15.9186 57.7624 16.0409C58.4109 16.0781 59.0168 16.2376 59.5909 16.5566C59.8939 16.7267 60.064 16.9554 60.1384 17.2903C60.2606 17.8114 60.3244 18.3377 60.3244 18.8747C60.3404 21.5013 60.3616 24.1278 60.3616 26.7543C60.3616 28.3865 60.2978 30.0188 60.3138 31.6511C60.3138 32.204 60.149 32.6081 59.7291 32.9378C57.9272 34.3627 55.9711 35.4898 53.6749 35.8886C52.8032 36.0375 51.9155 36.1225 51.0331 36.197C49.4757 36.3299 47.9183 36.4256 46.3662 36.5479C46.1058 36.5691 45.8878 36.5479 45.6965 36.3352C45.2553 35.8567 44.66 35.7291 44.0487 35.7078C41.7418 35.6281 39.4403 35.442 37.1334 35.4845C36.7454 35.4898 36.352 35.5164 35.964 35.5536C35.188 35.6228 34.6033 35.9737 34.3747 36.7499C34.279 37.0796 34.1089 37.2019 33.7741 37.2072C30.9622 37.2763 28.177 37.1593 25.4183 36.516C23.6536 36.1066 22.2397 35.1602 20.9853 33.9161C20.6929 33.6289 20.5388 33.3099 20.5175 32.8846C20.3633 29.3755 20.1029 25.8664 20.2836 22.3519C20.3527 21.0068 20.4378 19.6616 20.6398 18.3218C20.778 17.3913 21.2935 16.865 22.1653 16.6204C22.8191 16.4396 23.4782 16.3333 24.1532 16.2695C26.6302 16.0462 29.1072 15.9398 31.5894 15.8335C34.9222 15.69 38.2549 15.6315 41.9066 15.6155Z" fill="#02546F"/>
</g>
<path d="M71.0312 51.2422C70.5625 50.9766 70.2031 50.6016 69.9531 50.1172C69.7031 49.6328 69.5625 49.1719 69.5312 48.7344C69.5781 48.3594 69.6797 48.0703 69.8359 47.8672C69.9766 47.6484 70.1484 47.4766 70.3516 47.3516C70.5547 47.2109 70.7656 47.1094 70.9844 47.0469C71.2031 46.9688 71.4141 46.9062 71.6172 46.8594L71.9688 46.9766C72.0469 47.0547 72.125 47.125 72.2031 47.1875C72.2969 47.25 72.3828 47.3125 72.4609 47.375C72.6172 47.3125 72.7109 47.2188 72.7422 47.0938C72.7891 46.9688 72.8359 46.8438 72.8828 46.7188C72.9297 46.5469 72.9844 46.375 73.0469 46.2031C73.1094 46.0312 73.1875 45.8594 73.2812 45.6875C73.2656 45.5469 73.2734 45.4219 73.3047 45.3125C73.3359 45.2031 73.3672 45.1094 73.3984 45.0312C73.3047 44.9531 73.2344 44.9141 73.1875 44.9141C73.1562 44.8984 73.0938 44.875 73 44.8438C72.9531 44.8438 72.9062 44.8438 72.8594 44.8438C72.8125 44.8281 72.7578 44.8125 72.6953 44.7969C72.4609 44.625 72.3047 44.4844 72.2266 44.375C72.1641 44.25 72.0938 44.125 72.0156 44C71.9375 43.875 71.8672 43.7656 71.8047 43.6719C71.7422 43.5781 71.6719 43.4922 71.5938 43.4141L71.3125 43.2266L71.4531 42.9453C71.4844 42.9141 71.5 42.875 71.5 42.8281C71.5 42.7656 71.4688 42.6797 71.4062 42.5703C71.3594 42.3672 71.3516 42.2188 71.3828 42.125L71.4297 41.8438C71.5859 41.6406 71.6719 41.5234 71.6875 41.4922L71.9219 41.2578C72.2812 41.1641 72.6484 41.0625 73.0234 40.9531C73.3984 40.8281 73.7656 40.7031 74.125 40.5781C74.4844 40.4531 74.8516 40.3281 75.2266 40.2031C75.6016 40.0781 75.9766 39.9688 76.3516 39.875C76.4766 39.7656 76.6094 39.7031 76.75 39.6875C76.9062 39.6562 77.0469 39.6328 77.1719 39.6172C77.2812 39.6172 77.3828 39.6094 77.4766 39.5938C77.5703 39.5781 77.6406 39.5391 77.6875 39.4766C77.9531 39.3828 78.2109 39.3047 78.4609 39.2422C78.9297 39.1172 79.5469 38.9688 80.3125 38.7969C81.0781 38.625 81.9375 38.5 82.8906 38.4219L83.3828 38.3984C83.4766 38.4141 83.5703 38.4219 83.6641 38.4219C83.7578 38.4062 83.8516 38.3984 83.9453 38.3984C84.7578 38.3984 85.2969 38.6484 85.5625 39.1484C85.7188 39.2266 85.8594 39.3281 85.9844 39.4531C86.1094 39.5625 86.2266 39.6719 86.3359 39.7812C86.4141 39.8594 86.4844 39.9297 86.5469 39.9922C86.6094 40.0391 86.6641 40.0781 86.7109 40.1094L86.8984 40.2969C87.0703 40.6719 87.1016 41.0391 86.9922 41.3984C86.8984 41.5859 86.7969 41.6953 86.6875 41.7266C86.5781 41.7578 86.4688 41.7891 86.3594 41.8203L86.0547 41.9844C85.8516 41.9688 85.6953 41.9609 85.5859 41.9609C85.4922 41.9609 85.3828 41.9609 85.2578 41.9609C84.7891 41.9609 84.2422 41.9922 83.6172 42.0547C83.0078 42.1016 82.3828 42.1797 81.7422 42.2891C81.1016 42.3828 80.4766 42.5078 79.8672 42.6641C79.2578 42.8047 78.7266 42.9609 78.2734 43.1328C78.1484 43.2266 77.9844 43.3125 77.7812 43.3906C77.7344 43.4062 77.6641 43.4453 77.5703 43.5078C77.5859 43.6328 77.5859 43.7578 77.5703 43.8828C77.5547 43.9922 77.5312 44.1016 77.5 44.2109C77.4844 44.2891 77.4688 44.375 77.4531 44.4688C77.4531 44.5469 77.4453 44.6328 77.4297 44.7266C77.1016 45.1172 76.9453 45.5781 76.9609 46.1094L76.8438 46.3438C76.7812 46.4062 76.7266 46.5 76.6797 46.625C76.6484 46.7344 76.6484 46.8516 76.6797 46.9766L76.7734 47.2578C77.0859 47.2266 77.3906 47.1953 77.6875 47.1641C78 47.1172 78.3281 47.0703 78.6719 47.0234C79.1094 46.9453 79.5469 46.8828 79.9844 46.8359C80.4375 46.7734 80.9062 46.7422 81.3906 46.7422H82.3047L82.0938 46.9531L82.3516 46.9766L82.2109 47.3516C82.3203 47.3984 82.3984 47.4375 82.4453 47.4688C82.5078 47.4844 82.5625 47.5078 82.6094 47.5391L82.7734 47.7734C82.8516 47.8203 82.9219 47.8984 82.9844 48.0078C83.0469 48.1016 83.0859 48.2344 83.1016 48.4062L83.0312 48.6406L81.9297 50.0469L81.7891 50.2344L81.5547 50.1641C81.2578 50.1484 80.9766 50.1797 80.7109 50.2578C80.5859 50.2891 80.4531 50.3281 80.3125 50.375C80.1719 50.4062 80.0312 50.4219 79.8906 50.4219C79.5156 50.4844 79.2031 50.5391 78.9531 50.5859C78.7031 50.6172 78.4531 50.6484 78.2031 50.6797C77.8594 50.7422 77.5234 50.8047 77.1953 50.8672C76.8828 50.9141 76.5859 50.9922 76.3047 51.1016C76.1328 51.1172 76.0312 51.125 76 51.125C75.9688 51.1094 75.9375 51.1016 75.9062 51.1016C75.75 51.1016 75.5938 51.125 75.4375 51.1719C75.2812 51.2188 75.1328 51.2656 74.9922 51.3125C74.8984 51.3906 74.8359 51.4766 74.8047 51.5703C74.7734 51.6484 74.7422 51.7344 74.7109 51.8281C74.6797 51.9375 74.6328 52.0469 74.5703 52.1562C74.5234 52.25 74.4609 52.3516 74.3828 52.4609L74.4062 52.8828C74.2656 52.9141 74.1953 52.9375 74.1953 52.9531C74.1953 52.9531 74.1875 52.9531 74.1719 52.9531C74.1719 53.0781 74.1484 53.1953 74.1016 53.3047C74.0703 53.4141 74.0391 53.5156 74.0078 53.6094C73.9766 53.6719 73.9531 53.7266 73.9375 53.7734C73.9219 53.8203 73.9141 53.8672 73.9141 53.9141C74.0703 54.1953 74.1094 54.5156 74.0312 54.875C73.9688 55.1719 73.8516 55.4375 73.6797 55.6719C73.5078 55.8906 73.3047 56.0625 73.0703 56.1875C72.8203 56.2188 72.6328 56.2109 72.5078 56.1641C72.3984 56.1172 72.2812 56.0703 72.1562 56.0234C72.0781 55.9922 72 55.9688 71.9219 55.9531C71.8438 55.9219 71.7656 55.8984 71.6875 55.8828L71.4062 55.6484C71.3594 55.5547 71.3047 55.4688 71.2422 55.3906C71.1797 55.2969 71.1172 55.2031 71.0547 55.1094C70.9766 55 70.8984 54.8906 70.8203 54.7812C70.7422 54.6719 70.6719 54.5469 70.6094 54.4062C70.5 53.8594 70.4766 53.4062 70.5391 53.0469C70.6172 52.6719 70.7188 52.3047 70.8438 51.9453C70.875 51.8203 70.9062 51.7031 70.9375 51.5938C70.9688 51.4844 71 51.3672 71.0312 51.2422ZM89.4531 56.0938C88.7656 56.1875 88.1406 56.1562 87.5781 56C87.0156 55.8438 86.5078 55.6016 86.0547 55.2734C85.6172 54.9453 85.2344 54.5547 84.9062 54.1016C84.5938 53.6484 84.3359 53.1641 84.1328 52.6484C83.9922 51.5859 84.0312 50.625 84.25 49.7656C84.4688 48.8906 84.7891 48.0859 85.2109 47.3516C85.6328 46.6172 86.1094 45.9297 86.6406 45.2891C87.1875 44.6484 87.7109 44.0312 88.2109 43.4375C88.3203 43.4844 88.4062 43.4844 88.4688 43.4375C88.5469 43.3906 88.6094 43.3281 88.6562 43.25C88.7188 43.1719 88.7812 43.0938 88.8438 43.0156C88.9219 42.9375 89.0078 42.8828 89.1016 42.8516C89.1641 42.7109 89.2422 42.5938 89.3359 42.5C89.4453 42.4062 89.5547 42.3203 89.6641 42.2422C89.7891 42.1484 89.8984 42.0547 89.9922 41.9609C90.1016 41.8672 90.1953 41.75 90.2734 41.6094C90.4297 41.5781 90.5625 41.5234 90.6719 41.4453C90.7969 41.3672 90.9062 41.2812 91 41.1875C91.1094 41.0938 91.2188 41.0078 91.3281 40.9297C91.4375 40.8516 91.5703 40.7891 91.7266 40.7422V40.4375C92.0703 40.2812 92.3203 40.1094 92.4766 39.9219C92.6328 39.7344 92.8203 39.4922 93.0391 39.1953C93.2109 39.1797 93.3438 39.1719 93.4375 39.1719C93.5469 39.1719 93.7109 39.1562 93.9297 39.125C94.0703 38.8594 94.2031 38.6641 94.3281 38.5391C94.4531 38.4141 94.6328 38.2734 94.8672 38.1172C95.1016 38.2422 95.3516 38.3203 95.6172 38.3516C95.8828 38.3672 96.125 38.4844 96.3438 38.7031C96.3594 38.8906 96.4141 39.0391 96.5078 39.1484C96.6016 39.2422 96.7031 39.3359 96.8125 39.4297C96.9219 39.5078 97.0312 39.5938 97.1406 39.6875C97.25 39.7812 97.3203 39.9141 97.3516 40.0859C97.4297 40.0859 97.4766 40.0703 97.4922 40.0391C97.5234 40.0078 97.5781 40 97.6562 40.0156C97.6875 40.1406 97.7188 40.2422 97.75 40.3203C97.7812 40.3984 97.8125 40.4688 97.8438 40.5312C97.8906 40.5938 97.9297 40.6641 97.9609 40.7422C98.0078 40.8203 98.0469 40.9141 98.0781 41.0234C98 41.2109 97.9297 41.4141 97.8672 41.6328C97.8047 41.8359 97.6797 41.9766 97.4922 42.0547C97.4922 42.1797 97.5391 42.25 97.6328 42.2656C97.7266 42.2656 97.7812 42.3203 97.7969 42.4297C97.8125 42.5703 97.7891 42.6875 97.7266 42.7812C98.1641 43.5156 98.5625 44.2891 98.9219 45.1016C99.2812 45.8984 99.6875 46.6641 100.141 47.3984C100.109 47.6172 100.117 47.8359 100.164 48.0547C100.227 48.2578 100.297 48.4609 100.375 48.6641C100.469 48.8672 100.555 49.0703 100.633 49.2734C100.711 49.4766 100.766 49.6797 100.797 49.8828C100.828 50.1484 100.828 50.4375 100.797 50.75C100.766 51.0469 100.703 51.3359 100.609 51.6172C100.516 51.8984 100.391 52.1641 100.234 52.4141C100.078 52.6484 99.8984 52.8281 99.6953 52.9531C99.4453 53.2656 99.1328 53.5234 98.7578 53.7266C98.3828 53.9141 98.0391 54.1406 97.7266 54.4062C97.5078 54.5312 97.2734 54.625 97.0234 54.6875C96.7734 54.7344 96.5156 54.7891 96.25 54.8516C96.0469 54.9766 95.8047 55.1016 95.5234 55.2266C95.2422 55.3359 94.9531 55.4375 94.6562 55.5312C94.3594 55.625 94.0625 55.7031 93.7656 55.7656C93.4688 55.8125 93.2031 55.8203 92.9688 55.7891C92.4062 55.9922 91.8594 56.1328 91.3281 56.2109C90.7969 56.2891 90.1719 56.25 89.4531 56.0938ZM89.7578 47.5625C89.6016 47.9219 89.4141 48.25 89.1953 48.5469C88.9922 48.8281 88.7891 49.1172 88.5859 49.4141C88.3828 49.7109 88.2031 50.0312 88.0469 50.375C87.9062 50.7031 87.8281 51.0938 87.8125 51.5469C88.125 51.8125 88.4922 51.9766 88.9141 52.0391C89.3516 52.0859 89.7969 52.0938 90.25 52.0625C90.7031 52.0156 91.1562 51.9531 91.6094 51.875C92.0625 51.7969 92.4688 51.7578 92.8281 51.7578C92.8281 51.6172 92.8906 51.5469 93.0156 51.5469C93.6719 51.4844 94.2812 51.3047 94.8438 51.0078C95.4062 50.6953 95.9922 50.3828 96.6016 50.0703C96.6797 49.8828 96.7812 49.7188 96.9062 49.5781C97.0312 49.4375 97.1016 49.2344 97.1172 48.9688C97.0391 48.8281 96.9844 48.7109 96.9531 48.6172C96.9375 48.5234 96.9297 48.3828 96.9297 48.1953C96.5234 47.6328 96.1719 47.0234 95.875 46.3672C95.5781 45.6953 95.2344 45.0625 94.8438 44.4688C94.8125 44.5469 94.75 44.625 94.6562 44.7031C94.5625 44.7812 94.4609 44.7656 94.3516 44.6562C94.3047 44.8125 94.2344 44.9219 94.1406 44.9844C94.0469 45.0312 93.9375 45.0547 93.8125 45.0547C93.7031 45.0547 93.5859 45.0312 93.4609 44.9844C93.3516 44.9375 93.25 44.875 93.1562 44.7969C92.6094 45.2344 92.0625 45.6562 91.5156 46.0625C90.9844 46.4688 90.5 46.9453 90.0625 47.4922C89.9844 47.5391 89.9375 47.5547 89.9219 47.5391C89.9062 47.5234 89.8516 47.5312 89.7578 47.5625ZM102.32 53.9844C102.242 54 102.172 53.9453 102.109 53.8203C102.047 53.6797 101.977 53.5469 101.898 53.4219H102.156C102.047 53.0781 102.016 52.7656 102.062 52.4844C102.125 52.1875 102.195 51.9062 102.273 51.6406C102.352 51.3594 102.414 51.0938 102.461 50.8438C102.523 50.5781 102.5 50.3047 102.391 50.0234C102.469 50.0703 102.523 50.0547 102.555 49.9766C102.602 49.8828 102.633 49.7734 102.648 49.6484C102.68 49.5078 102.688 49.3672 102.672 49.2266C102.672 49.0703 102.664 48.9453 102.648 48.8516C102.852 48.3672 103.008 47.8672 103.117 47.3516C103.242 46.8359 103.352 46.3281 103.445 45.8281C103.539 45.3125 103.641 44.8203 103.75 44.3516C103.875 43.8672 104.031 43.4141 104.219 42.9922C104.438 42.9609 104.664 42.9922 104.898 43.0859C105.148 43.1641 105.312 43.2656 105.391 43.3906C105.875 43.0156 106.305 42.5625 106.68 42.0312C107.055 41.5 107.43 40.9844 107.805 40.4844C108.195 39.9688 108.633 39.5156 109.117 39.125C109.602 38.7344 110.203 38.5 110.922 38.4219C111.297 38.6875 111.719 38.9766 112.188 39.2891C112.656 39.5859 113.039 39.9609 113.336 40.4141C113.461 40.4922 113.578 40.5781 113.688 40.6719C113.812 40.75 113.938 40.8281 114.062 40.9062V41.2578C114.281 41.4609 114.461 41.7031 114.602 41.9844C114.758 42.25 114.891 42.5391 115 42.8516C115.125 43.1484 115.242 43.4531 115.352 43.7656C115.461 44.0781 115.586 44.3672 115.727 44.6328C115.695 44.7266 115.68 44.8125 115.68 44.8906C115.695 44.9531 115.711 45.0234 115.727 45.1016C115.758 45.1641 115.781 45.2422 115.797 45.3359C115.812 45.4141 115.82 45.5156 115.82 45.6406C115.758 46.4688 115.484 47.1406 115 47.6562C114.531 48.1562 113.953 48.5703 113.266 48.8984C112.594 49.2109 111.875 49.4844 111.109 49.7188C110.344 49.9375 109.648 50.1797 109.023 50.4453C109.023 50.5078 109.055 50.5391 109.117 50.5391C109.195 50.5391 109.219 50.5859 109.188 50.6797C109.656 50.9609 110.016 51.1875 110.266 51.3594C110.531 51.5312 110.773 51.6797 110.992 51.8047C111.227 51.9141 111.477 52.0078 111.742 52.0859C112.023 52.1641 112.406 52.2578 112.891 52.3672C113.375 52.4766 113.75 52.5703 114.016 52.6484C114.297 52.7109 114.547 52.7656 114.766 52.8125C114.984 52.8438 115.219 52.875 115.469 52.9062C115.719 52.9375 116.055 52.9766 116.477 53.0234C116.648 53.1953 116.789 53.3984 116.898 53.6328C117.008 53.8672 117.086 54.1016 117.133 54.3359C117.18 54.5703 117.188 54.7969 117.156 55.0156C117.141 55.2188 117.078 55.3828 116.969 55.5078C116.984 55.5703 117.023 55.6016 117.086 55.6016C117.164 55.5859 117.242 55.5859 117.32 55.6016C117.211 55.6797 117.117 55.7734 117.039 55.8828C116.961 55.9922 116.883 56.1016 116.805 56.2109C116.727 56.3203 116.633 56.4219 116.523 56.5156C116.43 56.6094 116.305 56.6641 116.148 56.6797C115.586 56.8984 114.867 56.9062 113.992 56.7031C113.117 56.5 112 56.1406 110.641 55.625C109.969 55.375 109.422 55.1484 109 54.9453C108.578 54.7422 108.211 54.5469 107.898 54.3594C107.586 54.1562 107.297 53.9453 107.031 53.7266C106.766 53.4922 106.461 53.2188 106.117 52.9062C106.07 52.9219 106.039 52.9531 106.023 53C106.023 53.0469 106 53.0781 105.953 53.0938C105.875 53.7188 105.75 54.2266 105.578 54.6172C105.422 55.0078 105.188 55.4062 104.875 55.8125C104.625 55.7656 104.453 55.7891 104.359 55.8828C104.281 55.9766 104.18 56.0625 104.055 56.1406C103.898 56.1719 103.781 56.1641 103.703 56.1172C103.625 56.0859 103.555 56.0469 103.492 56C103.43 55.9531 103.359 55.9062 103.281 55.8594C103.203 55.8125 103.078 55.7969 102.906 55.8125C102.859 55.6719 102.812 55.5391 102.766 55.4141C102.719 55.2734 102.594 55.2109 102.391 55.2266C102.438 55.0859 102.453 54.9688 102.438 54.875C102.422 54.7656 102.398 54.6719 102.367 54.5938C102.336 54.5 102.305 54.4062 102.273 54.3125C102.258 54.2188 102.273 54.1094 102.32 53.9844ZM110.148 43.2734C109.945 43.5703 109.719 43.8438 109.469 44.0938C109.219 44.3281 108.969 44.5781 108.719 44.8438C108.484 45.0938 108.273 45.375 108.086 45.6875C107.898 45.9844 107.766 46.3438 107.688 46.7656C108.344 46.6875 109.031 46.5078 109.75 46.2266C110.469 45.9297 111.148 45.6484 111.789 45.3828C111.711 44.8047 111.508 44.3438 111.18 44C110.852 43.6406 110.508 43.3984 110.148 43.2734ZM119.289 56.3281C119.133 56.3281 118.891 56.3047 118.562 56.2578C118.312 55.9922 118.086 55.6328 117.883 55.1797C117.695 54.7109 117.547 54.2188 117.438 53.7031C117.344 53.1719 117.297 52.6484 117.297 52.1328C117.312 51.6016 117.406 51.1328 117.578 50.7266C117.578 50.7109 117.648 50.5234 117.789 50.1641C117.945 49.8047 118.141 49.3516 118.375 48.8047C118.609 48.2422 118.875 47.625 119.172 46.9531C119.469 46.2656 119.766 45.5938 120.062 44.9375C120.359 44.2812 120.641 43.6875 120.906 43.1562C121.188 42.6094 121.43 42.1875 121.633 41.8906C121.773 41.6719 121.898 41.4609 122.008 41.2578C122.133 41.0547 122.25 40.8672 122.359 40.6953C122.531 40.4141 122.688 40.1562 122.828 39.9219C122.984 39.6719 123.148 39.4531 123.32 39.2656C123.508 39.0625 123.711 38.8906 123.93 38.75C124.148 38.5938 124.414 38.4609 124.727 38.3516C124.914 38.4297 125.078 38.5156 125.219 38.6094C125.359 38.6875 125.484 38.7891 125.594 38.9141L125.664 39.2422C125.695 39.3516 125.742 39.4297 125.805 39.4766C125.883 39.5078 125.945 39.5234 125.992 39.5234C126.195 39.5703 126.367 39.625 126.508 39.6875C126.664 39.7344 126.828 39.7656 127 39.7812C127.062 39.875 127.117 39.9688 127.164 40.0625C127.227 40.1562 127.289 40.2422 127.352 40.3203C127.664 40.7734 127.922 41.2109 128.125 41.6328C128.328 42.0547 128.328 42.5156 128.125 43.0156L128.148 43.2734C128.227 43.3828 128.266 43.4844 128.266 43.5781C128.266 43.6719 128.25 43.8047 128.219 43.9766C128.203 44.1016 128.188 44.2422 128.172 44.3984C128.172 44.5391 128.195 44.6953 128.242 44.8672L128.406 45.0547C128.656 45.1797 128.898 45.2422 129.133 45.2422C129.445 45.2422 129.727 45.1719 129.977 45.0312C130.227 44.8906 130.461 44.75 130.68 44.6094C130.852 44.4844 131.008 44.3828 131.148 44.3047C131.305 44.2266 131.453 44.1719 131.594 44.1406C131.922 43.8281 132.219 43.5547 132.484 43.3203C132.766 43.0703 133.055 42.8203 133.352 42.5703C133.914 42.1172 134.461 41.6328 134.992 41.1172C135.523 40.5859 135.945 39.9297 136.258 39.1484C136.43 39.0391 136.625 38.9844 136.844 38.9844C137.062 38.9844 137.281 39.0312 137.5 39.125C137.719 39.2031 137.938 39.2969 138.156 39.4062C138.203 39.4375 138.242 39.4609 138.273 39.4766C138.32 39.4922 138.367 39.5156 138.414 39.5469C138.414 39.7188 138.484 39.875 138.625 40.0156C138.703 40.0781 138.758 40.1172 138.789 40.1328C138.82 40.1484 138.852 40.1641 138.883 40.1797C139.008 40.2578 139.109 40.3281 139.188 40.3906C139.281 40.4531 139.352 40.5391 139.398 40.6484C139.539 41.0703 139.773 41.3984 140.102 41.6328C140.07 41.8047 140.078 41.9766 140.125 42.1484C140.172 42.3047 140.227 42.4609 140.289 42.6172C140.32 42.6797 140.344 42.7422 140.359 42.8047C140.375 42.8516 140.398 42.9141 140.43 42.9922L139.914 42.9453L139.984 43.4609C140.031 43.7266 140.008 44.0234 139.914 44.3516C139.836 44.6797 139.742 44.9375 139.633 45.125C139.664 45.5938 139.68 45.9688 139.68 46.25C139.68 46.5156 139.664 46.7656 139.633 47C139.602 47.2344 139.547 47.4609 139.469 47.6797C139.406 47.8828 139.32 48.1016 139.211 48.3359C139.273 49.5234 139.133 50.6094 138.789 51.5938C138.461 52.5781 138.102 53.5 137.711 54.3594C137.664 54.4688 137.617 54.5703 137.57 54.6641C137.523 54.7578 137.484 54.8516 137.453 54.9453C137.281 54.9922 137.125 55.0469 136.984 55.1094C136.844 55.1719 136.711 55.2422 136.586 55.3203C136.414 55.4297 136.242 55.5234 136.07 55.6016C135.898 55.6641 135.719 55.6953 135.531 55.6953C134.781 55.1484 134.391 54.2031 134.359 52.8594C134.344 51.5156 134.633 49.8047 135.227 47.7266C135.336 47.6484 135.383 47.5312 135.367 47.375V47.1172L135.133 47.0938C135.055 47.0938 134.984 47.1016 134.922 47.1172C134.859 47.1328 134.812 47.2031 134.781 47.3281C134.281 47.6875 133.734 48.0625 133.141 48.4531C132.562 48.8281 131.961 49.1797 131.336 49.5078C130.711 49.8203 130.07 50.0859 129.414 50.3047C128.773 50.5078 128.148 50.6094 127.539 50.6094C125.977 50.6094 124.797 49.8125 124 48.2188L123.789 47.7969L123.555 48.1719C123.508 48.25 123.422 48.4062 123.297 48.6406C123.188 48.8594 123.07 49.1172 122.945 49.4141C122.836 49.7109 122.734 50.0156 122.641 50.3281C122.562 50.6406 122.539 50.9141 122.57 51.1484C122.383 51.3203 122.195 51.5156 122.008 51.7344C121.836 51.9531 121.711 52.2031 121.633 52.4844C121.602 52.5625 121.594 52.6406 121.609 52.7188C121.625 52.7812 121.648 52.8516 121.68 52.9297C121.664 53.0391 121.633 53.1172 121.586 53.1641C121.539 53.2109 121.484 53.2578 121.422 53.3047C121.344 53.3828 121.266 53.4688 121.188 53.5625C121.109 53.6406 121.039 53.7344 120.977 53.8438C120.945 53.9375 120.922 54.0391 120.906 54.1484C120.891 54.2422 120.875 54.3281 120.859 54.4062C120.859 54.5781 120.836 54.6953 120.789 54.7578C120.633 55.0859 120.492 55.3594 120.367 55.5781C120.258 55.7812 120.148 55.9375 120.039 56.0469C119.93 56.1562 119.812 56.2266 119.688 56.2578C119.578 56.3047 119.445 56.3281 119.289 56.3281ZM139.938 53.7734L140.242 53.5391L140.266 53.0469C140.656 52.0938 141.055 51.1797 141.461 50.3047C141.883 49.4297 142.32 48.5312 142.773 47.6094C142.914 47.3125 143.055 47.0156 143.195 46.7188C143.352 46.4219 143.5 46.1172 143.641 45.8047C143.625 45.7422 143.617 45.6797 143.617 45.6172C143.617 45.5391 143.633 45.4531 143.664 45.3594C143.883 45.0469 144.055 44.7656 144.18 44.5156C144.32 44.2656 144.453 44.0078 144.578 43.7422C144.719 43.4297 144.867 43.1172 145.023 42.8047C145.195 42.4922 145.406 42.1875 145.656 41.8906L145.82 41.6562L146.078 41.6797C146.141 41.6484 146.203 41.625 146.266 41.6094C146.344 41.5781 146.438 41.5625 146.547 41.5625L146.969 41.6328C147.484 41.3984 147.938 41.0625 148.328 40.625C148.734 40.1719 149.141 39.6328 149.547 39.0078L149.828 38.6094L150.203 38.8438C150.281 38.8906 150.406 38.9375 150.578 38.9844C150.75 39.0312 150.93 39.0859 151.117 39.1484C151.445 39.2266 151.766 39.3203 152.078 39.4297C152.391 39.5234 152.633 39.6562 152.805 39.8281L152.922 40.0391C152.953 40.2109 152.977 40.3672 152.992 40.5078C153.023 40.6484 153.055 40.7891 153.086 40.9297C153.148 41.2578 153.203 41.5859 153.25 41.9141C153.297 42.2266 153.328 42.5781 153.344 42.9688C153.422 43.2812 153.492 43.6016 153.555 43.9297C153.633 44.2422 153.703 44.5547 153.766 44.8672C153.844 45.3203 153.93 45.7578 154.023 46.1797C154.117 46.5859 154.242 46.9766 154.398 47.3516C154.555 47.3516 154.648 47.3594 154.68 47.375C154.867 47.2969 155.086 47.25 155.336 47.2344L155.641 47.2109L155.734 47.4922C155.766 47.5391 155.805 47.5859 155.852 47.6328C155.898 47.6797 155.953 47.7266 156.016 47.7734C156.266 47.7891 156.445 47.8438 156.555 47.9375C156.68 48.0156 156.781 48.0938 156.859 48.1719C156.891 48.2031 156.93 48.2422 156.977 48.2891C157.023 48.3203 157.062 48.3438 157.094 48.3594L157.516 48.5234L157.281 48.9688C157.109 49.2969 156.844 49.6172 156.484 49.9297C156.141 50.2422 155.75 50.5 155.312 50.7031C155.344 50.8125 155.359 50.9141 155.359 51.0078C155.375 51.1016 155.398 51.2109 155.43 51.3359C155.492 51.6484 155.539 51.9766 155.57 52.3203C155.617 52.6484 155.617 52.9922 155.57 53.3516C155.414 53.7578 155.227 54.125 155.008 54.4531C154.805 54.7656 154.555 55.0547 154.258 55.3203C153.977 55.5703 153.656 55.7812 153.297 55.9531C152.938 56.1094 152.562 56.1953 152.172 56.2109C151.953 56.1641 151.789 56.1094 151.68 56.0469C151.586 55.9844 151.5 55.9219 151.422 55.8594C151.297 55.7656 151.195 55.7031 151.117 55.6719L150.812 55.5312L150.906 55.1797C150.953 55.0547 150.945 54.9453 150.883 54.8516C150.836 54.7578 150.727 54.6328 150.555 54.4766C150.492 54.4297 150.438 54.3828 150.391 54.3359C150.344 54.2734 150.289 54.2109 150.227 54.1484L149.758 53.6094L150.531 53.3984C151 53.2734 151.312 53.1172 151.469 52.9297C151.625 52.7266 151.688 52.375 151.656 51.875C151.266 51.7969 150.945 51.7891 150.695 51.8516C150.445 51.8984 150.195 51.9531 149.945 52.0156C149.586 52.1094 149.234 52.1953 148.891 52.2734C148.547 52.3359 148.172 52.3672 147.766 52.3672C147.5 52.3672 147.219 52.3438 146.922 52.2969L146.664 52.2734L146.594 52.0156C146.594 51.9844 146.57 51.9531 146.523 51.9219C146.492 51.875 146.461 51.8359 146.43 51.8047C146.352 51.7109 146.258 51.5859 146.148 51.4297C146.039 51.2734 146.016 51.0781 146.078 50.8438C145.969 50.6719 145.906 50.4922 145.891 50.3047C145.828 50.4297 145.773 50.5547 145.727 50.6797C145.695 50.7891 145.664 50.8984 145.633 51.0078L145.539 51.3125L145.234 51.3594C145.203 51.3906 145.172 51.4375 145.141 51.5C145.125 51.5625 145.125 51.6094 145.141 51.6406L145.234 51.8984L145 52.1094C144.969 52.1562 144.93 52.1953 144.883 52.2266C144.836 52.2578 144.797 52.2891 144.766 52.3203C144.734 52.4922 144.688 52.6562 144.625 52.8125C144.578 52.9688 144.523 53.125 144.461 53.2812C144.383 53.5312 144.305 53.7734 144.227 54.0078C144.164 54.2422 144.133 54.4766 144.133 54.7109L144.039 55.0156C143.961 55.1406 143.859 55.2344 143.734 55.2969C143.625 55.3594 143.516 55.4141 143.406 55.4609C143.25 55.5234 143.141 55.5859 143.078 55.6484L143.008 55.9531L142.656 56C142.453 56.0469 142.305 56.0781 142.211 56.0938C142.133 56.1094 142.039 56.1172 141.93 56.1172L141.625 56.0938C141.438 55.9062 141.281 55.7656 141.156 55.6719C141.047 55.5625 140.914 55.4688 140.758 55.3906L140.617 55.2031C140.555 55.0781 140.516 54.9688 140.5 54.875C140.484 54.7656 140.461 54.6562 140.43 54.5469C140.398 54.3438 140.352 54.2031 140.289 54.125L139.938 53.7734ZM147.414 47.6797C147.195 47.9922 146.984 48.3203 146.781 48.6641C146.891 48.6484 146.992 48.6406 147.086 48.6406C147.195 48.6406 147.305 48.6328 147.414 48.6172C147.961 48.5859 148.469 48.5469 148.938 48.5C149.406 48.4531 149.914 48.375 150.461 48.2656C150.336 47.6875 150.195 47.1016 150.039 46.5078C149.898 45.8984 149.742 45.2891 149.57 44.6797L149.453 44.9141C149.062 45.3359 148.688 45.7891 148.328 46.2734C147.969 46.7578 147.672 47.2188 147.438 47.6562L147.414 47.6797ZM159.578 53.9609C159.125 53.6172 158.75 53.1875 158.453 52.6719C158.172 52.1562 157.945 51.6094 157.773 51.0312C157.617 50.4531 157.508 49.8594 157.445 49.25C157.398 48.625 157.383 48.0312 157.398 47.4688C157.539 47.0469 157.711 46.6641 157.914 46.3203C158.117 45.9609 158.344 45.625 158.594 45.3125C158.844 44.9844 159.102 44.6797 159.367 44.3984C159.648 44.1016 159.922 43.8047 160.188 43.5078C160.281 43.5078 160.367 43.5312 160.445 43.5781C160.508 43.4062 160.602 43.2578 160.727 43.1328C160.852 43.0078 160.984 42.8984 161.125 42.8047C161.266 42.6953 161.406 42.5938 161.547 42.5C161.688 42.3906 161.805 42.2656 161.898 42.125C162.289 42.0312 162.633 41.8984 162.93 41.7266C163.242 41.5547 163.539 41.3672 163.82 41.1641C164.102 40.9609 164.391 40.7734 164.688 40.6016C164.984 40.4297 165.328 40.2969 165.719 40.2031C165.859 40.0469 166.031 39.9141 166.234 39.8047C166.453 39.6953 166.664 39.5938 166.867 39.5C167.086 39.4062 167.289 39.3047 167.477 39.1953C167.68 39.0859 167.844 38.9375 167.969 38.75C168.062 38.875 168.195 38.9219 168.367 38.8906C168.539 38.8438 168.695 38.7969 168.836 38.75C168.93 38.7344 169.008 38.75 169.07 38.7969C169.133 38.8438 169.188 38.8984 169.234 38.9609C169.297 39.0078 169.344 39.0391 169.375 39.0547C169.422 39.0703 169.469 39.0234 169.516 38.9141C169.641 38.9297 169.672 38.9844 169.609 39.0781C169.562 39.1719 169.531 39.2344 169.516 39.2656C169.672 39.2344 169.797 39.2656 169.891 39.3594C170 39.4375 170.164 39.4922 170.383 39.5234C170.461 39.6016 170.484 39.6641 170.453 39.7109C170.422 39.7578 170.398 39.8359 170.383 39.9453C170.945 40.1172 171.305 40.3906 171.461 40.7656C171.617 41.125 171.633 41.5078 171.508 41.9141C171.383 42.3047 171.148 42.6719 170.805 43.0156C170.477 43.3438 170.109 43.5625 169.703 43.6719C169.219 43.7969 168.766 43.9219 168.344 44.0469C167.938 44.1719 167.539 44.3125 167.148 44.4688C166.773 44.625 166.414 44.8125 166.07 45.0312C165.742 45.2344 165.453 45.4766 165.203 45.7578C164.766 45.8828 164.367 46.0547 164.008 46.2734C163.664 46.4922 163.336 46.7344 163.023 47C162.727 47.2656 162.438 47.5469 162.156 47.8438C161.875 48.125 161.594 48.4062 161.312 48.6875C161.312 48.9531 161.266 49.1562 161.172 49.2969C161.078 49.4375 160.977 49.5781 160.867 49.7188C160.898 50.0156 160.961 50.2734 161.055 50.4922C161.164 50.6953 161.273 50.9062 161.383 51.125C162.633 51.5 163.953 51.7344 165.344 51.8281C166.75 51.9062 168.141 51.9531 169.516 51.9688C169.656 52.1562 169.812 52.3359 169.984 52.5078C170.172 52.6641 170.336 52.8281 170.477 53C170.633 53.1719 170.75 53.375 170.828 53.6094C170.922 53.8281 170.945 54.0938 170.898 54.4062C170.633 54.6719 170.344 54.9297 170.031 55.1797C169.719 55.4141 169.406 55.6484 169.094 55.8828C168.953 55.8984 168.781 55.8984 168.578 55.8828C168.391 55.8672 168.188 55.8594 167.969 55.8594C167.766 55.8594 167.555 55.875 167.336 55.9062C167.133 55.9219 166.938 55.9688 166.75 56.0469C165.766 56.0156 164.758 55.8984 163.727 55.6953C162.695 55.4766 161.742 55.2188 160.867 54.9219C160.695 54.7188 160.516 54.5312 160.328 54.3594C160.141 54.1719 159.891 54.0391 159.578 53.9609ZM171.742 56.2812C171.523 56.1406 171.352 55.9609 171.227 55.7422C171.086 55.5234 170.977 55.2891 170.898 55.0391C170.805 54.7891 170.734 54.5312 170.688 54.2656C170.625 53.9844 170.562 53.7188 170.5 53.4688C170.5 53.25 170.547 53.0938 170.641 53C170.734 52.8906 170.836 52.7891 170.945 52.6953C171.32 52.6797 171.656 52.6484 171.953 52.6016C172.25 52.5547 172.539 52.5078 172.82 52.4609C173.102 52.4141 173.383 52.375 173.664 52.3438C173.945 52.2969 174.25 52.2734 174.578 52.2734C174.812 51.7891 175.031 51.3281 175.234 50.8906C175.438 50.4375 175.633 50.0078 175.82 49.6016C175.914 49.2109 176.031 48.8516 176.172 48.5234C176.328 48.1797 176.477 47.8594 176.617 47.5625C176.758 47.25 176.883 46.9453 176.992 46.6484C177.102 46.3359 177.172 46.0078 177.203 45.6641C177.391 45.1172 177.555 44.6172 177.695 44.1641C177.852 43.6953 177.969 43.1406 178.047 42.5C177.453 42.5938 176.977 42.6875 176.617 42.7812C176.258 42.8594 176 42.9375 175.844 43.0156C175.531 43 175.281 42.9375 175.094 42.8281C174.922 42.7188 174.781 42.5859 174.672 42.4297C174.562 42.2734 174.469 42.0938 174.391 41.8906C174.312 41.6875 174.219 41.4766 174.109 41.2578C174.172 41.1172 174.188 40.9141 174.156 40.6484C174.125 40.3672 174.031 40.1641 173.875 40.0391C174 40.0078 174.094 39.9062 174.156 39.7344C174.219 39.5469 174.227 39.4062 174.18 39.3125C174.445 39.2344 174.727 39.1875 175.023 39.1719C175.32 39.1406 175.609 39.1172 175.891 39.1016C176.188 39.0703 176.469 39.0391 176.734 39.0078C177 38.9609 177.227 38.875 177.414 38.75C178.227 38.7188 179.07 38.6875 179.945 38.6562C180.836 38.625 181.656 38.5859 182.406 38.5391C182.688 38.6328 183.008 38.6797 183.367 38.6797C183.742 38.6797 184.109 38.7031 184.469 38.75C184.844 38.7969 185.172 38.8984 185.453 39.0547C185.75 39.2109 185.953 39.4844 186.062 39.875C186.297 39.9062 186.469 39.9688 186.578 40.0625C186.703 40.1562 186.781 40.2734 186.812 40.4141C186.844 40.5391 186.852 40.6875 186.836 40.8594C186.836 41.0156 186.836 41.1719 186.836 41.3281C186.586 41.5156 186.266 41.6719 185.875 41.7969C185.5 41.9062 185.086 42 184.633 42.0781C184.18 42.1406 183.703 42.1875 183.203 42.2188C182.719 42.2344 182.242 42.25 181.773 42.2656C181.695 42.7812 181.555 43.3906 181.352 44.0938C181.164 44.7812 180.969 45.4609 180.766 46.1328C180.562 46.7891 180.383 47.3828 180.227 47.9141C180.086 48.4297 180.023 48.7656 180.039 48.9219C179.883 49.2812 179.75 49.5859 179.641 49.8359C179.547 50.0859 179.453 50.3203 179.359 50.5391C179.281 50.7578 179.195 50.9766 179.102 51.1953C179.023 51.3984 178.922 51.6328 178.797 51.8984H180.391C180.422 52.0703 180.492 52.1875 180.602 52.25C180.711 52.3125 180.828 52.3672 180.953 52.4141C181.078 52.4609 181.188 52.5234 181.281 52.6016C181.391 52.6641 181.445 52.7734 181.445 52.9297C181.742 53.0078 181.93 53.125 182.008 53.2812C182.086 53.4375 182.102 53.6094 182.055 53.7969C182.023 53.9688 181.945 54.1484 181.82 54.3359C181.711 54.5234 181.602 54.6875 181.492 54.8281C181.352 54.7969 181.219 54.8359 181.094 54.9453C180.969 55.0391 180.852 55.1484 180.742 55.2734C180.289 55.2109 179.844 55.2031 179.406 55.25C178.969 55.2969 178.562 55.3359 178.188 55.3672C178.109 55.3828 178.078 55.4297 178.094 55.5078C178.109 55.5703 178.094 55.6172 178.047 55.6484C177.562 55.4922 177.062 55.4297 176.547 55.4609C176.047 55.4922 175.531 55.5703 175 55.6953C174.484 55.8047 173.953 55.9219 173.406 56.0469C172.859 56.1875 172.305 56.2656 171.742 56.2812ZM188.898 56.0938C188.211 56.1875 187.586 56.1562 187.023 56C186.461 55.8438 185.953 55.6016 185.5 55.2734C185.062 54.9453 184.68 54.5547 184.352 54.1016C184.039 53.6484 183.781 53.1641 183.578 52.6484C183.438 51.5859 183.477 50.625 183.695 49.7656C183.914 48.8906 184.234 48.0859 184.656 47.3516C185.078 46.6172 185.555 45.9297 186.086 45.2891C186.633 44.6484 187.156 44.0312 187.656 43.4375C187.766 43.4844 187.852 43.4844 187.914 43.4375C187.992 43.3906 188.055 43.3281 188.102 43.25C188.164 43.1719 188.227 43.0938 188.289 43.0156C188.367 42.9375 188.453 42.8828 188.547 42.8516C188.609 42.7109 188.688 42.5938 188.781 42.5C188.891 42.4062 189 42.3203 189.109 42.2422C189.234 42.1484 189.344 42.0547 189.438 41.9609C189.547 41.8672 189.641 41.75 189.719 41.6094C189.875 41.5781 190.008 41.5234 190.117 41.4453C190.242 41.3672 190.352 41.2812 190.445 41.1875C190.555 41.0938 190.664 41.0078 190.773 40.9297C190.883 40.8516 191.016 40.7891 191.172 40.7422V40.4375C191.516 40.2812 191.766 40.1094 191.922 39.9219C192.078 39.7344 192.266 39.4922 192.484 39.1953C192.656 39.1797 192.789 39.1719 192.883 39.1719C192.992 39.1719 193.156 39.1562 193.375 39.125C193.516 38.8594 193.648 38.6641 193.773 38.5391C193.898 38.4141 194.078 38.2734 194.312 38.1172C194.547 38.2422 194.797 38.3203 195.062 38.3516C195.328 38.3672 195.57 38.4844 195.789 38.7031C195.805 38.8906 195.859 39.0391 195.953 39.1484C196.047 39.2422 196.148 39.3359 196.258 39.4297C196.367 39.5078 196.477 39.5938 196.586 39.6875C196.695 39.7812 196.766 39.9141 196.797 40.0859C196.875 40.0859 196.922 40.0703 196.938 40.0391C196.969 40.0078 197.023 40 197.102 40.0156C197.133 40.1406 197.164 40.2422 197.195 40.3203C197.227 40.3984 197.258 40.4688 197.289 40.5312C197.336 40.5938 197.375 40.6641 197.406 40.7422C197.453 40.8203 197.492 40.9141 197.523 41.0234C197.445 41.2109 197.375 41.4141 197.312 41.6328C197.25 41.8359 197.125 41.9766 196.938 42.0547C196.938 42.1797 196.984 42.25 197.078 42.2656C197.172 42.2656 197.227 42.3203 197.242 42.4297C197.258 42.5703 197.234 42.6875 197.172 42.7812C197.609 43.5156 198.008 44.2891 198.367 45.1016C198.727 45.8984 199.133 46.6641 199.586 47.3984C199.555 47.6172 199.562 47.8359 199.609 48.0547C199.672 48.2578 199.742 48.4609 199.82 48.6641C199.914 48.8672 200 49.0703 200.078 49.2734C200.156 49.4766 200.211 49.6797 200.242 49.8828C200.273 50.1484 200.273 50.4375 200.242 50.75C200.211 51.0469 200.148 51.3359 200.055 51.6172C199.961 51.8984 199.836 52.1641 199.68 52.4141C199.523 52.6484 199.344 52.8281 199.141 52.9531C198.891 53.2656 198.578 53.5234 198.203 53.7266C197.828 53.9141 197.484 54.1406 197.172 54.4062C196.953 54.5312 196.719 54.625 196.469 54.6875C196.219 54.7344 195.961 54.7891 195.695 54.8516C195.492 54.9766 195.25 55.1016 194.969 55.2266C194.688 55.3359 194.398 55.4375 194.102 55.5312C193.805 55.625 193.508 55.7031 193.211 55.7656C192.914 55.8125 192.648 55.8203 192.414 55.7891C191.852 55.9922 191.305 56.1328 190.773 56.2109C190.242 56.2891 189.617 56.25 188.898 56.0938ZM189.203 47.5625C189.047 47.9219 188.859 48.25 188.641 48.5469C188.438 48.8281 188.234 49.1172 188.031 49.4141C187.828 49.7109 187.648 50.0312 187.492 50.375C187.352 50.7031 187.273 51.0938 187.258 51.5469C187.57 51.8125 187.938 51.9766 188.359 52.0391C188.797 52.0859 189.242 52.0938 189.695 52.0625C190.148 52.0156 190.602 51.9531 191.055 51.875C191.508 51.7969 191.914 51.7578 192.273 51.7578C192.273 51.6172 192.336 51.5469 192.461 51.5469C193.117 51.4844 193.727 51.3047 194.289 51.0078C194.852 50.6953 195.438 50.3828 196.047 50.0703C196.125 49.8828 196.227 49.7188 196.352 49.5781C196.477 49.4375 196.547 49.2344 196.562 48.9688C196.484 48.8281 196.43 48.7109 196.398 48.6172C196.383 48.5234 196.375 48.3828 196.375 48.1953C195.969 47.6328 195.617 47.0234 195.32 46.3672C195.023 45.6953 194.68 45.0625 194.289 44.4688C194.258 44.5469 194.195 44.625 194.102 44.7031C194.008 44.7812 193.906 44.7656 193.797 44.6562C193.75 44.8125 193.68 44.9219 193.586 44.9844C193.492 45.0312 193.383 45.0547 193.258 45.0547C193.148 45.0547 193.031 45.0312 192.906 44.9844C192.797 44.9375 192.695 44.875 192.602 44.7969C192.055 45.2344 191.508 45.6562 190.961 46.0625C190.43 46.4688 189.945 46.9453 189.508 47.4922C189.43 47.5391 189.383 47.5547 189.367 47.5391C189.352 47.5234 189.297 47.5312 189.203 47.5625ZM197.312 33.6875C197.188 33.7188 196.977 33.8281 196.68 34.0156C196.398 34.2031 196.031 34.5 195.578 34.9062C195.344 35.1094 195.062 35.3672 194.734 35.6797C194.406 35.9766 194.047 36.2734 193.656 36.5703C193.281 36.8516 192.891 37.1016 192.484 37.3203C192.078 37.5391 191.688 37.6562 191.312 37.6719C191.203 37.5625 191.094 37.4531 190.984 37.3438C190.875 37.2344 190.781 37.125 190.703 37.0156C190.641 36.9062 190.602 36.7891 190.586 36.6641C190.57 36.5391 190.609 36.3984 190.703 36.2422C190.5 35.9141 190.414 35.6641 190.445 35.4922C190.477 35.3203 190.555 35.1719 190.68 35.0469C190.82 34.9219 190.969 34.8047 191.125 34.6953C191.297 34.5859 191.414 34.4219 191.477 34.2031C191.836 33.8125 192.227 33.4141 192.648 33.0078C193.086 32.5859 193.492 32.1641 193.867 31.7422C194.023 31.7109 194.172 31.6406 194.312 31.5312C194.469 31.4062 194.617 31.2734 194.758 31.1328C194.898 30.9922 195.039 30.8516 195.18 30.7109C195.336 30.5547 195.5 30.4297 195.672 30.3359C195.703 30.4297 195.789 30.5234 195.93 30.6172C196.086 30.6953 196.203 30.7109 196.281 30.6641C196.297 30.8359 196.383 31.0078 196.539 31.1797C196.695 31.3359 196.836 31.4453 196.961 31.5078C197.055 31.7266 197.148 31.9297 197.242 32.1172C197.336 32.2891 197.406 32.4609 197.453 32.6328C197.5 32.8047 197.516 32.9766 197.5 33.1484C197.5 33.3203 197.438 33.5 197.312 33.6875ZM205.352 53.7969C205.195 53.9219 205.102 54.0859 205.07 54.2891C205.039 54.4766 205 54.6641 204.953 54.8516C204.906 55.0391 204.82 55.2031 204.695 55.3438C204.586 55.4688 204.383 55.5234 204.086 55.5078C204.023 55.5859 204.008 55.6328 204.039 55.6484C204.086 55.6641 204.125 55.7344 204.156 55.8594C203.938 55.8281 203.781 55.8438 203.688 55.9062C203.594 55.9688 203.477 56.0156 203.336 56.0469C202.977 55.9375 202.672 55.7422 202.422 55.4609C202.188 55.1641 201.977 54.8438 201.789 54.5C201.617 54.1562 201.461 53.8047 201.32 53.4453C201.195 53.0859 201.062 52.7734 200.922 52.5078C200.922 52.4453 200.953 52.4219 201.016 52.4375C201.062 52.4375 201.109 52.4375 201.156 52.4375C201.078 52.2812 201.023 52.1094 200.992 51.9219C200.945 51.7188 200.867 51.5547 200.758 51.4297C201.211 50.4609 201.695 49.4531 202.211 48.4062C202.727 47.3438 203.242 46.2734 203.758 45.1953C204.289 44.1016 204.812 43.0078 205.328 41.9141C205.859 40.8047 206.367 39.7188 206.852 38.6562C207.289 38.8125 207.711 39 208.117 39.2188C208.539 39.4219 208.922 39.6641 209.266 39.9453C209.609 40.2266 209.898 40.5547 210.133 40.9297C210.383 41.2891 210.547 41.7031 210.625 42.1719C210.594 42.2656 210.555 42.2969 210.508 42.2656C210.461 42.2344 210.422 42.25 210.391 42.3125C210.469 42.4062 210.508 42.4766 210.508 42.5234C210.523 42.5547 210.523 42.5938 210.508 42.6406C210.492 42.6719 210.484 42.7188 210.484 42.7812C210.484 42.8438 210.523 42.9297 210.602 43.0391C210.523 43.0234 210.469 43.0391 210.438 43.0859C210.406 43.1172 210.352 43.1172 210.273 43.0859C210.352 43.3047 210.375 43.4766 210.344 43.6016C210.312 43.7266 210.266 43.8438 210.203 43.9531C210.141 44.0469 210.086 44.1562 210.039 44.2812C210.008 44.3906 210.023 44.5469 210.086 44.75C210.023 44.75 209.977 44.7656 209.945 44.7969C209.93 44.8125 209.914 44.8359 209.898 44.8672C209.883 44.8984 209.859 44.9297 209.828 44.9609C209.812 44.9766 209.773 44.9766 209.711 44.9609C209.758 45.3672 209.773 45.7812 209.758 46.2031C209.742 46.6094 209.727 47.0312 209.711 47.4688C209.695 47.8906 209.695 48.3281 209.711 48.7812C209.727 49.2344 209.789 49.7031 209.898 50.1875C210.57 49.7969 211.109 49.2891 211.516 48.6641C211.938 48.0391 212.266 47.3438 212.5 46.5781C212.75 45.8125 212.938 44.9922 213.062 44.1172C213.203 43.2422 213.344 42.3516 213.484 41.4453C213.656 41.2734 213.789 41.0625 213.883 40.8125C213.992 40.5625 214.078 40.3047 214.141 40.0391C214.219 39.7734 214.289 39.5078 214.352 39.2422C214.43 38.9609 214.531 38.7109 214.656 38.4922C214.938 38.5234 215.172 38.6094 215.359 38.75C215.562 38.875 215.75 39.0234 215.922 39.1953C216.094 39.3516 216.273 39.5 216.461 39.6406C216.648 39.7812 216.883 39.875 217.164 39.9219C217.383 40.2344 217.586 40.5391 217.773 40.8359C217.961 41.1172 218.086 41.4375 218.148 41.7969C218.055 41.9531 217.984 42.125 217.938 42.3125C217.891 42.5 217.836 42.6875 217.773 42.875C217.727 43.0625 217.656 43.2344 217.562 43.3906C217.469 43.5469 217.336 43.6797 217.164 43.7891C217.117 44.2578 217.047 44.6953 216.953 45.1016C216.859 45.5078 216.773 45.9062 216.695 46.2969C216.617 46.6875 216.547 47.0938 216.484 47.5156C216.422 47.9375 216.398 48.3984 216.414 48.8984C216.273 49.3516 216.117 49.8203 215.945 50.3047C215.773 50.7734 215.648 51.2109 215.57 51.6172C215.273 51.8516 215.039 52.1406 214.867 52.4844C214.695 52.8281 214.516 53.1719 214.328 53.5156C214.25 53.5781 214.203 53.5938 214.188 53.5625C214.172 53.5156 214.102 53.4844 213.977 53.4688C213.992 53.6094 213.961 53.7031 213.883 53.75C213.82 53.7812 213.828 53.8906 213.906 54.0781C213.641 54.2031 213.406 54.3672 213.203 54.5703C213 54.7734 212.773 54.9609 212.523 55.1328C212.289 55.3047 212.008 55.4219 211.68 55.4844C211.367 55.5312 210.953 55.4609 210.438 55.2734C209.672 54.7109 208.984 54.0625 208.375 53.3281C207.766 52.5938 207.281 51.7266 206.922 50.7266C206.766 50.7734 206.648 50.875 206.57 51.0312C206.492 51.1875 206.422 51.3516 206.359 51.5234C206.297 51.6953 206.234 51.8516 206.172 51.9922C206.109 52.1328 206.016 52.2031 205.891 52.2031C205.859 52.3438 205.797 52.4766 205.703 52.6016C205.625 52.7109 205.547 52.8281 205.469 52.9531C205.391 53.0625 205.328 53.1875 205.281 53.3281C205.25 53.4688 205.273 53.625 205.352 53.7969ZM230.656 56.7734C229.281 56.5859 228.445 55.8594 228.148 54.5938L228.172 54.3359C228.234 54.1484 228.305 53.9375 228.383 53.7031C228.461 53.4375 228.547 53.1797 228.641 52.9297C228.734 52.6641 228.891 52.4297 229.109 52.2266C229.156 52.0859 229.242 51.875 229.367 51.5938C229.508 51.2969 229.734 50.8594 230.047 50.2812C230.297 49.8281 230.492 49.4688 230.633 49.2031C230.789 48.9375 230.914 48.7344 231.008 48.5938C230.852 48.3125 230.633 48.0391 230.352 47.7734C230.102 47.3047 229.883 46.8594 229.695 46.4375C229.523 46 229.391 45.6094 229.297 45.2656C229.281 44.8906 229.219 44.5078 229.109 44.1172C229.062 43.9141 229.016 43.7109 228.969 43.5078C228.922 43.3047 228.898 43.0938 228.898 42.875C228.836 42.7656 228.781 42.625 228.734 42.4531L228.781 42.1719C228.859 42.0469 228.875 41.8828 228.828 41.6797C228.797 41.4609 228.75 41.2422 228.688 41.0234C228.641 40.8203 228.594 40.6094 228.547 40.3906C228.516 40.1562 228.508 39.9297 228.523 39.7109C228.539 39.4922 228.594 39.2812 228.688 39.0781C228.797 38.875 228.977 38.7031 229.227 38.5625L229.461 38.3984L229.695 38.5391C229.867 38.6484 230.031 38.7422 230.188 38.8203C230.344 38.8984 230.5 38.9766 230.656 39.0547C230.844 39.1484 231.031 39.25 231.219 39.3594C231.406 39.4531 231.609 39.5625 231.828 39.6875L232.062 39.8516L232.039 40.1094C232.039 40.1406 232.047 40.1797 232.062 40.2266C232.078 40.2734 232.102 40.3125 232.133 40.3438L232.391 40.4141L232.414 40.7422V41.0234C232.414 41.1641 232.422 41.2656 232.438 41.3281C232.453 41.375 232.484 41.4297 232.531 41.4922L232.648 41.7969C232.648 42.0781 232.672 42.3281 232.719 42.5469C232.766 42.7656 232.82 42.9844 232.883 43.2031C232.961 43.4219 233.023 43.6484 233.07 43.8828C233.117 44.1016 233.125 44.3438 233.094 44.6094C233.188 44.5625 233.281 44.4922 233.375 44.3984C233.406 44.3672 233.438 44.3359 233.469 44.3047C233.516 44.2734 233.562 44.2422 233.609 44.2109L235.25 41.9844L235.203 41.7031L235.789 41.1406C235.945 41.0156 236.094 40.8906 236.234 40.7656C236.375 40.625 236.492 40.4688 236.586 40.2969L236.727 40.0859C237.43 39.1484 238.336 38.5703 239.445 38.3516L239.844 38.2578L239.961 38.6328C240.039 38.8516 240.188 39.0469 240.406 39.2188C240.641 39.375 240.891 39.5312 241.156 39.6875L241.414 39.8516C241.508 40.0391 241.555 40.1797 241.555 40.2734C241.555 40.3672 241.547 40.4453 241.531 40.5078L241.648 40.8125C241.477 41.2656 241.289 41.5938 241.086 41.7969C240.883 41.9844 240.672 42.1641 240.453 42.3359C240.281 42.4766 240.125 42.6172 239.984 42.7578C239.844 42.8984 239.734 43.0547 239.656 43.2266L239.469 43.4609C239.078 43.6641 238.828 43.9609 238.719 44.3516L238.625 44.6797H238.273C238.258 44.6797 238.219 44.7188 238.156 44.7969C238.094 44.8594 238 45.0234 237.875 45.2891C237.734 45.4766 237.633 45.6016 237.57 45.6641C237.523 45.7109 237.484 45.75 237.453 45.7812C237.422 45.8594 237.391 45.9297 237.359 45.9922C237.344 46.0547 237.32 46.1328 237.289 46.2266L237.148 46.4141C237.008 46.5391 236.906 46.6641 236.844 46.7891C236.781 46.8984 236.711 47.0312 236.633 47.1875C236.57 47.3281 236.5 47.4766 236.422 47.6328C236.344 47.7734 236.234 47.9141 236.094 48.0547L236.141 48.3125L235.953 48.4766C235.828 48.5859 235.719 48.7266 235.625 48.8984C235.531 49.0547 235.438 49.2188 235.344 49.3906C235.25 49.5781 235.148 49.7656 235.039 49.9531C234.93 50.1406 234.789 50.3125 234.617 50.4688C234.508 50.75 234.406 50.9688 234.312 51.125C234.234 51.2812 234.094 51.4688 233.891 51.6875C233.703 52.4375 233.258 53.2422 232.555 54.1016C232.539 54.2734 232.484 54.4453 232.391 54.6172C232.312 54.7734 232.227 54.9219 232.133 55.0625C232.102 55.125 232.062 55.1953 232.016 55.2734C231.984 55.3359 231.961 55.3828 231.945 55.4141L231.875 55.6719C231.781 55.8438 231.68 55.9844 231.57 56.0938C231.477 56.2031 231.383 56.3047 231.289 56.3984C231.242 56.4297 231.195 56.4688 231.148 56.5156C231.117 56.5625 231.086 56.6016 231.055 56.6328L230.656 56.7734ZM71.3125 90.2031C71.1875 90.0781 71.0938 89.9297 71.0312 89.7578C70.9844 89.5859 70.8594 89.4453 70.6562 89.3359C70.625 89.1016 70.5781 88.8359 70.5156 88.5391C70.4688 88.2266 70.4141 87.9141 70.3516 87.6016C70.3047 87.2734 70.2656 86.9531 70.2344 86.6406C70.2188 86.3125 70.2344 86.0156 70.2812 85.75C70.3125 85.6094 70.3594 85.4766 70.4219 85.3516C70.5 85.2266 70.5703 85.1094 70.6328 85C70.7109 84.875 70.7656 84.75 70.7969 84.625C70.8438 84.5 70.8516 84.375 70.8203 84.25C70.9141 84.2344 70.9688 84.1875 70.9844 84.1094C71.0156 84.0156 71.0938 83.9844 71.2188 84.0156C71.3281 83.6719 71.4453 83.3516 71.5703 83.0547C71.6953 82.7578 71.8281 82.4688 71.9688 82.1875C72.1094 81.9062 72.25 81.625 72.3906 81.3438C72.5469 81.0469 72.6875 80.7188 72.8125 80.3594C72.5469 80.1094 72.3516 79.8438 72.2266 79.5625C72.1172 79.2656 72.0312 78.9688 71.9688 78.6719C71.9062 78.375 71.8594 78.0781 71.8281 77.7812C71.7969 77.4688 71.7344 77.1562 71.6406 76.8438C71.8281 76.5625 72.0547 76.3359 72.3203 76.1641C72.5859 75.9766 72.875 75.8281 73.1875 75.7188C73.5156 75.5938 73.8672 75.5 74.2422 75.4375C74.6172 75.3594 75.0156 75.2734 75.4375 75.1797C76.1875 74.9453 76.8594 74.7656 77.4531 74.6406C78.0469 74.5 78.625 74.3906 79.1875 74.3125C79.75 74.2188 80.3359 74.1406 80.9453 74.0781C81.5547 74 82.2578 73.8906 83.0547 73.75C83.0703 73.7969 83.0938 73.8203 83.125 73.8203C83.1719 73.8203 83.2266 73.8203 83.2891 73.8203C83.3359 73.9297 83.4219 73.9844 83.5469 73.9844C83.5469 73.9375 83.5391 73.8984 83.5234 73.8672C83.5234 73.8203 83.5234 73.7812 83.5234 73.75C83.5547 73.75 83.5938 73.7578 83.6406 73.7734C83.7031 73.7891 83.75 73.8047 83.7812 73.8203C83.8281 73.8359 83.8672 73.8359 83.8984 73.8203C83.9297 73.7891 83.9375 73.7344 83.9219 73.6562C84.1094 73.9844 84.3516 74.2578 84.6484 74.4766C84.9453 74.6797 85.2734 74.8594 85.6328 75.0156C85.6484 75.1562 85.6484 75.2578 85.6328 75.3203C85.6328 75.3828 85.625 75.4453 85.6094 75.5078C85.5938 75.5547 85.5859 75.6172 85.5859 75.6953C85.5859 75.7578 85.6016 75.8516 85.6328 75.9766C85.3828 76.3984 85.0938 76.7266 84.7656 76.9609C84.4531 77.1953 84.1172 77.375 83.7578 77.5C83.3984 77.625 83.0156 77.7188 82.6094 77.7812C82.2188 77.8438 81.8125 77.9141 81.3906 77.9922C80.9844 78.0547 80.5703 78.1484 80.1484 78.2734C79.7266 78.3984 79.3125 78.5859 78.9062 78.8359C78.7812 78.7891 78.6641 78.7734 78.5547 78.7891C78.4609 78.7891 78.3594 78.8047 78.25 78.8359C78.1406 78.8672 78.0156 78.8984 77.875 78.9297C77.75 78.9609 77.5938 78.9609 77.4062 78.9297C77.2812 79.0391 77.1328 79.1172 76.9609 79.1641C76.8047 79.2109 76.6406 79.2578 76.4688 79.3047C76.5469 79.4766 76.5781 79.6484 76.5625 79.8203C76.5625 79.9922 76.5859 80.1406 76.6328 80.2656C77.2891 80.3281 78.0156 80.3281 78.8125 80.2656C79.6094 80.1875 80.3906 80.1328 81.1562 80.1016C81.1719 80.1797 81.1641 80.2344 81.1328 80.2656C81.1016 80.2969 81.0859 80.3516 81.0859 80.4297C81.2266 80.5234 81.3594 80.6406 81.4844 80.7812C81.6094 80.9219 81.7344 81.0625 81.8594 81.2031C82 81.3281 82.1406 81.4375 82.2812 81.5312C82.4219 81.6094 82.5859 81.6406 82.7734 81.625C82.8516 81.7812 82.9062 81.9453 82.9375 82.1172C82.9688 82.2891 82.9453 82.4688 82.8672 82.6562C82.5547 82.8594 82.25 83.0703 81.9531 83.2891C81.6562 83.4922 81.3438 83.6797 81.0156 83.8516C80.7031 84.0234 80.3594 84.1641 79.9844 84.2734C79.6094 84.3828 79.2031 84.4297 78.7656 84.4141C78.6875 84.4141 78.6172 84.4141 78.5547 84.4141C78.5078 84.4141 78.4453 84.3828 78.3672 84.3203C78.2109 84.3984 78 84.4297 77.7344 84.4141C77.4844 84.3828 77.2734 84.4062 77.1016 84.4844C76.8828 84.4062 76.625 84.3672 76.3281 84.3672C76.0469 84.3672 75.7969 84.3281 75.5781 84.25C75.2969 84.6562 75.0312 85.0859 74.7812 85.5391C74.5312 85.9766 74.3125 86.4453 74.125 86.9453C74.7656 87.0391 75.2969 87.0781 75.7188 87.0625C76.1406 87.0469 76.5391 87.0156 76.9141 86.9688C77.2891 86.9219 77.6719 86.875 78.0625 86.8281C78.4688 86.7812 78.9609 86.7656 79.5391 86.7812C79.9297 86.5938 80.375 86.4688 80.875 86.4062C81.3906 86.3281 81.8672 86.2188 82.3047 86.0781C82.4609 86.125 82.5938 86.2188 82.7031 86.3594C82.8125 86.4844 82.9141 86.6172 83.0078 86.7578C83.1172 86.8828 83.2266 86.9922 83.3359 87.0859C83.4453 87.1797 83.5859 87.2109 83.7578 87.1797C83.8359 87.2578 83.8828 87.3516 83.8984 87.4609C83.9297 87.5703 83.9531 87.6719 83.9688 87.7656C84 87.8594 84.0391 87.9375 84.0859 88C84.1328 88.0469 84.2188 88.0625 84.3438 88.0469C84.0469 88.6562 83.7109 89.125 83.3359 89.4531C82.9766 89.7812 82.5625 90.0391 82.0938 90.2266C81.6406 90.3984 81.125 90.5312 80.5469 90.625C79.9844 90.7031 79.3516 90.8047 78.6484 90.9297C78.4766 90.9609 78.3281 90.9609 78.2031 90.9297C78.0938 90.8828 77.9766 90.8594 77.8516 90.8594C77.4141 90.9375 76.8906 91.0156 76.2812 91.0938C75.6875 91.1719 75.0859 91.2031 74.4766 91.1875C73.8672 91.1719 73.2812 91.0938 72.7188 90.9531C72.1562 90.8125 71.6875 90.5625 71.3125 90.2031ZM87.1562 91.3281C87 91.3281 86.7578 91.3047 86.4297 91.2578C86.1797 90.9922 85.9531 90.6328 85.75 90.1797C85.5625 89.7109 85.4141 89.2188 85.3047 88.7031C85.2109 88.1719 85.1641 87.6484 85.1641 87.1328C85.1797 86.6016 85.2734 86.1328 85.4453 85.7266C85.4453 85.7109 85.5156 85.5234 85.6562 85.1641C85.8125 84.8047 86.0078 84.3516 86.2422 83.8047C86.4766 83.2422 86.7422 82.625 87.0391 81.9531C87.3359 81.2656 87.6328 80.5938 87.9297 79.9375C88.2266 79.2812 88.5078 78.6875 88.7734 78.1562C89.0547 77.6094 89.2969 77.1875 89.5 76.8906C89.6406 76.6719 89.7656 76.4609 89.875 76.2578C90 76.0547 90.1172 75.8672 90.2266 75.6953C90.3984 75.4141 90.5547 75.1562 90.6953 74.9219C90.8516 74.6719 91.0156 74.4531 91.1875 74.2656C91.375 74.0625 91.5781 73.8906 91.7969 73.75C92.0156 73.5938 92.2812 73.4609 92.5938 73.3516C92.7812 73.4297 92.9453 73.5156 93.0859 73.6094C93.2266 73.6875 93.3516 73.7891 93.4609 73.9141L93.5312 74.2422C93.5625 74.3516 93.6094 74.4297 93.6719 74.4766C93.75 74.5078 93.8125 74.5234 93.8594 74.5234C94.0625 74.5703 94.2344 74.625 94.375 74.6875C94.5312 74.7344 94.6953 74.7656 94.8672 74.7812C94.9297 74.875 94.9844 74.9688 95.0312 75.0625C95.0938 75.1562 95.1562 75.2422 95.2188 75.3203C95.5312 75.7734 95.7891 76.2109 95.9922 76.6328C96.1953 77.0547 96.1953 77.5156 95.9922 78.0156L96.0156 78.2734C96.0938 78.3828 96.1328 78.4844 96.1328 78.5781C96.1328 78.6719 96.1172 78.8047 96.0859 78.9766C96.0703 79.1016 96.0547 79.2422 96.0391 79.3984C96.0391 79.5391 96.0625 79.6953 96.1094 79.8672L96.2734 80.0547C96.5234 80.1797 96.7656 80.2422 97 80.2422C97.3125 80.2422 97.5938 80.1719 97.8438 80.0312C98.0938 79.8906 98.3281 79.75 98.5469 79.6094C98.7188 79.4844 98.875 79.3828 99.0156 79.3047C99.1719 79.2266 99.3203 79.1719 99.4609 79.1406C99.7891 78.8281 100.086 78.5547 100.352 78.3203C100.633 78.0703 100.922 77.8203 101.219 77.5703C101.781 77.1172 102.328 76.6328 102.859 76.1172C103.391 75.5859 103.812 74.9297 104.125 74.1484C104.297 74.0391 104.492 73.9844 104.711 73.9844C104.93 73.9844 105.148 74.0312 105.367 74.125C105.586 74.2031 105.805 74.2969 106.023 74.4062C106.07 74.4375 106.109 74.4609 106.141 74.4766C106.188 74.4922 106.234 74.5156 106.281 74.5469C106.281 74.7188 106.352 74.875 106.492 75.0156C106.57 75.0781 106.625 75.1172 106.656 75.1328C106.688 75.1484 106.719 75.1641 106.75 75.1797C106.875 75.2578 106.977 75.3281 107.055 75.3906C107.148 75.4531 107.219 75.5391 107.266 75.6484C107.406 76.0703 107.641 76.3984 107.969 76.6328C107.938 76.8047 107.945 76.9766 107.992 77.1484C108.039 77.3047 108.094 77.4609 108.156 77.6172C108.188 77.6797 108.211 77.7422 108.227 77.8047C108.242 77.8516 108.266 77.9141 108.297 77.9922L107.781 77.9453L107.852 78.4609C107.898 78.7266 107.875 79.0234 107.781 79.3516C107.703 79.6797 107.609 79.9375 107.5 80.125C107.531 80.5938 107.547 80.9688 107.547 81.25C107.547 81.5156 107.531 81.7656 107.5 82C107.469 82.2344 107.414 82.4609 107.336 82.6797C107.273 82.8828 107.188 83.1016 107.078 83.3359C107.141 84.5234 107 85.6094 106.656 86.5938C106.328 87.5781 105.969 88.5 105.578 89.3594C105.531 89.4688 105.484 89.5703 105.438 89.6641C105.391 89.7578 105.352 89.8516 105.32 89.9453C105.148 89.9922 104.992 90.0469 104.852 90.1094C104.711 90.1719 104.578 90.2422 104.453 90.3203C104.281 90.4297 104.109 90.5234 103.938 90.6016C103.766 90.6641 103.586 90.6953 103.398 90.6953C102.648 90.1484 102.258 89.2031 102.227 87.8594C102.211 86.5156 102.5 84.8047 103.094 82.7266C103.203 82.6484 103.25 82.5312 103.234 82.375V82.1172L103 82.0938C102.922 82.0938 102.852 82.1016 102.789 82.1172C102.727 82.1328 102.68 82.2031 102.648 82.3281C102.148 82.6875 101.602 83.0625 101.008 83.4531C100.43 83.8281 99.8281 84.1797 99.2031 84.5078C98.5781 84.8203 97.9375 85.0859 97.2812 85.3047C96.6406 85.5078 96.0156 85.6094 95.4062 85.6094C93.8438 85.6094 92.6641 84.8125 91.8672 83.2188L91.6562 82.7969L91.4219 83.1719C91.375 83.25 91.2891 83.4062 91.1641 83.6406C91.0547 83.8594 90.9375 84.1172 90.8125 84.4141C90.7031 84.7109 90.6016 85.0156 90.5078 85.3281C90.4297 85.6406 90.4062 85.9141 90.4375 86.1484C90.25 86.3203 90.0625 86.5156 89.875 86.7344C89.7031 86.9531 89.5781 87.2031 89.5 87.4844C89.4688 87.5625 89.4609 87.6406 89.4766 87.7188C89.4922 87.7812 89.5156 87.8516 89.5469 87.9297C89.5312 88.0391 89.5 88.1172 89.4531 88.1641C89.4062 88.2109 89.3516 88.2578 89.2891 88.3047C89.2109 88.3828 89.1328 88.4688 89.0547 88.5625C88.9766 88.6406 88.9062 88.7344 88.8438 88.8438C88.8125 88.9375 88.7891 89.0391 88.7734 89.1484C88.7578 89.2422 88.7422 89.3281 88.7266 89.4062C88.7266 89.5781 88.7031 89.6953 88.6562 89.7578C88.5 90.0859 88.3594 90.3594 88.2344 90.5781C88.125 90.7812 88.0156 90.9375 87.9062 91.0469C87.7969 91.1562 87.6797 91.2266 87.5547 91.2578C87.4453 91.3047 87.3125 91.3281 87.1562 91.3281ZM109.469 84.3906C109.484 84.3281 109.516 84.3047 109.562 84.3203C109.625 84.3203 109.68 84.3125 109.727 84.2969C109.602 84.1719 109.523 84.0078 109.492 83.8047C109.461 83.5859 109.383 83.4062 109.258 83.2656C109.289 83.1875 109.312 83.1094 109.328 83.0312C109.359 82.9531 109.43 82.9219 109.539 82.9375C109.492 82.5938 109.5 82.2734 109.562 81.9766C109.625 81.6797 109.719 81.3984 109.844 81.1328C109.984 80.8672 110.141 80.6094 110.312 80.3594C110.5 80.0938 110.68 79.8281 110.852 79.5625C110.992 79.5312 111.078 79.5469 111.109 79.6094C111.141 79.6562 111.195 79.6406 111.273 79.5625C111.523 79.3906 111.695 79.2031 111.789 79C111.883 78.7812 111.93 78.5469 111.93 78.2969C112.07 77.8906 112.227 77.4922 112.398 77.1016C112.586 76.6953 112.797 76.3203 113.031 75.9766C113.266 75.6328 113.516 75.3359 113.781 75.0859C114.047 74.8203 114.336 74.6172 114.648 74.4766C114.867 74.2891 115.141 74.1172 115.469 73.9609C115.812 73.8047 116.172 73.6875 116.547 73.6094C116.938 73.5156 117.336 73.4688 117.742 73.4688C118.148 73.4531 118.523 73.4922 118.867 73.5859C118.945 73.6172 118.992 73.6016 119.008 73.5391C119.023 73.4609 119.062 73.4219 119.125 73.4219C119.906 73.5156 120.602 73.6719 121.211 73.8906C121.836 74.1094 122.367 74.4141 122.805 74.8047C123.102 75.2734 123.383 75.7812 123.648 76.3281C123.914 76.8594 124.117 77.4219 124.258 78.0156C124.414 78.5938 124.484 79.1953 124.469 79.8203C124.453 80.4453 124.32 81.0703 124.07 81.6953C123.523 82.3828 122.859 82.9375 122.078 83.3594C121.297 83.7656 120.453 84.1094 119.547 84.3906C118.656 84.6562 117.727 84.875 116.758 85.0469C115.805 85.2188 114.875 85.4062 113.969 85.6094C113.984 86.0312 113.984 86.4844 113.969 86.9688C113.953 87.4375 113.898 87.9141 113.805 88.3984C113.727 88.8672 113.602 89.3281 113.43 89.7812C113.273 90.2344 113.055 90.6562 112.773 91.0469C112.461 91.0312 112.133 91.0625 111.789 91.1406C111.461 91.2188 111.164 91.2969 110.898 91.375C110.773 91.2969 110.648 91.2188 110.523 91.1406C110.414 91.0781 110.273 91.0391 110.102 91.0234C110.148 90.8359 110.102 90.6406 109.961 90.4375C109.836 90.2344 109.703 90.0391 109.562 89.8516C109.438 89.6484 109.352 89.4531 109.305 89.2656C109.273 89.0625 109.367 88.8828 109.586 88.7266C109.461 88.6172 109.398 88.4453 109.398 88.2109C109.461 88.2734 109.539 88.3047 109.633 88.3047C109.602 88.0234 109.633 87.6875 109.727 87.2969C109.836 86.9062 109.922 86.5234 109.984 86.1484C110.062 85.7578 110.078 85.4062 110.031 85.0938C109.984 84.7656 109.797 84.5312 109.469 84.3906ZM115.562 78.9062C115.5 79.0781 115.445 79.2344 115.398 79.375C115.367 79.5 115.328 79.6172 115.281 79.7266C115.234 79.8359 115.18 79.9453 115.117 80.0547C115.07 80.1641 115.016 80.2891 114.953 80.4297C114.984 80.5234 115.047 80.5938 115.141 80.6406C115.234 80.6875 115.297 80.7578 115.328 80.8516C115.547 80.7422 115.766 80.6641 115.984 80.6172C116.203 80.5547 116.422 80.5078 116.641 80.4766C116.859 80.4453 117.078 80.4062 117.297 80.3594C117.516 80.3125 117.742 80.2344 117.977 80.125C118.211 80.0156 118.453 79.9297 118.703 79.8672C118.969 79.7891 119.227 79.7109 119.477 79.6328C119.727 79.5547 119.969 79.4688 120.203 79.375C120.438 79.2656 120.641 79.125 120.812 78.9531C120.594 78.75 120.266 78.5703 119.828 78.4141C119.391 78.2578 118.914 78.1641 118.398 78.1328C117.898 78.0859 117.391 78.1172 116.875 78.2266C116.375 78.3359 115.938 78.5625 115.562 78.9062ZM125.102 90.1328C125.039 90.0703 124.984 90 124.938 89.9219C124.891 89.8281 124.852 89.7109 124.82 89.5703C124.602 89.3047 124.43 89 124.305 88.6562C124.18 88.3125 124.094 87.9609 124.047 87.6016C124 87.2266 123.992 86.8516 124.023 86.4766C124.055 86.1016 124.109 85.75 124.188 85.4219C124.234 85.2656 124.273 85.1016 124.305 84.9297C124.383 84.6328 124.461 84.3438 124.539 84.0625C124.617 83.7656 124.734 83.5234 124.891 83.3359C124.828 83.1641 124.836 82.9766 124.914 82.7734C124.992 82.5703 125.07 82.3828 125.148 82.2109C125.18 82.1641 125.203 82.125 125.219 82.0938C125.234 82.0469 125.25 82.0078 125.266 81.9766C125.453 81.4297 125.633 80.9062 125.805 80.4062C125.992 79.8906 126.172 79.3984 126.344 78.9297C126.656 78.0703 126.953 77.2266 127.234 76.3984C127.531 75.5703 127.797 74.6875 128.031 73.75C128.156 73.6562 128.266 73.5938 128.359 73.5625C128.391 73.5469 128.43 73.5312 128.477 73.5156C128.523 73.5 128.578 73.4922 128.641 73.4922C128.969 73.6641 129.352 73.8281 129.789 73.9844C130.242 74.125 130.625 74.1953 130.938 74.1953L131.336 74.5469C131.539 74.7812 131.711 75.0312 131.852 75.2969C132.008 75.5469 132.055 75.875 131.992 76.2812C131.898 76.4219 131.82 76.5078 131.758 76.5391C131.664 76.8984 131.562 77.2188 131.453 77.5C131.344 77.7656 131.234 78.0234 131.125 78.2734C131 78.5547 130.883 78.8359 130.773 79.1172C130.664 79.3984 130.57 79.7422 130.492 80.1484C130.398 80.2578 130.336 80.3516 130.305 80.4297C130.289 80.5078 130.266 80.5859 130.234 80.6641C130.203 80.7578 130.164 80.8594 130.117 80.9688C130.07 81.0625 130 81.1484 129.906 81.2266C129.844 81.7109 129.75 82.1094 129.625 82.4219C129.5 82.7188 129.375 83.0156 129.25 83.3125C129.031 83.8594 128.828 84.4062 128.641 84.9531C128.453 85.4844 128.344 86.0938 128.312 86.7812C128.5 86.7344 128.672 86.7109 128.828 86.7109C129.031 86.7109 129.227 86.7422 129.414 86.8047C129.977 86.5234 130.586 86.3516 131.242 86.2891C131.914 86.2266 132.578 86.1875 133.234 86.1719C133.781 86.1719 134.289 86.1484 134.758 86.1016C134.914 86.2109 135.016 86.2734 135.062 86.2891C135.109 86.2891 135.188 86.2891 135.297 86.2891C135.344 86.2891 135.391 86.2891 135.438 86.2891C135.484 86.2891 135.547 86.2969 135.625 86.3125C135.844 86.5312 136.055 86.6875 136.258 86.7812C136.461 86.8594 136.68 86.9375 136.914 87.0156C137.117 87.0938 137.312 87.1797 137.5 87.2734C137.703 87.3516 137.898 87.4609 138.086 87.6016L138.297 88.7969C138.422 88.9688 138.477 89.0859 138.461 89.1484C138.461 89.2734 138.43 89.3828 138.367 89.4766L138.414 89.7812C138.117 89.8438 137.922 89.9141 137.828 89.9922C137.734 90.0547 137.633 90.1406 137.523 90.25C137.352 90.2656 137.188 90.2734 137.031 90.2734C136.719 90.2734 136.398 90.3203 136.07 90.4141C135.602 90.2422 135.086 90.1562 134.523 90.1562C134.305 90.1562 134.078 90.1641 133.844 90.1797C133.625 90.1953 133.406 90.2188 133.188 90.25C132.953 90.2812 132.719 90.3125 132.484 90.3438C132.25 90.3594 132.016 90.3672 131.781 90.3672C131.594 90.3984 131.461 90.4219 131.383 90.4375C131.305 90.4531 131.227 90.4766 131.148 90.5078C130.617 90.6797 130.039 90.8516 129.414 91.0234C128.805 91.1953 128.188 91.2812 127.562 91.2812C126.641 91.2812 125.898 91.0469 125.336 90.5781C125.273 90.4375 125.227 90.3438 125.195 90.2969C125.164 90.25 125.133 90.1953 125.102 90.1328ZM140.266 90.2031C140.141 90.0781 140.047 89.9297 139.984 89.7578C139.938 89.5859 139.812 89.4453 139.609 89.3359C139.578 89.1016 139.531 88.8359 139.469 88.5391C139.422 88.2266 139.367 87.9141 139.305 87.6016C139.258 87.2734 139.219 86.9531 139.188 86.6406C139.172 86.3125 139.188 86.0156 139.234 85.75C139.266 85.6094 139.312 85.4766 139.375 85.3516C139.453 85.2266 139.523 85.1094 139.586 85C139.664 84.875 139.719 84.75 139.75 84.625C139.797 84.5 139.805 84.375 139.773 84.25C139.867 84.2344 139.922 84.1875 139.938 84.1094C139.969 84.0156 140.047 83.9844 140.172 84.0156C140.281 83.6719 140.398 83.3516 140.523 83.0547C140.648 82.7578 140.781 82.4688 140.922 82.1875C141.062 81.9062 141.203 81.625 141.344 81.3438C141.5 81.0469 141.641 80.7188 141.766 80.3594C141.5 80.1094 141.305 79.8438 141.18 79.5625C141.07 79.2656 140.984 78.9688 140.922 78.6719C140.859 78.375 140.812 78.0781 140.781 77.7812C140.75 77.4688 140.688 77.1562 140.594 76.8438C140.781 76.5625 141.008 76.3359 141.273 76.1641C141.539 75.9766 141.828 75.8281 142.141 75.7188C142.469 75.5938 142.82 75.5 143.195 75.4375C143.57 75.3594 143.969 75.2734 144.391 75.1797C145.141 74.9453 145.812 74.7656 146.406 74.6406C147 74.5 147.578 74.3906 148.141 74.3125C148.703 74.2188 149.289 74.1406 149.898 74.0781C150.508 74 151.211 73.8906 152.008 73.75C152.023 73.7969 152.047 73.8203 152.078 73.8203C152.125 73.8203 152.18 73.8203 152.242 73.8203C152.289 73.9297 152.375 73.9844 152.5 73.9844C152.5 73.9375 152.492 73.8984 152.477 73.8672C152.477 73.8203 152.477 73.7812 152.477 73.75C152.508 73.75 152.547 73.7578 152.594 73.7734C152.656 73.7891 152.703 73.8047 152.734 73.8203C152.781 73.8359 152.82 73.8359 152.852 73.8203C152.883 73.7891 152.891 73.7344 152.875 73.6562C153.062 73.9844 153.305 74.2578 153.602 74.4766C153.898 74.6797 154.227 74.8594 154.586 75.0156C154.602 75.1562 154.602 75.2578 154.586 75.3203C154.586 75.3828 154.578 75.4453 154.562 75.5078C154.547 75.5547 154.539 75.6172 154.539 75.6953C154.539 75.7578 154.555 75.8516 154.586 75.9766C154.336 76.3984 154.047 76.7266 153.719 76.9609C153.406 77.1953 153.07 77.375 152.711 77.5C152.352 77.625 151.969 77.7188 151.562 77.7812C151.172 77.8438 150.766 77.9141 150.344 77.9922C149.938 78.0547 149.523 78.1484 149.102 78.2734C148.68 78.3984 148.266 78.5859 147.859 78.8359C147.734 78.7891 147.617 78.7734 147.508 78.7891C147.414 78.7891 147.312 78.8047 147.203 78.8359C147.094 78.8672 146.969 78.8984 146.828 78.9297C146.703 78.9609 146.547 78.9609 146.359 78.9297C146.234 79.0391 146.086 79.1172 145.914 79.1641C145.758 79.2109 145.594 79.2578 145.422 79.3047C145.5 79.4766 145.531 79.6484 145.516 79.8203C145.516 79.9922 145.539 80.1406 145.586 80.2656C146.242 80.3281 146.969 80.3281 147.766 80.2656C148.562 80.1875 149.344 80.1328 150.109 80.1016C150.125 80.1797 150.117 80.2344 150.086 80.2656C150.055 80.2969 150.039 80.3516 150.039 80.4297C150.18 80.5234 150.312 80.6406 150.438 80.7812C150.562 80.9219 150.688 81.0625 150.812 81.2031C150.953 81.3281 151.094 81.4375 151.234 81.5312C151.375 81.6094 151.539 81.6406 151.727 81.625C151.805 81.7812 151.859 81.9453 151.891 82.1172C151.922 82.2891 151.898 82.4688 151.82 82.6562C151.508 82.8594 151.203 83.0703 150.906 83.2891C150.609 83.4922 150.297 83.6797 149.969 83.8516C149.656 84.0234 149.312 84.1641 148.938 84.2734C148.562 84.3828 148.156 84.4297 147.719 84.4141C147.641 84.4141 147.57 84.4141 147.508 84.4141C147.461 84.4141 147.398 84.3828 147.32 84.3203C147.164 84.3984 146.953 84.4297 146.688 84.4141C146.438 84.3828 146.227 84.4062 146.055 84.4844C145.836 84.4062 145.578 84.3672 145.281 84.3672C145 84.3672 144.75 84.3281 144.531 84.25C144.25 84.6562 143.984 85.0859 143.734 85.5391C143.484 85.9766 143.266 86.4453 143.078 86.9453C143.719 87.0391 144.25 87.0781 144.672 87.0625C145.094 87.0469 145.492 87.0156 145.867 86.9688C146.242 86.9219 146.625 86.875 147.016 86.8281C147.422 86.7812 147.914 86.7656 148.492 86.7812C148.883 86.5938 149.328 86.4688 149.828 86.4062C150.344 86.3281 150.82 86.2188 151.258 86.0781C151.414 86.125 151.547 86.2188 151.656 86.3594C151.766 86.4844 151.867 86.6172 151.961 86.7578C152.07 86.8828 152.18 86.9922 152.289 87.0859C152.398 87.1797 152.539 87.2109 152.711 87.1797C152.789 87.2578 152.836 87.3516 152.852 87.4609C152.883 87.5703 152.906 87.6719 152.922 87.7656C152.953 87.8594 152.992 87.9375 153.039 88C153.086 88.0469 153.172 88.0625 153.297 88.0469C153 88.6562 152.664 89.125 152.289 89.4531C151.93 89.7812 151.516 90.0391 151.047 90.2266C150.594 90.3984 150.078 90.5312 149.5 90.625C148.938 90.7031 148.305 90.8047 147.602 90.9297C147.43 90.9609 147.281 90.9609 147.156 90.9297C147.047 90.8828 146.93 90.8594 146.805 90.8594C146.367 90.9375 145.844 91.0156 145.234 91.0938C144.641 91.1719 144.039 91.2031 143.43 91.1875C142.82 91.1719 142.234 91.0938 141.672 90.9531C141.109 90.8125 140.641 90.5625 140.266 90.2031ZM159.414 91.0938C158.727 91.1875 158.102 91.1562 157.539 91C156.977 90.8438 156.469 90.6016 156.016 90.2734C155.578 89.9453 155.195 89.5547 154.867 89.1016C154.555 88.6484 154.297 88.1641 154.094 87.6484C153.953 86.5859 153.992 85.625 154.211 84.7656C154.43 83.8906 154.75 83.0859 155.172 82.3516C155.594 81.6172 156.07 80.9297 156.602 80.2891C157.148 79.6484 157.672 79.0312 158.172 78.4375C158.281 78.4844 158.367 78.4844 158.43 78.4375C158.508 78.3906 158.57 78.3281 158.617 78.25C158.68 78.1719 158.742 78.0938 158.805 78.0156C158.883 77.9375 158.969 77.8828 159.062 77.8516C159.125 77.7109 159.203 77.5938 159.297 77.5C159.406 77.4062 159.516 77.3203 159.625 77.2422C159.75 77.1484 159.859 77.0547 159.953 76.9609C160.062 76.8672 160.156 76.75 160.234 76.6094C160.391 76.5781 160.523 76.5234 160.633 76.4453C160.758 76.3672 160.867 76.2812 160.961 76.1875C161.07 76.0938 161.18 76.0078 161.289 75.9297C161.398 75.8516 161.531 75.7891 161.688 75.7422V75.4375C162.031 75.2812 162.281 75.1094 162.438 74.9219C162.594 74.7344 162.781 74.4922 163 74.1953C163.172 74.1797 163.305 74.1719 163.398 74.1719C163.508 74.1719 163.672 74.1562 163.891 74.125C164.031 73.8594 164.164 73.6641 164.289 73.5391C164.414 73.4141 164.594 73.2734 164.828 73.1172C165.062 73.2422 165.312 73.3203 165.578 73.3516C165.844 73.3672 166.086 73.4844 166.305 73.7031C166.32 73.8906 166.375 74.0391 166.469 74.1484C166.562 74.2422 166.664 74.3359 166.773 74.4297C166.883 74.5078 166.992 74.5938 167.102 74.6875C167.211 74.7812 167.281 74.9141 167.312 75.0859C167.391 75.0859 167.438 75.0703 167.453 75.0391C167.484 75.0078 167.539 75 167.617 75.0156C167.648 75.1406 167.68 75.2422 167.711 75.3203C167.742 75.3984 167.773 75.4688 167.805 75.5312C167.852 75.5938 167.891 75.6641 167.922 75.7422C167.969 75.8203 168.008 75.9141 168.039 76.0234C167.961 76.2109 167.891 76.4141 167.828 76.6328C167.766 76.8359 167.641 76.9766 167.453 77.0547C167.453 77.1797 167.5 77.25 167.594 77.2656C167.688 77.2656 167.742 77.3203 167.758 77.4297C167.773 77.5703 167.75 77.6875 167.688 77.7812C168.125 78.5156 168.523 79.2891 168.883 80.1016C169.242 80.8984 169.648 81.6641 170.102 82.3984C170.07 82.6172 170.078 82.8359 170.125 83.0547C170.188 83.2578 170.258 83.4609 170.336 83.6641C170.43 83.8672 170.516 84.0703 170.594 84.2734C170.672 84.4766 170.727 84.6797 170.758 84.8828C170.789 85.1484 170.789 85.4375 170.758 85.75C170.727 86.0469 170.664 86.3359 170.57 86.6172C170.477 86.8984 170.352 87.1641 170.195 87.4141C170.039 87.6484 169.859 87.8281 169.656 87.9531C169.406 88.2656 169.094 88.5234 168.719 88.7266C168.344 88.9141 168 89.1406 167.688 89.4062C167.469 89.5312 167.234 89.625 166.984 89.6875C166.734 89.7344 166.477 89.7891 166.211 89.8516C166.008 89.9766 165.766 90.1016 165.484 90.2266C165.203 90.3359 164.914 90.4375 164.617 90.5312C164.32 90.625 164.023 90.7031 163.727 90.7656C163.43 90.8125 163.164 90.8203 162.93 90.7891C162.367 90.9922 161.82 91.1328 161.289 91.2109C160.758 91.2891 160.133 91.25 159.414 91.0938ZM159.719 82.5625C159.562 82.9219 159.375 83.25 159.156 83.5469C158.953 83.8281 158.75 84.1172 158.547 84.4141C158.344 84.7109 158.164 85.0312 158.008 85.375C157.867 85.7031 157.789 86.0938 157.773 86.5469C158.086 86.8125 158.453 86.9766 158.875 87.0391C159.312 87.0859 159.758 87.0938 160.211 87.0625C160.664 87.0156 161.117 86.9531 161.57 86.875C162.023 86.7969 162.43 86.7578 162.789 86.7578C162.789 86.6172 162.852 86.5469 162.977 86.5469C163.633 86.4844 164.242 86.3047 164.805 86.0078C165.367 85.6953 165.953 85.3828 166.562 85.0703C166.641 84.8828 166.742 84.7188 166.867 84.5781C166.992 84.4375 167.062 84.2344 167.078 83.9688C167 83.8281 166.945 83.7109 166.914 83.6172C166.898 83.5234 166.891 83.3828 166.891 83.1953C166.484 82.6328 166.133 82.0234 165.836 81.3672C165.539 80.6953 165.195 80.0625 164.805 79.4688C164.773 79.5469 164.711 79.625 164.617 79.7031C164.523 79.7812 164.422 79.7656 164.312 79.6562C164.266 79.8125 164.195 79.9219 164.102 79.9844C164.008 80.0312 163.898 80.0547 163.773 80.0547C163.664 80.0547 163.547 80.0312 163.422 79.9844C163.312 79.9375 163.211 79.875 163.117 79.7969C162.57 80.2344 162.023 80.6562 161.477 81.0625C160.945 81.4688 160.461 81.9453 160.023 82.4922C159.945 82.5391 159.898 82.5547 159.883 82.5391C159.867 82.5234 159.812 82.5312 159.719 82.5625Z" fill="#01536C"/>
<defs>
<clipPath id="clip0_861_5">
<rect width="293" height="122" fill="white"/>
</clipPath>
</defs>
</svg>
