<svg width="120" height="120" viewBox="0 0 120 120" fill="none" xmlns="http://www.w3.org/2000/svg">
<path d="M16.78 59.56C16.91 56.18 18.52 54.34 21.98 54.31C21.81 53.48 21.65 52.77 21.52 52.05C20.85 48.16 21.57 44.53 23.47 41.09C23.73 40.61 23.88 39.98 23.84 39.44C23.59 35.85 25.02 33.15 28.08 31.33C28.65 30.99 28.88 30.63 29 29.99C30.06 24.12 35.08 20.67 40.99 21.67C41.37 21.73 41.93 21.56 42.19 21.29C47.42 15.93 53.62 14.99 60.32 18.63C62.08 17.16 64.1 16.32 66.48 16.47C68.9 16.63 70.84 17.69 72.42 19.51C72.71 19.84 73.22 20.18 73.64 20.19C81.93 20.36 88.53 26.27 90.16 33.51C90.24 33.87 90.66 34.29 91.02 34.42C95.54 36.1 97.61 39.95 96.51 44.69C96.43 45.04 96.44 45.5 96.6 45.81C97.98 48.46 98.41 51.25 97.85 54.33C101.08 54.48 102.47 56.4 102.61 59.56C103.77 59.56 104.86 59.56 105.95 59.56C108.78 59.59 110.11 60.72 110.66 63.51C113.52 78.22 116.38 92.92 119.25 107.63C120.15 112.23 117.5 115.51 112.8 115.52C99.42 115.53 86.03 115.53 72.65 115.51C71.74 115.51 71.07 115.69 70.4 116.41C69.01 117.9 67.1 118.52 65.15 118.94C60.86 119.87 56.58 119.86 52.43 118.39C51 117.88 49.79 116.75 48.45 115.97C48.02 115.72 47.47 115.54 46.97 115.54C33.51 115.52 20.04 115.53 6.58001 115.52C3.23001 115.52 0.699997 113.83 0.129998 110.91C-0.130002 109.61 0.0399707 108.15 0.289971 106.82C3.07997 92.3 5.91999 77.79 8.74999 63.28C9.22999 60.81 10.65 59.6 13.18 59.56C14.32 59.54 15.46 59.56 16.78 59.56ZM13.71 102.37C28.41 97.65 42.95 97.65 57.66 102.38C57.66 101.78 57.66 101.32 57.66 100.86C57.66 93.12 57.66 85.38 57.66 77.65C57.66 76.01 58.38 75.1 59.63 75.07C60.92 75.04 61.68 75.99 61.71 77.67C61.71 77.95 61.71 78.22 61.71 78.5C61.71 85.96 61.71 93.42 61.71 100.89V102.39C76.43 97.67 90.97 97.66 105.6 102.37C105.57 102.02 105.56 101.8 105.52 101.58C104.39 94.77 103.25 87.9699 102.12 81.16C100.91 73.8899 99.72 66.61 98.5 59.34C98.45 59.03 98.16 58.56 97.91 58.51C97.34 58.4 96.53 58.28 96.19 58.59C95.64 59.07 95.22 59.85 95.02 60.58C94.01 64.19 92.09 67.19 89.2 69.57C88.96 69.76 88.75 69.98 88.57 70.14C89.13 71.5 89.79 72.74 90.13 74.06C90.41 75.17 90.53 76.42 90.33 77.54C89.89 79.9 88.34 81.47 86.04 82.13C83.68 82.81 81.53 82.2 79.86 80.43C78.35 78.82 76.59 77.77 74.54 77.04C73.03 76.5 71.49 75.89 70.15 75.03C68.91 74.24 67.39 73.27 66.93 72.03C66.01 69.59 64.27 69.06 62.12 68.89C61.71 68.86 61.19 68.94 60.88 69.18C54.46 74.06 46.49 72.7 41.93 65.96C41.74 65.68 41.17 65.44 40.82 65.49C33.98 66.56 28.47 64.34 24.35 58.79C23.51 57.66 22.57 58.46 21.68 58.43C20.86 58.4 20.93 59.05 20.84 59.58C19.46 67.9 18.06 76.23 16.68 84.55C15.7 90.42 14.74 96.29 13.73 102.38L13.71 102.37ZM86.05 34.32C85.48 29.33 79.38 24.14 74.35 24.41C74.32 24.55 74.27 24.69 74.24 24.84C73.97 26.12 73.3 26.75 72.21 26.73C71.13 26.71 70.42 26.02 70.23 24.77C70.19 24.54 70.18 24.3 70.15 24.06C69.84 22.02 68.13 20.53 66.05 20.51C63.9 20.48 62.13 21.95 61.8 24.03C61.74 24.38 61.73 24.74 61.65 25.08C61.42 26.17 60.58 26.7999 59.53 26.7199C58.5 26.6399 57.73 25.85 57.71 24.75C57.7 24.16 57.71 23.54 57.91 23C58.2 22.21 57.9 21.87 57.24 21.54C53.74 19.74 49.27 20.3 46.28 22.93C44.92 24.13 43.95 25.6 43.37 27.32C42.82 28.95 41.87 29.63 40.66 29.23C39.46 28.84 39.08 27.81 39.51 26.21C39.56 26.03 39.55 25.84 39.57 25.65C36.53 25.15 33.14 27.67 33.22 30.38C33.48 30.43 33.75 30.48 34.01 30.54C35.92 31.01 37.5 32 38.68 33.58C39.37 34.5 39.21 35.65 38.39 36.34C37.58 37.01 36.53 36.98 35.7 36.24C35.5 36.06 35.33 35.83 35.14 35.63C33.83 34.29 32.05 33.94 30.36 34.7C28.72 35.43 27.75 37.07 27.87 38.9C27.97 40.4 28.78 41.44 29.96 42.3C30.94 43.02 31.11 44.22 30.47 45.12C29.82 46.02 28.67 46.21 27.63 45.55C27.2 45.28 26.81 44.95 26.4 44.64C24.4 47.97 25.19 53.61 28.14 57.18C31.11 60.78 36.54 62.64 40.19 61.3C40.32 60.16 40.17 59.4 38.74 59.05C36 58.37 34.02 55.7 33.86 52.99C33.78 51.46 34.43 50.52 35.66 50.41C36.92 50.3 37.69 51.05 37.89 52.6C38.1 54.21 38.97 55.07 40.7 55.34C40.86 54.97 41.02 54.57 41.2 54.19C41.4 53.76 41.6 53.33 41.84 52.93C42.49 51.88 43.59 51.55 44.58 52.09C45.57 52.63 45.9 53.71 45.39 54.84C45.28 55.09 45.12 55.32 45.01 55.57C44.12 57.46 43.9 59.43 44.43 61.45C46.15 68.03 54.13 70.18 58.98 65.35C59.82 64.51 60.66 64.09 61.82 64.52C65.03 65.72 68.29 65.76 71.59 64.88C72.94 64.52 74.02 65.09 74.32 66.23C74.62 67.37 73.96 68.38 72.62 68.76C71.77 69 70.9 69.18 69.91 69.41C71.07 71.19 72.71 72.05 74.45 72.68C77.59 73.81 80.63 75.05 82.87 77.71C83.53 78.5 84.56 78.54 85.48 77.98C86.36 77.44 86.7 76.58 86.41 75.63C86.04 74.44 85.5 73.3 85.03 72.13C83.74 72.46 82.61 72.8 81.46 73.03C80.26 73.27 79.29 72.63 79.04 71.51C78.79 70.4 79.4 69.47 80.6 69.12C80.9 69.03 81.21 68.98 81.52 68.9C84.44 68.18 86.85 66.68 88.73 64.26C88.57 64.2 88.5 64.15 88.44 64.15C88.32 64.15 88.2 64.17 88.09 64.19C84.32 64.95 80.89 64.21 77.78 61.94C77.47 61.72 76.91 61.69 76.51 61.78C73.38 62.48 70.31 61.25 68.73 58.61C67.97 57.34 68.14 56.15 69.18 55.5C70.21 54.86 71.22 55.16 72.1 56.37C73.18 57.85 74.66 58.3 76.11 57.59C77.52 56.89 78.02 55.4 77.44 53.64C77 52.3 77.42 51.25 78.57 50.82C79.64 50.42 80.69 50.94 81.2 52.18C82.17 54.5 81.89 56.73 80.58 58.84C83.16 61.05 87.71 60.94 90.71 58.62C93.65 56.35 94.89 52.09 93.48 49.1C93.37 49.15 93.26 49.18 93.17 49.24C91.38 50.31 90.27 50.28 89.54 49.16C88.81 48.04 89.22 47.14 90.97 45.86C92.36 44.84 93 43.46 92.72 41.74C92.43 39.98 91.39 38.84 89.68 38.31C88.28 37.87 87.07 38.31 85.86 39.03C84.81 39.66 83.65 39.34 83.07 38.38C82.51 37.45 82.72 36.34 83.68 35.68C84.42 35.17 85.24 34.79 86.04 34.35L86.05 34.32ZM71.07 104.13C71.24 106.2 71.46 108.16 71.53 110.12C71.57 111.19 71.91 111.5 72.99 111.49C86.17 111.45 99.36 111.47 112.54 111.46C115.03 111.46 115.73 110.57 115.26 108.15C112.84 95.77 110.44 83.39 108.03 71.01C107.55 68.55 107.06 66.09 106.58 63.7H103.41C103.43 63.92 103.43 64.04 103.45 64.16C105.49 76.49 107.53 88.82 109.6 101.14C109.87 102.77 109.65 104.22 108.39 105.36C107.04 106.58 105.48 106.57 103.84 106.05C97.86 104.15 91.74 103.13 85.47 102.98C80.69 102.86 75.94 103.19 71.08 104.12L71.07 104.13ZM48.33 103.97C45.17 103.65 42.17 103.22 39.15 103.06C31 102.62 23.02 103.71 15.22 106.14C11.94 107.16 9.19999 104.85 9.74999 101.52C11.24 92.38 12.79 83.24 14.31 74.1C14.88 70.65 15.45 67.21 16.04 63.68H12.84C12.73 64.19 12.62 64.64 12.53 65.1C10.27 76.67 8.02 88.23 5.76 99.8C5.19 102.7 4.60999 105.6 4.05999 108.5C3.67999 110.48 4.45997 111.43 6.47997 111.47C6.63997 111.47 6.8 111.47 6.95001 111.47C20.05 111.47 33.16 111.47 46.26 111.47C46.54 111.47 46.85 111.55 47.08 111.45C47.35 111.33 47.73 111.08 47.75 110.85C47.97 108.66 48.12 106.46 48.32 103.97H48.33ZM52.33 104.93C52.12 107.36 51.96 109.55 51.75 111.74C51.56 113.69 51.56 113.84 53.45 114.48C57.45 115.85 61.5 115.85 65.53 114.62C67.78 113.94 67.84 113.76 67.59 111.45C67.54 111.02 67.54 110.58 67.5 110.15C67.35 108.47 67.2 106.8 67.04 104.9C65.05 105.59 63.2 106.15 61.43 106.87C60.26 107.35 59.23 107.39 58.04 106.9C56.24 106.15 54.36 105.61 52.34 104.91L52.33 104.93Z" fill="#FFB01B"/>
<path d="M42.2309 11.73C41.9309 11.46 41.1509 11.08 40.8509 10.47C39.9509 8.62995 39.2109 6.71998 38.4709 4.80998C38.0509 3.71998 38.5309 2.65996 39.5109 2.22996C40.5509 1.76996 41.6609 2.15996 42.1709 3.28996C43.0009 5.15996 43.8009 7.04995 44.5209 8.96995C45.0409 10.36 44.0909 11.71 42.2309 11.73Z" fill="#FFB01B"/>
<path d="M81.0498 4.28001C80.9898 4.47001 80.9298 4.77998 80.8098 5.06998C80.0998 6.81998 79.3898 8.56996 78.6498 10.3C78.1098 11.54 77.0998 12 75.9998 11.58C74.8798 11.15 74.4198 10.01 74.9298 8.73997C75.6598 6.91997 76.4098 5.09997 77.2098 3.30997C77.6498 2.32997 78.4798 1.89995 79.5298 2.15995C80.5098 2.40995 81.0198 3.13001 81.0498 4.28001Z" fill="#FFB01B"/>
<path d="M20.5999 33.34C20.6199 35.16 19.2899 36.15 17.8999 35.64C15.9499 34.92 14.0299 34.1 12.1399 33.25C11.0899 32.78 10.7299 31.66 11.1499 30.67C11.5399 29.73 12.5599 29.18 13.5799 29.56C15.5999 30.31 17.6099 31.12 19.5499 32.05C20.0899 32.31 20.3899 33.07 20.5999 33.34Z" fill="#FFB01B"/>
<path d="M100.871 36C99.7808 35.75 99.1208 35.24 98.8608 34.32C98.6008 33.39 98.8808 32.5 99.7508 32.1C101.781 31.17 103.861 30.33 105.951 29.55C106.861 29.21 107.671 29.65 108.141 30.5C108.611 31.35 108.601 32.41 107.781 32.84C105.541 34.02 103.181 34.97 100.871 36.01V36Z" fill="#FFB01B"/>
<path d="M27.3504 20.38C26.7404 20.15 26.2604 20.09 25.9604 19.82C25.0804 19.04 24.2204 18.22 23.4604 17.33C22.7904 16.55 22.9404 15.47 23.6404 14.76C24.3404 14.05 25.4404 13.88 26.2204 14.54C27.1404 15.33 28.0604 16.17 28.7504 17.16C29.0804 17.63 29.0704 18.57 28.8304 19.12C28.5804 19.67 27.8504 19.99 27.3604 20.39L27.3504 20.38Z" fill="#FFB01B"/>
<path d="M96.4705 15.87C96.3005 16.44 96.2906 16.87 96.0806 17.1C95.1506 18.1 94.2405 19.15 93.1705 19.98C92.3805 20.58 91.4305 20.32 90.7505 19.53C90.0605 18.74 90.0305 17.82 90.6705 17.05C91.4105 16.14 92.2305 15.24 93.1805 14.59C93.6805 14.25 94.6405 14.22 95.2305 14.45C95.7805 14.67 96.1105 15.42 96.4705 15.87Z" fill="#FFB01B"/>
<path d="M61.7207 3.01001C61.7207 5.34001 61.0108 6.34 59.6508 6.31C58.3208 6.28 57.6707 5.31 57.6707 3.38C57.6707 2.95 57.6608 2.51002 57.7108 2.08002C57.8508 0.990017 58.6607 0.24999 59.6807 0.23999C60.6907 0.23999 61.5207 0.969988 61.6807 2.04999C61.7407 2.47999 61.7307 2.91001 61.7307 3.01001H61.7207Z" fill="#FFB01B"/>
<path d="M59.2806 52.73C56.8706 52.07 54.8206 51.03 53.2006 49.29C52.8406 48.9 52.5006 48.4 52.3906 47.9C52.1906 47.01 52.5906 46.26 53.4306 45.85C54.3506 45.39 55.2006 45.59 55.9106 46.31C57.3806 47.8 59.1406 48.67 61.2406 48.82C65.2206 49.12 68.6106 46.74 69.6906 42.88C69.7506 42.65 69.8106 42.42 69.8806 42.2C70.2606 41.03 71.2406 40.45 72.3406 40.73C73.4006 41 74.0306 42.04 73.7606 43.22C72.6406 48.01 69.7006 51.13 64.9806 52.51C64.2106 52.74 63.7406 53.05 63.3506 53.79C61.5506 57.2 58.6906 59.04 54.8106 59.24C53.4006 59.31 52.4706 58.56 52.3906 57.38C52.3106 56.22 53.1506 55.32 54.5606 55.23C56.4706 55.1 58.0206 54.38 59.2806 52.73Z" fill="#FFB01B"/>
<path d="M52.8598 32.63C54.2998 32.61 55.1599 33.32 55.2099 34.54C55.2499 35.76 54.4498 36.54 53.0298 36.66C50.1498 36.91 48.3499 38.66 47.9999 41.52C47.9799 41.68 47.9699 41.83 47.9399 41.99C47.7399 43.23 46.9098 43.97 45.7998 43.9C44.6798 43.82 43.9398 42.95 43.9298 41.72C43.8998 36.95 48.0798 32.69 52.8598 32.63Z" fill="#FFB01B"/>
</svg>
