<svg width="115" height="115" viewBox="0 0 115 115" fill="none" xmlns="http://www.w3.org/2000/svg">
<path d="M106.577 7.00332H88.7863C88.1093 3.03268 84.6461 0 80.4856 0H34.5144C30.3539 0 26.8907 3.03268 26.2135 7.00332H8.42285C3.77838 7.00332 0 10.7817 0 15.4262V82.7281C0 87.3726 3.77838 91.151 8.42285 91.151H45.881V99.3757H45.7345C40.3008 99.3757 35.8798 103.796 35.8798 109.23V112.226C35.8798 113.756 37.1241 115 38.6537 115H76.3458C77.8754 115 79.1198 113.756 79.1198 112.226V109.23C79.1198 103.796 74.699 99.3757 69.2653 99.3757H69.119V91.151H89.1178C90.0484 91.151 90.8024 90.397 90.8024 89.4664C90.8024 88.5359 90.0484 87.7818 89.1178 87.7818H8.42285C5.63612 87.7818 3.36914 85.5146 3.36914 82.7281V15.4262C3.36914 12.6397 5.63612 10.3725 8.42285 10.3725H26.0915V13.7416H9.32129C7.89704 13.7416 6.73828 14.9004 6.73828 16.3246V81.8297C6.73828 83.2539 7.89704 84.4127 9.32129 84.4127H105.679C107.103 84.4127 108.262 83.2539 108.262 81.8297V16.3246C108.262 14.9004 107.103 13.7416 105.679 13.7416H88.9085V10.3725H106.577C109.364 10.3725 111.631 12.6397 111.631 15.4262V82.7281C111.631 85.5146 109.364 87.7818 106.577 87.7818H96.9794C96.0488 87.7818 95.2948 88.5359 95.2948 89.4664C95.2948 90.397 96.0488 91.151 96.9794 91.151H106.577C111.222 91.151 115 87.3726 115 82.7281V15.4262C115 10.7817 111.222 7.00332 106.577 7.00332ZM49.2501 91.151H65.7499V99.3757H49.2501V91.151ZM47.5655 102.745C47.5684 102.745 47.5714 102.745 47.5743 102.745H67.4259C67.4289 102.745 67.4315 102.745 67.4347 102.745C67.4378 102.745 67.4405 102.745 67.4435 102.745H69.2657C72.8417 102.745 75.7511 105.654 75.7511 109.23V111.631H39.2491V109.23C39.2491 105.654 42.1585 102.745 45.7347 102.745H47.557C47.5597 102.745 47.5626 102.745 47.5655 102.745ZM85.5393 81.0427H29.4607V31.1464C29.4607 30.2158 28.7064 29.4618 27.7761 29.4618C26.8458 29.4618 26.0915 30.2158 26.0915 31.1464V81.0436H10.1074V17.1107H26.0915V23.285C26.0915 24.2156 26.8458 24.9696 27.7761 24.9696C28.7064 24.9696 29.4607 24.2156 29.4607 23.285V8.42285C29.4607 5.63635 31.7276 3.36914 34.5144 3.36914H80.4856C83.2721 3.36914 85.5393 5.63635 85.5393 8.42285V81.0427ZM104.893 17.1107V81.0436H88.9085V17.1107H104.893ZM76.8964 70.9766H38.1034C37.1731 70.9766 36.4188 71.7306 36.4188 72.6611C36.4188 73.5917 37.1731 74.3457 38.1034 74.3457H76.8964C77.8269 74.3457 78.5809 73.5917 78.5809 72.6611C78.5809 71.7306 77.8269 70.9766 76.8964 70.9766ZM76.8964 60.8691H38.1034C37.1731 60.8691 36.4188 61.6232 36.4188 62.5537C36.4188 63.4843 37.1731 64.2383 38.1034 64.2383H76.8964C77.8269 64.2383 78.5809 63.4843 78.5809 62.5537C78.5809 61.6232 77.8269 60.8691 76.8964 60.8691ZM68.8185 22.5054C66.8204 20.6874 63.7289 20.7912 61.7795 22.7401L54.1057 30.4139L53.1534 29.4616C51.2148 27.5032 47.9503 27.5171 46.0061 29.4613C44.0358 31.4316 44.0356 34.6377 46.0061 36.6082L49.7384 40.341C50.9037 41.5058 52.4544 42.147 54.1055 42.147C55.7568 42.147 57.3077 41.5056 58.4732 40.3403L68.9937 29.8196C71.0123 27.8179 70.9045 24.4036 68.8185 22.5054ZM66.6113 27.4372L56.0908 37.9579C55.5618 38.4866 54.8568 38.7779 54.1055 38.7779C53.3542 38.7779 52.6491 38.4868 52.1206 37.9585L48.3885 34.2262C47.7317 33.5692 47.7317 32.5005 48.3885 31.844C49.0367 31.1958 50.1256 31.1922 50.7709 31.8438L52.4378 33.5108C52.8832 33.9564 53.4754 34.2019 54.1055 34.2019C54.7355 34.2019 55.3276 33.9567 55.7732 33.5113L64.1619 25.1228C64.8256 24.4586 65.8977 24.4031 66.5509 24.9972C67.2514 25.6344 67.2871 26.7694 66.6113 27.4372ZM57.5 10.1074C45.6103 10.1074 35.9375 19.7802 35.9375 31.6699C35.9375 43.5596 45.6103 53.2324 57.5 53.2324C69.3897 53.2324 79.0625 43.5596 79.0625 31.6699C79.0625 19.7802 69.3897 10.1074 57.5 10.1074ZM57.5 49.8633C47.468 49.8633 39.3066 41.7016 39.3066 31.6699C39.3066 21.6382 47.468 13.4766 57.5 13.4766C67.5317 13.4766 75.6934 21.6382 75.6934 31.6699C75.6934 41.7016 67.5317 49.8633 57.5 49.8633Z" fill="#FFA81B"/>
</svg>
