<svg width="74" height="74" viewBox="0 0 74 74" fill="none" xmlns="http://www.w3.org/2000/svg">
<path d="M0.0705566 35.6699C0.550557 34.7899 0.970559 33.8699 1.51056 33.0399C3.61056 29.8199 5.76053 26.6299 7.86053 23.4099C9.01053 21.6399 10.5706 20.62 12.7106 20.46C16.0206 20.22 19.3206 19.93 22.6306 19.7C23.1806 19.66 23.4905 19.41 23.8105 19.03C27.9705 14.17 32.6805 9.94996 38.2305 6.73996C44.0505 3.36996 50.3605 1.46999 57.0005 0.589992C60.9006 0.0699923 64.8005 -0.150061 68.7305 0.159939C71.4305 0.369939 73.6906 2.56999 73.8406 5.27999C74.7106 21.97 69.8406 36.4699 57.3806 48.0399C56.7506 48.6299 56.1606 49.29 55.4406 49.77C54.4806 50.41 54.2706 51.26 54.2006 52.32C54.0106 55.42 53.7505 58.5099 53.4905 61.5999C53.3405 63.4199 52.4905 64.8599 50.9905 65.8599C47.2705 68.3499 43.5405 70.81 39.8005 73.25C39.3505 73.55 38.8105 73.71 38.3105 73.94H36.8705C36.8105 73.9 36.7606 73.84 36.6906 73.83C34.9306 73.34 33.9305 72.18 33.6605 70.38C33.3805 68.55 33.1005 66.73 32.8105 64.9C32.6305 63.77 32.4506 62.65 32.2606 61.52C32.0106 61.54 31.8705 61.54 31.7305 61.56C29.7505 61.87 28.0705 61.27 26.6705 59.88C22.4805 55.71 18.3005 51.52 14.1205 47.34C13.1005 46.32 12.5006 45.08 12.3806 43.64C12.3306 43.03 12.3806 42.4 12.3806 41.75C12.3306 41.73 12.2205 41.6799 12.1005 41.6699C9.82053 41.32 7.54057 40.9999 5.27057 40.5999C4.13057 40.3999 2.96056 40.15 1.89056 39.7C0.850564 39.26 0.420547 38.18 0.0605469 37.15C0.0605469 36.67 0.0605469 36.19 0.0605469 35.71L0.0705566 35.6699ZM64.2405 4.39999C64.2405 4.39999 64.2405 4.32995 64.2405 4.29995C62.6805 4.40995 61.1206 4.48998 59.5706 4.63998C53.6406 5.20998 47.8906 6.57999 42.5906 9.33999C32.8106 14.42 25.6006 22.08 20.4606 31.77C20.2306 32.21 20.4205 32.41 20.6805 32.68C27.5705 39.56 34.4606 46.4499 41.3306 53.3499C41.6906 53.7099 41.9505 53.74 42.3705 53.49C44.1005 52.45 45.9005 51.53 47.5605 50.39C54.4205 45.68 60.1105 39.86 64.1105 32.52C66.9505 27.31 68.5705 21.68 69.1705 15.8C69.5005 12.61 69.5005 9.36994 69.5605 6.15994C69.5905 4.90994 69.1006 4.48997 67.8406 4.43997C66.6406 4.38997 65.4405 4.42996 64.2305 4.42996L64.2405 4.39999ZM37.3605 55.76C30.9305 49.33 24.6305 43.03 18.3005 36.69C17.9205 38.06 17.4406 39.48 17.1406 40.93C16.4906 44 16.3205 43.34 18.4105 45.44C22.1105 49.16 25.8105 52.87 29.5505 56.55C29.9105 56.91 30.5406 57.3099 30.9506 57.2299C33.1106 56.8199 35.2405 56.26 37.3705 55.76H37.3605ZM37.8906 69.31C38.2406 69.09 38.4805 68.94 38.7205 68.78C41.5305 66.93 44.3506 65.09 47.1406 63.21C49.2306 61.8 49.1806 62.34 49.3306 59.5C49.3306 59.33 49.3706 59.17 49.3806 59C49.5006 57.43 49.6205 55.86 49.7405 54.28C49.6105 54.29 49.5506 54.28 49.5206 54.3C49.2506 54.46 48.9905 54.63 48.7305 54.8C45.6005 56.79 42.3005 58.45 38.8005 59.69C38.0805 59.95 37.0205 60 36.7305 60.5C36.4105 61.05 36.7906 62.0099 36.9006 62.7899C37.2206 64.9299 37.5605 67.06 37.9105 69.2999L37.8906 69.31ZM13.5505 37.4699C14.9605 32.7299 17.1005 28.4099 19.8505 24.2299C17.3605 24.4299 15.0405 24.59 12.7205 24.84C12.3205 24.88 11.8505 25.27 11.6105 25.63C9.37053 28.96 7.16056 32.3199 4.95056 35.6599C4.87056 35.7799 4.81057 35.91 4.71057 36.09C7.67057 36.55 10.5905 37 13.5505 37.46V37.4699Z" fill="#FF9E18"/>
<path d="M0.0705566 71.1799C0.530557 70.6099 0.950571 69.9999 1.46057 69.4799C5.64057 65.2699 9.83054 61.0699 14.0505 56.8999C14.4505 56.4999 15.0306 56.1799 15.5806 56.0599C16.4506 55.8699 17.1906 56.2699 17.6506 57.0399C18.1306 57.8299 18.0906 58.6399 17.5706 59.4099C17.4206 59.6299 17.2305 59.8199 17.0505 59.9999C12.7505 64.2999 8.46057 68.5999 4.15057 72.8899C3.75057 73.2899 3.26054 73.5799 2.80054 73.9199H1.65057C0.930574 73.5799 0.400547 73.0499 0.0605469 72.3299C0.0605469 71.9499 0.0605469 71.5599 0.0605469 71.1799H0.0705566Z" fill="#FF9E18"/>
<path d="M0.0703125 58.4699C0.470313 57.8799 0.790325 57.2199 1.27032 56.7199C3.36032 54.5599 5.51031 52.46 7.63031 50.33C8.25031 49.71 8.96033 49.37 9.84033 49.58C11.4403 49.96 12.1003 51.92 10.9403 53.11C8.57031 55.57 6.15032 57.9799 3.70032 60.3499C2.59032 61.4199 0.840305 60.94 0.250305 59.51C0.190305 59.36 0.130312 59.2 0.0703125 59.05C0.0703125 58.86 0.0703125 58.6699 0.0703125 58.4699Z" fill="#FF9E18"/>
<path d="M14.9397 73.9199C14.8097 73.8699 14.6797 73.8099 14.5497 73.7599C13.0297 73.1899 12.5497 71.3899 13.6797 70.2399C16.0297 67.8299 18.4197 65.4599 20.8197 63.0899C21.6697 62.2499 22.9997 62.2899 23.8197 63.0899C24.6697 63.9199 24.7297 65.2499 23.8597 66.1399C21.5197 68.5199 19.1497 70.8899 16.7597 73.2299C16.4297 73.5499 15.9397 73.6999 15.5197 73.9199H14.9397Z" fill="#FF9E18"/>
<path d="M39.8801 23.2899C39.8801 17.3099 44.7201 12.46 50.6901 12.46C56.6501 12.46 61.5301 17.3299 61.5201 23.2899C61.5201 29.2599 56.6701 34.0999 50.6801 34.0999C44.6801 34.0999 39.8701 29.2899 39.8701 23.2899H39.8801ZM44.2201 23.3099C44.2301 26.8999 47.1001 29.76 50.6901 29.77C54.3001 29.77 57.2301 26.85 57.2101 23.27C57.1901 19.71 54.2801 16.8099 50.7201 16.7899C47.1301 16.7799 44.2201 19.7099 44.2301 23.3099H44.2201Z" fill="#FF9E18"/>
</svg>
