<svg width="59" height="59" viewBox="0 0 59 59" fill="none" xmlns="http://www.w3.org/2000/svg">
<path d="M29.5 51.625C25.1241 51.625 20.8465 50.3274 17.208 47.8963C13.5696 45.4651 10.7338 42.0097 9.05918 37.9669C7.38459 33.9241 6.94644 29.4755 7.80014 25.1836C8.65383 20.8918 10.761 16.9495 13.8553 13.8553C16.9495 10.761 20.8918 8.65382 25.1836 7.80013C29.4755 6.94643 33.9241 7.38458 37.9669 9.05917C42.0097 10.7338 45.4651 13.5696 47.8963 17.208C50.3274 20.8464 51.625 25.1241 51.625 29.5C51.625 35.3679 49.294 40.9955 45.1447 45.1447C40.9955 49.294 35.3679 51.625 29.5 51.625ZM43.7153 28.1909L30.8091 15.2847C30.6377 15.1119 30.4338 14.9747 30.2091 14.8811C29.9844 14.7875 29.7434 14.7393 29.5 14.7393C29.2566 14.7393 29.0156 14.7875 28.7909 14.8811C28.5663 14.9747 28.3623 15.1119 28.1909 15.2847C28.0181 15.4561 27.881 15.66 27.7874 15.8847C27.6938 16.1094 27.6456 16.3504 27.6456 16.5938C27.6456 16.8371 27.6938 17.0781 27.7874 17.3028C27.881 17.5275 28.0181 17.7314 28.1909 17.9028L37.9628 27.6562H16.5938C16.1048 27.6562 15.6358 27.8505 15.29 28.1963C14.9443 28.542 14.75 29.011 14.75 29.5C14.75 29.989 14.9443 30.458 15.29 30.8037C15.6358 31.1495 16.1048 31.3438 16.5938 31.3438H37.9628L28.1909 41.0972C28.019 41.2691 27.8827 41.4732 27.7896 41.6978C27.6966 41.9224 27.6487 42.1631 27.6487 42.4062C27.6487 42.6494 27.6966 42.8901 27.7896 43.1147C27.8827 43.3393 28.019 43.5434 28.1909 43.7153C28.3629 43.8872 28.5669 44.0236 28.7915 44.1166C29.0162 44.2097 29.2569 44.2575 29.5 44.2575C29.7431 44.2575 29.9839 44.2097 30.2085 44.1166C30.4331 44.0236 30.6372 43.8872 30.8091 43.7153L43.7153 30.8091C43.8881 30.6377 44.0253 30.4337 44.1189 30.2091C44.2125 29.9844 44.2607 29.7434 44.2607 29.5C44.2607 29.2566 44.2125 29.0156 44.1189 28.7909C44.0253 28.5663 43.8881 28.3623 43.7153 28.1909Z" fill="#FFB51B"/>
</svg>
