<svg width="118" height="114" viewBox="0 0 118 114" fill="none" xmlns="http://www.w3.org/2000/svg">
<path d="M21.3766 59.5939C21.1066 58.2839 20.8366 56.9839 20.5566 55.6739C20.1366 53.6739 20.2866 51.7739 21.2666 49.9239C21.4366 49.6039 21.2666 48.9639 21.0366 48.6139C18.1866 44.3439 15.9866 39.7939 14.8066 34.7739C11.5766 21.1239 18.0266 7.55392 30.4466 2.17392C38.0566 -1.11608 45.4866 -0.896115 52.2166 4.38388C54.3366 6.04388 56.0166 8.26392 57.8966 10.2339C58.1666 10.5139 58.4266 10.8039 58.7766 11.1939C59.7966 10.0339 60.8166 8.95394 61.7666 7.81394C68.8266 -0.786062 79.3266 -1.89612 88.6166 2.88388C98.7866 8.11388 104.697 19.3639 103.407 30.7239C102.657 37.2739 100.167 43.1139 96.5066 48.5239C96.0866 49.1439 95.9866 49.5839 96.3966 50.3039C97.3166 51.9139 97.3666 53.6939 97.0166 55.4839C96.7466 56.8639 96.4466 58.2439 96.3566 59.7239C97.0966 58.7239 97.8366 57.7239 98.5766 56.7139C99.0866 56.0139 99.5166 55.2339 100.127 54.6239C102.727 52.0439 103.227 48.8539 103.347 45.3539C103.557 38.7639 103.987 32.1839 104.497 25.6139C104.867 20.8139 108.947 17.0339 113.577 16.8839C115.947 16.8039 117.517 18.2539 117.517 20.6039C117.527 32.6439 117.527 44.6939 117.507 56.7339C117.507 57.3039 117.337 57.9039 117.147 58.4539C112.267 72.6839 105.767 86.1639 98.0366 99.0539C97.4566 100.024 97.2166 100.924 97.3866 102.044C97.8066 104.734 98.1366 107.434 98.4866 110.134C98.5466 110.604 98.5966 111.074 98.6066 111.544C98.6266 112.534 98.0766 113.134 97.1366 113.234C96.2466 113.334 95.5766 112.854 95.4066 111.964C95.1466 110.564 94.9866 109.154 94.7966 107.754C94.4866 105.444 94.1166 103.144 93.9266 100.824C93.8666 100.074 94.1366 99.1839 94.5366 98.5239C100.967 87.7739 106.637 76.6539 111.197 64.9739C112.147 62.5539 113.027 60.1039 113.907 57.6539C114.077 57.1839 114.177 56.6639 114.177 56.1639C114.197 44.5139 114.187 32.8639 114.177 21.2139C114.177 20.9039 114.137 20.6039 114.117 20.3039C111.097 20.0139 108.137 22.4939 107.797 25.8139C107.437 29.3039 107.297 32.8239 107.097 36.3239C106.817 41.0539 106.607 45.7839 106.267 50.5139C106.207 51.3639 105.847 52.2939 105.347 52.9839C101.897 57.7939 98.3666 62.5439 94.8966 67.3439C94.4766 67.9239 94.1666 68.6539 94.0066 69.3539C93.2666 72.5439 92.5866 75.7439 91.8866 78.9439C91.8166 79.2539 91.7566 79.5639 91.6666 79.8639C91.3566 80.8139 90.5666 81.2839 89.6566 81.0739C88.7866 80.8639 88.2666 80.0339 88.4766 79.0539C89.1566 75.8139 89.8766 72.5739 90.5766 69.3439C91.6066 64.6039 92.6566 59.8739 93.6766 55.1239C93.7966 54.5539 93.8466 53.9439 93.8266 53.3639C93.7866 52.0439 93.2066 51.0039 91.9866 50.4139C90.6766 49.7839 89.3466 49.9039 88.3566 50.9039C87.5266 51.7539 86.8066 52.8139 86.3566 53.9139C82.5566 63.0939 78.8866 72.3239 75.0666 81.4939C72.8666 86.7839 72.8266 92.2339 73.2766 97.7939C73.6366 102.244 73.9165 106.694 74.2166 111.144C74.2966 112.364 73.7666 113.124 72.7966 113.244C71.8566 113.364 71.0066 112.694 70.9566 111.524C70.6066 103.924 69.3466 96.3539 69.8866 88.7139C70.0966 85.6939 70.9466 82.8239 72.0966 80.0339C73.6066 76.3539 75.1066 72.6639 76.6066 68.9739C76.7466 68.6239 76.8766 68.2639 77.1066 67.6539C76.6066 67.9539 76.3266 68.1239 76.0466 68.2939C70.7366 71.4839 65.4366 74.6639 60.1366 77.8639C59.1866 78.4339 58.3166 78.4139 57.3666 77.8339C52.0066 74.5839 46.6266 71.3639 41.2566 68.1339C41.0566 68.0139 40.8566 67.8939 40.3866 67.6039C40.6166 68.2139 40.7466 68.5539 40.8766 68.8939C42.6966 73.4339 44.6366 77.9239 46.3166 82.5139C48.1266 87.4439 47.9566 92.5939 47.5566 97.7339C47.2266 101.944 46.9566 106.164 46.6566 110.374C46.6266 110.804 46.5966 111.244 46.5366 111.674C46.3966 112.684 45.8066 113.254 44.7866 113.234C43.8366 113.224 43.2166 112.444 43.2766 111.334C43.3966 109.124 43.6166 106.924 43.7066 104.714C43.9366 99.4739 44.3266 94.2339 44.2166 88.9939C44.1666 86.5439 43.3566 84.0139 42.4466 81.6939C38.7766 72.3739 34.9466 63.1239 31.1466 53.8639C30.7766 52.9639 30.2766 52.0839 29.6566 51.3439C28.5866 50.0639 27.0966 49.7539 25.6966 50.3139C24.3866 50.8339 23.4966 52.0939 23.6966 53.7339C23.9766 55.9939 24.4966 58.2339 24.9766 60.4639C26.2866 66.5539 27.6266 72.6439 28.9466 78.7239C29.2166 79.9839 28.7766 80.8439 27.8066 81.0639C26.7966 81.2839 26.0366 80.7339 25.7566 79.4739C24.9866 76.0539 24.2566 72.6139 23.4666 69.1939C23.3166 68.5639 23.0266 67.9239 22.6566 67.4039C19.1566 62.5739 15.6066 57.7939 12.1366 52.9439C11.6366 52.2539 11.2866 51.3139 11.2366 50.4639C10.7566 42.8939 10.3466 35.3339 9.94657 27.7639C9.84657 25.8839 9.57658 24.0639 8.33658 22.5439C7.09658 21.0139 5.49657 20.2339 3.32657 20.1639V21.5839C3.32657 32.9539 3.32656 44.3339 3.34656 55.7039C3.34656 56.4339 3.47656 57.1939 3.71656 57.8839C8.62656 72.0639 15.1566 85.4839 22.9266 98.2939C23.5366 99.2939 23.7366 100.234 23.5566 101.414C23.0466 104.644 22.6766 107.904 22.2766 111.154C22.1566 112.114 21.9066 112.964 20.8166 113.204C19.7266 113.444 18.7966 112.534 18.9366 111.254C19.2466 108.434 19.5566 105.604 20.0366 102.804C20.3166 101.194 20.0366 99.8939 19.1966 98.4839C11.5566 85.7639 5.20656 72.4439 0.37656 58.4039C0.14656 57.7439 0.0165747 57.0239 0.0165747 56.3339C-0.00342533 44.5239 -0.00343509 32.7139 0.0065649 20.9139C0.0065649 18.0139 1.77658 16.5039 4.67658 16.9139C9.11658 17.5439 12.6266 21.0139 13.0166 25.4939C13.4566 30.5639 13.6766 35.6539 13.9766 40.7439C14.1566 43.8139 14.3066 46.8939 14.4966 49.9639C14.5166 50.3039 14.5866 50.6939 14.7766 50.9639C16.8766 53.8739 18.9966 56.7539 21.1166 59.6539C21.2066 59.6339 21.2866 59.6039 21.3766 59.5839V59.5939ZM94.4366 45.6439C96.5966 42.2739 98.1866 38.8539 99.1966 35.1839C102.517 23.0539 97.5766 11.2039 86.8366 5.73392C79.1166 1.80392 70.2166 2.66392 64.2866 9.98392C63.0666 11.4839 61.7466 12.9039 60.4566 14.3439C59.1766 15.7839 58.3566 15.7839 57.0766 14.3439C55.4766 12.5439 53.9366 10.6939 52.2866 8.93393C48.4866 4.86393 43.7966 2.99393 38.2466 3.55393C31.2566 4.26393 25.8166 7.74391 21.8266 13.4039C16.7166 20.6639 16.1866 28.6039 18.8466 36.8939C19.8366 39.9739 21.2466 42.8439 23.0966 45.6339C24.8066 42.4039 27.4766 40.8039 30.9766 40.3139C29.6866 38.3139 29.0266 36.2439 28.7966 34.0039C28.2566 28.8239 32.0166 24.4139 37.1466 24.2839C42.1066 24.1539 46.0466 28.3539 45.8066 33.4839C45.6966 35.9339 44.9666 38.1739 43.6366 40.2839C44.3966 40.4639 45.0366 40.6339 45.6966 40.7639C46.0666 40.8339 46.4966 40.9939 46.8066 40.8739C48.5366 40.1939 50.2366 39.4439 51.8966 38.7439C51.4266 37.6739 50.7166 36.4339 50.3466 35.0939C49.9666 33.7039 49.7566 32.2239 49.7466 30.7839C49.7166 26.2339 53.2266 22.3439 57.6366 21.8739C62.3366 21.3739 66.5466 24.2639 67.5466 28.7939C68.2666 32.0539 67.5466 35.1339 65.9266 38.0239C65.7466 38.3439 65.5666 38.6539 65.4466 38.8539C66.8466 39.3039 68.2966 39.4539 69.3366 40.1839C70.9466 41.3239 72.3066 40.5939 73.8866 40.2639C72.4866 38.0939 71.8066 35.8239 71.7066 33.3639C71.5066 28.3139 75.4566 24.1639 80.3766 24.2839C85.4566 24.4139 89.2466 28.7939 88.7366 33.8939C88.5066 36.1739 87.8566 38.2839 86.5466 40.3139C90.0566 40.7939 92.7266 42.4039 94.4366 45.6439ZM64.8366 60.3839C64.8366 57.2639 64.8366 54.1439 64.8366 51.0239C64.8366 50.5539 64.8166 50.0739 64.8666 49.6039C64.9666 48.6939 65.4966 48.1639 66.4166 48.1339C67.3366 48.0939 67.9066 48.5939 68.0766 49.4839C68.1566 49.9039 68.1466 50.3439 68.1466 50.7839C68.1466 55.5639 68.1466 60.3439 68.1466 65.1139C68.1466 65.5439 68.0266 66.1039 68.2466 66.3839C68.6366 66.8839 69.2566 67.5239 69.7666 67.5239C70.2866 67.5239 70.8566 66.8539 71.2766 66.3639C71.4566 66.1539 71.3566 65.6839 71.3566 65.3239C71.3566 59.8739 71.3566 54.4239 71.3566 48.9739C71.3566 45.1939 68.9866 42.5439 65.2066 42.4239C60.9066 42.2839 56.5966 42.2839 52.2966 42.4239C48.5166 42.5439 46.1466 45.1839 46.1366 48.9639C46.1366 54.4139 46.1366 59.8639 46.1366 65.3139C46.1366 65.6639 46.0266 66.1439 46.2066 66.3539C46.6266 66.8439 47.1966 67.5139 47.7066 67.5239C48.2266 67.5239 48.8366 66.8939 49.2366 66.4039C49.4566 66.1339 49.3466 65.5639 49.3466 65.1339C49.3466 60.3139 49.3466 55.4939 49.3466 50.6839C49.3466 50.2539 49.3466 49.8039 49.4366 49.3939C49.6266 48.5539 50.1966 48.1139 51.0566 48.1439C51.9166 48.1739 52.4566 48.6339 52.5966 49.4939C52.6666 49.9239 52.6466 50.3639 52.6466 50.7939C52.6466 57.3539 52.6466 63.9039 52.6766 70.4539C52.6766 70.9139 52.9166 71.5939 53.2666 71.8039C54.8366 72.7739 56.4766 73.6539 58.1366 74.4839C58.4766 74.6539 59.0666 74.6239 59.4166 74.4539C60.9366 73.6939 62.3866 72.8139 63.8966 72.0539C64.5966 71.7039 64.8266 71.2439 64.8166 70.4739C64.7766 67.1139 64.7966 63.7639 64.7966 60.4039L64.8366 60.3839ZM74.6966 65.2439C76.1766 64.1339 77.4466 63.2839 78.5966 62.2839C79.2466 61.7139 79.8366 60.9739 80.1766 60.1939C81.2466 57.7839 82.2266 55.3339 83.1866 52.8739C84.5966 49.2639 86.8466 46.7339 91.2366 46.7039C89.9166 44.6539 88.1566 43.7039 85.9366 43.6739C82.1566 43.6239 78.3666 43.6539 74.5766 43.6639C74.2466 43.6639 73.9166 43.7439 73.4266 43.8039C74.7966 46.0239 74.7066 48.3539 74.6966 50.6839C74.6766 55.4139 74.6966 60.1339 74.6966 65.2539V65.2439ZM44.0566 43.8739C43.8166 43.7739 43.7166 43.6939 43.6166 43.6939C39.3966 43.6939 35.1766 43.5839 30.9666 43.7339C29.0366 43.8039 27.4266 44.8139 26.3666 46.7139C30.3966 46.7339 32.6966 48.9139 34.1066 52.2739C35.0766 54.5939 36.1866 56.8839 36.9166 59.2839C37.8366 62.3139 40.5666 63.2639 42.8566 65.2639V63.6339C42.8566 58.9439 42.8866 54.2539 42.8466 49.5539C42.8266 47.5939 43.0066 45.6939 44.0666 43.8739H44.0566ZM64.4766 31.7039C64.5466 28.0539 62.4766 25.5239 59.5866 25.1739C56.5666 24.8039 53.7566 26.6339 53.1966 29.5539C52.6766 32.2639 53.3266 34.8339 54.9866 37.0539C56.9966 39.7439 60.5166 39.7239 62.5566 37.0539C63.8766 35.3339 64.3966 33.3339 64.4766 31.7239V31.7039ZM42.5166 33.0239C42.5566 30.0939 40.4366 27.7839 37.5466 27.6039C34.8466 27.4339 32.3966 29.4839 32.1266 32.2939C31.9266 34.4239 32.4566 36.4539 33.6666 38.2439C35.5566 41.0439 39.0166 41.0439 40.9366 38.2639C42.0166 36.6939 42.4666 34.9139 42.5166 33.0239ZM75.0366 33.0939C74.9366 33.1339 74.8366 33.1639 74.7366 33.2039C75.3066 34.8139 75.6665 36.5439 76.4966 38.0139C78.2866 41.1539 82.0066 41.1339 83.9966 38.0939C85.0366 36.4939 85.4866 34.7039 85.4766 32.8239C85.4566 29.8739 83.0366 27.5539 80.1766 27.6039C77.2166 27.6639 74.9466 30.0939 75.0466 33.0939H75.0366Z" fill="#FFB01B"/>
</svg>
