<svg width="121" height="123" viewBox="0 0 121 123" fill="none" xmlns="http://www.w3.org/2000/svg">
<g clip-path="url(#clip0_1558_1716)">
<path d="M73.9043 0C75.6508 1.3115 77.3782 2.64858 79.1567 3.9089C79.4702 4.13282 80.0491 4.19039 80.4298 4.07524C82.1443 3.56023 83.8365 2.97486 85.5254 2.37669C86.4595 2.04402 87.3168 2.00563 88.0781 2.73815C88.8874 3.51545 88.8298 4.41431 88.4779 5.38354C87.9373 6.88056 87.4863 8.40957 86.9041 9.89061C86.5618 10.7607 86.6066 11.4132 87.2336 12.1617C88.3052 13.4444 89.2424 14.8391 90.2564 16.1698C90.8354 16.9279 91.0753 17.7148 90.6211 18.6105C90.1669 19.4997 89.3864 19.8068 88.4427 19.794C86.6482 19.7652 84.8537 19.6757 83.0656 19.7332C82.573 19.7492 81.9396 20.0723 81.6389 20.4626C80.4906 21.9372 79.4446 23.495 78.3698 25.0272C77.842 25.7821 77.2118 26.4027 76.217 26.2651C75.1486 26.118 74.7936 25.2959 74.5313 24.3459C74.045 22.5833 73.5108 20.8272 72.8871 19.1095C72.7176 18.6456 72.2153 18.1466 71.7515 17.9739C70.0722 17.3565 68.3544 16.8479 66.6367 16.3457C65.6515 16.0578 64.8646 15.4629 64.9317 14.4744C64.9797 13.7515 65.4467 12.8815 66.0097 12.408C67.3436 11.2789 68.8182 10.3128 70.2833 9.35321C70.9358 8.92458 71.1565 8.44156 71.1214 7.68025C71.0478 6.12885 71.1374 4.56785 71.0318 3.01964C70.9422 1.69535 71.3357 0.697333 72.4712 0.00319877C72.9511 0.00319877 73.4277 0.00319877 73.9075 0.00319877L73.9043 0ZM71.6588 13.6844C75.1806 13.8571 76.9783 15.7252 77.1766 19.1511C78.2962 17.8651 79.0383 16.4257 80.2091 15.8339C81.3606 15.2518 82.944 15.5332 84.7066 15.4117C81.882 13.1598 81.5206 10.6199 83.4079 7.69625C81.7413 8.0865 80.3082 8.81582 79.0255 8.6111C77.746 8.40957 76.6169 7.27401 75.4461 6.56388C75.3278 7.97134 75.5805 9.53874 74.9919 10.6647C74.3841 11.8259 72.9575 12.5616 71.6588 13.6812V13.6844Z" fill="#4D7EDD"/>
<path d="M41.5772 49.0884C42.0794 50.3231 42.4729 51.6186 43.0998 52.7862C45.8252 57.8594 49.5582 62.165 53.5758 66.2338C57.5391 70.2451 61.7647 73.9525 66.6588 76.8026C68.1782 77.6854 69.8544 78.2996 71.4602 79.0353L71.8376 78.6483C71.5082 77.7078 71.3322 76.6682 70.8172 75.8429C69.0291 72.9768 67.129 70.1779 65.2546 67.3662C64.9251 66.8704 64.474 66.4545 64.1382 65.9619C63.5048 65.0311 63.684 63.8379 64.5092 63.1598C65.3057 62.5105 66.5501 62.4593 67.2314 63.2622C70.6893 67.3438 74.096 71.4798 75.6058 76.7642C75.8617 77.6598 75.8841 78.6611 75.8105 79.5983C75.7017 81.0154 74.8797 82.023 73.5746 82.6083C59.2537 89.0155 44.9296 95.4194 30.6086 101.833C25.2283 104.242 19.8704 106.698 14.4644 109.046C13.7543 109.356 12.7179 109.388 12.0046 109.11C10.9106 108.685 10.7475 107.492 11.3584 106.126C13.9686 100.314 16.5884 94.5046 19.205 88.6924C25.1579 75.4719 31.1108 62.2545 37.0606 49.034C37.2717 48.5606 37.4956 48.0936 37.6683 47.6042C38.4232 45.477 39.9427 44.3062 42.1402 44.7221C44.1043 45.0931 46.1547 45.6561 47.8468 46.6669C50.9464 48.519 53.8413 50.7262 56.765 52.863C57.8654 53.6658 57.9646 54.9965 57.1936 55.9114C56.4067 56.8486 55.2584 56.8614 54.1004 56.0649C51.02 53.9473 47.9396 51.8266 44.7984 49.8017C43.9667 49.2643 42.9111 49.0692 41.9579 48.7205L41.5644 49.0916L41.5772 49.0884ZM65.9135 81.3704C54.9577 74.5027 45.918 65.8116 39.1941 54.6799C39.0246 55.0093 38.8487 55.3132 38.7079 55.6299C37.5084 58.2785 36.344 60.9431 35.0997 63.5724C34.7447 64.321 34.8406 64.8424 35.2916 65.5109C40.1698 72.7529 45.0127 80.0205 49.8717 87.2754C50.086 87.5984 50.3291 87.9023 50.5914 88.2606C55.751 85.9383 60.8306 83.6543 65.9135 81.3672V81.3704ZM32.6463 69.0711C30.9029 72.9448 29.2332 76.601 27.6338 80.2892C27.4674 80.6731 27.5922 81.3 27.7937 81.7095C29.2588 84.6716 30.775 87.6112 32.2816 90.5541C33.0941 92.1407 33.913 93.7273 34.7638 95.3779C38.7591 93.5801 42.668 91.8208 46.6601 90.0263C41.9835 83.037 37.3836 76.1564 32.6463 69.0743V69.0711ZM30.8933 97.0508C28.9965 93.337 27.1156 89.6552 25.1291 85.7591C22.4742 91.6609 19.9279 97.3163 17.257 103.247C21.7768 101.216 25.9768 99.3283 30.18 97.4379C30.3943 97.3419 30.5958 97.2139 30.8965 97.0508H30.8933Z" fill="#4D7EDD"/>
<path d="M115.441 49.8465C113.006 48.9732 111.391 50.4543 110.15 52.7638C109.699 53.5987 109.101 54.3664 108.493 55.1021C107.217 56.6503 105.333 56.3208 104.693 54.4271C104.107 52.6934 103.65 50.9149 103.026 49.1939C102.857 48.7301 102.351 48.2343 101.884 48.0648C100.205 47.4506 98.4808 46.958 96.7631 46.443C95.845 46.1679 95.1989 45.6337 95.0325 44.6677C94.863 43.6889 95.3332 42.9915 96.1201 42.4477C97.4636 41.5169 98.7527 40.4997 100.144 39.652C101.062 39.0922 101.321 38.4205 101.257 37.4001C101.165 35.8902 101.238 34.3708 101.19 32.8546C101.155 31.7894 101.325 30.8522 102.387 30.3372C103.442 29.8254 104.293 30.2732 105.125 30.9162C106.417 31.9142 107.764 32.845 109.04 33.8654C109.603 34.3165 110.092 34.406 110.771 34.1533C112.411 33.5423 114.084 33.021 115.738 32.4452C116.675 32.1189 117.546 32.1285 118.278 32.8866C118.972 33.6031 118.988 34.422 118.668 35.3241C118.07 37.0098 117.466 38.6988 116.967 40.4165C116.839 40.8611 116.935 41.5233 117.194 41.9071C118.198 43.3914 119.302 44.8084 120.389 46.2351C120.968 46.9932 121.221 47.7865 120.773 48.6757C120.332 49.5586 119.574 49.8849 118.604 49.8465C117.689 49.8113 116.771 49.8401 115.441 49.8401V49.8465ZM101.801 43.5961C105.31 43.9384 107.092 45.8288 107.524 49.2707C108.915 46.0048 111.26 44.9428 114.663 45.6113C112.04 43.2634 111.669 40.7236 113.413 37.7072C110.419 39.3417 107.85 39.121 105.496 36.4532C106.225 39.9207 104.955 42.1598 101.804 43.5993L101.801 43.5961Z" fill="#4D7EDD"/>
<path d="M91.3664 109.552C90.6563 110.342 90.2501 111.045 89.6423 111.42C87.9118 112.478 86.0725 113.358 84.3323 114.401C83.7214 114.766 83.1456 115.325 82.7809 115.933C81.7541 117.635 80.8329 119.404 79.8924 121.157C79.4478 121.985 78.8528 122.577 77.858 122.577C76.8632 122.577 76.2586 121.995 75.8236 121.157C75.4014 120.344 74.8576 119.583 74.5281 118.738C73.3925 115.834 71.3613 113.886 68.476 112.75C67.6667 112.434 66.9214 111.947 66.1633 111.509C64.2984 110.431 64.2856 108.547 66.1473 107.504C67.8842 106.529 69.6692 105.643 71.3709 104.613C72.0075 104.226 72.5928 103.621 72.9831 102.981C73.9939 101.315 74.8959 99.581 75.814 97.86C76.2618 97.022 76.8696 96.4846 77.8644 96.4622C78.8816 96.4398 79.4542 97.0252 79.9052 97.8504C81.0536 99.9424 81.8725 102.374 83.4942 104.002C85.0872 105.598 87.5439 106.308 89.5463 107.533C90.2117 107.939 90.6435 108.729 91.3696 109.555L91.3664 109.552ZM84.6298 109.635C82.9665 108.662 81.4182 108.099 80.3659 107.044C79.2847 105.956 78.6865 104.386 77.7301 102.783C76.7001 106.183 74.4545 108.256 71.1854 109.414C72.788 110.361 74.333 110.933 75.3918 111.992C76.457 113.057 77.0359 114.609 77.9956 116.227C79.0703 112.802 81.1879 110.69 84.6298 109.632V109.635Z" fill="#4D7EDD"/>
<path d="M12.9297 48.9828C12.226 48.327 11.5031 47.8856 11.1096 47.2459C10.0316 45.4833 9.12319 43.6153 8.07399 41.8303C7.77011 41.3153 7.29669 40.8227 6.78169 40.5188C5.06715 39.5112 3.31102 38.5708 1.5485 37.6495C0.630449 37.1697 -0.0157034 36.5236 0.000290435 35.4424C0.0162843 34.4476 0.668834 33.9038 1.49092 33.4559C3.55413 32.3396 5.94041 31.5271 7.5398 29.9341C9.1104 28.3699 9.8781 25.9964 10.9817 23.9684C11.4487 23.1079 12.0533 22.5001 13.1089 22.4938C14.1964 22.4842 14.7338 23.1783 15.1881 24.0228C16.1541 25.8077 17.1073 27.6022 18.1245 29.3551C18.3868 29.8061 18.8123 30.2284 19.2633 30.4907C21.0514 31.5303 22.8715 32.5155 24.7012 33.4879C25.5425 33.9358 26.0991 34.5531 26.1247 35.5288C26.1503 36.5268 25.5873 37.1505 24.7332 37.5696C24.3749 37.7455 24.0487 37.9886 23.6808 38.1294C19.7911 39.6072 17.1265 42.291 15.6487 46.1775C15.4536 46.6925 15.1945 47.2331 14.817 47.6169C14.35 48.0935 13.7294 48.4198 12.9265 48.9828H12.9297ZM13.0609 29.016C11.8837 32.3268 9.635 34.31 6.36905 35.4392C7.95884 36.37 9.50704 36.933 10.569 37.9886C11.6406 39.0538 12.2292 40.6052 13.0833 42.0287C13.9469 40.5732 14.5195 39.0346 15.5783 37.9854C16.6403 36.933 18.1885 36.37 19.7879 35.436C16.49 34.3132 14.2444 32.2852 13.0609 29.016Z" fill="#4D7EDD"/>
<path d="M98.0391 12.9454C98.0551 7.42116 102.508 3.01005 108.042 3.03884C113.576 3.06763 117.987 7.50432 117.974 13.0286C117.961 18.5081 113.451 22.9864 107.962 22.9672C102.473 22.948 98.0231 18.4537 98.0391 12.9486V12.9454ZM107.984 18.7512C111.189 18.7576 113.79 16.1858 113.799 12.9966C113.809 9.82983 111.189 7.20044 108.013 7.19404C104.84 7.18764 102.204 9.80424 102.194 12.9678C102.185 16.141 104.789 18.7416 107.984 18.748V18.7512Z" fill="#4D7EDD"/>
<path d="M97.7883 24.7233C97.6284 28.4947 94.3369 32.1189 90.4439 32.8002C89.8938 32.8962 89.3372 32.9538 88.787 33.0273C86.7749 33.3024 85.0924 34.8378 84.6446 36.8211C84.5486 37.2465 84.475 37.6816 84.4111 38.1134C83.5634 43.7688 80.9948 46.3438 75.2786 47.1723C73.2697 47.4634 71.584 48.1927 70.6883 50.1344C70.426 50.7006 70.3237 51.3435 70.1957 51.9641C69.9142 53.3236 68.9962 54.0593 67.7678 53.8833C66.6003 53.717 65.8742 52.6486 66.0181 51.3147C66.4499 47.3386 69.3736 44.1303 73.3145 43.3082C73.6248 43.2442 73.9383 43.1706 74.2518 43.1195C78.0935 42.4733 79.6929 40.8643 80.339 36.997C81.1259 32.2852 84.1488 29.3647 88.8286 28.7954C91.6115 28.4563 92.9198 27.1832 93.6427 24.4418C93.8283 23.7317 94.4232 22.8872 95.0566 22.5897C96.448 21.934 97.8587 23.1367 97.7915 24.7297L97.7883 24.7233Z" fill="#4D7EDD"/>
<path d="M63.9842 30.0077C63.8435 34.5851 62.7495 38.8619 61.3517 43.0747C60.8878 44.4725 59.7907 45.1027 58.6135 44.7156C57.4492 44.3318 56.9214 43.1642 57.3788 41.776C58.911 37.1282 60.0082 32.4196 59.8098 27.4743C59.7587 26.2299 60.6319 25.3951 61.7707 25.3407C62.9766 25.2831 63.8659 26.0508 63.9715 27.3655C64.045 28.2771 63.9874 29.1984 63.9874 30.0077H63.9842Z" fill="#4D7EDD"/>
<path d="M62.3159 18.3674C62.2168 19.5317 61.6954 20.2451 60.7006 20.501C59.6865 20.7601 58.8677 20.3474 58.3942 19.4454C58.0296 18.7448 57.8345 17.9579 57.5338 17.2222C56.0272 13.5372 53.9607 10.2041 51.245 7.28363C51.0818 7.10769 50.9155 6.93496 50.762 6.75263C49.8567 5.68424 49.8471 4.4911 50.7364 3.66261C51.6224 2.83733 52.8476 2.9173 53.8136 3.90572C56.3022 6.46474 58.3783 9.33404 59.9712 12.5264C60.7517 14.0874 61.3659 15.7348 62.0377 17.3502C62.188 17.7116 62.2488 18.1115 62.3191 18.3674H62.3159Z" fill="#4D7EDD"/>
<path d="M101.324 23C101.513 23.0544 101.9 23.1408 102.274 23.2719C107.232 24.9928 111.633 27.6478 115.466 31.2337C116.668 32.3596 116.812 33.5496 115.869 34.5668C114.995 35.5104 113.831 35.4368 112.628 34.3109C109.148 31.0449 105.14 28.6778 100.642 27.104C99.3918 26.6658 98.8448 25.7606 99.0591 24.657C99.2414 23.7069 100.127 22.9968 101.327 23H101.324Z" fill="#4D7EDD"/>
<path d="M87.4291 55.0062C88.0273 55.0062 88.6254 54.9903 89.2204 55.0094C90.6215 55.0574 91.4947 55.8571 91.5075 57.0759C91.5203 58.3138 90.6822 59.171 89.262 59.1615C85.6538 59.1359 82.1223 59.6349 78.6389 60.5337C77.3306 60.8696 76.0383 61.2631 74.7364 61.6245C73.4824 61.9732 72.4844 61.5126 72.1294 60.4282C71.7455 59.251 72.2253 58.157 73.4441 57.7412C77.9799 56.1898 82.5989 55.0446 87.4291 55.0062Z" fill="#4D7EDD"/>
<path d="M61.0414 57.466C62.1482 57.4852 63.0886 58.416 63.1046 59.5132C63.1206 60.668 62.1545 61.6116 60.971 61.5924C59.8386 61.5764 58.927 60.6744 58.9142 59.558C58.9014 58.4 59.8706 57.4468 61.0414 57.466Z" fill="#4D7EDD"/>
</g>
<defs>
<clipPath id="clip0_1558_1716">
<rect width="121" height="122.58" fill="white"/>
</clipPath>
</defs>
</svg>
