<svg width="116" height="116" viewBox="0 0 116 116" fill="none" xmlns="http://www.w3.org/2000/svg">
<path d="M1.00049 42.45C1.61049 41.78 2.24052 41.11 3.28052 41.54C4.31052 41.96 4.37048 42.84 4.37048 43.78C4.37048 60.03 4.37048 76.27 4.37048 92.52C4.37048 94.88 4.84049 95.35 7.19049 95.35C41.4005 95.35 75.6205 95.35 109.831 95.35C112.171 95.35 112.63 94.87 112.63 92.5C112.63 71.54 112.63 50.58 112.63 29.61C112.63 27.33 112.14 26.85 109.86 26.84C107.81 26.84 105.76 26.84 103.62 26.84V30.21C104.74 30.21 105.851 30.2 106.961 30.21C108.701 30.23 109.26 30.78 109.26 32.49C109.26 51.54 109.26 70.6 109.26 89.65C109.26 91.39 108.72 91.95 107 91.97C105.35 91.99 103.71 92 102.06 91.97C100.72 91.94 100.01 91.3 100.04 90.24C100.07 89.22 100.75 88.65 102.06 88.62C103.29 88.59 104.521 88.62 105.831 88.62V33.64C104.271 33.76 102.75 33.15 101.23 34.46C100.33 35.24 98.8705 35.4901 97.6105 35.6801C96.2905 35.8801 94.9205 35.76 93.5705 35.71C92.9005 35.69 92.5205 35.85 92.1805 36.5C91.3905 38.01 90.1705 39.1201 88.4905 39.5601C87.7805 39.7501 87.5605 40.07 87.5705 40.8C87.6105 44.73 87.5905 48.66 87.5905 52.59C87.5905 54.77 87.1205 55.24 84.9705 55.24C82.9905 55.24 81.0005 55.27 79.0205 55.23C77.6505 55.21 76.8805 54.3501 77.1305 53.1801C77.3405 52.2201 78.0305 51.87 78.9505 51.87C80.6605 51.87 82.3705 51.87 84.1305 51.87C84.1705 51.45 84.2105 51.16 84.2205 50.87C84.2205 47.5 84.2205 44.13 84.2305 40.76C84.2305 40.12 84.1105 39.7499 83.4005 39.5699C81.6305 39.1199 80.4505 37.92 79.5105 36.39C79.3105 36.06 78.8105 35.75 78.4305 35.74C76.9005 35.67 75.3605 35.71 73.8305 35.71C72.1905 35.71 70.7705 35.1801 69.5405 34.0601C69.2505 33.7901 68.7605 33.6 68.3605 33.6C64.9505 33.56 61.5505 33.58 58.1405 33.58C57.6405 33.58 57.2705 33.58 57.1005 34.27C56.3605 37.26 54.2705 38.85 51.1605 38.86C46.4805 38.88 41.8005 38.86 37.1205 38.86C36.7105 38.86 36.3005 38.86 35.8005 38.86V72.36C36.8905 72.36 38.0205 72.24 39.1105 72.41C39.7205 72.5 40.4005 72.97 40.7605 73.48C40.9905 73.8 40.8505 74.62 40.5705 75C40.2905 75.38 39.6505 75.6699 39.1505 75.6899C37.5105 75.7699 35.8605 75.75 34.2105 75.72C33.0105 75.7 32.4405 75.1299 32.3405 73.9399C32.3105 73.5699 32.3305 73.1899 32.3305 72.8199C32.3305 61.9999 32.3305 51.18 32.3305 40.37C32.3305 39.89 32.3305 39.42 32.3305 38.87C28.0005 38.87 23.8105 38.88 19.6205 38.86C18.7705 38.86 17.8805 38.82 17.0705 38.58C15.1905 38.03 13.9305 36.76 13.3105 34.89C12.9905 33.93 12.2705 33.5366 11.1505 33.71V88.62C11.6905 88.62 12.1905 88.62 12.7005 88.62C39.5005 88.62 66.3005 88.62 93.1005 88.62C93.6205 88.62 94.1505 88.6199 94.6705 88.7C95.5805 88.8299 96.0505 89.42 96.0505 90.33C96.0505 91.24 95.5505 91.8001 94.6405 91.9301C94.2305 91.9901 93.8205 92 93.4105 92C65.7505 92 38.0905 92 10.4205 92C8.15047 92 7.73047 91.5799 7.73047 89.3199C7.73047 70.5299 7.73047 51.74 7.73047 32.95C7.73047 30.64 8.14049 30.24 10.5005 30.23C11.2805 30.23 12.0605 30.23 12.9205 30.23V26.96C10.5305 26.96 8.15052 26.88 5.78052 27C4.72052 27.05 4.37048 27.99 4.37048 28.98C4.37048 31.19 4.39047 33.4 4.36047 35.61C4.34047 37.09 3.17051 37.99 2.02051 37.41C1.62051 37.2 1.34049 36.75 1.00049 36.42C1.00049 33.5 1.00049 30.58 1.00049 27.66C1.07049 27.53 1.17051 27.42 1.21051 27.28C2.00051 24.93 3.63047 23.66 6.11047 23.53C7.23047 23.47 8.36047 23.5 9.48047 23.5C10.6205 23.5 11.7705 23.5 13.0105 23.5C13.0105 22.88 13.0105 22.43 13.0105 21.99C13.0105 17.95 13.0005 13.9 13.0105 9.85999C13.0305 5.67999 15.3105 3.40002 19.4705 3.40002C29.9105 3.40002 40.3605 3.40002 50.8005 3.40002C54.9505 3.40002 57.2405 5.69 57.2505 9.87C57.2605 13.95 57.2505 18.03 57.2505 22.11C57.2505 22.54 57.2505 22.97 57.2505 23.41H67.8005C67.8005 22.88 67.8005 22.43 67.8005 21.99C67.8005 16.79 67.8005 11.58 67.8005 6.38C67.8005 4.33 68.3405 2.51001 70.0605 1.26001C70.7705 0.75001 71.6205 0.430029 72.4105 0.0300293C81.2405 0.0300293 90.0805 0.0300293 98.9105 0.0300293C102.47 1.22003 103.66 3.79001 103.55 7.39001C103.4 12.29 103.51 17.2 103.51 22.1C103.51 22.53 103.51 22.96 103.51 23.5C105.89 23.5 108.1 23.5 110.3 23.5C112.12 23.5 113.721 24 114.831 25.51C115.301 26.16 115.6 26.94 115.98 27.66V94.59C114.91 97.75 112.64 98.8 109.41 98.78C96.8805 98.7 84.3405 98.75 71.8105 98.75H70.3405V104.93C72.0005 104.93 73.6005 104.93 75.2005 104.93C79.2805 104.93 83.3605 104.9 87.4305 104.95C89.9405 104.98 91.9905 106.7 92.4005 109.01C92.8405 111.49 91.6005 113.73 89.2505 114.7C89.0205 114.79 88.8105 114.93 88.5905 115.05H28.3905C27.5505 114.53 26.5805 114.13 25.9005 113.45C24.3805 111.93 24.0805 110.02 24.8905 108.06C25.7505 105.99 27.4305 104.96 29.6605 104.95C34.9005 104.92 40.1405 104.95 45.3705 104.95C45.7705 104.95 46.1705 104.95 46.5905 104.95V98.77C46.0105 98.77 45.5305 98.77 45.0405 98.77C32.3605 98.77 19.6705 98.77 6.99048 98.77C5.29048 98.77 3.66049 98.53 2.50049 97.17C1.87049 96.42 1.48047 95.47 0.980469 94.61C0.980469 77.24 0.980469 59.87 0.980469 42.5L1.00049 42.45ZM35.0805 35.49C40.3205 35.49 45.5505 35.49 50.7905 35.49C53.0405 35.49 53.8805 34.69 53.8905 32.48C53.9005 24.89 53.9005 17.29 53.8905 9.69995C53.8905 7.56995 53.0205 6.73999 50.8605 6.73999C40.3905 6.73999 29.9105 6.73999 19.4405 6.73999C17.2405 6.73999 16.4005 7.57005 16.4005 9.80005C16.4005 17.36 16.3905 24.91 16.4005 32.47C16.4005 34.68 17.2505 35.48 19.4905 35.49C24.6905 35.49 29.8905 35.49 35.0905 35.49H35.0805ZM78.8105 32.3101C78.8905 31.9601 78.8705 31.61 79.0405 31.4C79.9805 30.22 79.1805 29.51 78.3905 28.79C78.1405 28.56 77.8705 28.36 77.6105 28.15C73.2105 24.49 71.7605 18.04 74.1605 12.74C76.5805 7.38999 82.1905 4.29998 87.9005 5.22998C88.8905 5.38998 89.8605 5.70997 90.7905 6.08997C91.6205 6.42997 91.9405 7.19004 91.6605 8.04004C91.3705 8.93004 90.6805 9.35004 89.7305 9.17004C89.1805 9.07004 88.6505 8.85998 88.1105 8.72998C85.9605 8.22998 83.8605 8.38 81.8805 9.38C75.3605 12.67 74.4805 21.14 80.0605 25.85C81.1305 26.76 81.8405 28.1 82.7505 29.21C82.9505 29.46 83.2805 29.74 83.5705 29.75C85.1005 29.8 86.6405 29.81 88.1705 29.75C88.5005 29.73 88.8705 29.37 89.1105 29.08C89.8705 28.13 90.4105 26.9 91.3505 26.21C95.3805 23.21 96.6205 17.67 94.1705 13.25C93.9405 12.83 93.7505 12.16 93.9205 11.79C94.1505 11.29 94.7005 10.77 95.2205 10.6C96.0805 10.32 96.6805 10.91 97.1005 11.65C100.24 17.15 98.9205 24.3 94.0105 28.3C92.9005 29.21 91.6805 30.05 92.8505 31.73C92.9505 31.87 92.9405 32.08 93.0005 32.35C94.3605 32.35 95.7005 32.35 97.0405 32.35C99.3405 32.35 100.16 31.55 100.16 29.25C100.16 21.65 100.16 14.05 100.16 6.45996C100.16 4.17996 99.3205 3.38 97.0205 3.38C89.5305 3.38 82.0505 3.38 74.5605 3.38C71.8905 3.38 71.1905 4.09005 71.1905 6.80005C71.1905 14.17 71.1905 21.55 71.1905 28.92C71.1905 29.33 71.1905 29.74 71.2405 30.15C71.3905 31.37 72.1105 32.23 73.3005 32.29C75.1205 32.39 76.9505 32.3199 78.8005 32.3199L78.8105 32.3101ZM58.3905 111.63C67.7405 111.63 77.1005 111.63 86.4505 111.63C88.3105 111.63 89.1005 111.14 89.1105 109.97C89.1305 108.79 88.3305 108.26 86.5005 108.26C67.8305 108.26 49.1605 108.26 30.4805 108.26C30.2205 108.26 29.9605 108.25 29.6905 108.26C28.5505 108.32 27.8505 108.98 27.8705 109.97C27.8805 110.95 28.5905 111.57 29.7505 111.62C30.0505 111.63 30.3505 111.62 30.6505 111.62C39.8905 111.62 49.1405 111.62 58.3805 111.62L58.3905 111.63ZM66.8805 98.83H50.1805V104.83H66.8805V98.83ZM57.3305 30.11H67.7305V26.9301H57.3305V30.11ZM89.5305 33.24H82.3105C82.2805 35.36 83.4105 36.43 85.6305 36.5C88.2005 36.57 89.4105 35.62 89.5305 33.24Z" fill="#4D7EDD"/>
<path d="M42.3094 72.91C42.5894 72.3 42.9894 71.23 43.5594 70.25C44.3094 68.94 43.5594 67 42.0794 66.74C40.6594 66.49 39.4294 65.96 38.5494 64.78C36.4194 61.92 38.0394 58.06 41.7394 57.35C42.7494 57.16 43.2094 56.7 43.6594 55.82C44.2294 54.72 43.7394 54.03 43.2094 53.2C41.9194 51.17 42.1494 48.82 43.7494 47.23C45.3394 45.64 47.7794 45.28 49.6894 46.74C51.0094 47.75 52.0094 47.32 53.1294 46.74C53.3794 46.61 53.5694 46.27 53.6694 45.99C53.8494 45.46 53.8994 44.89 54.0694 44.36C54.6994 42.41 56.5594 41.09 58.5794 41.12C60.5694 41.15 62.3394 42.47 62.9594 44.39C63.0494 44.67 63.1294 44.97 63.1894 45.26C63.6094 47.23 65.3395 47.96 67.0295 46.86C69.2595 45.42 71.6194 45.58 73.2894 47.26C74.9294 48.92 75.0694 51.2501 73.6794 53.4301C72.5494 55.1901 73.2494 56.87 75.3094 57.32C77.7994 57.87 79.3794 59.67 79.3894 61.98C79.3894 64.29 77.8195 66.11 75.3395 66.66C73.9895 66.96 73.1394 67.8201 73.0394 69.1801C73.0094 69.5601 73.3194 69.99 73.5594 70.35C74.3094 71.47 74.8194 72.65 74.6094 74.03C74.0594 77.63 70.3094 79.25 67.1694 77.19C66.3194 76.63 65.6494 76.41 64.6394 76.86C63.7394 77.26 63.3494 77.76 63.1794 78.71C62.7094 81.29 60.8594 82.88 58.4994 82.87C56.1494 82.87 54.3594 81.2601 53.8194 78.6801C53.4294 76.8001 51.6294 76.03 50.0394 77.1C48.3794 78.22 46.6694 78.4901 44.8594 77.5501C43.2194 76.6901 42.4894 75.24 42.3294 72.9L42.3094 72.91ZM71.2594 50.8001C71.2894 49.7001 70.3994 49.02 69.5794 49.32C69.1694 49.47 68.7494 49.7 68.4294 50C67.0394 51.28 65.5694 51.46 63.9594 50.45C63.7994 50.35 63.6094 50.31 63.4394 50.24C59.9394 48.75 60.6194 49.36 59.8694 45.95C59.8494 45.84 59.8694 45.68 59.8094 45.63C59.3694 45.25 58.9194 44.62 58.4494 44.59C58.0594 44.56 57.4494 45.17 57.2394 45.63C56.9394 46.29 57.0194 47.1301 56.7194 47.7901C56.4394 48.4101 55.9894 49.0901 55.4194 49.4201C54.2894 50.0601 53.0594 50.5701 51.8094 50.9301C51.1794 51.1101 50.3694 50.96 49.7294 50.72C49.0494 50.46 48.4794 49.91 47.8494 49.51C47.2394 49.12 46.5294 49.08 46.1594 49.7C45.8994 50.12 45.8695 50.8301 46.0295 51.3101C46.2295 51.9301 46.6994 52.47 47.1094 53C47.7594 53.83 47.8394 54.67 47.3494 55.6C47.1394 55.99 46.9494 56.41 46.8394 56.84C46.2494 59.18 44.9394 60.65 42.3694 60.65C42.2994 60.65 42.1894 60.65 42.1494 60.69C41.7594 61.13 41.0795 61.59 41.0895 62.03C41.0895 62.47 41.7194 63.0601 42.2094 63.2901C42.8694 63.6001 43.7094 63.5201 44.3694 63.8101C44.9594 64.0701 45.6094 64.52 45.9094 65.07C46.5494 66.24 47.0694 67.5101 47.4494 68.7901C47.6194 69.3801 47.4694 70.16 47.2294 70.76C46.9394 71.47 46.2694 72.04 46.0094 72.75C45.8394 73.21 45.8994 74.02 46.2094 74.32C46.5194 74.62 47.2894 74.61 47.7994 74.49C48.2794 74.38 48.7194 74 49.1094 73.65C50.1694 72.72 51.2794 72.5901 52.4994 73.3001C52.7894 73.4701 53.1194 73.56 53.4294 73.69C57.1294 75.26 56.3894 74.58 57.1594 78.1C57.1794 78.17 57.1594 78.28 57.1994 78.32C57.6294 78.72 58.0694 79.41 58.5094 79.41C58.9494 79.41 59.5494 78.8001 59.7894 78.3101C60.0994 77.7001 60.1494 76.94 60.2394 76.24C60.3494 75.36 60.8194 74.83 61.6294 74.51C62.8394 74.03 64.0194 73.4101 65.2594 73.0501C65.8594 72.8801 66.6394 73.01 67.2394 73.25C67.9494 73.54 68.5194 74.2 69.2294 74.47C69.6894 74.65 70.4994 74.6001 70.8094 74.3001C71.1194 74.0001 71.1394 73.22 71.0194 72.72C70.8994 72.21 70.4894 71.7301 70.1294 71.3101C69.2194 70.2701 69.1494 69.19 69.8094 68.01C69.9594 67.75 70.0894 67.47 70.1594 67.19C70.7294 64.78 72.0794 63.3401 74.7094 63.3001C75.4494 63.2901 75.9894 62.8 75.9994 62.01C76.0094 61.15 75.4394 60.79 74.6594 60.62C71.1094 59.86 71.7794 60.6201 70.1894 56.8101C70.1594 56.7401 70.1494 56.66 70.1094 56.6C69.0894 54.97 69.1895 53.46 70.5295 52.02C70.8995 51.63 71.0995 51.08 71.2795 50.77L71.2594 50.8001Z" fill="#4D7EDD"/>
<path d="M35.0795 22.2601C30.7795 22.2601 26.4795 22.28 22.1795 22.23C21.5995 22.23 20.8896 22.0201 20.4596 21.6601C19.6296 20.9401 19.9895 19.48 21.0495 19.09C21.5195 18.92 22.0696 18.9001 22.5896 18.9001C30.9696 18.8901 39.3495 18.9001 47.7195 18.9001C47.9395 18.9001 48.1695 18.8901 48.3895 18.9001C49.5595 18.9801 50.2495 19.6 50.2595 20.58C50.2695 21.61 49.5595 22.2601 48.3195 22.2601C44.2095 22.2801 40.0895 22.2601 35.9795 22.2601C35.6795 22.2601 35.3795 22.2601 35.0795 22.2601Z" fill="#4D7EDD"/>
<path d="M35.15 29C30.92 29 26.6999 29 22.4699 29C22.0999 29 21.7099 29.02 21.3499 28.95C20.5799 28.78 20.0999 28.29 20.0399 27.48C19.9799 26.68 20.32 26.0699 21.08 25.8199C21.53 25.6699 22.03 25.64 22.51 25.64C30.93 25.64 39.34 25.64 47.76 25.64C48.17 25.64 48.5899 25.64 48.9799 25.74C49.8599 25.96 50.31 26.56 50.24 27.47C50.17 28.38 49.6199 28.88 48.7199 28.98C48.2799 29.03 47.82 29.01 47.37 29.01C43.29 29.01 39.22 29.01 35.14 29.01L35.15 29Z" fill="#4D7EDD"/>
<path d="M28.2394 15.52C26.1894 15.52 24.1294 15.52 22.0794 15.52C20.7494 15.52 20.0194 14.9 20.0294 13.84C20.0294 12.8 20.7794 12.16 22.1094 12.16C26.2194 12.14 30.3194 12.14 34.4294 12.16C35.7394 12.16 36.4994 12.83 36.4994 13.87C36.4994 14.89 35.7293 15.52 34.4093 15.52C32.3593 15.53 30.2994 15.52 28.2494 15.52H28.2394Z" fill="#4D7EDD"/>
<path d="M66.4101 62.05C66.3701 66.44 62.8202 69.94 58.4402 69.9C54.0502 69.86 50.5502 66.31 50.5902 61.93C50.6302 57.54 54.1802 54.0399 58.5602 54.0799C62.9502 54.1199 66.4501 57.67 66.4101 62.05ZM63.0401 61.9399C63.0201 59.3999 61.0002 57.4299 58.4502 57.4499C55.9102 57.4699 53.9402 59.49 53.9602 62.04C53.9802 64.58 56.0001 66.55 58.5501 66.53C61.0901 66.51 63.0601 64.4899 63.0401 61.9399Z" fill="#4D7EDD"/>
</svg>
