<svg width="1384" height="506" viewBox="0 0 1384 506" fill="none" xmlns="http://www.w3.org/2000/svg">
<g clip-path="url(#clip0_765_60)">
<path opacity="0.5" d="M1307.74 500.22C1284.34 500.01 1259 470.69 1259.44 447.37C1259.93 421.43 1288.93 411.1 1296.83 389.03C1304.48 367.64 1293.17 340.61 1299.42 317.88C1306.78 291.14 1328.48 285.41 1348.99 305.82C1397.92 354.55 1395.34 473.06 1320.92 498.02C1316.68 499.487 1312.23 500.231 1307.74 500.22Z" fill="#F5A216"/>
<path d="M1335.32 62.99C1272.05 18.58 1184.15 0.730001 1104.21 1.52C1012.09 3.52 919.73 5.26 827.16 13.08C677 25.78 526.31 47.58 376.25 28.77C282.63 17.03 193.07 -3.92 104.41 34.77C34.41 65.38 1.60995 144.32 32.3 207.92C44.21 232.6 56.11 258 60.92 284.1C66.46 321.42 48.7 364.63 66.57 399.99C82.17 430.86 118.57 447.61 152.68 459.09C233.83 486.19 311.54 487.85 398.27 481.39C473.49 475.78 543.75 448.78 618.09 439.66C721.09 427.01 830.79 416.02 933.61 436.12C1049.13 458.69 1182.86 502.33 1291.4 436.63C1341.15 406.52 1335.11 369.07 1338.53 322.18C1341.1 286.74 1364.39 256.72 1374.83 223.18C1390.23 173.75 1381.05 101.34 1335.32 62.99Z" stroke="#02546F" stroke-width="3" stroke-miterlimit="10"/>
<path opacity="0.5" d="M1324.14 412.72C1281.34 390.56 1202.99 413.6 1193.43 464.8C1188.35 491.99 1214.36 517.38 1237.89 499.51C1247.04 492.56 1250.13 484.81 1261.39 479.98C1272.65 475.15 1283.93 475.98 1295.29 472.51C1314.29 466.73 1366.76 427.41 1324.14 412.72Z" fill="#20A537"/>
<path opacity="0.5" d="M103.5 2.07999C85.93 5.66999 68.34 13.93 55.5 22.59C25.63 42.74 13.9 100.58 23.69 134.44C34.48 171.76 60.04 162.19 77.44 138.29C87.78 124.1 95.05 107.29 106.89 94.45C118.26 82.13 134.13 76.59 146.49 65.72C171.49 43.72 169.93 10.61 135.49 1.89999C125.59 -0.600006 114.55 -0.180006 103.5 2.07999Z" fill="#5DBFC8"/>
<path opacity="0.5" d="M57.14 124.44C11.28 102.95 -8.64001 177.79 3.47999 212C26.38 276.58 68.72 201.58 83.68 174.58C98.52 147.85 87.28 118.25 57.14 124.44Z" fill="#F19BC2"/>
</g>
<defs>
<clipPath id="clip0_765_60">
<rect width="1383.23" height="505.48" fill="white"/>
</clipPath>
</defs>
</svg>
