<svg width="1139" height="248" viewBox="0 0 1139 248" fill="none" xmlns="http://www.w3.org/2000/svg">
<g clip-path="url(#clip0_642_9)">
<path d="M53.1467 64.5538C18.8638 87.9066 26.9284 116.005 47.0411 142.16C53.9874 151.191 53.5956 161.555 54.0038 172.032C55.7995 218.17 102.783 230.315 145.759 239.36C242.07 259.634 333.662 235.011 426.234 214.695C452.795 208.863 479.83 204.408 507.183 202.756C588.76 197.84 677.797 216.858 757.554 229.904C805.485 237.742 853.913 247.567 903.011 246.17C939.017 245.148 992.09 236.508 1016.71 211.211C1029.65 197.911 1027.38 187.022 1033.4 171.997C1038.32 159.689 1044.4 156.397 1057.45 152.255C1074.61 146.8 1095.69 145.721 1102.33 128.554C1111.5 104.875 1098.82 71.7895 1080.07 55.2963C1042.22 21.9979 985.804 7.21442 934.886 2.70984C881.021 -2.05721 826.373 4.4762 772.916 10.3854C690.041 19.5364 611.158 34.6959 527.491 31.7307C474.508 29.8508 422.055 20.8487 369.594 20.267C308.554 19.5931 252.404 17.7771 191.584 27.1339C146.323 34.0929 97.4532 39.5126 57.9708 61.5744C56.3056 62.5037 54.6976 63.4968 53.1385 64.5609L53.1467 64.5538Z" stroke="#02546F" stroke-width="3" stroke-miterlimit="10"/>
<path opacity="0.5" d="M1041.67 126.355C1005.17 134.144 978.711 166.3 984.8 199.294C987.976 216.461 996.318 231.507 1017.69 234.742C1038.94 237.962 1039.57 223.931 1045.31 210.169C1054.71 187.632 1092.67 197.513 1107.21 178.7C1116.36 166.854 1109.04 149.651 1098.86 140.16C1091.68 133.456 1081.7 128.604 1071.53 126.263C1061.52 123.965 1051.45 124.27 1041.66 126.355H1041.67Z" fill="#F5A216"/>
<path opacity="0.5" d="M28.2181 49.9476C21.7044 55.3673 18.7005 60.34 15.1988 67.9517C4.10581 92.0778 -19.1984 146.722 30.7893 148.821C59.3747 150.02 55.522 121.794 71.0146 106.918C84.793 93.6881 112.407 75.684 101.404 53.2817C95.135 40.527 81.6096 34.6817 66.0925 35.5542C52.3549 36.3204 40.1273 40.6689 29.867 48.6281C29.2956 49.0751 28.7487 49.5149 28.2181 49.9476Z" fill="#5DBFC8"/>
<path opacity="0.5" d="M86.2052 159.654C94.1719 148.14 91.1435 133.818 80.9974 124.745C71.5207 116.261 58.6891 114.821 46.0615 118.786C41.4497 120.233 37.3684 125.44 34.1278 128.561C26.2101 136.187 19.329 144.82 18.3659 155.362C17.7863 161.689 19.4596 168.372 22.9287 173.969C24.8796 177.119 28.1855 180.651 31.1566 183.141C40.1273 190.654 55.22 185.865 63.0071 179.885C70.6962 173.99 80.8423 167.4 86.2052 159.654Z" fill="#F19BC2"/>
<path opacity="0.5" d="M1136.51 109.663C1131.25 97.8451 1109.99 84.7144 1094.55 88.3181C1079.12 91.9217 1085.58 111.948 1072.62 117.637C1066.52 120.318 1059.91 118.169 1053.71 119.63C1040.84 122.652 1046.17 134.669 1051.01 141.813C1057.47 151.354 1067.88 158.348 1081.27 157.086C1085.99 156.639 1123.19 146.09 1126.64 144.161C1139.17 137.145 1141.59 121.063 1136.51 109.656V109.663Z" fill="#20A537"/>
</g>
<defs>
<clipPath id="clip0_642_9">
<rect width="1139" height="248" fill="white"/>
</clipPath>
</defs>
</svg>
