<svg width="141" height="107" viewBox="0 0 141 107" fill="none" xmlns="http://www.w3.org/2000/svg">
<g id="Logo healthy cities bn 1" clip-path="url(#clip0_72_144)">
<g id="Capa 2">
<g id="Layer 1">
<path id="Vector" d="M13.9856 71.4661H13.2111V90.8126H13.9856V71.4661Z" fill="white"/>
<path id="Vector_2" d="M37.7366 28.9111H27.3125V29.6864H37.7366V28.9111Z" fill="white"/>
<path id="Vector_3" d="M78.8321 18.9843H78.0575V29.4183H78.8321V18.9843Z" fill="white"/>
<path id="Vector_4" d="M35.6662 102.232H34.3198V106.899H33.5235V102.232H32.5752V101.87L33.5235 101.58V101.29C33.5235 99.9859 34.0881 99.3411 35.2246 99.3411C35.5593 99.3473 35.8911 99.4035 36.2091 99.5077L35.9992 100.145C35.7444 100.06 35.4787 100.011 35.2102 100C35.0822 99.9908 34.9539 100.013 34.8365 100.065C34.7191 100.117 34.6162 100.197 34.5369 100.298C34.3696 100.592 34.294 100.93 34.3198 101.268V101.609H35.6662V102.232Z" fill="white"/>
<path id="Vector_5" d="M41.5877 104.254C41.6339 104.986 41.4011 105.708 40.9362 106.275C40.7071 106.519 40.428 106.71 40.118 106.835C39.8081 106.96 39.4747 107.017 39.1409 107C38.698 107.011 38.2612 106.895 37.8813 106.667C37.5096 106.44 37.2146 106.107 37.0344 105.71C36.8236 105.257 36.7196 104.761 36.7303 104.261C36.6859 103.531 36.9187 102.812 37.3818 102.247C37.6079 102.001 37.8855 101.809 38.1947 101.684C38.5038 101.558 38.8369 101.503 39.1699 101.522C39.4995 101.505 39.8289 101.56 40.1344 101.686C40.4398 101.811 40.7137 102.003 40.9362 102.247C41.3976 102.81 41.6302 103.527 41.5877 104.254ZM37.5628 104.254C37.528 104.799 37.6702 105.34 37.9682 105.797C38.1092 105.976 38.2917 106.118 38.4998 106.21C38.708 106.302 38.9355 106.342 39.1626 106.326C39.3892 106.338 39.6153 106.296 39.8228 106.204C40.0303 106.112 40.2133 105.973 40.357 105.797C40.6229 105.328 40.7626 104.797 40.7626 104.257C40.7626 103.718 40.6229 103.187 40.357 102.718C40.2111 102.541 40.0254 102.402 39.8153 102.311C39.6051 102.221 39.3765 102.181 39.1481 102.196C38.924 102.184 38.7 102.224 38.4939 102.313C38.2879 102.402 38.1054 102.538 37.9609 102.71C37.6635 103.168 37.5237 103.71 37.5628 104.254Z" fill="white"/>
<path id="Vector_6" d="M45.7935 101.515C46.0072 101.514 46.2205 101.533 46.4305 101.573L46.3219 102.297C46.1323 102.251 45.938 102.227 45.7428 102.225C45.5321 102.224 45.3237 102.27 45.1332 102.36C44.9428 102.45 44.775 102.583 44.6425 102.747C44.332 103.106 44.1691 103.569 44.1865 104.044V106.877H43.3829V101.587H44.0489L44.1358 102.573H44.1575C44.3282 102.25 44.5771 101.976 44.8814 101.776C45.1513 101.597 45.4699 101.506 45.7935 101.515Z" fill="white"/>
<path id="Vector_7" d="M55.3271 106.899L54.4512 104.66H51.6208L50.7521 106.899H49.9486L52.7356 99.8193H53.4595L56.232 106.899H55.3271ZM54.1906 103.921L53.3726 101.747C53.2713 101.471 53.1555 101.131 53.0469 100.725C52.9643 101.071 52.8628 101.412 52.7428 101.747L51.9104 103.921H54.1906Z" fill="white"/>
<path id="Vector_8" d="M61.017 106.196H60.9736C60.7893 106.461 60.54 106.674 60.2497 106.815C59.9594 106.955 59.6379 107.019 59.3158 107C59.009 107.014 58.7031 106.955 58.4228 106.829C58.1425 106.703 57.8955 106.514 57.7016 106.275C57.3253 105.667 57.126 104.966 57.126 104.25C57.126 103.535 57.3253 102.833 57.7016 102.225C57.9094 101.997 58.1634 101.816 58.4464 101.694C58.7295 101.572 59.0353 101.512 59.3434 101.518C59.6515 101.523 59.955 101.594 60.2335 101.726C60.5121 101.858 60.7594 102.048 60.9591 102.283H61.017V101.899V101.529V99.3555H61.8205V106.862H61.169L61.017 106.196ZM59.4172 106.326C59.6362 106.346 59.8569 106.316 60.0626 106.239C60.2683 106.161 60.4536 106.037 60.6044 105.877C60.8897 105.45 61.0201 104.939 60.9736 104.428V104.254C61.0215 103.694 60.8923 103.134 60.6044 102.652C60.4556 102.486 60.2703 102.356 60.0631 102.273C59.8559 102.19 59.6324 102.156 59.41 102.174C59.1986 102.164 58.9881 102.208 58.799 102.303C58.6099 102.399 58.4488 102.541 58.3314 102.718C58.0532 103.185 57.9221 103.725 57.9549 104.268C57.9193 104.804 58.0481 105.337 58.3241 105.797C58.448 105.969 58.6128 106.108 58.8037 106.2C58.9945 106.293 59.2054 106.336 59.4172 106.326Z" fill="white"/>
<path id="Vector_9" d="M68.4296 104.254C68.4758 104.986 68.243 105.708 67.7781 106.275C67.3795 106.662 66.8664 106.909 66.3157 106.98C65.7651 107.05 65.2064 106.94 64.7233 106.667C64.3514 106.438 64.0545 106.106 63.8691 105.71C63.6641 105.255 63.5627 104.76 63.5723 104.261C63.5259 103.532 63.756 102.813 64.2165 102.247C64.4444 102.001 64.7233 101.809 65.0335 101.684C65.3438 101.559 65.6778 101.504 66.0118 101.522C66.3413 101.505 66.6705 101.562 66.9758 101.687C67.2811 101.812 67.555 102.003 67.7781 102.247C68.2395 102.81 68.4721 103.527 68.4296 104.254ZM64.4048 104.254C64.3678 104.798 64.5074 105.339 64.8029 105.797C64.9542 105.964 65.1386 106.097 65.3443 106.188C65.55 106.279 65.7724 106.326 65.9973 106.326C66.2222 106.326 66.4447 106.279 66.6504 106.188C66.856 106.097 67.0404 105.964 67.1917 105.797C67.4576 105.328 67.5973 104.797 67.5973 104.257C67.5973 103.718 67.4576 103.187 67.1917 102.718C67.0465 102.542 66.862 102.404 66.6532 102.313C66.4444 102.222 66.2173 102.182 65.9901 102.196C65.7659 102.184 65.5419 102.224 65.3359 102.313C65.1298 102.402 64.9474 102.538 64.8029 102.71C64.5131 103.17 64.3809 103.712 64.4265 104.254H64.4048Z" fill="white"/>
<path id="Vector_10" d="M71.0284 106.899H70.2177V99.3918H71.0212L71.0284 106.899Z" fill="white"/>
<path id="Vector_11" d="M75.35 107C75.0086 107.017 74.6675 106.961 74.3492 106.836C74.0309 106.712 73.7429 106.52 73.5041 106.275C73.0264 105.728 72.7821 105.015 72.8237 104.29C72.7852 103.56 73.0086 102.841 73.4534 102.261C73.6622 102.019 73.9232 101.829 74.2168 101.703C74.5103 101.577 74.8285 101.521 75.1473 101.537C75.441 101.523 75.734 101.574 76.0056 101.687C76.2771 101.8 76.5204 101.971 76.7182 102.189C77.1194 102.674 77.3258 103.291 77.2973 103.92V104.42H73.6778C73.6494 104.945 73.8172 105.462 74.1484 105.87C74.3113 106.034 74.5072 106.161 74.7231 106.244C74.939 106.326 75.17 106.362 75.4007 106.348C75.9837 106.347 76.5602 106.226 77.0946 105.993V106.717C76.8315 106.825 76.5605 106.912 76.2839 106.978C75.9741 107.017 75.6612 107.025 75.35 107ZM75.1329 102.189C74.9442 102.181 74.7561 102.214 74.5813 102.285C74.4064 102.356 74.2489 102.464 74.1194 102.602C73.8484 102.927 73.6908 103.331 73.6706 103.754H76.4359C76.4652 103.338 76.3473 102.925 76.1029 102.587C75.9839 102.448 75.8346 102.337 75.6665 102.265C75.4984 102.192 75.3159 102.158 75.1329 102.167V102.189Z" fill="white"/>
<path id="Vector_12" d="M82.4659 105.457C82.4753 105.678 82.43 105.898 82.3341 106.098C82.2381 106.298 82.0944 106.471 81.9158 106.602C81.455 106.89 80.9165 107.029 80.3739 107C79.8068 107.03 79.2413 106.915 78.7306 106.667V105.942C78.9907 106.075 79.2652 106.177 79.5486 106.247C79.8228 106.319 80.1048 106.358 80.3883 106.362C80.7237 106.378 81.0575 106.309 81.3584 106.16C81.4649 106.099 81.5525 106.01 81.6113 105.903C81.6701 105.795 81.6979 105.673 81.6914 105.551C81.6916 105.448 81.6675 105.346 81.621 105.254C81.5744 105.162 81.5067 105.083 81.4235 105.022C81.1021 104.8 80.7512 104.625 80.3811 104.5C80.0156 104.378 79.6638 104.217 79.3315 104.022C79.1444 103.904 78.9862 103.746 78.8682 103.558C78.7637 103.368 78.7113 103.153 78.7161 102.935C78.7092 102.734 78.7542 102.534 78.8468 102.355C78.9393 102.176 79.0763 102.024 79.2446 101.914C79.6751 101.637 80.1821 101.505 80.6924 101.537C81.2654 101.537 81.8322 101.655 82.3573 101.885L82.075 102.537C81.6181 102.335 81.1264 102.224 80.6272 102.211C80.3321 102.192 80.0374 102.252 79.773 102.385C79.6843 102.432 79.6104 102.503 79.5594 102.59C79.5083 102.677 79.4821 102.776 79.4835 102.877C79.4782 103.007 79.5164 103.134 79.5921 103.24C79.6837 103.36 79.8028 103.457 79.9395 103.522C80.2389 103.676 80.5485 103.809 80.8661 103.921C81.3359 104.067 81.7682 104.314 82.1329 104.645C82.3402 104.865 82.4589 105.154 82.4659 105.457Z" fill="white"/>
<path id="Vector_13" d="M86.2736 107C85.9429 107.017 85.6125 106.961 85.306 106.836C84.9994 106.711 84.7243 106.519 84.5001 106.275C84.0481 105.711 83.8235 104.997 83.8703 104.276C83.8225 103.537 84.0494 102.806 84.5073 102.225C84.7392 101.977 85.023 101.784 85.3384 101.658C85.6538 101.533 85.9929 101.479 86.3315 101.5C86.5748 101.504 86.8171 101.531 87.0554 101.58C87.2602 101.622 87.4594 101.688 87.649 101.776L87.4029 102.457C87.2157 102.381 87.0218 102.322 86.8238 102.283C86.644 102.237 86.4592 102.212 86.2736 102.21C85.2022 102.21 84.6593 102.899 84.6593 104.268C84.6234 104.796 84.7634 105.321 85.0574 105.761C85.1943 105.937 85.3721 106.076 85.5753 106.167C85.7785 106.258 86.0008 106.298 86.2229 106.283C86.6881 106.276 87.1477 106.18 87.5766 106V106.725C87.169 106.915 86.7233 107.009 86.2736 107Z" fill="white"/>
<path id="Vector_14" d="M91.493 107C91.1515 107.017 90.8104 106.961 90.4921 106.837C90.1739 106.712 89.8858 106.52 89.647 106.275C89.4088 106.006 89.226 105.691 89.1093 105.351C88.9925 105.01 88.944 104.65 88.9666 104.29C88.9281 103.56 89.1515 102.841 89.5963 102.261C89.8043 102.02 90.0642 101.83 90.3564 101.705C90.6486 101.579 90.9654 101.522 91.283 101.537C91.5768 101.522 91.8701 101.573 92.1418 101.686C92.4135 101.798 92.6567 101.97 92.8539 102.189C93.2576 102.673 93.4643 103.291 93.433 103.921V104.421H89.8135C89.7905 104.945 89.9577 105.459 90.2841 105.87C90.4489 106.033 90.6461 106.16 90.8631 106.243C91.0801 106.325 91.3119 106.361 91.5436 106.348C92.1242 106.347 92.6984 106.226 93.2303 105.993V106.717C92.97 106.826 92.7013 106.914 92.4268 106.978C92.117 107.017 91.8042 107.024 91.493 107ZM91.2758 102.189C91.087 102.18 90.8986 102.212 90.7237 102.284C90.5487 102.355 90.3912 102.464 90.2623 102.602C89.9885 102.925 89.8305 103.33 89.8135 103.754H92.5788C92.606 103.337 92.4856 102.924 92.2386 102.587C92.1214 102.448 91.9735 102.337 91.8065 102.264C91.6394 102.191 91.4578 102.158 91.2758 102.167V102.189Z" fill="white"/>
<path id="Vector_15" d="M98.8115 106.899V103.478C98.8371 103.131 98.7311 102.787 98.5147 102.515C98.3921 102.4 98.247 102.313 98.0887 102.258C97.9303 102.203 97.7623 102.182 97.5953 102.196C97.3721 102.177 97.1476 102.208 96.9375 102.286C96.7274 102.363 96.5369 102.486 96.3792 102.645C96.0914 103.071 95.9562 103.582 95.9955 104.094V106.87H95.1992V101.58H95.8507L95.9738 102.305H96.0172C96.1904 102.034 96.4434 101.824 96.7411 101.703C97.0504 101.555 97.3899 101.48 97.7328 101.486C97.9952 101.446 98.2632 101.469 98.5151 101.552C98.767 101.636 98.9957 101.777 99.1826 101.966C99.3695 102.154 99.5093 102.384 99.5908 102.637C99.6722 102.89 99.6929 103.158 99.6512 103.42V106.87L98.8115 106.899Z" fill="white"/>
<path id="Vector_16" d="M103.358 106.341C103.495 106.352 103.633 106.352 103.77 106.341L104.081 106.275V106.891C103.959 106.942 103.83 106.976 103.698 106.993C103.547 107.02 103.395 107.035 103.242 107.036C102.221 107.036 101.707 106.493 101.707 105.42V102.268H100.983V101.884L101.707 101.551L102.047 100.421H102.511V101.645H104.045V102.268H102.511V105.384C102.493 105.645 102.573 105.904 102.735 106.109C102.816 106.19 102.913 106.253 103.021 106.293C103.128 106.333 103.243 106.35 103.358 106.341Z" fill="white"/>
<path id="Vector_17" d="M108.946 105.457C108.955 105.678 108.91 105.898 108.814 106.098C108.718 106.298 108.575 106.471 108.396 106.602C107.935 106.89 107.397 107.029 106.854 107C106.287 107.031 105.721 106.916 105.211 106.667V105.942C105.471 106.075 105.745 106.177 106.029 106.247C106.303 106.319 106.585 106.358 106.868 106.362C107.202 106.379 107.533 106.31 107.831 106.16C107.928 106.103 108.01 106.023 108.068 105.927C108.127 105.831 108.162 105.722 108.169 105.61C108.176 105.498 108.156 105.385 108.109 105.283C108.063 105.18 107.992 105.091 107.904 105.022C107.58 104.803 107.23 104.628 106.861 104.5C106.496 104.378 106.144 104.217 105.812 104.022C105.624 103.905 105.465 103.746 105.348 103.558C105.244 103.368 105.191 103.153 105.196 102.935C105.189 102.735 105.233 102.536 105.325 102.357C105.416 102.178 105.551 102.025 105.717 101.913C106.149 101.639 106.655 101.507 107.165 101.537C107.738 101.538 108.305 101.656 108.83 101.885L108.548 102.537C108.091 102.335 107.599 102.224 107.1 102.211C106.803 102.193 106.506 102.253 106.239 102.384C106.151 102.433 106.078 102.505 106.027 102.591C105.976 102.678 105.949 102.777 105.949 102.877C105.944 103.007 105.982 103.134 106.058 103.239C106.152 103.36 106.274 103.457 106.412 103.522C106.709 103.676 107.016 103.81 107.332 103.921C107.804 104.067 108.238 104.315 108.606 104.645C108.816 104.864 108.937 105.153 108.946 105.457Z" fill="white"/>
<path id="Vector_18" d="M40.7842 72.9589C39.9572 72.9172 39.1321 73.0729 38.377 73.413C37.6218 73.7532 36.9582 74.2681 36.4409 74.9152C35.3178 76.4798 34.7658 78.3829 34.8772 80.3062C34.8772 82.7118 35.3767 84.5233 36.3829 85.7551C36.9158 86.3772 37.585 86.8676 38.3384 87.1881C39.0918 87.5086 39.9091 87.6505 40.7263 87.6028C41.5315 87.606 42.3347 87.5234 43.1224 87.3564C43.8897 87.1898 44.6932 86.9796 45.5257 86.7188V89.465C43.8655 90.0689 42.1089 90.3636 40.3426 90.3345C37.5002 90.3345 35.3164 89.465 33.7914 87.726C32.2664 85.987 31.5232 83.5064 31.5618 80.2844C31.5202 78.4432 31.899 76.6167 32.6694 74.9442C33.3589 73.4749 34.4803 72.2513 35.8835 71.4372C37.3887 70.5982 39.0908 70.1779 40.8132 70.2199C42.7248 70.1972 44.6148 70.6267 46.3292 71.4734L45.1855 74.1399C44.5115 73.8199 43.8176 73.544 43.1079 73.3139C42.3565 73.0755 41.5725 72.9558 40.7842 72.9589Z" fill="white"/>
<path id="Vector_19" d="M48.9786 71.343C48.9635 71.1066 48.9968 70.8697 49.0765 70.6466C49.1562 70.4236 49.2805 70.2192 49.4419 70.046C49.6159 69.8801 49.8218 69.7515 50.0471 69.6681C50.2723 69.5846 50.5123 69.548 50.7522 69.5605C50.9875 69.5364 51.2253 69.5653 51.4481 69.6451C51.6708 69.7249 51.8729 69.8535 52.0395 70.0217C52.2061 70.1898 52.333 70.3932 52.4108 70.6168C52.4887 70.8404 52.5156 71.0786 52.4895 71.314C52.5097 71.5468 52.4784 71.7812 52.398 72.0006C52.3176 72.22 52.19 72.419 52.0243 72.5835C51.8585 72.748 51.6587 72.8741 51.4388 72.9527C51.219 73.0314 50.9846 73.0607 50.7522 73.0385C50.5137 73.0552 50.2743 73.0227 50.0489 72.9429C49.8235 72.8631 49.6169 72.7378 49.4419 72.5748C49.2872 72.4103 49.1667 72.2167 49.0871 72.0053C49.0076 71.7939 48.9707 71.5688 48.9786 71.343ZM52.2941 90.0664H49.1668V75.263H52.2941V90.0664Z" fill="white"/>
<path id="Vector_20" d="M61.9653 87.7912C62.7417 87.7872 63.513 87.6651 64.2528 87.4289V89.7983C63.8209 89.9724 63.3721 90.1011 62.9136 90.1824C62.3548 90.2849 61.7878 90.3359 61.2197 90.3345C58.2614 90.3345 56.7798 88.7646 56.775 85.6247V77.6542H54.7698V76.263L56.9415 75.1109L57.9983 71.9807H59.9311V75.2703H64.1152V77.6542H59.9167V85.574C59.891 85.8779 59.9279 86.1839 60.025 86.4731C60.1221 86.7622 60.2774 87.0283 60.4813 87.255C60.681 87.4382 60.9149 87.5798 61.1697 87.6719C61.4244 87.7639 61.6948 87.8045 61.9653 87.7912Z" fill="white"/>
<path id="Vector_21" d="M66.7286 71.3429C66.7125 71.1071 66.7447 70.8704 66.8231 70.6474C66.9015 70.4244 67.0245 70.2197 67.1846 70.0459C67.3595 69.8815 67.5656 69.7538 67.7906 69.6704C68.0157 69.587 68.2551 69.5496 68.4949 69.5605C68.7282 69.546 68.962 69.5789 69.1822 69.6574C69.4024 69.7359 69.6045 69.8582 69.7762 70.0169C69.9389 70.1944 70.0624 70.4042 70.1385 70.6327C70.2146 70.8612 70.2416 71.1033 70.2177 71.3429C70.2313 71.5737 70.1971 71.8047 70.1174 72.0217C70.0377 72.2386 69.9141 72.4367 69.7544 72.6037C69.5841 72.7649 69.3824 72.8892 69.162 72.969C68.9416 73.0488 68.7071 73.0823 68.4732 73.0675C68.2348 73.0829 67.9958 73.0497 67.7705 72.97C67.5453 72.8903 67.3386 72.7657 67.1629 72.6037C67.0095 72.4336 66.8919 72.2343 66.8173 72.0177C66.7427 71.801 66.7125 71.5715 66.7286 71.3429ZM70.0368 90.0663H66.9168V75.263H70.0368V90.0663Z" fill="white"/>
<path id="Vector_22" d="M80.649 90.3345C79.6653 90.39 78.6808 90.2394 77.7584 89.8926C76.8361 89.5458 75.9961 89.0102 75.2922 88.3202C74.6191 87.5688 74.1012 86.6916 73.7682 85.739C73.4353 84.7864 73.2939 83.7773 73.3521 82.7698C73.3521 80.3545 73.9506 78.4537 75.1474 77.0673C75.7621 76.375 76.524 75.8295 77.3772 75.4708C78.2303 75.1122 79.1529 74.9496 80.0771 74.995C80.9311 74.9528 81.7844 75.0924 82.5805 75.4047C83.3766 75.7169 84.0975 76.1947 84.6955 76.8065C85.8784 78.1543 86.4842 79.9136 86.3822 81.7047V83.4002H76.5735C76.5315 84.6103 76.9449 85.792 77.7317 86.7116C78.1319 87.1116 78.6126 87.4219 79.1418 87.6217C79.6709 87.8216 80.2365 87.9066 80.801 87.8709C81.6159 87.8774 82.4291 87.7948 83.226 87.6246C84.0549 87.4297 84.8623 87.153 85.6366 86.7985V89.3563C84.9037 89.7138 84.1274 89.9744 83.3274 90.1317C82.4431 90.2845 81.5462 90.3525 80.649 90.3345ZM80.0771 77.3789C79.6355 77.3578 79.1944 77.4317 78.7836 77.5954C78.3728 77.7591 78.0018 78.0089 77.6955 78.3281C77.0374 79.1038 76.6599 80.079 76.6241 81.096H83.2984C83.3505 80.0955 83.0394 79.1098 82.4225 78.3209C82.1237 78.0023 81.759 77.753 81.3539 77.5903C80.9487 77.4276 80.513 77.3555 80.0771 77.3789Z" fill="white"/>
<path id="Vector_23" d="M99.5208 85.8492C99.5547 86.4904 99.4288 87.13 99.1546 87.7105C98.8805 88.2911 98.4665 88.7943 97.95 89.1751C96.6156 90.0304 95.0431 90.4366 93.4618 90.3344C91.8404 90.4039 90.2248 90.0964 88.742 89.4359V86.7187C90.2422 87.4669 91.8877 87.8774 93.5632 87.9215C95.4887 87.9215 96.4588 87.3419 96.4588 86.168C96.4652 85.8287 96.3525 85.498 96.1402 85.2333C95.8355 84.9187 95.4808 84.6567 95.0906 84.458C94.4314 84.1131 93.7522 83.8083 93.0565 83.545C91.7829 83.1376 90.6107 82.4633 89.618 81.5669C88.9991 80.8571 88.6776 79.9357 88.7203 78.9946C88.6986 78.4136 88.8272 77.8369 89.0935 77.3202C89.3598 76.8036 89.7549 76.3645 90.2405 76.0455C91.4825 75.2834 92.9265 74.917 94.3812 74.9949C96.0744 74.9881 97.7489 75.349 99.2892 76.0528L98.2757 78.4222C97.0192 77.8393 95.6629 77.5023 94.2798 77.4295C92.6294 77.4295 91.8041 77.9005 91.8041 78.8787C91.8081 79.113 91.8688 79.3429 91.981 79.5486C92.0932 79.7543 92.2536 79.9297 92.4484 80.0598C93.3354 80.6024 94.2798 81.0447 95.2643 81.3785C96.1921 81.7105 97.0786 82.1482 97.9065 82.6828C98.4169 83.0298 98.8365 83.4945 99.1299 84.0378C99.403 84.6016 99.537 85.2228 99.5208 85.8492Z" fill="white"/>
<path id="Vector_24" d="M49.261 62.1914H43.6508V53.7645H37.1719V62.1914H31.5618V41.5189H37.1719V49.1851H43.6508V41.5189H49.261V62.1914Z" fill="white"/>
<path id="Vector_25" d="M59.3014 62.474C56.6374 62.474 54.5671 61.7639 53.0904 60.3437C51.6136 58.9235 50.8897 56.9043 50.9187 54.2862C50.9187 51.5834 51.5991 49.5039 52.9673 48.0619C54.3355 46.62 56.2827 45.8882 58.8164 45.8882C61.2293 45.8882 63.0897 46.5186 64.3976 47.7794C65.7054 49.0401 66.3642 50.8516 66.3738 53.2138V55.6774H56.4637C56.4627 56.0779 56.5498 56.4738 56.7186 56.8369C56.8875 57.2 57.1341 57.5216 57.441 57.7787C58.1649 58.3275 59.0607 58.5999 59.9674 58.5467C60.8651 58.5531 61.7609 58.4608 62.6385 58.2714C63.552 58.0506 64.44 57.7349 65.288 57.3294V61.3002C64.4433 61.7385 63.5382 62.0486 62.6023 62.2204C61.5121 62.4057 60.4071 62.4906 59.3014 62.474ZM58.9756 49.6488C58.3731 49.6327 57.7883 49.8539 57.3469 50.2647C56.8645 50.7837 56.589 51.4617 56.5723 52.1704H61.321C61.3342 51.4946 61.0999 50.8374 60.6623 50.3227C60.4464 50.0951 60.1839 49.9171 59.8927 49.8008C59.6016 49.6845 59.2887 49.6326 58.9756 49.6488Z" fill="white"/>
<path id="Vector_26" d="M79.6283 62.1915L78.5714 60.0684H78.4556C77.8602 60.8738 77.0808 61.5248 76.1825 61.9669C75.2285 62.3385 74.2087 62.5111 73.1856 62.4741C72.5304 62.5093 71.8751 62.4069 71.2617 62.1736C70.6483 61.9402 70.0905 61.581 69.6241 61.1191C68.7088 60.0655 68.2434 58.6942 68.3283 57.3005C68.2786 56.5663 68.4159 55.8315 68.7274 55.1649C69.0388 54.4983 69.5142 53.9217 70.1091 53.4892C71.6621 52.5477 73.4477 52.0607 75.2632 52.0835L77.9344 51.9965V51.7719C77.9737 51.5056 77.9507 51.2338 77.8672 50.9778C77.7837 50.7219 77.642 50.4889 77.4532 50.2971C77.2644 50.1054 77.0337 49.9601 76.7793 49.8727C76.5249 49.7854 76.2537 49.7584 75.9871 49.7938C74.4384 49.8863 72.9242 50.2904 71.5351 50.9821L69.9353 47.3592C72.1419 46.3209 74.5639 45.8241 77.0005 45.91C78.7264 45.799 80.4304 46.3452 81.771 47.4389C82.3446 47.9852 82.7925 48.6499 83.0838 49.3869C83.375 50.1239 83.5026 50.9154 83.4577 51.7067V62.2132L79.6283 62.1915ZM75.531 58.5686C76.163 58.5817 76.7764 58.3537 77.2467 57.9309C77.4825 57.7252 77.6697 57.4696 77.7949 57.1827C77.9201 56.8957 77.9801 56.5846 77.9706 56.2716V55.0688L76.6965 55.1268C74.8819 55.1896 73.9747 55.8586 73.9747 57.1339C73.9457 58.0831 74.4669 58.5758 75.5093 58.5758L75.531 58.5686Z" fill="white"/>
<path id="Vector_27" d="M90.8921 62.1914H85.3688V40.1929H90.8921V62.1914Z" fill="white"/>
<path id="Vector_28" d="M101.874 58.1047C102.789 58.0725 103.692 57.8863 104.545 57.554V61.59C103.863 61.9061 103.15 62.1489 102.417 62.3146C101.639 62.4603 100.848 62.5283 100.057 62.5175C98.1962 62.5175 96.857 62.0682 96.039 61.1552C95.221 60.2423 94.8301 58.8076 94.8301 56.9164V50.3154H92.8756V48.0692L95.3368 46.3302L96.7846 42.9608H100.404V46.1707H104.335V50.3154H100.404V56.5541C100.372 56.7581 100.387 56.9668 100.448 57.1641C100.509 57.3614 100.615 57.5419 100.757 57.6918C100.899 57.8416 101.074 57.9568 101.267 58.0284C101.461 58.1 101.668 58.1261 101.874 58.1047Z" fill="white"/>
<path id="Vector_29" d="M116.735 62.1914V53.4528C116.735 51.2791 116.098 50.2284 114.824 50.2284C114.418 50.212 114.015 50.3098 113.662 50.5109C113.309 50.712 113.019 51.0083 112.826 51.366C112.314 52.5578 112.094 53.8543 112.182 55.1484V62.1914H106.658V40.1929H112.203V43.3158C112.203 44.7288 112.131 46.3446 111.979 48.1489H112.203C112.651 47.3968 113.304 46.7884 114.086 46.3953C114.881 46.0445 115.743 45.8714 116.612 45.8881C117.378 45.8426 118.144 45.9569 118.863 46.2239C119.582 46.4908 120.238 46.9045 120.789 47.4388C121.311 48.0295 121.712 48.7177 121.967 49.4637C122.223 50.2098 122.33 50.999 122.28 51.7863V62.1914H116.735Z" fill="white"/>
<path id="Vector_30" d="M123.323 46.2722H129.114L131.821 55.46C131.967 56.0295 132.057 56.612 132.089 57.199H132.205C132.264 56.6196 132.378 56.047 132.545 55.489L135.368 46.2722H141.007L134.644 63.3073C133.833 65.4714 132.837 67.0051 131.655 67.9084C130.302 68.8526 128.676 69.3238 127.029 69.2489C126.267 69.2464 125.508 69.1663 124.763 69.0098V64.6623C125.327 64.7787 125.903 64.8346 126.479 64.8289C126.922 64.8381 127.361 64.7413 127.76 64.5463C128.134 64.3521 128.462 64.0803 128.723 63.7493C129.088 63.228 129.383 62.6602 129.599 62.061L123.323 46.2722Z" fill="white"/>
<path id="Vector_31" d="M21.3911 106.073L0 106.036V57.1773L15.5637 56.9817L15.5927 13.4701H49.2175L49.2537 27.5634L66.0119 27.5923L66.0481 12.6078L78.6366 0L90.9645 12.3325L90.8921 32.5848L85.3398 32.563L85.3977 14.6294L78.6366 7.86179L71.6003 14.912L71.5569 33.1499L43.7087 33.0992L43.6725 19.0277H21.1449L21.116 62.4668L5.55226 62.6697V100.486L21.3983 100.508L21.3911 106.073Z" fill="white"/>
<path id="Vector_32" d="M13.602 73.3645C14.6055 73.3645 15.419 72.5502 15.419 71.5458C15.419 70.5413 14.6055 69.7271 13.602 69.7271C12.5985 69.7271 11.785 70.5413 11.785 71.5458C11.785 72.5502 12.5985 73.3645 13.602 73.3645Z" fill="white"/>
<path id="Vector_33" d="M13.602 92.6748C14.6055 92.6748 15.419 91.8605 15.419 90.8561C15.419 89.8516 14.6055 89.0374 13.602 89.0374C12.5985 89.0374 11.785 89.8516 11.785 90.8561C11.785 91.8605 12.5985 92.6748 13.602 92.6748Z" fill="white"/>
<path id="Vector_34" d="M13.602 83.0161C14.6055 83.0161 15.419 82.2018 15.419 81.1974C15.419 80.1929 14.6055 79.3787 13.602 79.3787C12.5985 79.3787 11.785 80.1929 11.785 81.1974C11.785 82.2018 12.5985 83.0161 13.602 83.0161Z" fill="white"/>
<path id="Vector_35" d="M78.4483 21.4623C79.4518 21.4623 80.2653 20.648 80.2653 19.6435C80.2653 18.6391 79.4518 17.8248 78.4483 17.8248C77.4448 17.8248 76.6313 18.6391 76.6313 19.6435C76.6313 20.648 77.4448 21.4623 78.4483 21.4623Z" fill="white"/>
<path id="Vector_36" d="M78.4483 31.1139C79.4518 31.1139 80.2653 30.2996 80.2653 29.2952C80.2653 28.2907 79.4518 27.4764 78.4483 27.4764C77.4448 27.4764 76.6313 28.2907 76.6313 29.2952C76.6313 30.2996 77.4448 31.1139 78.4483 31.1139Z" fill="white"/>
<path id="Vector_37" d="M27.5224 31.1139C28.5259 31.1139 29.3394 30.2996 29.3394 29.2952C29.3394 28.2907 28.5259 27.4764 27.5224 27.4764C26.5189 27.4764 25.7054 28.2907 25.7054 29.2952C25.7054 30.2996 26.5189 31.1139 27.5224 31.1139Z" fill="white"/>
<path id="Vector_38" d="M37.172 31.1139C38.1754 31.1139 38.9889 30.2996 38.9889 29.2952C38.9889 28.2907 38.1754 27.4764 37.172 27.4764C36.1685 27.4764 35.355 28.2907 35.355 29.2952C35.355 30.2996 36.1685 31.1139 37.172 31.1139Z" fill="white"/>
</g>
</g>
</g>
<defs>
<clipPath id="clip0_72_144">
<rect width="141" height="107" fill="white"/>
</clipPath>
</defs>
</svg>
