<svg width="1426" height="345" viewBox="0 0 1426 345" fill="none" xmlns="http://www.w3.org/2000/svg">
<g clip-path="url(#clip0_741_174)">
<path opacity="0.5" d="M203.32 187.41C224.82 197.7 250.49 193.53 272.88 185.41C295.27 177.29 316.39 165.31 339.63 160.04C362.87 154.77 390.01 157.6 406.18 175.11C417.92 187.82 422.3 206.46 435.52 217.63C454.28 233.48 482.22 228.25 506.34 223.63C545.64 216.1 587.02 212.71 625.08 225.05C663.14 237.39 697.24 268.36 703.47 307.88C704.1 311.83 704.36 316.2 702.13 319.52C699.9 322.84 696.13 324.14 692.4 325.21C669.4 331.89 645.14 331.86 621.23 331.44C489 329.11 356.15 316.23 224.88 332.38C191.34 336.51 156.96 342.49 124.13 334.47C54.44 317.39 15.94 244.85 20.07 176.9C23.49 120.74 65.38 68.03 124.87 103.77C158.62 124.04 167.18 170.13 203.32 187.41Z" fill="#7F9FD3"/>
<path opacity="0.5" d="M1325.82 35.94C1325.96 61.18 1288.38 79.74 1294.12 105.3C1297.55 120.56 1314.89 127.94 1330.28 130.74C1349.89 134.3 1370.05 136.06 1380.6 155.38C1390.54 173.6 1381.16 186.27 1377.45 204.27C1369.45 243.27 1374.45 281.12 1332.25 301.66C1309.2 312.88 1283.55 317.42 1258.25 321.48C1208.47 329.48 1146.54 335.53 1098.37 316.78C1080.67 309.9 1064.3 299.45 1045.86 294.9C1033.89 292.032 1021.44 291.719 1009.34 293.981C997.232 296.243 985.741 301.03 975.61 308.03C959.61 319.27 944.71 336.87 925.2 335.18C907.77 333.66 896.2 317.36 883.62 305.18C852.62 275.18 802.85 268.68 763.84 285.64C744.33 294.12 733.22 307.29 712.72 313C687.1 320.15 662.72 332.71 636.66 338C570.05 351.59 502.76 305.85 435.68 316.48C394.68 322.99 356.33 350.3 315.26 344.02C309.26 343.1 303.03 341.31 298.55 337.15C287.11 326.54 292.43 307.15 301.9 294.71C325.14 264.25 364.62 259.42 400.83 264.01C436.6 268.55 469.74 284.71 504.47 294.37C538.8 303.92 577.25 306.65 608.65 289.78C635.8 275.19 653.79 248.19 677.65 228.7C700.777 209.923 728.979 198.471 758.65 195.81C810.18 191.28 861.04 213.69 912.65 210.66C934.858 209.22 956.519 203.149 976.241 192.836C995.962 182.523 1013.31 168.197 1027.16 150.78C1050.47 121.11 1062.69 83.65 1087.63 55.34C1114.7 24.61 1156 6.13002 1196.19 0.680022C1212.01 -1.45998 1223.57 1.95002 1238.86 3.88002C1260.86 6.65002 1284.66 0.320022 1305.76 9.39002C1315.42 13.55 1323.89 21.9 1325.46 32.3C1325.67 33.5023 1325.79 34.7192 1325.82 35.94Z" fill="#5DBFC8"/>
<path opacity="0.5" d="M1204.22 67.01C1210.64 86.63 1206.17 108.53 1196.58 126.81C1186.99 145.09 1172.68 160.43 1158.39 175.34C1150.74 183.34 1142.77 191.46 1132.65 195.9C1115.57 203.39 1095.96 199.07 1077.32 199.17C1040.49 199.37 1005.54 217.64 978.49 242.63C968.33 252.01 958.98 262.43 947.4 269.96C935.82 277.49 921.18 281.88 908.04 277.6C894.27 273.11 884.61 259.41 882.89 245.03C881.17 230.65 886.59 216.03 895.56 204.62C905.39 192.16 922.56 181.55 925.9 165.02C929.52 147.16 921.53 148.85 912.85 137.85C892.95 112.62 903.2 82.42 922.98 59.17C946.88 31.08 989.04 11.17 1023.84 18C1045.84 22.31 1064 36.94 1085.67 42C1126.72 51.58 1184.46 6.73998 1204.21 67L1204.22 67.01Z" fill="#F19BC2"/>
<path opacity="0.5" d="M155.13 293.48C165.57 283.7 174.35 268.73 172.75 255.35C170.55 237.05 145.24 222.08 156.25 201.35C159.13 195.93 164.47 192.35 169.73 189.18C194.24 174.46 221.73 164.18 243.47 145.68C265.21 127.18 280.47 96.43 269.88 69.88C264.81 57.2 254.64 47.3 244.08 38.64C229.68 26.83 213.38 16.29 194.97 13.41C157.2 7.49998 122.65 34.61 96.44 62.41C65.7 95.08 37.44 134.46 36.01 179.3C35.12 206.59 44.36 233.29 57.44 257.18C75.79 290.69 104.44 325.62 146.44 300.18C149.561 298.254 152.473 296.008 155.13 293.48Z" fill="#F5A216"/>
<path opacity="0.5" d="M1156.11 290.43C1150.95 268.09 1158.92 243.49 1174.65 226.63C1185.23 215.3 1198.76 207.24 1212.23 199.57C1258.79 173.07 1312.71 160.08 1366.9 159.57C1373.76 159.51 1380.72 159.68 1387.29 161.64C1427.39 173.64 1430.52 233.54 1420.73 265.89C1408.94 304.89 1376.16 333.43 1333.98 329.19C1322.98 328.08 1312.45 323.99 1301.61 321.6C1283.66 317.676 1265 318.444 1247.44 323.83C1236.12 327.33 1225.24 332.75 1213.44 333.95C1188.93 336.45 1164.8 318.46 1157.34 294.95C1156.88 293.48 1156.46 291.96 1156.11 290.43Z" fill="#E52633"/>
<path opacity="0.5" d="M739.12 224C751.58 220.08 764.98 221.41 778.03 221C807.463 219.994 835.883 210.004 859.47 192.37C869.11 185.13 878.47 175.16 878.31 163.11C878.07 148.11 863.5 137.72 850.08 130.94C842.56 127.14 834.59 123.57 826.17 123.49C792.45 123.15 775.32 175.3 741.67 173.01C730.93 172.28 720.73 165.67 710.1 167.39C704.35 168.32 699.3 171.6 694.44 174.81L654.9 200.87C634.56 214.28 593.47 265.28 640.9 272.87C681.18 279.3 705.7 234.59 739.12 224Z" fill="#20A537"/>
<path opacity="0.5" d="M231.57 255.48C227.71 251.32 223.87 246.74 222.77 241.17C221.3 233.74 225.18 226.06 230.77 220.98C236.36 215.9 243.54 212.9 250.54 209.98C255.24 196.07 244.49 181.88 233.36 172.32C222.23 162.76 209 153.12 206.53 138.65C204.9 129.14 208.45 119.5 212.88 110.93C218.47 100.11 225.83 89.85 236.05 83.23C246.27 76.61 259.75 74.23 270.84 79.23C281.93 84.23 289.21 97.75 285.2 109.23C283.08 115.33 278.2 120.42 277.31 126.82C276.31 134.24 281.08 141.4 287.1 145.82C293.12 150.24 300.35 152.72 307.1 156.05C319.1 161.98 329.86 171.33 334.78 183.73C339.7 196.13 337.59 211.78 327.59 220.62C318.65 228.53 303.46 232.4 302.45 244.29C301.26 258.21 320.99 264.09 326.57 276.89C336.27 299.12 305.94 307.15 290.5 301.82C269.24 294.53 246.48 271.59 231.57 255.48Z" fill="#20A537"/>
<path opacity="0.5" d="M650.59 95.59C663.68 115.72 683.26 127.99 698.59 111.52C701.68 108.2 703.36 103.85 705.59 99.9C714.26 84.62 732.59 75.43 750 77.62C761.15 79.02 771.68 84.62 782.91 84.44C811.38 84.05 841.53 39.69 817 16.44C808.56 8.43998 796.17 6.00998 784.54 6.27998C768.36 6.6825 752.603 11.5257 738.99 20.28C729.99 26.09 721.39 33.81 710.72 34.58C696.22 35.58 683.77 23.39 669.26 22.38C626.16 19.42 631.34 66.02 650.59 95.59Z" fill="#5DBFC8"/>
<path opacity="0.5" d="M172.65 233.83C156.65 244.34 128.28 264.34 129.9 286.6C130.9 300.82 145.9 309.69 159.67 313.3C181.67 319.05 205.77 317.67 226.07 307.5C246.37 297.33 262.32 277.98 266.46 255.66C267.54 249.85 267.82 243.74 265.94 238.14C264.411 233.918 261.982 230.079 258.82 226.89C234.56 201.3 197.06 217.76 172.65 233.83Z" fill="#5DBFC8"/>
<path opacity="0.5" d="M1233.02 65.32C1220.41 81.38 1214.02 103.93 1222.22 122.61C1225.84 130.82 1232.96 138.25 1241.89 139.09C1251.07 139.95 1259.39 133.82 1265.89 127.22C1272.39 120.62 1278.27 113.01 1286.75 109.38C1300.34 103.56 1315.75 109.68 1330.56 110.28C1351.93 111.14 1373.32 99.06 1383.56 80.28C1387.69 72.75 1390.13 63.88 1388.16 55.52C1386.92 50.24 1384 45.52 1380.63 41.25C1374.67 33.8362 1367.27 27.7142 1358.86 23.2577C1350.46 18.8013 1341.24 16.1038 1331.76 15.33C1297.6 12.76 1253.54 39.19 1233.02 65.32Z" fill="#F5A216"/>
<path opacity="0.5" d="M1143.12 228.15C1133.79 204.99 1117.12 187.81 1092.96 185.09C1066.56 182.09 1045.71 173.66 1019.74 167.09C995.25 160.93 968.74 162.23 945.55 172.68C892.8 196.49 859.04 259.19 801.49 265.37C789.33 266.67 776.89 265.22 764.92 267.74C752.95 270.26 740.82 278.38 739.01 290.48C736.72 305.48 751.01 318 765.25 323.48C819.91 344.58 879.88 309.63 938.46 310.91C967.08 311.53 995.18 320.91 1023.78 319.6C1054.15 318.21 1082.54 304.93 1110 291.9C1125.21 284.68 1142 275.72 1146.76 259.57C1149.82 249.27 1147.14 238.12 1143.12 228.15Z" fill="#5DBFC8"/>
<path d="M1126.59 36.07C1102.1 39.1737 1078.93 48.9266 1059.59 64.27C1042 78.42 1031.27 99.63 1012.59 112.43C992.73 126.02 965.67 123.85 947.12 138.93C925.57 156.46 929.12 190.76 940.99 215.93C952.2 239.78 969.74 261.57 993.54 272.88C1017.34 284.19 1047.88 283.18 1068.05 266.23C1084.3 252.56 1092.43 230.51 1110.15 218.79C1147.6 194.03 1203.24 228.79 1241.15 204.73C1258.72 193.6 1267.28 172.46 1271.07 152.01C1275.42 128.55 1274.41 102.61 1260.61 83.15C1252.06 71.15 1239.37 62.61 1226.26 55.8C1195.7 39.92 1160.68 31.73 1126.59 36.07Z" stroke="white" stroke-width="2" stroke-miterlimit="10"/>
<path d="M17 319.12C23.9 328.05 31.73 337.12 42.42 340.68C54.5 344.73 68.69 340.48 77.19 331C85.69 321.52 88.44 307.47 84.95 295.22C80.25 278.7 65.34 265.22 65.6 248.04C65.82 233.88 76.32 222.35 83.14 209.94C93.72 190.7 95.54 166.34 85.82 146.59C76.1 126.84 54.44 113.1 32.56 114.84C-9.96 118.21 -8.08 158.58 -11.76 191.16C-13.82 209.39 -21.62 225.6 -19.76 243.82C-16.86 271.59 0.410004 297.7 17 319.12Z" stroke="white" stroke-width="2" stroke-miterlimit="10"/>
</g>
<defs>
<clipPath id="clip0_741_174">
<rect width="1446.4" height="344.96" fill="white" transform="translate(-21)"/>
</clipPath>
</defs>
</svg>
