<svg width="22" height="23" viewBox="0 0 22 23" fill="none" xmlns="http://www.w3.org/2000/svg">
<path d="M18.5986 3.28747C16.5527 1.16652 13.8281 0 10.9326 0C4.95605 0 0.0927734 5.02968 0.0927734 11.2107C0.0927734 13.1852 0.59082 15.1143 1.53809 16.8161L0 22.6235L5.74707 21.063C7.3291 21.9569 9.11133 22.4265 10.9277 22.4265H10.9326C16.9043 22.4265 21.875 17.3968 21.875 11.2158C21.875 8.2212 20.6445 5.40842 18.5986 3.28747ZM10.9326 20.5379C9.31152 20.5379 7.72461 20.0884 6.34277 19.24L6.01562 19.038L2.60742 19.9622L3.51562 16.5232L3.30078 16.1697C2.39746 14.685 1.92383 12.9731 1.92383 11.2107C1.92383 6.075 5.9668 1.8937 10.9375 1.8937C13.3447 1.8937 15.6055 2.86328 17.3047 4.62569C19.0039 6.3881 20.0488 8.72619 20.0439 11.2158C20.0439 16.3566 15.8984 20.5379 10.9326 20.5379ZM15.874 13.5589C15.6055 13.4175 14.2725 12.7408 14.0234 12.6499C13.7744 12.554 13.5938 12.5085 13.4131 12.7913C13.2324 13.0741 12.7148 13.7003 12.5537 13.8922C12.3975 14.0791 12.2363 14.1043 11.9678 13.9629C10.376 13.1398 9.33105 12.4934 8.28125 10.63C8.00293 10.1351 8.55957 10.1705 9.07715 9.09988C9.16504 8.91303 9.12109 8.75144 9.05273 8.61004C8.98438 8.46865 8.44238 7.09003 8.21777 6.52949C7.99805 5.98411 7.77344 6.05985 7.60742 6.04975C7.45117 6.03965 7.27051 6.03965 7.08984 6.03965C6.90918 6.03965 6.61621 6.11035 6.36719 6.3881C6.11816 6.67089 5.41992 7.34757 5.41992 8.72619C5.41992 10.1048 6.3916 11.438 6.52344 11.6248C6.66016 11.8117 8.43262 14.6396 11.1523 15.8566C12.8711 16.6242 13.5449 16.6898 14.4043 16.5585C14.9268 16.4778 16.0059 15.8819 16.2305 15.2254C16.4551 14.5689 16.4551 14.0084 16.3867 13.8922C16.3232 13.766 16.1426 13.6953 15.874 13.5589Z" fill="white"/>
</svg>
