<svg width="199" height="70" viewBox="0 0 199 70" fill="none" xmlns="http://www.w3.org/2000/svg">
<path d="M14.1717 21.4619C12.7612 21.4619 11.6328 22.6125 11.6328 24.0133C11.6328 25.4141 12.7778 26.5647 14.1717 26.5647C15.5657 26.5647 16.7107 25.4141 16.7107 24.0133C16.7107 22.6125 15.5657 21.4619 14.1717 21.4619Z" fill="white"/>
<path d="M59.8696 11.3064C59.4547 11.2397 59.1062 11.1897 58.7909 11.173C57.1315 10.9895 55.5053 10.9895 53.8458 11.173C42.5783 12.4237 34.082 21.9623 34.082 33.3686C34.082 34.5525 34.3641 36.9372 34.3807 36.9872C34.7956 39.5386 35.6253 41.9566 36.8865 44.2079C37.152 44.6748 37.5834 45.025 38.0978 45.1751C38.6123 45.3251 39.1599 45.2584 39.6245 44.9916C40.587 44.4413 40.9355 43.2073 40.4045 42.2401C39.359 40.3724 38.6786 38.3546 38.3468 36.2368C38.3468 36.1701 38.131 34.2691 38.131 33.3852C38.131 24.0467 45.084 16.2258 54.3105 15.2085C55.6878 15.0585 56.9821 15.0585 58.3927 15.2085C58.6416 15.2252 58.9071 15.2586 59.2224 15.3253C68.0837 16.7594 74.5223 24.3469 74.5223 33.3852C74.5223 40.289 70.7222 46.5258 64.5989 49.6609C64.1177 49.911 63.7692 50.3279 63.6033 50.8449C63.4373 51.3618 63.4871 51.9121 63.7194 52.3957C64.0679 53.0794 64.7483 53.4963 65.5116 53.4963C65.8269 53.4963 66.1422 53.4129 66.4243 53.2795C73.9083 49.4608 78.5547 41.8399 78.5547 33.3852C78.5547 22.3458 70.689 13.074 59.8696 11.3231V11.3064Z" fill="#FFB71B"/>
<path d="M64.42 30.9338C64.337 30.4669 64.0715 30.0834 63.6733 29.8165C63.2916 29.5497 62.827 29.4664 62.3623 29.5497C61.4164 29.7332 60.8025 30.667 60.985 31.6175C61.0846 32.1512 61.1012 32.6848 61.0016 33.2351V33.3018C60.9518 33.5186 60.902 33.7354 60.8356 33.9522C60.0889 36.2201 57.7823 37.5541 55.4757 37.0539C55.1272 36.9872 54.8119 36.8704 54.4634 36.7204C54.4137 36.687 54.3473 36.6703 54.2975 36.637C52.2564 35.5864 51.3105 33.2184 52.0241 31.0339C52.5717 29.3663 53.9822 28.149 55.7246 27.8821C56.1892 27.8154 56.5875 27.5653 56.8696 27.1818C57.1517 26.7982 57.2513 26.3313 57.1849 25.881C57.0853 25.2307 56.6373 24.6804 56.0067 24.4803C55.7412 24.3969 55.4757 24.3802 55.1936 24.4136C52.1568 24.8805 49.6677 26.9983 48.7218 29.9333C47.4606 33.7687 49.1367 37.9043 52.7044 39.7554C52.8372 39.8221 52.9534 39.8888 53.0529 39.9221C53.6171 40.1723 54.1647 40.3724 54.7621 40.4891C55.3263 40.6058 55.8905 40.6725 56.4548 40.6725C59.9064 40.6725 63.0427 38.4546 64.1711 35.0528C64.3038 34.6525 64.4034 34.2357 64.4698 33.8354C64.4698 33.8021 64.4698 33.7687 64.4698 33.7354C64.6191 32.8182 64.6025 31.8844 64.42 30.9672V30.9338Z" fill="#FF9E18"/>
<path d="M18.8176 32.4346H10.2218C9.12656 32.4346 8.23047 33.3351 8.23047 34.4357C8.23047 35.5196 9.10997 36.3867 10.172 36.3867H16.5276C15.6979 38.9882 13.2585 40.8892 10.3877 40.8892C10.3877 40.8892 10.3877 40.8892 10.3711 40.8892C9.19294 40.8892 8.23047 41.7897 8.23047 42.9737V43.0071C8.23047 44.0076 9.0104 44.8081 10.0061 44.8414C10.1388 44.8414 10.2716 44.8414 10.3877 44.8414C16.1128 44.8414 20.7592 40.1722 20.7757 34.4357C20.7757 33.3351 19.8963 32.4346 18.801 32.4346H18.8176Z" fill="white"/>
<path d="M67.5885 58.1657C67.5885 57.0651 66.6924 56.1812 65.5972 56.1812C65.0496 56.1812 64.5352 56.398 64.1535 56.7816C63.7718 57.1651 63.5561 57.6987 63.5561 58.249L63.5893 62.2679C63.5893 62.2679 61.8801 60.4169 61.7805 60.3168C61.598 60.1334 61.3989 59.95 61.1334 59.6832C59.839 58.4658 58.4285 57.3819 56.935 56.4981C56.487 56.2146 56.0057 55.9311 55.5245 55.681C44.6054 49.8444 30.9318 52.5292 23.0163 62.0511C23.0163 62.0511 22.5516 62.6348 22.3525 62.8849V54.7304C22.3525 53.6132 21.4564 52.7127 20.3446 52.7127H7.06917C5.37655 52.7127 3.99922 51.3286 3.99922 49.6276V18.277C3.99922 16.5761 5.37655 15.2086 7.08576 15.2086L29.8033 15.1753C30.8986 15.1753 31.7947 14.2748 31.7947 13.1742C31.7947 12.6239 31.5789 12.1236 31.1973 11.7234C30.8156 11.3398 30.3012 11.123 29.7701 11.123L14.2213 11.1564H7.10236C3.1861 11.1564 0 14.3582 0 18.277V49.6276C0 53.5631 3.1861 56.7649 7.10236 56.7649H18.3533V66.4202C18.3533 67.6042 19.0668 68.6881 20.1621 69.1551C20.5437 69.3218 20.9254 69.3885 21.3237 69.3885C22.087 69.3885 22.8171 69.0884 23.3648 68.5547C23.4643 68.4547 23.5473 68.3546 23.6137 68.2546L26.1692 64.5859C32.8733 56.5648 44.4229 54.3135 53.6493 59.2329C54.0476 59.4497 54.4293 59.6665 54.8441 59.9333C56.0887 60.6837 57.2835 61.5842 58.3621 62.6014L61.2329 65.6198C61.9465 66.3702 62.8923 66.7871 63.9212 66.7871C64.5352 66.7871 65.1658 66.6203 65.73 66.3202C66.9248 65.6698 67.6715 64.3524 67.6549 62.9183L67.6217 58.1657H67.5885Z" fill="white"/>
<path d="M58.0149 1.98443C58.0149 0.888459 57.1345 0 56.0485 0C54.9624 0 54.082 0.888459 54.082 1.98443V4.73595C54.082 5.83191 54.9624 6.72037 56.0485 6.72037C57.1345 6.72037 58.0149 5.83191 58.0149 4.73595V1.98443Z" fill="#FF9E18"/>
<path d="M87.2859 30.2668H84.2989C83.2037 30.2668 82.3242 31.1507 82.3242 32.2513C82.3242 33.3519 83.2037 34.2357 84.2989 34.2357H87.2859C88.3811 34.2357 89.2606 33.3519 89.2606 32.2513C89.2606 31.1507 88.3811 30.2668 87.2859 30.2668Z" fill="#FF9E18"/>
<path d="M77.9114 11.223L75.7873 13.3575C75.024 14.1246 75.024 15.392 75.7873 16.1591C76.5507 16.9262 77.8119 16.9262 78.5752 16.1591L80.6993 14.0246C81.4626 13.2575 81.4626 11.9901 80.6993 11.223C79.9359 10.4559 78.6748 10.4559 77.9114 11.223Z" fill="#FF9E18"/>
<path d="M131.993 16.1925H135.743V33.6188H131.993V31.1007C130.582 33.0685 128.558 34.069 125.919 34.069C123.529 34.069 121.505 33.1852 119.812 31.4009C118.12 29.6166 117.273 27.4487 117.273 24.8973C117.273 22.3459 118.12 20.1447 119.812 18.377C121.505 16.6094 123.529 15.7256 125.919 15.7256C128.558 15.7256 130.582 16.7095 131.993 18.6605V16.1925ZM122.6 28.8995C123.646 29.9501 124.94 30.4837 126.516 30.4837C128.093 30.4837 129.387 29.9501 130.433 28.8995C131.478 27.8489 131.993 26.5149 131.993 24.914C131.993 23.3131 131.478 21.979 130.433 20.9285C129.387 19.8779 128.093 19.3442 126.516 19.3442C124.94 19.3442 123.646 19.8779 122.6 20.9285C121.555 21.979 121.04 23.3131 121.04 24.914C121.04 26.5149 121.555 27.8489 122.6 28.8995Z" fill="white"/>
<path d="M140.988 33.6354V8.18799H144.739V33.6354H140.988Z" fill="white"/>
<path d="M179.899 16.1925H183.649V33.6188H179.899V31.1007C178.488 33.0685 176.464 34.069 173.825 34.069C171.436 34.069 169.411 33.1852 167.719 31.4009C166.026 29.6166 165.18 27.4487 165.18 24.8973C165.18 22.3459 166.026 20.1447 167.719 18.377C169.411 16.6094 171.436 15.7256 173.825 15.7256C176.464 15.7256 178.488 16.7095 179.899 18.6605V16.1925ZM170.506 28.8995C171.552 29.9501 172.846 30.4837 174.423 30.4837C175.999 30.4837 177.294 29.9501 178.339 28.8995C179.384 27.8489 179.899 26.5149 179.899 24.914C179.899 23.3131 179.384 21.979 178.339 20.9285C177.294 19.8779 175.999 19.3442 174.423 19.3442C172.846 19.3442 171.552 19.8779 170.506 20.9285C169.461 21.979 168.947 23.3131 168.947 24.914C168.947 26.5149 169.461 27.8489 170.506 28.8995Z" fill="white"/>
<path d="M111.664 47.5096H107.366V55.8809C107.366 56.5979 107.532 57.1149 107.847 57.4317C108.163 57.7486 108.644 57.9153 109.291 57.9487C109.922 57.982 110.718 57.982 111.664 57.932V61.3172C108.793 61.6674 106.736 61.4172 105.491 60.5668C104.246 59.7163 103.616 58.1488 103.616 55.8809V47.5096H100.43V43.8909H103.616V40.1222L107.366 39.0049V43.8909H111.664V47.5096Z" fill="white"/>
<path d="M127.794 43.8743H131.544V61.3006H127.794V59.0661C126.665 60.8504 124.873 61.7509 122.417 61.7509C120.426 61.7509 118.816 61.1172 117.588 59.8331C116.36 58.5491 115.746 56.7981 115.746 54.5636V43.8577H119.496V54.18C119.496 55.4807 119.845 56.4813 120.542 57.1817C121.239 57.8821 122.185 58.2323 123.379 58.2323C124.69 58.2323 125.769 57.8154 126.566 56.9982C127.379 56.1811 127.777 54.9138 127.777 53.2128V43.8743H127.794Z" fill="white"/>
<path d="M172.879 61.7675C170.34 61.7675 168.166 60.8837 166.39 59.1161C164.615 57.3484 163.719 55.1806 163.719 52.5958C163.719 50.011 164.615 47.8432 166.39 46.0755C168.166 44.3079 170.34 43.4241 172.879 43.4241C175.418 43.4241 177.608 44.3079 179.384 46.0755C181.159 47.8432 182.039 50.011 182.039 52.5958C182.039 55.1806 181.159 57.3484 179.384 59.1161C177.608 60.8837 175.451 61.7675 172.879 61.7675ZM169.029 56.5313C170.074 57.5819 171.352 58.0988 172.879 58.0988C174.405 58.0988 175.683 57.5819 176.729 56.5313C177.774 55.4807 178.289 54.18 178.289 52.5958C178.289 51.0116 177.774 49.7109 176.729 48.6603C175.683 47.6097 174.405 47.0928 172.879 47.0928C171.352 47.0928 170.074 47.6097 169.029 48.6603C167.983 49.7109 167.469 51.0116 167.469 52.5958C167.469 54.18 167.983 55.4807 169.029 56.5313Z" fill="white"/>
<path d="M189.739 57.7486H198.169V61.3005H184.645V58.7825L192.759 47.4262H184.993V43.8743H197.82V46.3756L189.739 57.7486Z" fill="white"/>
<path d="M156.3 60.5002C156.931 59.6664 157.329 58.6825 157.711 57.732C157.844 57.3985 157.976 57.065 158.126 56.7481L159.851 52.8126C161.312 49.4941 162.606 46.5092 163.801 43.4575C164.149 42.5903 163.403 41.7565 162.556 41.373C161.776 41.0061 160.432 40.9061 160.034 41.6732C158.524 44.5748 157.163 47.443 155.67 50.6448L153.629 55.0139C153.512 55.264 153.015 56.3312 153.015 56.3312C153.015 56.3312 152.567 53.3463 152.484 52.1123C152.367 50.6448 152.401 49.144 152.417 47.7098C152.434 46.2924 152.649 44.8583 152.434 43.4241C152.367 42.9239 151.654 42.507 151.007 42.3902C150.94 42.3902 150.343 42.1568 150.127 42.7237C149.132 45.2918 148.866 48.1934 148.766 50.5781C148.7 51.9455 148.717 53.3296 148.766 54.697C148.766 54.8804 148.783 55.0806 148.8 55.264C148.849 56.3646 148.899 57.4986 149.181 58.5658C149.43 59.483 150.144 61.1339 152.152 61.7676C153.795 62.2845 155.321 61.8343 156.317 60.5169L156.3 60.5002Z" fill="#FF9E18"/>
<path d="M152.354 31.7678C156.436 33.1185 160.751 33.9356 164.501 34.0524C165.248 34.069 165.878 33.8522 166.193 33.452C166.409 33.1852 166.476 32.8517 166.393 32.4848C166.16 31.5009 164.965 30.6338 163.605 30.467C163.24 30.417 162.875 30.3837 162.51 30.3503C160.817 30.1669 159.074 29.9668 157.382 29.6166C156.403 29.4165 155.457 29.183 154.528 28.9329C153.947 28.7828 153.416 28.616 152.901 28.4493C152.818 28.4159 152.387 28.2325 152.387 28.2325C152.387 28.2325 153.001 27.5821 153.101 27.5154C153.748 27.0151 154.511 26.6483 155.258 26.2647C156.818 25.4976 158.411 24.9307 160.087 24.3303L160.734 24.0969C162.128 23.5966 163.771 22.6461 163.754 20.9451C163.754 19.7445 162.692 18.2436 160.369 17.5599C158.427 16.9929 156.121 17.0263 154.279 17.043C151.906 17.0763 149.682 17.3265 147.658 17.8101C147.077 17.9435 146.795 18.227 146.861 18.6105C146.961 19.2442 147.956 19.9946 148.902 19.9279C151.723 19.7278 153.914 19.7111 155.971 19.8612H155.988C156.95 19.9279 159.025 20.2114 159.025 20.2114C159.025 20.2114 157.863 20.7784 157.299 20.9451C157.15 20.9952 157 21.0285 156.851 21.0785C155.789 21.412 154.876 21.7456 154.013 22.0958C152.354 22.7628 150.462 23.5799 149.085 24.6305C147.591 25.7644 147.077 27.2486 147.724 28.5827C148.57 30.317 150.744 31.2175 152.304 31.7344L152.354 31.7678Z" fill="white"/>
</svg>
