<?xml version="1.0" encoding="UTF-8"?>
<svg id="Capa_2" data-name="Capa 2" xmlns="http://www.w3.org/2000/svg" viewBox="0 0 1414.74 226.11">
  <defs>
    <style>
      .cls-1 {
        fill: #191cbe;
        stroke-width: 0px;
      }
    </style>
  </defs>
  <g id="Capa_1-2" data-name="Capa 1">
    <g>
      <g>
        <path class="cls-1" d="M124.3,0h-21.53v87.81c-10.95-13.37-1.42-39.76-42.12-39.76C27.15,48.05,0,77.56,0,113.96s27.15,65.91,60.65,65.91,36.01-23.53,42.12-39.86v23.04c0,7.07,5.87,12.81,13.1,12.81h19v-21.05h-10.57V0ZM60.65,157.5c-22.13,0-40.07-19.49-40.07-43.54s17.94-43.54,40.07-43.54,40.07,19.49,40.07,43.54-17.94,43.54-40.07,43.54Z"/>
        <path class="cls-1" d="M357.61,0h-21.53v52.05h-40.71v21.05h40.71v89.95c0,7.07,5.87,12.81,13.1,12.81h50.31v-21.05h-41.89v-81.72h48.54v-21.05h-48.54V0Z"/>
        <path class="cls-1" d="M908.26,73.1v-21.05h-48.54V0h-21.53v52.05h-40.71v21.05h40.71v89.95c0,7.07,5.87,12.81,13.1,12.81h50.31v-21.05h-41.89v-81.72h48.54Z"/>
        <polygon class="cls-1" points="597.57 0 572.52 0 572.52 21.05 597.57 21.05 597.57 175.86 619.1 175.86 619.1 0 616.75 0 597.57 0"/>
        <path class="cls-1" d="M772.07,52.05h-21.53v33.95c-8.9-13.8-1.88-37.94-40.82-37.94-33.49,0-60.65,29.51-60.65,65.91s27.15,65.91,60.65,65.91c31.37,0,35.52-20.19,40.82-36.14v19.32c0,7.07,5.87,12.81,13.1,12.81h19v-21.05h-10.57V52.05ZM709.72,157.5c-22.13,0-40.07-19.49-40.07-43.54s17.94-43.54,40.07-43.54,40.07,19.49,40.07,43.54-17.94,43.54-40.07,43.54Z"/>
        <path class="cls-1" d="M546.85,52.05h-21.53v33.95c-8.9-13.8-1.88-37.94-40.82-37.94-33.5,0-60.65,29.51-60.65,65.91s27.15,65.91,60.65,65.91c31.37,0,35.52-20.19,40.82-36.14v19.32c0,7.07,5.87,12.81,13.1,12.81h19.65v-21.05h-11.22V52.05ZM484.51,157.5c-22.13,0-40.07-19.49-40.07-43.54s17.94-43.54,40.07-43.54,40.07,19.49,40.07,43.54-17.94,43.54-40.07,43.54Z"/>
        <path class="cls-1" d="M270.48,52.05h-21.53v33.95c-8.9-13.8-1.88-37.94-40.82-37.94-33.49,0-60.65,29.51-60.65,65.91s27.15,65.91,60.65,65.91c31.37,0,35.52-20.19,40.82-36.14v19.32c0,7.07,5.87,12.81,13.1,12.81h19.65v-21.05h-11.22V52.05ZM208.14,157.5c-22.13,0-40.07-19.49-40.07-43.54s17.94-43.54,40.07-43.54,40.07,19.49,40.07,43.54-17.94,43.54-40.07,43.54Z"/>
      </g>
      <g>
        <path class="cls-1" d="M936.71,162.28c0-4.82,1.74-8.93,5.23-12.34,3.48-3.41,7.69-5.11,12.62-5.11s9.14,1.7,12.62,5.11c3.48,3.41,5.23,7.52,5.23,12.34s-1.75,8.93-5.23,12.34c-3.49,3.4-7.69,5.11-12.62,5.11s-9.14-1.71-12.62-5.11c-3.49-3.41-5.23-7.52-5.23-12.34Z"/>
        <path class="cls-1" d="M1133.33,115.91c0,10.31-1.74,19.41-5.23,27.3-3.49,7.9-8.12,14.55-13.9,19.95-5.78,5.4-12.54,9.52-20.27,12.34-7.74,2.82-15.77,4.24-24.1,4.24s-16.58-1.41-24.23-4.24c-7.65-2.82-14.37-6.94-20.15-12.34-5.78-5.4-10.42-12.05-13.9-19.95-3.49-7.89-5.23-16.99-5.23-27.3v-2.99c0-10.13,1.74-19.15,5.23-27.05,3.48-7.89,8.16-14.58,14.03-20.07,5.86-5.48,12.62-9.64,20.27-12.46,7.65-2.82,15.64-4.24,23.97-4.24s16.32,1.41,23.97,4.24c7.65,2.83,14.41,6.98,20.27,12.46,5.87,5.49,10.54,12.18,14.03,20.07,3.48,7.9,5.23,16.92,5.23,27.05v2.99ZM1069.83,158.07c5.9,0,11.35-1,16.36-3.01,5-2,9.39-4.93,13.16-8.78,3.77-3.85,6.72-8.46,8.86-13.83,2.13-5.37,3.2-11.43,3.2-18.16v-2.89c0-6.41-1.07-12.3-3.2-17.68-2.13-5.37-5.09-9.98-8.86-13.83-3.78-3.85-8.2-6.86-13.29-9.02-5.09-2.16-10.5-3.24-16.24-3.24s-11.16,1.08-16.24,3.24c-5.09,2.16-9.51,5.17-13.28,9.02-3.78,3.85-6.73,8.46-8.86,13.83-2.13,5.37-3.2,11.27-3.2,17.68v2.89c0,6.73,1.07,12.79,3.2,18.16,2.13,5.37,5.08,9.98,8.86,13.83,3.77,3.85,8.16,6.78,13.16,8.78,5,2.01,10.46,3.01,16.36,3.01Z"/>
        <path class="cls-1" d="M1147.61,52.58h45.9v27.8s1.71-15.05,16.83-26.43c5.4-4.06,12.75-4.86,20.4-4.86,12.75,0,23.04,4.08,30.86,12.22,7.82,8.14,11.99,20.03,12.5,35.65l-20.91,2.99c0-11.47-2.81-19.73-8.42-24.81-5.61-5.07-12.5-7.6-20.66-7.6-5.27,0-9.82,1-13.64,2.99-3.82,2-7.01,4.74-9.56,8.23-2.55,3.49-4.42,7.57-5.61,12.22-1.19,4.66-1.78,9.64-1.78,14.96v49.25h32.13v21.06h-81.1v-21.06h27.76v-81.32h-24.7v-21.28Z"/>
        <path class="cls-1" d="M1391.66,143.92s-2.32,23.69-19.76,30.2c-7.5,2.8-14.75,5.61-23.08,5.61s-16.49-1.41-23.97-4.24c-7.48-2.82-14.07-6.89-19.76-12.22-5.7-5.32-10.2-11.92-13.52-19.82-3.32-7.89-4.97-16.91-4.97-27.05v-3.99c0-9.97,1.7-18.9,5.1-26.8,3.4-7.89,7.91-14.54,13.52-19.95,5.61-5.4,12.15-9.51,19.64-12.34,7.48-2.82,15.3-4.24,23.46-4.24,9.18,0,17.21,1.96,24.1,5.86,6.89,3.91,17.23,18.23,21.14,25.71h-.36l-1.53-28.08h23.07v154.08c0,5.65-1.83,10.3-5.48,13.96-3.66,3.65-8.38,5.49-14.15,5.49h-85.55v-21.06h75.23c4.59,0,6.89-2.49,6.89-7.48v-53.65ZM1349.33,161.28c5.95,0,11.48-1.08,16.58-3.24,5.1-2.16,9.56-5.23,13.39-9.23,3.83-3.99,6.84-8.77,9.05-14.34,2.21-5.56,3.32-11.76,3.32-18.57v-2.99c0-6.65-1.11-12.75-3.32-18.32-2.21-5.57-5.23-10.35-9.05-14.34-3.83-3.99-8.33-7.11-13.52-9.35-5.19-2.24-10.67-3.36-16.45-3.36s-11.52,1.08-16.7,3.24c-5.19,2.16-9.69,5.23-13.52,9.23-3.83,3.99-6.8,8.73-8.93,14.21-2.13,5.48-3.19,11.55-3.19,18.2v3.99c0,6.98,1.06,13.22,3.19,18.7,2.12,5.49,5.1,10.18,8.93,14.09,3.82,3.91,8.29,6.9,13.39,8.97,5.1,2.08,10.71,3.12,16.83,3.12Z"/>
      </g>
    </g>
  </g>
</svg>