<?xml version="1.0" encoding="UTF-8"?>
<svg id="Capa_2" data-name="Capa 2" xmlns="http://www.w3.org/2000/svg" viewBox="0 0 915.16 330.02">
  <defs>
    <style>
      .cls-1 {
        fill: #1d1e1c;
        stroke-width: 0px;
      }
    </style>
  </defs>
  <g id="Capa_1-2" data-name="Capa 1">
    <g>
      <g>
        <path class="cls-1" d="M356.54,177.72c0,3.39.26,6.66.76,9.84.5,3.18,1.31,5.99,2.45,8.46,1.13,2.47,2.61,4.44,4.45,5.91,1.83,1.48,4.09,2.21,6.77,2.21,4.94,0,8.53-1.77,10.78-5.3,2.25-3.53,3.79-8.89,4.63-16.08l26.24-.04c-.54,13.26-4.05,23.35-10.53,30.27-6.48,6.92-16.7,10.39-30.66,10.41-10.58.02-18.83-1.73-24.76-5.25-5.93-3.51-10.31-8.16-13.14-13.94-2.83-5.77-4.57-12.26-5.22-19.45-.65-7.2-.98-14.39-.99-21.58-.01-7.62.51-14.95,1.55-22.01,1.04-7.05,3.15-13.33,6.32-18.84,3.16-5.51,7.71-9.89,13.62-13.14,5.92-3.25,13.81-4.89,23.69-4.91,8.46-.01,15.41,1.35,20.85,4.09,5.43,2.74,9.71,6.62,12.82,11.62,3.11,5,5.23,11.06,6.38,18.18,1.14,7.12,1.72,15.06,1.73,23.8v6.56s-57.75.1-57.75.1l.02,9.1ZM385.46,139.69c-.43-3.31-1.17-6.13-2.23-8.46-1.06-2.32-2.54-4.08-4.45-5.28-1.91-1.19-4.34-1.79-7.3-1.78-2.96,0-5.4.68-7.3,2.02-1.9,1.34-3.42,3.11-4.54,5.3-1.13,2.19-1.93,4.62-2.42,7.31-.49,2.68-.73,5.36-.73,8.04v4.44s29.84-.05,29.84-.05c-.15-4.37-.44-8.22-.86-11.53Z"/>
        <path class="cls-1" d="M450.92,187.5c0,4.94,1.32,8.92,3.94,11.95,2.61,3.03,6.39,4.54,11.32,4.53,4.51,0,8.11-1.13,10.79-3.4,2.67-2.26,4.01-5.65,4-10.16,0-3.66-1.07-6.45-3.19-8.35-2.12-1.9-4.59-3.41-7.41-4.54l-20.53-7.37c-8.05-2.81-14.12-6.78-18.22-11.92-4.1-5.14-6.15-11.73-6.17-19.77,0-4.65.76-9.06,2.3-13.23,1.54-4.16,4.01-7.8,7.39-10.91,3.38-3.11,7.72-5.58,13-7.43,5.28-1.84,11.66-2.77,19.14-2.78,13.26-.02,23.07,2.79,29.42,8.41,6.36,5.63,9.55,13.6,9.56,23.89v4.65s-26.23.04-26.23.04c0-5.93-.97-10.26-2.88-13.01-1.91-2.75-5.26-4.12-10.06-4.11-3.67,0-6.87,1.04-9.62,3.08-2.75,2.05-4.12,5.12-4.11,9.21,0,2.83.89,5.36,2.66,7.61,1.76,2.25,5.12,4.15,10.06,5.7l17.57,5.89c9.17,3.09,15.67,7.14,19.48,12.13,3.82,5.01,5.73,11.81,5.75,20.41.01,6.06-1.04,11.32-3.15,15.77-2.11,4.45-5.03,8.16-8.76,11.12-3.74,2.97-8.17,5.09-13.32,6.37-5.15,1.27-10.82,1.92-17.03,1.93-8.18.01-14.99-.75-20.42-2.29-5.43-1.54-9.74-3.86-12.92-6.96-3.18-3.1-5.41-6.87-6.68-11.31-1.28-4.44-1.92-9.41-1.93-14.91v-4.02s26.23-.04,26.23-.04v3.8Z"/>
        <path class="cls-1" d="M551.28,106.94l.02,12.06h.42c3.23-5.36,6.86-9.22,10.88-11.55,4.02-2.34,8.99-3.51,14.91-3.52,11.99-.02,20.81,4.66,26.47,14.02,5.65,9.37,8.51,24.64,8.54,45.79.03,21.16-2.77,36.32-8.39,45.5-5.63,9.18-14.44,13.78-26.42,13.8-5.5,0-10.19-1.01-14.08-3.04-3.88-2.04-7.38-5.31-10.49-9.82h-.42s.08,47.18.08,47.18l-29.2.05-.25-150.43,27.93-.05ZM555.55,191.88c1.92,6.27,6.12,9.4,12.61,9.39,6.35-.01,10.47-3.15,12.36-9.43,1.89-6.28,2.83-15.63,2.81-28.04-.02-12.41-.99-21.75-2.9-28.03-1.92-6.27-6.05-9.4-12.39-9.39-6.49.01-10.68,3.16-12.57,9.43-1.89,6.28-2.83,15.63-2.81,28.04.02,12.41.99,21.76,2.9,28.03Z"/>
        <path class="cls-1" d="M627.71,137.92c1.54-7.48,4.07-13.72,7.58-18.74,3.52-5.01,8.13-8.83,13.84-11.45,5.71-2.62,12.72-3.93,21.05-3.95,8.75-.15,16.01,1,21.8,3.46,5.79,2.46,10.38,6.23,13.77,11.3,3.39,5.07,5.8,11.35,7.22,18.82,1.42,7.47,2.14,16.22,2.16,26.23.02,9.73-.75,18.34-2.28,25.82-1.54,7.48-4.07,13.72-7.59,18.74-3.52,5.01-8.13,8.72-13.84,11.13-5.71,2.41-12.72,3.62-21.05,3.63-8.75.16-16.01-.92-21.8-3.24-5.79-2.32-10.38-5.98-13.77-10.98-3.39-5-5.8-11.27-7.23-18.82-1.42-7.54-2.14-16.25-2.16-26.13-.02-9.73.74-18.33,2.28-25.82ZM655.07,179.76c.29,4.94.97,9.17,2.03,12.7,1.06,3.53,2.65,6.27,4.78,8.24,2.12,1.97,4.94,2.95,8.47,2.94,5.92,0,10.01-3.11,12.26-9.32,2.24-6.21,3.36-16.44,3.33-30.69-.02-14.25-1.17-24.47-3.43-30.67-2.27-6.2-6.36-9.29-12.29-9.28-3.53,0-6.35.99-8.46,2.97-2.11,1.98-3.7,4.74-4.75,8.26-1.05,3.53-1.72,7.76-1.99,12.7-.28,4.94-.41,10.3-.4,16.08,0,5.78.16,11.15.45,16.08Z"/>
        <path class="cls-1" d="M785.02,139.35c-.36-2.67-1-5.11-1.92-7.29-.92-2.19-2.23-3.94-3.92-5.29-1.69-1.33-3.95-2-6.77-2-3.53,0-6.42.82-8.67,2.45-2.26,1.63-3.94,4.03-5.07,7.2-1.13,3.18-1.89,7.2-2.31,12.06-.41,4.87-.62,10.62-.61,17.25.01,7.05.23,13.08.67,18.09.43,5,1.21,9.13,2.35,12.37,1.13,3.24,2.72,5.6,4.77,7.07,2.04,1.48,4.69,2.21,7.94,2.21,4.94,0,8.53-2.13,10.78-6.36,2.25-4.23,3.37-11.01,3.35-20.32l27.93-.05c.02,14.95-3.31,26.35-10,34.19-6.69,7.84-17.79,11.77-33.3,11.79-7.34.01-13.72-.86-19.15-2.61-5.43-1.75-9.95-4.92-13.56-9.5-3.6-4.57-6.33-10.7-8.18-18.39-1.85-7.68-2.78-17.23-2.8-28.66-.02-11.7,1.09-21.4,3.34-29.1,2.24-7.69,5.4-13.83,9.49-18.42,4.08-4.59,8.94-7.81,14.58-9.65,5.64-1.84,11.84-2.77,18.62-2.78,13.54-.02,23.73,3.91,30.59,11.8,6.85,7.89,10.29,18.6,10.31,32.14l-27.93.05c0-2.82-.19-5.57-.54-8.25Z"/>
        <path class="cls-1" d="M857.78,69.2l.08,48.87h.42c5.63-9.74,14.86-14.62,27.69-14.64,9.31-.02,16.47,2.51,21.49,7.58,5.01,5.07,7.53,13.31,7.55,24.74l.14,84.42-29.2.05-.13-78.5c0-5.92-1-10.05-2.98-12.37-1.98-2.32-5.16-3.48-9.53-3.47-10.3.02-15.44,6.3-15.42,18.85l.12,75.53-29.2.05-.25-151.06,29.2-.05Z"/>
      </g>
      <g>
        <path class="cls-1" d="M129.11,308.08s-.02-.01-.03-.02h0s-.02.01-.03.02c-13.51-7.1-28.24-7.02-30.21-6.97l-66.49.11.03,17.61,66.6-.11c.08,0,.19,0,.27,0,.2-.02,20.34-.64,29.87,11.31h0s0,0,0,0h0c9.49-11.98,29.63-11.42,29.83-11.4.08,0,.19,0,.27,0l65.79-.11-.03-17.61-65.68.11c-1.97-.04-16.7-.08-30.18,7.07Z"/>
        <path class="cls-1" d="M256.54,227.51l-.38-227.51-17.61.03L17.61.39,0,.42l.38,227.24c-.01.15-.02.3-.02.45-.04,1.51-.06,15.09,10.91,26.33,8.45,8.66,20.81,13.19,36.66,13.6v.03s.53,0,.53,0v.09s7.39-.01,7.39-.01c0-.03,0-.06-.01-.09l43.07-.07c.08,0,.19,0,.27,0,.2-.02,20.34-.64,29.87,11.31h0s0,0,0,0c9.49-11.98,29.63-11.42,29.83-11.4.08,0,.19,0,.27,0l47.85-.02h0c17.04-.02,30.14-4.69,38.93-13.86,10.52-10.99,10.69-24.17,10.64-26.51ZM208.58,250.2l-49.37.08c-1.97-.04-16.7-.08-30.18,7.07-.01,0-.02-.01-.03-.02h0s-.02.01-.03.02c-13.51-7.1-28.24-7.02-30.21-6.97l-50.55.08c-10.89-.31-19.04-3.02-24.16-8.15-5.59-5.59-6.05-12.48-6.09-13.6l-.32-210.71,220.94-.37.35,210.02c0,.12,0,.23,0,.35,0,.07.05,7.76-5.75,13.82-5.09,5.32-13.32,8.1-24.54,8.37h-.06Z"/>
        <path class="cls-1" d="M187.23,168.23c-.62.03-1.19.06-1.74.06-3.1,0-5.26-1.94-5.27-1.94h0c-.32-.32-.66-.62-1.02-.89-12.68-9.5-22.04-8.49-28.25-7.82-2.21.24-3.96.42-5.19.13-1.18-.4-4.46-2.73-6.86-4.85-17.84-18.28-36.59-17.69-49.21-13.96-12,3.55-20.56,10.65-22.22,12.1l-32.1,25.49.04,22.46,43.2-34.3c.14-.11.3-.25.43-.37,2.54-2.28,25.5-21.64,47.43,1.05.14.14.28.28.43.41,2.5,2.26,8.93,7.67,14.57,9.04,4.35,1.06,8.08.66,11.36.31,4.95-.53,8.55-.91,15.45,4.14,2.03,1.83,8.22,6.64,17.24,6.62.8,0,1.65-.04,2.55-.08,4.39-.2,8.93-.42,17.63,6.3,3.04,2.34,8.68,6.6,15.55,11.75l-.04-22.07c-1.93-1.46-3.57-2.71-4.75-3.62-13.83-10.69-23.47-10.23-29.24-9.96Z"/>
        <path class="cls-1" d="M129.03,279.63h0s-.01.01-.02.02h.02s.02,0,.02,0c0,0-.01-.01-.02-.02h0Z"/>
        <path class="cls-1" d="M210.74,119.69c-1.78-6.18-4.27-12.15-7.4-17.77l10.25-10.29-33.52-33.41-10.25,10.29c-5.63-3.11-11.61-5.57-17.8-7.34l-.02-14.52-47.32.08.02,14.52c-6.18,1.78-12.15,4.27-17.77,7.4l-10.29-10.26-33.41,33.52,10.29,10.26c-3.11,5.64-5.58,11.62-7.34,17.8l-14.53.02.07,39.87,13.69-10.87-.03-15.32,11.68-.02,1.16-5.4c1.8-8.36,5.06-16.26,9.68-23.47l2.98-4.65-8.28-8.25,14.06-14.1,8.27,8.24,4.64-2.99c7.2-4.65,15.09-7.93,23.44-9.76l5.4-1.18-.02-11.68,19.91-.03.02,11.68,5.4,1.17c8.37,1.81,16.26,5.06,23.47,9.68l4.65,2.98,8.25-8.27,14.1,14.06-8.25,8.27,2.99,4.64c4.64,7.2,7.93,15.09,9.76,23.44l1.18,5.39,11.68-.02.04,21.76.55.37c1.14.77,2.29,1.58,3.49,2.51,1.18.91,2.83,2.16,4.76,3.63l4.92,3.71-.08-45.7-14.53.02Z"/>
      </g>
    </g>
  </g>
</svg>