<svg width="56" height="55" viewBox="0 0 56 55" fill="none" xmlns="http://www.w3.org/2000/svg">
<path d="M28.1856 31.8459C30.5856 31.8459 32.5313 29.9002 32.5313 27.5001C32.5313 25.1001 30.5856 23.1544 28.1856 23.1544C25.7855 23.1544 23.8398 25.1001 23.8398 27.5001C23.8398 29.9002 25.7855 31.8459 28.1856 31.8459Z" fill="white"/>
<path d="M33.7426 16.5186H22.6268C21.1874 16.5186 19.8068 17.0905 18.7889 18.1083C17.7711 19.1262 17.1992 20.5067 17.1992 21.9462V33.0584C17.1992 34.4979 17.7711 35.8785 18.7889 36.8963C19.8068 37.9142 21.1874 38.486 22.6268 38.486H33.7426C35.1821 38.486 36.5627 37.9142 37.5805 36.8963C38.5984 35.8785 39.1703 34.4979 39.1703 33.0584V21.9426C39.1693 20.5038 38.597 19.1241 37.5793 18.1071C36.5615 17.09 35.1815 16.5186 33.7426 16.5186ZM28.1847 34.6143C26.7776 34.6151 25.4019 34.1984 24.2315 33.4172C23.0612 32.636 22.1488 31.5252 21.6099 30.2254C21.0709 28.9256 20.9295 27.4951 21.2036 26.1149C21.4776 24.7347 22.1549 23.4668 23.1496 22.4716C24.1444 21.4763 25.4119 20.7984 26.792 20.5237C28.172 20.2489 29.6025 20.3895 30.9026 20.9279C32.2027 21.4662 33.314 22.378 34.0958 23.5479C34.8776 24.7179 35.2949 26.0934 35.2949 27.5005C35.293 29.386 34.5434 31.1938 33.2105 32.5274C31.8776 33.8609 30.0702 34.6115 28.1847 34.6143ZM35.3384 22.1453C34.9902 22.146 34.6497 22.0434 34.36 21.8504C34.0703 21.6574 33.8443 21.3828 33.7107 21.0613C33.5772 20.7399 33.5421 20.386 33.6098 20.0445C33.6775 19.7031 33.8451 19.3894 34.0913 19.1432C34.3374 18.8971 34.6511 18.7295 34.9926 18.6618C35.334 18.594 35.6879 18.6292 36.0094 18.7627C36.3309 18.8963 36.6055 19.1222 36.7984 19.412C36.9914 19.7017 37.094 20.0422 37.0933 20.3903C37.0923 20.8555 36.9071 21.3013 36.5782 21.6302C36.2493 21.9591 35.8035 22.1443 35.3384 22.1453Z" fill="white"/>
<path d="M28.1856 0C22.7466 0 17.4297 1.61285 12.9074 4.63458C8.38502 7.65632 4.86028 11.9512 2.77887 16.9762C0.697462 22.0012 0.152871 27.5305 1.21396 32.865C2.27506 38.1995 4.89418 43.0995 8.74012 46.9454C12.5861 50.7914 17.4861 53.4105 22.8206 54.4716C28.155 55.5327 33.6844 54.9881 38.7093 52.9067C43.7343 50.8253 48.0292 47.3005 51.051 42.7782C54.0727 38.2558 55.6855 32.939 55.6855 27.5C55.6855 20.2065 52.7882 13.2118 47.631 8.05456C42.4737 2.89731 35.479 0 28.1856 0ZM41.9356 33.0579C41.9336 35.23 41.0699 37.3126 39.534 38.8485C37.9981 40.3844 35.9155 41.2481 33.7434 41.25H22.6277C20.4559 41.2471 18.3738 40.3831 16.8381 38.8474C15.3024 37.3117 14.4384 35.2297 14.4356 33.0579V21.9421C14.4384 19.7703 15.3024 17.6883 16.8381 16.1526C18.3738 14.6169 20.4559 13.7529 22.6277 13.75H33.7434C35.9152 13.7529 37.9973 14.6169 39.533 16.1526C41.0687 17.6883 41.9327 19.7703 41.9356 21.9421V33.0579Z" fill="white"/>
</svg>
