<?xml version="1.0" encoding="UTF-8"?>
<svg id="Capa_2" data-name="Capa 2" xmlns="http://www.w3.org/2000/svg" viewBox="0 0 476.81 350.5">
  <defs>
    <style>
      .cls-1 {
        fill: #ffda0f;
      }

      .cls-1, .cls-2, .cls-3 {
        stroke-width: 0px;
      }

      .cls-2 {
        fill: #565654;
      }

      .cls-3 {
        fill: #0397a8;
      }
    </style>
  </defs>
  <g id="Capa_1-2" data-name="Capa 1">
    <g>
      <g>
        <path class="cls-2" d="M7.13,350.3c-3.93,0-7.13-3.2-7.13-7.13v-189.51c0-3.93,3.2-7.13,7.13-7.13h1.03c3.93,0,7.13,3.2,7.13,7.13v181.35h53.08c3.93,0,7.13,3.2,7.13,7.13v1.03c0,3.93-3.2,7.13-7.13,7.13H7.13Z"/>
        <g>
          <path class="cls-3" d="M177.35,350.49c-3.45,0-6.4-2.46-7.02-5.85l-38.63-211.01-31.33,210.75c-.52,3.47-3.55,6.09-7.06,6.09-.35,0-.7-.03-1.05-.08l-1.01-.15c-1.88-.28-3.55-1.28-4.68-2.81-1.14-1.53-1.61-3.42-1.33-5.3l37.32-251.04c.63-4.22,4.18-7.29,8.45-7.29s7.64,2.88,8.4,7l45.97,251.07c.34,1.88-.06,3.78-1.15,5.35-1.08,1.57-2.71,2.62-4.59,2.97l-1,.18c-.43.08-.87.12-1.29.12Z"/>
          <rect class="cls-3" x="96.92" y="269.28" width="74.52" height="15.3"/>
        </g>
        <path class="cls-2" d="M212.08,350.49c-4.9,0-10.17-.19-11.67-.25-3.35-.13-5.98-2.87-5.98-6.24V40.25c0-3.45,2.8-6.25,6.25-6.25,6.81.06,31.06,2.97,53.25,15.04,23.81,12.95,52.2,39.77,52.2,93.95s-27.8,86.59-51.12,104.94c-4.93,3.88-9.84,7.25-14.52,10.17,1.73.11,3.43.25,5.1.41,18.28,1.82,37.63,4.12,50.15,18.43,17.16,19.61,13.45,49.76-9.48,62.52-18.74,10.43-41.98,10.94-62.89,11.05-3.76.02-7.53,0-11.29,0ZM211.2,335.16c20.44,0,79.67,2.39,79.67-31.49,0-28.1-38.44-30.56-61.07-30.56-8.16,0-15.29.61-20.09,1.17v60.88c.47,0,.97,0,1.48,0ZM209.72,256.73c8.95-3.68,22.44-10.29,35.93-20.92,29.98-23.63,45.18-54.86,45.18-92.84s-14.84-64.48-44.1-80.45c-14.12-7.7-28.49-10.93-37.01-12.25v206.46Z"/>
      </g>
      <g>
        <path class="cls-1" d="M475.79,54.32c.54-5.33,1.04-10.65,1.02-15.98-.01-3.64-.29-7.23-.89-10.76-1.08-6.32-3.78-11.02-8.93-13.46-5.09-2.4-10.39-4.08-15.79-5.45-7.67-1.95-15.5-3.04-23.24-4.64-4.5-.93-9.14-1.25-13.73-1.66-3.39-.3-6.76-.8-10.18-.97-4.91-.24-9.79-.74-14.71-.93-4.14-.16-8.27-.4-12.43-.39-4.52,0-9.02-.18-13.55.05-6.6.34-13.19.97-19.73,2.78-3.67,1.02-7.19,2.58-10.39,5.07-3.79,2.94-6.4,7.13-8.52,11.75-3.05,6.65-4.96,13.73-6.58,20.91-1.43,6.37-2.6,12.79-3.53,19.26-.79,5.5-1.2,11.01-1.28,16.53-.06,3.77.14,7.51.59,11.2.59,4.87,1.75,9.49,3.71,13.76,1.75,3.81,4.22,6.83,7.15,9.34,1.21,1.04,2.11,2.23,2.2,4.1.05,1.08.08,2.16.07,3.24-.05,6.51-1.24,12.93-2.23,19.36-.6,3.9-1.3,7.78-2.15,11.63-.08.36-.32.83.01,1.08.38.28.67-.19.97-.43.84-.69,1.67-1.41,2.53-2.09,4.1-3.25,8.22-6.48,12.47-9.44,3.43-2.39,6.89-4.71,10.63-6.28,1.52-.64,2.93-.63,4.36.17,6.42,3.59,13.2,6.18,20.14,8.27,5.33,1.6,10.7,3.06,16.15,4.22,7.77,1.66,15.54,3.33,23.46,4.19,5.08.56,10.19,1.06,15.36.76,3.29-.19,6.55-.52,9.67-2.3,7.07-4.05,12.02-10.73,16.12-18.38,2.01-3.76,3.75-7.67,5.29-11.75,3.3-8.75,6.53-17.52,9.26-26.5,1.4-4.6,2.54-9.29,3.56-14.42,1.5-6.94,2.37-14.37,3.13-21.81Z"/>
        <g>
          <path class="cls-2" d="M365.09,113.07c-2.52-.46-3.59-1.73-3.21-3.78.82-4.45,1.17-8.49,1.06-12.11-.11-3.62-.28-7.25-.5-10.87-.22-3.62-.35-6.04-.38-7.27-.37.84-1.09,2.75-2.16,5.72-1.07,2.97-2.17,5.89-3.31,8.76-1.15,2.91-2.38,5.85-3.71,8.82-3.01,6.65-5.73,9.77-8.17,9.36-.84-.16-1.58-.57-2.21-1.25-.63-.68-.87-1.44-.72-2.28.6-3.27,2.4-7.93,5.38-13.98,2.98-6.05,5.99-12.21,9.01-18.49,3.03-6.28,4.86-11.14,5.49-14.58.64-3.44.89-7.17.76-11.19-.2-4.12-.52-7.78-.97-10.99-1.27-8.65-1.39-15.64-.36-20.96l.06-.32c1.12-1.62,2.3-2.31,3.54-2.08,1.24.23,2.15,1.16,2.74,2.78.59,1.63.99,3.75,1.2,6.37.21,2.62.34,5.08.4,7.36.05,2.29.06,4.8.01,7.52-.05,2.73-.06,4.37-.03,4.94.24-.39,1.34-3.27,3.29-8.64,4.79-13.05,8.47-19.33,11.03-18.86.96.18,1.8.59,2.5,1.24.7.65.92,1.72.64,3.21-.27,1.49-3.16,8.12-8.65,19.89-5.49,11.77-8.51,19.12-9.05,22.06-.19,1.01-.18,7.09.02,18.23.2,11.15.29,16.98.29,17.5l-.14.76c-.11,1.07-.03,2.73.25,4.99.28,2.26.32,3.93.12,5-.2,1.07-.72,1.9-1.56,2.48-.85.58-1.73.79-2.65.62Z"/>
          <path class="cls-2" d="M397.83,119.12c-2.52-.46-3.59-1.73-3.21-3.78.82-4.45,1.17-8.48,1.06-12.11-.11-3.62-.28-7.25-.5-10.87-.22-3.62-.35-6.04-.38-7.26-.37.84-1.09,2.75-2.16,5.72-1.07,2.97-2.17,5.89-3.31,8.76-1.15,2.91-2.38,5.85-3.71,8.82-3.01,6.65-5.73,9.77-8.17,9.36-.84-.16-1.58-.57-2.21-1.25-.63-.68-.87-1.44-.72-2.28.6-3.27,2.4-7.93,5.38-13.98,2.98-6.05,5.99-12.21,9.01-18.49,3.03-6.28,4.86-11.14,5.49-14.58.64-3.44.89-7.17.76-11.19-.2-4.12-.52-7.78-.97-10.99-1.27-8.65-1.39-15.64-.36-20.96l.06-.32c1.12-1.62,2.3-2.31,3.54-2.08,1.24.23,2.15,1.16,2.74,2.78.59,1.63.99,3.75,1.2,6.37.21,2.62.34,5.08.4,7.36.05,2.29.06,4.8.01,7.52-.05,2.72-.06,4.37-.03,4.94.24-.39,1.34-3.27,3.29-8.64,4.79-13.05,8.47-19.33,11.03-18.86.97.18,1.8.59,2.51,1.24.7.65.92,1.72.64,3.21-.27,1.49-3.16,8.12-8.65,19.89-5.49,11.77-8.51,19.12-9.05,22.06-.19,1.01-.18,7.08.02,18.23.2,11.15.29,16.98.29,17.5l-.14.76c-.11,1.06-.03,2.73.25,4.99.28,2.26.32,3.93.12,5-.2,1.07-.72,1.9-1.56,2.48-.85.58-1.73.79-2.65.62Z"/>
          <path class="cls-2" d="M440.18,34.62l-2.25-.48c-.84-.15-1.49-.09-1.96.19-.47.28-.79.95-.99,2-1.55,8.4-3.35,21.06-5.39,38-2.04,16.94-3.84,29.61-5.39,38l-.92,4.97c.9.04,1.8.14,2.68.3,3.57.66,5.07,2.5,4.51,5.52l-.14.76-3.62,1.61-8.81-1.3c-7.43-1.37-10.91-3.34-10.44-5.9.38-2.06,1.87-2.84,4.47-2.36l2.67.69c1.26.23,2.07-.66,2.45-2.67,1.22-6.63,2.66-16.64,4.31-30.03,1.65-13.39,3.08-23.4,4.31-30.03l2.68-13.11c.51-2.77.85-5.18,1.01-7.23-1.2.17-2.24.17-3.13,0-2.01-.37-2.83-1.59-2.45-3.64.19-1.05,1.01-1.84,2.46-2.38,1.44-.54,3.16-.79,5.16-.77,3.73.04,6.46.22,8.2.54,1.74.32,2.93.9,3.55,1.73.63.83.85,1.72.68,2.66-.17.94-.61,1.71-1.3,2.3-.69.59-1.48.8-2.36.64Z"/>
        </g>
      </g>
    </g>
  </g>
</svg>