<svg width="307" height="110" viewBox="0 0 307 110" fill="none" xmlns="http://www.w3.org/2000/svg">
<path d="M22.001 34.0149C19.8162 34.0149 18.0684 35.8385 18.0684 38.0586C18.0684 40.2787 19.8419 42.1024 22.001 42.1024C24.16 42.1024 25.9336 40.2787 25.9336 38.0586C25.9336 35.8385 24.16 34.0149 22.001 34.0149Z" fill="white"/>
<path d="M92.7886 17.9193C92.146 17.8136 91.6063 17.7343 91.1179 17.7079C88.5476 17.4171 86.0286 17.4171 83.4583 17.7079C66.0058 19.6901 52.8457 34.8078 52.8457 52.8857C52.8457 54.7622 53.2827 58.5416 53.3084 58.6209C53.9509 62.6646 55.2361 66.4969 57.1896 70.0649C57.6008 70.8049 58.2691 71.3599 59.0659 71.5978C59.8627 71.8357 60.7109 71.73 61.4306 71.3071C62.9214 70.4349 63.4612 68.4791 62.6387 66.9462C61.0194 63.9861 59.9655 60.7881 59.4514 57.4315C59.4514 57.3258 59.1173 54.3129 59.1173 52.9121C59.1173 38.1115 69.887 25.716 84.178 24.1038C86.3114 23.8659 88.3162 23.8659 90.501 24.1038C90.8866 24.1302 91.2978 24.1831 91.7862 24.2888C105.512 26.5618 115.485 38.5872 115.485 52.9121C115.485 63.8539 109.599 73.7386 100.114 78.7074C99.3686 79.1038 98.8289 79.7646 98.5718 80.5839C98.3148 81.4032 98.3919 82.2754 98.7518 83.0418C99.2915 84.1254 100.345 84.7862 101.528 84.7862C102.016 84.7862 102.504 84.654 102.941 84.4426C114.534 78.3902 121.73 66.3119 121.73 52.9121C121.73 35.4157 109.547 20.7208 92.7886 17.9457V17.9193Z" fill="#FFB71B"/>
<path d="M99.8305 49.0269C99.702 48.2869 99.2908 47.679 98.6739 47.2561C98.0827 46.8333 97.363 46.7011 96.6433 46.8333C95.1782 47.124 94.2272 48.604 94.51 50.1105C94.6642 50.9563 94.6899 51.802 94.5357 52.6742V52.7799C94.4586 53.1235 94.3814 53.4671 94.2786 53.8107C93.122 57.4051 89.5492 59.5195 85.9765 58.7266C85.4367 58.6209 84.9483 58.4359 84.4086 58.198C84.3315 58.1451 84.2287 58.1187 84.1515 58.0658C80.99 56.4008 79.525 52.6478 80.6302 49.1855C81.4784 46.5425 83.6632 44.6132 86.362 44.1903C87.0817 44.0846 87.6986 43.6881 88.1356 43.0803C88.5725 42.4724 88.7267 41.7323 88.6239 41.0187C88.4697 39.988 87.7757 39.1158 86.799 38.7987C86.3877 38.6665 85.9765 38.6401 85.5395 38.6929C80.8358 39.433 76.9803 42.7895 75.5152 47.4411C73.5618 53.52 76.1578 60.0745 81.684 63.0082C81.8897 63.1139 82.0696 63.2196 82.2238 63.2725C83.0977 63.6689 83.9459 63.9861 84.8712 64.1711C85.7451 64.3561 86.6191 64.4618 87.493 64.4618C92.8393 64.4618 97.6972 60.9467 99.445 55.555C99.6506 54.9207 99.8048 54.26 99.9076 53.6257C99.9076 53.5728 99.9076 53.5199 99.9076 53.4671C100.139 52.0135 100.113 50.5334 99.8305 49.0798V49.0269Z" fill="#FF9E18"/>
<path d="M29.1975 51.4056H15.8832C14.1868 51.4056 12.7988 52.8328 12.7988 54.5771C12.7988 56.2951 14.1611 57.6694 15.8061 57.6694H25.6505C24.3653 61.7924 20.5869 64.8054 16.1403 64.8054C16.1403 64.8054 16.1403 64.8054 16.1146 64.8054C14.2896 64.8054 12.7988 66.2326 12.7988 68.1091V68.1619C12.7988 69.7477 14.0069 71.0163 15.5491 71.0692C15.7547 71.0692 15.9603 71.0692 16.1403 71.0692C25.0079 71.0692 32.2048 63.6689 32.2305 54.5771C32.2305 52.8328 30.8682 51.4056 29.1718 51.4056H29.1975Z" fill="white"/>
<path d="M104.74 92.1865C104.74 90.4421 103.352 89.0413 101.656 89.0413C100.808 89.0413 100.011 89.3849 99.4197 89.9928C98.8285 90.6007 98.4944 91.4464 98.4944 92.3186L98.5458 98.6881C98.5458 98.6881 95.8983 95.7544 95.7441 95.5959C95.4614 95.3051 95.1529 95.0144 94.7417 94.5915C92.7368 92.6622 90.552 90.9443 88.2387 89.5435C87.5448 89.0942 86.7994 88.6449 86.054 88.2484C69.1412 78.9981 47.9617 83.2532 35.7012 98.3445C35.7012 98.3445 34.9815 99.2696 34.6731 99.666V86.742C34.6731 84.9712 33.2851 83.544 31.563 83.544H11.0004C8.37864 83.544 6.24527 81.3503 6.24527 78.6545V28.9668C6.24527 26.271 8.37864 24.1038 11.0261 24.1038L46.2139 24.0509C47.9103 24.0509 49.2983 22.6237 49.2983 20.8794C49.2983 20.0072 48.9641 19.2143 48.373 18.58C47.7818 17.9721 46.985 17.6285 46.1625 17.6285L22.0785 17.6814H11.0518C4.98581 17.6814 0.0507812 22.7559 0.0507812 28.9668V78.6545C0.0507812 84.8919 4.98581 89.9664 11.0518 89.9664H28.4786V105.269C28.4786 107.146 29.5839 108.864 31.2803 109.604C31.8714 109.868 32.4626 109.974 33.0795 109.974C34.2618 109.974 35.3928 109.498 36.241 108.652C36.3952 108.494 36.5237 108.335 36.6266 108.176L40.5849 102.362C50.969 89.6492 68.8585 86.0812 83.1495 93.8779C83.7664 94.2215 84.3575 94.5651 85.0001 94.988C86.9279 96.1773 88.7785 97.6045 90.4492 99.2167L94.8959 104C96.0011 105.19 97.4662 105.851 99.0598 105.851C100.011 105.851 100.988 105.586 101.861 105.111C103.712 104.08 104.869 101.992 104.843 99.7189L104.792 92.1865H104.74Z" fill="white"/>
<path d="M89.91 3.14512C89.91 1.40812 88.5464 0 86.8642 0C85.182 0 83.8184 1.40812 83.8184 3.14512V7.50601C83.8184 9.24301 85.182 10.6511 86.8642 10.6511C88.5464 10.6511 89.91 9.24301 89.91 7.50601V3.14512Z" fill="#FF9E18"/>
<path d="M135.25 47.9697H130.623C128.927 47.9697 127.564 49.3705 127.564 51.1149C127.564 52.8592 128.927 54.26 130.623 54.26H135.25C136.946 54.26 138.308 52.8592 138.308 51.1149C138.308 49.3705 136.946 47.9697 135.25 47.9697Z" fill="#FF9E18"/>
<path d="M120.728 17.7871L117.438 21.1701C116.255 22.3859 116.255 24.3945 117.438 25.6103C118.62 26.826 120.573 26.826 121.756 25.6103L125.046 22.2273C126.228 21.0115 126.228 19.0029 125.046 17.7871C123.863 16.5714 121.91 16.5714 120.728 17.7871Z" fill="#FF9E18"/>
<path d="M204.494 25.6631H210.303V53.2821H204.494V49.2912C202.309 52.4099 199.174 53.9957 195.087 53.9957C191.385 53.9957 188.25 52.5949 185.628 49.7669C183.006 46.939 181.695 43.5031 181.695 39.4594C181.695 35.4156 183.006 31.9269 185.628 29.1254C188.25 26.3239 191.385 24.9231 195.087 24.9231C199.174 24.9231 202.309 26.4824 204.494 29.5747V25.6631ZM189.946 45.8025C191.565 47.4675 193.57 48.3133 196.012 48.3133C198.454 48.3133 200.459 47.4675 202.078 45.8025C203.697 44.1374 204.494 42.023 204.494 39.4858C204.494 36.9486 203.697 34.8342 202.078 33.1691C200.459 31.5041 198.454 30.6583 196.012 30.6583C193.57 30.6583 191.565 31.5041 189.946 33.1691C188.327 34.8342 187.53 36.9486 187.53 39.4858C187.53 42.023 188.327 44.1374 189.946 45.8025Z" fill="white"/>
<path d="M218.426 53.3085V12.9769H224.235V53.3085H218.426Z" fill="white"/>
<path d="M278.701 25.6631H284.51V53.2821H278.701V49.2912C276.516 52.4099 273.381 53.9957 269.294 53.9957C265.592 53.9957 262.457 52.5949 259.835 49.7669C257.213 46.939 255.902 43.5031 255.902 39.4594C255.902 35.4156 257.213 31.9269 259.835 29.1254C262.457 26.3239 265.592 24.9231 269.294 24.9231C273.381 24.9231 276.516 26.4824 278.701 29.5747V25.6631ZM264.153 45.8025C265.772 47.4675 267.777 48.3133 270.219 48.3133C272.661 48.3133 274.666 47.4675 276.285 45.8025C277.904 44.1374 278.701 42.023 278.701 39.4858C278.701 36.9486 277.904 34.8342 276.285 33.1691C274.666 31.5041 272.661 30.6583 270.219 30.6583C267.777 30.6583 265.772 31.5041 264.153 33.1691C262.534 34.8342 261.737 36.9486 261.737 39.4858C261.737 42.023 262.534 44.1374 264.153 45.8025Z" fill="white"/>
<path d="M173.009 75.2979H166.351V88.5656C166.351 89.7021 166.608 90.5214 167.097 91.0236C167.585 91.5257 168.331 91.79 169.333 91.8429C170.31 91.8957 171.543 91.8957 173.009 91.8164V97.1817C168.562 97.7367 165.375 97.3402 163.447 95.9923C161.519 94.6444 160.542 92.16 160.542 88.5656V75.2979H155.607V69.5627H160.542V63.5896L166.351 61.8188V69.5627H173.009V75.2979Z" fill="white"/>
<path d="M197.993 69.5363H203.802V97.1552H197.993V93.6136C196.245 96.4416 193.469 97.8688 189.665 97.8688C186.58 97.8688 184.087 96.8645 182.185 94.8294C180.283 92.7943 179.332 90.0192 179.332 86.4776V69.5098H185.141V85.8698C185.141 87.9313 185.681 89.517 186.76 90.6271C187.84 91.7371 189.305 92.2921 191.156 92.2921C193.186 92.2921 194.857 91.6314 196.091 90.3364C197.35 89.0413 197.967 87.0327 197.967 84.3368V69.5363H197.993Z" fill="white"/>
<path d="M267.829 97.8953C263.896 97.8953 260.529 96.4945 257.779 93.6929C255.029 90.8914 253.641 87.4556 253.641 83.359C253.641 79.2624 255.029 75.8265 257.779 73.025C260.529 70.2235 263.896 68.8227 267.829 68.8227C271.761 68.8227 275.154 70.2235 277.905 73.025C280.655 75.8265 282.017 79.2624 282.017 83.359C282.017 87.4556 280.655 90.8914 277.905 93.6929C275.154 96.4945 271.813 97.8953 267.829 97.8953ZM261.866 89.5964C263.485 91.2614 265.464 92.0807 267.829 92.0807C270.194 92.0807 272.173 91.2614 273.792 89.5964C275.411 87.9313 276.208 85.8698 276.208 83.359C276.208 80.8482 275.411 78.7867 273.792 77.1216C272.173 75.4565 270.194 74.6372 267.829 74.6372C265.464 74.6372 263.485 75.4565 261.866 77.1216C260.246 78.7867 259.45 80.8482 259.45 83.359C259.45 85.8698 260.246 87.9313 261.866 89.5964Z" fill="white"/>
<path d="M293.942 91.5257H306.999V97.1552H286.051V93.1643L298.62 75.1658H286.591V69.5363H306.459V73.5007L293.942 91.5257Z" fill="white"/>
<path d="M242.151 95.8866C243.128 94.5651 243.745 93.0058 244.336 91.4993C244.542 90.9707 244.747 90.4421 244.979 89.9399L247.652 83.7026C249.914 78.4431 251.918 73.7122 253.769 68.8756C254.309 67.5012 253.152 66.1797 251.841 65.5719C250.633 64.9904 248.551 64.8318 247.934 66.0476C245.595 70.6463 243.488 75.1922 241.174 80.2667L238.013 87.1913C237.833 87.5877 237.062 89.2792 237.062 89.2792C237.062 89.2792 236.368 84.5483 236.239 82.5925C236.06 80.2667 236.111 77.8881 236.137 75.6151C236.162 73.3686 236.496 71.0956 236.162 68.8227C236.059 68.0298 234.954 67.3691 233.952 67.1841C233.849 67.1841 232.924 66.814 232.59 67.7127C231.047 71.7828 230.636 76.3816 230.482 80.161C230.379 82.3282 230.405 84.5219 230.482 86.6891C230.482 86.9798 230.508 87.297 230.533 87.5877C230.61 89.3321 230.688 91.1293 231.124 92.8208C231.51 94.2744 232.615 96.8909 235.725 97.8953C238.27 98.7146 240.635 98.001 242.177 95.913L242.151 95.8866Z" fill="#FF9E18"/>
<path d="M236.032 50.3484C242.355 52.4892 249.038 53.7842 254.847 53.9692C256.004 53.9957 256.98 53.6521 257.469 53.0178C257.803 52.5949 257.906 52.0663 257.777 51.4849C257.417 49.9255 255.567 48.5512 253.459 48.2869C252.894 48.2076 252.328 48.1547 251.763 48.1019C249.141 47.8111 246.442 47.494 243.82 46.939C242.304 46.6218 240.839 46.2518 239.399 45.8553C238.5 45.6175 237.677 45.3532 236.881 45.0889C236.752 45.036 236.084 44.7453 236.084 44.7453C236.084 44.7453 237.035 43.7146 237.189 43.6088C238.191 42.8159 239.374 42.2345 240.53 41.6266C242.947 40.4109 245.414 39.5122 248.01 38.5608L249.012 38.1908C251.172 37.3979 253.716 35.8914 253.69 33.1956C253.69 31.2926 252.045 28.914 248.447 27.8304C245.44 26.9318 241.867 26.9846 239.014 27.011C235.338 27.0639 231.894 27.4603 228.758 28.2268C227.859 28.4382 227.422 28.8875 227.525 29.4954C227.679 30.4997 229.221 31.6891 230.686 31.5834C235.056 31.2662 238.448 31.2398 241.636 31.4776H241.661C243.152 31.5834 246.365 32.0327 246.365 32.0327C246.365 32.0327 244.566 32.9313 243.692 33.1956C243.461 33.2749 243.229 33.3277 242.998 33.407C241.353 33.9356 239.939 34.4642 238.603 35.0192C236.032 36.0764 233.102 37.3714 230.969 39.0365C228.655 40.8337 227.859 43.186 228.861 45.3003C230.172 48.049 233.539 49.4762 235.955 50.2955L236.032 50.3484Z" fill="white"/>
</svg>
