<svg width="55" height="55" viewBox="0 0 55 55" fill="none" xmlns="http://www.w3.org/2000/svg">
<path d="M27.5 0C12.3145 0 0 12.3145 0 27.5C0 42.6855 12.3145 55 27.5 55C42.6855 55 55 42.6855 55 27.5C55 12.3145 42.6855 0 27.5 0ZM41.2962 21.041V24.7646C39.5404 24.7653 37.8344 24.4212 36.2255 23.7424C35.1909 23.3056 34.227 22.7428 33.3454 22.0627L33.3718 33.5239C33.3607 36.1047 32.3397 38.5295 30.4917 40.356C28.9878 41.8428 27.0821 42.7882 25.0166 43.0942C24.5313 43.1661 24.0374 43.2029 23.5379 43.2029C21.3268 43.2029 19.2277 42.4866 17.5105 41.1651C17.1874 40.9163 16.8783 40.6466 16.5841 40.356C14.5813 38.3766 13.5486 35.6938 13.7225 32.8715C13.8552 30.7232 14.7153 28.6743 16.1492 27.0685C18.0462 24.9435 20.7002 23.764 23.5379 23.764C24.0374 23.764 24.5313 23.8015 25.0166 23.8733V25.25V29.0799C24.5564 28.9281 24.065 28.8446 23.5532 28.8446C20.9607 28.8446 18.8633 30.9597 18.9021 33.5542C18.9267 35.2142 19.8334 36.6652 21.1708 37.4651C21.7993 37.8411 22.5224 38.074 23.294 38.1163C23.8986 38.1495 24.4791 38.0653 25.0166 37.8878C26.8689 37.2759 28.2051 35.5361 28.2051 33.4841L28.2112 25.8092V11.7971H33.3391C33.3441 12.3052 33.3956 12.8009 33.4915 13.2813C33.8785 15.2258 34.9745 16.9127 36.4999 18.0628C37.83 19.066 39.4862 19.6607 41.2814 19.6607C41.2825 19.6607 41.2974 19.6607 41.2961 19.6595L41.2962 21.041Z" fill="white"/>
</svg>
